%TF.GenerationSoftware,KiCad,Pcbnew,9.0.7-1.fc43*%
%TF.CreationDate,2026-01-31T17:59:12-08:00*%
%TF.ProjectId,watch,77617463-682e-46b6-9963-61645f706362,rev?*%
%TF.SameCoordinates,Original*%
%TF.FileFunction,Copper,L2,Inr*%
%TF.FilePolarity,Positive*%
%FSLAX46Y46*%
G04 Gerber Fmt 4.6, Leading zero omitted, Abs format (unit mm)*
G04 Created by KiCad (PCBNEW 9.0.7-1.fc43) date 2026-01-31 17:59:12*
%MOMM*%
%LPD*%
G01*
G04 APERTURE LIST*
G04 Aperture macros list*
%AMFreePoly0*
4,1,17,0.675000,0.300000,0.260846,0.300000,0.317341,0.243505,0.369552,0.153073,0.396578,0.052210,0.396578,-0.052210,0.369552,-0.153073,0.317341,-0.243505,0.243505,-0.317341,0.153073,-0.369552,0.052210,-0.396578,0.000000,-0.396578,0.000000,-0.400000,-0.475000,-0.400000,-0.475000,0.950000,0.675000,0.950000,0.675000,0.300000,0.675000,0.300000,$1*%
%AMFreePoly1*
4,1,17,0.475000,-0.400000,0.000000,-0.400000,0.000000,-0.396578,-0.052210,-0.396578,-0.153073,-0.369552,-0.243505,-0.317341,-0.317341,-0.243505,-0.369552,-0.153073,-0.396578,-0.052210,-0.396578,0.052210,-0.369552,0.153073,-0.317341,0.243505,-0.260846,0.300000,-0.675000,0.300000,-0.675000,0.950000,0.475000,0.950000,0.475000,-0.400000,0.475000,-0.400000,$1*%
G04 Aperture macros list end*
%TA.AperFunction,ComponentPad*%
%ADD10R,1.000000X1.000000*%
%TD*%
%TA.AperFunction,ComponentPad*%
%ADD11C,1.000000*%
%TD*%
%TA.AperFunction,ComponentPad*%
%ADD12FreePoly0,255.000000*%
%TD*%
%TA.AperFunction,ComponentPad*%
%ADD13FreePoly1,255.000000*%
%TD*%
%TA.AperFunction,ComponentPad*%
%ADD14O,1.100000X1.600000*%
%TD*%
%TA.AperFunction,ComponentPad*%
%ADD15FreePoly0,285.000000*%
%TD*%
%TA.AperFunction,ComponentPad*%
%ADD16FreePoly1,285.000000*%
%TD*%
%TA.AperFunction,ViaPad*%
%ADD17C,0.450000*%
%TD*%
G04 APERTURE END LIST*
D10*
%TO.N,/Power/VBAT*%
%TO.C,BT1*%
X144400000Y-85232500D03*
D11*
%TO.N,GND*%
X143130000Y-85232500D03*
%TD*%
D12*
%TO.N,N/C*%
%TO.C,SW2*%
X167762715Y-102869713D03*
D13*
X166818026Y-106395342D03*
%TD*%
D14*
%TO.N,GND*%
%TO.C,J1*%
X137200000Y-97450000D03*
X137200000Y-102550000D03*
%TD*%
D15*
%TO.N,N/C*%
%TO.C,SW1*%
X166818026Y-93604658D03*
D16*
X167762715Y-97130287D03*
%TD*%
D17*
%TO.N,/USB_D_P*%
X139400000Y-99348400D03*
%TO.N,/USB_D_N*%
X139400000Y-100001600D03*
%TO.N,/SoC/NRST*%
X150250000Y-112750000D03*
X137400000Y-108800000D03*
%TO.N,/Sensors/ACC_INT*%
X145150000Y-109450000D03*
X153750000Y-94350000D03*
%TO.N,/Power/~{BAT_ALRT}*%
X153100000Y-85700000D03*
X145600000Y-108950000D03*
%TO.N,/Power/BAT_ERR*%
X145550000Y-107950000D03*
X141500000Y-87000000D03*
%TO.N,/Power/BAT_CHG*%
X142500000Y-87000000D03*
X145150000Y-108450000D03*
%TO.N,/BTN1*%
X164800000Y-102900000D03*
X153100000Y-112800000D03*
%TO.N,/BTN0*%
X164002500Y-95600000D03*
X152250000Y-112800000D03*
%TO.N,/SDA*%
X154400000Y-90200000D03*
X145150000Y-110450000D03*
X153500000Y-98200000D03*
X152250000Y-91750000D03*
%TO.N,/SCL*%
X145600000Y-109950000D03*
X153750000Y-88000000D03*
X153000000Y-98800000D03*
%TO.N,/USB_D_P*%
X144186736Y-105100000D03*
%TO.N,/USB_D_N*%
X143500000Y-104900000D03*
%TO.N,/Power/VSYS*%
X138800000Y-90800000D03*
X144700000Y-90800000D03*
X142000000Y-87600000D03*
X145000000Y-91300000D03*
X144700000Y-89800000D03*
%TO.N,VDD*%
X143850000Y-107850000D03*
X151200000Y-93800000D03*
X146700000Y-102700000D03*
X137400000Y-107500000D03*
X155300000Y-90300000D03*
X146400000Y-88000000D03*
X158000000Y-107600000D03*
X152350000Y-115952500D03*
X163300000Y-108500000D03*
X153500000Y-99400000D03*
X154600000Y-104200000D03*
X157500000Y-99000000D03*
X162800000Y-93300000D03*
X146400000Y-93700000D03*
X141800000Y-109950000D03*
X157700000Y-92800000D03*
X144800000Y-113300000D03*
X155100000Y-102500000D03*
X158000000Y-104900000D03*
%TO.N,GND*%
X158200000Y-99000000D03*
X154700000Y-111100000D03*
X150600000Y-107600000D03*
X165900000Y-107000000D03*
X142200000Y-96700000D03*
X146700000Y-117300000D03*
X143000000Y-87600000D03*
X142400000Y-107100000D03*
X139000000Y-101300000D03*
X142250000Y-91000000D03*
X151400000Y-86000000D03*
X137400000Y-110100000D03*
X144400000Y-93300000D03*
X154600000Y-113600000D03*
X158000000Y-106100000D03*
X141250000Y-91000000D03*
X149400000Y-107600000D03*
X141250000Y-90000000D03*
X143600000Y-113300000D03*
X153200000Y-84900000D03*
X148900000Y-83400000D03*
X150200000Y-92700000D03*
X137000000Y-94700000D03*
X142250000Y-90000000D03*
X156600000Y-89500000D03*
X147000000Y-98600000D03*
X157500000Y-102400000D03*
X160000000Y-91500000D03*
X145000000Y-89000000D03*
X153200000Y-103600000D03*
X149400000Y-108800000D03*
X146200000Y-101600000D03*
X149900000Y-115900000D03*
X158000000Y-108800000D03*
X150600000Y-108800000D03*
X166400000Y-98500000D03*
X152500000Y-90600000D03*
X155200000Y-101100000D03*
X140500000Y-93400000D03*
%TO.N,/Power/VBAT*%
X138400000Y-90300000D03*
%TD*%
%TA.AperFunction,Conductor*%
%TO.N,GND*%
G36*
X150482751Y-80830859D02*
G01*
X150486108Y-80830945D01*
X151353284Y-80872596D01*
X151356656Y-80872834D01*
X152221044Y-80953848D01*
X152224439Y-80954244D01*
X153084262Y-81074453D01*
X153087572Y-81074992D01*
X153941061Y-81234153D01*
X153944385Y-81234851D01*
X154524009Y-81370457D01*
X154789719Y-81432621D01*
X154793031Y-81433475D01*
X155628517Y-81669458D01*
X155631745Y-81670449D01*
X156455674Y-81944162D01*
X156458828Y-81945290D01*
X157269460Y-82256158D01*
X157272593Y-82257442D01*
X158068250Y-82604819D01*
X158071329Y-82606248D01*
X158850365Y-82989416D01*
X158853381Y-82990985D01*
X159563447Y-83381260D01*
X159614203Y-83409157D01*
X159617154Y-83410867D01*
X160358195Y-83863186D01*
X160361051Y-83865020D01*
X160694786Y-84090158D01*
X161080739Y-84350522D01*
X161083529Y-84352497D01*
X161780456Y-84870234D01*
X161783152Y-84872335D01*
X162070819Y-85107055D01*
X162357954Y-85341342D01*
X162455770Y-85421154D01*
X162458369Y-85423374D01*
X163105390Y-86002225D01*
X163107885Y-86004561D01*
X163686897Y-86571999D01*
X163727941Y-86612222D01*
X163730323Y-86614666D01*
X163790745Y-86679520D01*
X164322099Y-87249847D01*
X164324372Y-87252400D01*
X164828950Y-87845917D01*
X164886697Y-87913842D01*
X164888844Y-87916488D01*
X164932784Y-87973206D01*
X165420529Y-88602797D01*
X165422560Y-88605546D01*
X165922499Y-89315292D01*
X165924383Y-89318099D01*
X166389056Y-90045917D01*
X166391570Y-90049854D01*
X166393343Y-90052776D01*
X166826789Y-90804994D01*
X166828428Y-90807994D01*
X167188432Y-91504087D01*
X167227246Y-91579135D01*
X167228740Y-91582194D01*
X167330371Y-91802724D01*
X167592094Y-92370639D01*
X167593454Y-92373775D01*
X167704296Y-92646225D01*
X167706215Y-92697629D01*
X167674644Y-92738240D01*
X167634641Y-92749763D01*
X167572470Y-92749763D01*
X166944618Y-92917997D01*
X166268469Y-93099170D01*
X166198761Y-93139416D01*
X166158516Y-93209124D01*
X166158516Y-93209125D01*
X166158516Y-93289617D01*
X166267824Y-93697564D01*
X166267824Y-93697565D01*
X166295083Y-93799298D01*
X166295084Y-93799302D01*
X166295086Y-93799307D01*
X166310618Y-93836802D01*
X166363281Y-93928017D01*
X166387987Y-93960214D01*
X166388003Y-93960232D01*
X166462451Y-94034680D01*
X166462460Y-94034688D01*
X166462465Y-94034693D01*
X166494670Y-94059405D01*
X166585882Y-94112066D01*
X166623386Y-94127601D01*
X166725119Y-94154860D01*
X166765365Y-94160158D01*
X166765368Y-94160158D01*
X166870684Y-94160158D01*
X166870687Y-94160158D01*
X166910933Y-94154860D01*
X167012666Y-94127601D01*
X167019020Y-94124968D01*
X167070408Y-94122720D01*
X167111222Y-94154030D01*
X167120440Y-94174978D01*
X167132304Y-94219253D01*
X167132306Y-94219260D01*
X167172552Y-94288967D01*
X167242260Y-94329213D01*
X167242261Y-94329213D01*
X167322750Y-94329213D01*
X167322753Y-94329213D01*
X167950604Y-94160981D01*
X168020313Y-94120735D01*
X168060559Y-94051026D01*
X168060559Y-94009031D01*
X168065195Y-93996291D01*
X168065306Y-93982737D01*
X168073717Y-93972875D01*
X168078152Y-93960693D01*
X168089893Y-93953914D01*
X168098690Y-93943602D01*
X168111473Y-93941455D01*
X168122701Y-93934973D01*
X168136051Y-93937327D01*
X168149420Y-93935082D01*
X168160593Y-93941654D01*
X168173359Y-93943906D01*
X168182072Y-93954290D01*
X168193757Y-93961164D01*
X168206056Y-93982873D01*
X168206424Y-93983311D01*
X168206631Y-93983887D01*
X168212107Y-93999322D01*
X168213176Y-94002569D01*
X168465965Y-94833080D01*
X168466886Y-94836371D01*
X168681684Y-95677545D01*
X168682454Y-95680875D01*
X168767996Y-96093207D01*
X168760589Y-96144111D01*
X168722194Y-96178344D01*
X168670777Y-96179888D01*
X168630397Y-96148021D01*
X168629239Y-96146082D01*
X168615597Y-96122453D01*
X168545889Y-96082208D01*
X168545888Y-96082208D01*
X168465396Y-96082208D01*
X168106611Y-96178344D01*
X167837542Y-96250440D01*
X167767834Y-96290686D01*
X167727589Y-96360394D01*
X167727589Y-96360395D01*
X167727589Y-96440887D01*
X167739454Y-96485167D01*
X167734970Y-96536412D01*
X167698596Y-96572785D01*
X167676635Y-96579186D01*
X167669814Y-96580084D01*
X167669809Y-96580084D01*
X167669808Y-96580085D01*
X167669806Y-96580085D01*
X167669803Y-96580086D01*
X167617454Y-96594112D01*
X167568075Y-96607344D01*
X167568072Y-96607344D01*
X167568065Y-96607347D01*
X167530570Y-96622879D01*
X167439355Y-96675542D01*
X167407158Y-96700248D01*
X167407140Y-96700264D01*
X167332692Y-96774712D01*
X167332676Y-96774730D01*
X167307970Y-96806927D01*
X167255307Y-96898142D01*
X167239775Y-96935637D01*
X167212514Y-97037375D01*
X167212513Y-97037377D01*
X167212513Y-97037380D01*
X167207215Y-97077626D01*
X167207215Y-97182948D01*
X167212514Y-97223195D01*
X167222165Y-97259214D01*
X167226144Y-97274061D01*
X167226144Y-97274062D01*
X167349083Y-97732876D01*
X167389329Y-97802584D01*
X167459037Y-97842830D01*
X167459038Y-97842830D01*
X167539527Y-97842830D01*
X167539530Y-97842830D01*
X168215678Y-97661657D01*
X168843530Y-97493425D01*
X168899155Y-97461309D01*
X168949813Y-97452377D01*
X168994361Y-97478097D01*
X169011470Y-97517908D01*
X169095872Y-98257416D01*
X169096182Y-98260819D01*
X169155330Y-99126933D01*
X169155486Y-99130348D01*
X169175217Y-99998291D01*
X169175217Y-100001709D01*
X169155486Y-100869651D01*
X169155330Y-100873066D01*
X169096182Y-101739180D01*
X169095872Y-101742583D01*
X169011470Y-102482091D01*
X168988509Y-102528122D01*
X168941331Y-102548625D01*
X168899156Y-102538689D01*
X168843533Y-102506576D01*
X168843530Y-102506575D01*
X168215678Y-102338343D01*
X167539530Y-102157170D01*
X167539527Y-102157169D01*
X167539524Y-102157169D01*
X167459038Y-102157169D01*
X167389328Y-102197415D01*
X167349086Y-102267116D01*
X167349083Y-102267124D01*
X167245262Y-102654588D01*
X167239773Y-102675072D01*
X167239772Y-102675073D01*
X167239256Y-102677000D01*
X167212514Y-102776801D01*
X167212513Y-102776803D01*
X167212513Y-102776806D01*
X167207215Y-102817052D01*
X167207215Y-102922374D01*
X167210313Y-102945911D01*
X167212513Y-102962622D01*
X167212514Y-102962624D01*
X167239772Y-103064353D01*
X167239773Y-103064357D01*
X167239775Y-103064362D01*
X167254745Y-103100500D01*
X167255307Y-103101857D01*
X167280741Y-103145911D01*
X167307970Y-103193072D01*
X167332676Y-103225269D01*
X167332692Y-103225287D01*
X167407140Y-103299735D01*
X167407149Y-103299743D01*
X167407154Y-103299748D01*
X167439359Y-103324460D01*
X167530571Y-103377121D01*
X167568075Y-103392656D01*
X167669808Y-103419915D01*
X167676628Y-103420812D01*
X167722256Y-103444561D01*
X167741944Y-103492084D01*
X167739454Y-103514831D01*
X167727589Y-103559114D01*
X167727589Y-103639605D01*
X167727588Y-103639605D01*
X167767834Y-103709313D01*
X167767835Y-103709314D01*
X167837544Y-103749560D01*
X168465396Y-103917792D01*
X168465399Y-103917792D01*
X168545888Y-103917792D01*
X168568784Y-103904573D01*
X168615597Y-103877546D01*
X168629240Y-103853915D01*
X168668642Y-103820852D01*
X168720082Y-103820851D01*
X168759488Y-103853915D01*
X168768422Y-103904573D01*
X168767996Y-103906792D01*
X168682454Y-104319124D01*
X168681684Y-104322454D01*
X168466886Y-105163628D01*
X168465965Y-105166919D01*
X168213176Y-105997430D01*
X168212107Y-106000677D01*
X168206631Y-106016112D01*
X168173888Y-106055785D01*
X168123304Y-106065129D01*
X168078548Y-106039773D01*
X168060561Y-105991580D01*
X168060559Y-105990968D01*
X168060559Y-105948973D01*
X168020313Y-105879265D01*
X167950605Y-105839019D01*
X167733100Y-105780739D01*
X167322753Y-105670787D01*
X167322750Y-105670786D01*
X167322747Y-105670786D01*
X167242261Y-105670786D01*
X167172551Y-105711032D01*
X167132306Y-105780739D01*
X167132303Y-105780746D01*
X167120440Y-105825021D01*
X167090935Y-105867158D01*
X167041248Y-105880471D01*
X167019025Y-105875032D01*
X167012678Y-105872403D01*
X167012671Y-105872401D01*
X167012666Y-105872399D01*
X166910937Y-105845141D01*
X166910935Y-105845140D01*
X166894834Y-105843020D01*
X166870687Y-105839842D01*
X166765365Y-105839842D01*
X166745242Y-105842491D01*
X166725116Y-105845140D01*
X166725114Y-105845141D01*
X166672765Y-105859167D01*
X166623386Y-105872399D01*
X166623383Y-105872399D01*
X166623376Y-105872402D01*
X166585881Y-105887934D01*
X166494666Y-105940597D01*
X166462469Y-105965303D01*
X166462451Y-105965319D01*
X166388003Y-106039767D01*
X166387987Y-106039785D01*
X166363281Y-106071982D01*
X166310617Y-106163199D01*
X166295082Y-106200703D01*
X166295081Y-106200707D01*
X166281454Y-106251568D01*
X166281454Y-106251569D01*
X166158516Y-106710383D01*
X166158516Y-106710385D01*
X166158516Y-106790875D01*
X166158515Y-106790875D01*
X166186474Y-106839301D01*
X166198762Y-106860584D01*
X166224276Y-106875314D01*
X166268468Y-106900829D01*
X166268470Y-106900829D01*
X166268471Y-106900830D01*
X166944618Y-107082002D01*
X166944618Y-107082003D01*
X167572469Y-107250236D01*
X167572472Y-107250236D01*
X167634641Y-107250236D01*
X167682979Y-107267829D01*
X167708699Y-107312378D01*
X167704297Y-107353772D01*
X167638495Y-107515513D01*
X167593454Y-107626225D01*
X167592094Y-107629360D01*
X167228746Y-108417793D01*
X167227246Y-108420864D01*
X166828428Y-109192005D01*
X166826789Y-109195005D01*
X166393343Y-109947223D01*
X166391570Y-109950145D01*
X166234658Y-110195917D01*
X165926185Y-110679080D01*
X165924404Y-110681869D01*
X165922499Y-110684707D01*
X165422560Y-111394453D01*
X165420529Y-111397202D01*
X164888851Y-112083503D01*
X164886697Y-112086157D01*
X164324372Y-112747599D01*
X164322099Y-112750152D01*
X163730327Y-113385329D01*
X163727941Y-113387777D01*
X163107885Y-113995438D01*
X163105390Y-113997774D01*
X162458369Y-114576625D01*
X162455770Y-114578845D01*
X161783152Y-115127664D01*
X161780456Y-115129765D01*
X161083529Y-115647502D01*
X161080739Y-115649477D01*
X160361061Y-116134972D01*
X160358185Y-116136819D01*
X159617160Y-116589128D01*
X159614203Y-116590842D01*
X158853397Y-117009006D01*
X158850365Y-117010583D01*
X158071329Y-117393751D01*
X158068228Y-117395190D01*
X157272608Y-117742551D01*
X157269445Y-117743847D01*
X156458860Y-118054697D01*
X156455642Y-118055848D01*
X155631765Y-118329543D01*
X155628497Y-118330547D01*
X154793028Y-118566524D01*
X154789719Y-118567378D01*
X153944395Y-118765145D01*
X153941050Y-118765848D01*
X153087604Y-118925001D01*
X153084230Y-118925551D01*
X152224439Y-119045755D01*
X152221044Y-119046151D01*
X151356674Y-119127163D01*
X151353265Y-119127404D01*
X150486138Y-119169053D01*
X150482721Y-119169140D01*
X149614559Y-119171342D01*
X149611141Y-119171273D01*
X148743792Y-119134024D01*
X148740382Y-119133800D01*
X147875614Y-119057175D01*
X147872217Y-119056796D01*
X147011827Y-118940954D01*
X147008451Y-118940421D01*
X146154215Y-118785603D01*
X146150866Y-118784917D01*
X145304536Y-118591438D01*
X145301222Y-118590600D01*
X144464581Y-118358869D01*
X144461309Y-118357882D01*
X143636073Y-118088376D01*
X143632848Y-118087242D01*
X142820670Y-117780500D01*
X142817501Y-117779220D01*
X142020118Y-117435895D01*
X142017010Y-117434472D01*
X141236065Y-117055274D01*
X141233025Y-117053712D01*
X140470100Y-116639410D01*
X140467134Y-116637711D01*
X139723824Y-116189168D01*
X139720939Y-116187336D01*
X139376330Y-115957398D01*
X139289967Y-115899773D01*
X151949500Y-115899773D01*
X151949500Y-116005227D01*
X151969969Y-116081622D01*
X151976793Y-116107088D01*
X152029519Y-116198411D01*
X152029523Y-116198417D01*
X152104082Y-116272976D01*
X152104085Y-116272978D01*
X152104087Y-116272980D01*
X152195413Y-116325707D01*
X152297273Y-116353000D01*
X152297276Y-116353000D01*
X152402724Y-116353000D01*
X152402727Y-116353000D01*
X152504587Y-116325707D01*
X152595913Y-116272980D01*
X152670480Y-116198413D01*
X152723207Y-116107087D01*
X152750500Y-116005227D01*
X152750500Y-115899773D01*
X152723207Y-115797913D01*
X152670480Y-115706587D01*
X152670478Y-115706585D01*
X152670476Y-115706582D01*
X152595917Y-115632023D01*
X152595911Y-115632019D01*
X152504588Y-115579293D01*
X152479122Y-115572469D01*
X152402727Y-115552000D01*
X152297273Y-115552000D01*
X152236157Y-115568375D01*
X152195411Y-115579293D01*
X152104088Y-115632019D01*
X152104082Y-115632023D01*
X152029523Y-115706582D01*
X152029519Y-115706588D01*
X151976793Y-115797911D01*
X151963146Y-115848843D01*
X151949500Y-115899773D01*
X139289967Y-115899773D01*
X138998786Y-115705484D01*
X138995986Y-115703522D01*
X138296475Y-115189353D01*
X138293768Y-115187267D01*
X138221317Y-115128761D01*
X137618349Y-114641846D01*
X137615743Y-114639643D01*
X136965792Y-114064082D01*
X136963285Y-114061758D01*
X136897330Y-113997774D01*
X136340154Y-113457250D01*
X136337778Y-113454838D01*
X136142420Y-113247273D01*
X144399500Y-113247273D01*
X144399500Y-113352727D01*
X144408236Y-113385329D01*
X144426793Y-113454588D01*
X144479519Y-113545911D01*
X144479523Y-113545917D01*
X144554082Y-113620476D01*
X144554085Y-113620478D01*
X144554087Y-113620480D01*
X144645413Y-113673207D01*
X144747273Y-113700500D01*
X144747276Y-113700500D01*
X144852724Y-113700500D01*
X144852727Y-113700500D01*
X144954587Y-113673207D01*
X145045913Y-113620480D01*
X145120480Y-113545913D01*
X145173207Y-113454587D01*
X145200500Y-113352727D01*
X145200500Y-113247273D01*
X145173207Y-113145413D01*
X145120480Y-113054087D01*
X145120478Y-113054085D01*
X145120476Y-113054082D01*
X145045917Y-112979523D01*
X145045911Y-112979519D01*
X144954588Y-112926793D01*
X144929122Y-112919969D01*
X144852727Y-112899500D01*
X144747273Y-112899500D01*
X144686157Y-112915875D01*
X144645411Y-112926793D01*
X144554088Y-112979519D01*
X144554082Y-112979523D01*
X144479523Y-113054082D01*
X144479519Y-113054088D01*
X144426793Y-113145411D01*
X144413146Y-113196343D01*
X144399500Y-113247273D01*
X136142420Y-113247273D01*
X135742754Y-112822634D01*
X135740498Y-112820125D01*
X135634977Y-112697273D01*
X149849500Y-112697273D01*
X149849500Y-112802727D01*
X149869969Y-112879122D01*
X149876793Y-112904588D01*
X149929519Y-112995911D01*
X149929523Y-112995917D01*
X150004082Y-113070476D01*
X150004085Y-113070478D01*
X150004087Y-113070480D01*
X150076112Y-113112063D01*
X150090689Y-113120480D01*
X150095413Y-113123207D01*
X150197273Y-113150500D01*
X150197276Y-113150500D01*
X150302724Y-113150500D01*
X150302727Y-113150500D01*
X150404587Y-113123207D01*
X150495913Y-113070480D01*
X150570480Y-112995913D01*
X150623207Y-112904587D01*
X150650500Y-112802727D01*
X150650500Y-112747273D01*
X151849500Y-112747273D01*
X151849500Y-112852727D01*
X151862033Y-112899500D01*
X151876793Y-112954588D01*
X151929519Y-113045911D01*
X151929523Y-113045917D01*
X152004082Y-113120476D01*
X152004085Y-113120478D01*
X152004087Y-113120480D01*
X152095413Y-113173207D01*
X152197273Y-113200500D01*
X152197276Y-113200500D01*
X152302724Y-113200500D01*
X152302727Y-113200500D01*
X152404587Y-113173207D01*
X152495913Y-113120480D01*
X152570480Y-113045913D01*
X152609875Y-112977679D01*
X152649280Y-112944614D01*
X152700720Y-112944614D01*
X152740125Y-112977679D01*
X152779519Y-113045911D01*
X152779523Y-113045917D01*
X152854082Y-113120476D01*
X152854085Y-113120478D01*
X152854087Y-113120480D01*
X152945413Y-113173207D01*
X153047273Y-113200500D01*
X153047276Y-113200500D01*
X153152724Y-113200500D01*
X153152727Y-113200500D01*
X153254587Y-113173207D01*
X153345913Y-113120480D01*
X153420480Y-113045913D01*
X153473207Y-112954587D01*
X153500500Y-112852727D01*
X153500500Y-112747273D01*
X153473207Y-112645413D01*
X153420480Y-112554087D01*
X153420478Y-112554085D01*
X153420476Y-112554082D01*
X153345917Y-112479523D01*
X153345911Y-112479519D01*
X153254588Y-112426793D01*
X153229122Y-112419969D01*
X153152727Y-112399500D01*
X153047273Y-112399500D01*
X152986157Y-112415875D01*
X152945411Y-112426793D01*
X152854088Y-112479519D01*
X152854082Y-112479523D01*
X152779523Y-112554082D01*
X152779518Y-112554088D01*
X152740125Y-112622320D01*
X152700720Y-112655385D01*
X152649280Y-112655385D01*
X152609875Y-112622320D01*
X152570481Y-112554088D01*
X152570476Y-112554082D01*
X152495917Y-112479523D01*
X152495911Y-112479519D01*
X152404588Y-112426793D01*
X152379122Y-112419969D01*
X152302727Y-112399500D01*
X152197273Y-112399500D01*
X152136157Y-112415875D01*
X152095411Y-112426793D01*
X152004088Y-112479519D01*
X152004082Y-112479523D01*
X151929523Y-112554082D01*
X151929519Y-112554088D01*
X151876793Y-112645411D01*
X151874121Y-112655385D01*
X151849500Y-112747273D01*
X150650500Y-112747273D01*
X150650500Y-112697273D01*
X150623207Y-112595413D01*
X150570480Y-112504087D01*
X150570478Y-112504085D01*
X150570476Y-112504082D01*
X150495917Y-112429523D01*
X150495911Y-112429519D01*
X150491189Y-112426793D01*
X150443917Y-112399500D01*
X150404588Y-112376793D01*
X150379122Y-112369969D01*
X150302727Y-112349500D01*
X150197273Y-112349500D01*
X150136157Y-112365875D01*
X150095411Y-112376793D01*
X150004088Y-112429519D01*
X150004082Y-112429523D01*
X149929523Y-112504082D01*
X149929519Y-112504088D01*
X149876793Y-112595411D01*
X149869583Y-112622320D01*
X149849500Y-112697273D01*
X135634977Y-112697273D01*
X135174801Y-112161515D01*
X135172644Y-112158884D01*
X135114693Y-112084859D01*
X134637506Y-111475310D01*
X134635466Y-111472579D01*
X134581797Y-111397202D01*
X134488767Y-111266544D01*
X137238200Y-111266544D01*
X137238200Y-111413455D01*
X137266860Y-111557544D01*
X137266861Y-111557545D01*
X137323080Y-111693269D01*
X137404699Y-111815420D01*
X137404701Y-111815422D01*
X137404703Y-111815425D01*
X137508574Y-111919296D01*
X137508577Y-111919298D01*
X137508580Y-111919301D01*
X137630731Y-112000920D01*
X137766454Y-112057138D01*
X137766455Y-112057139D01*
X137766456Y-112057139D01*
X137766458Y-112057140D01*
X137862949Y-112076332D01*
X137910544Y-112085800D01*
X137910545Y-112085800D01*
X138057456Y-112085800D01*
X138093232Y-112078683D01*
X138201542Y-112057140D01*
X138337269Y-112000920D01*
X138459420Y-111919301D01*
X138563301Y-111815420D01*
X138644920Y-111693269D01*
X138701140Y-111557542D01*
X138729800Y-111413455D01*
X138729800Y-111266545D01*
X138729800Y-111266544D01*
X139270200Y-111266544D01*
X139270200Y-111413455D01*
X139298860Y-111557544D01*
X139298861Y-111557545D01*
X139355080Y-111693269D01*
X139436699Y-111815420D01*
X139436701Y-111815422D01*
X139436703Y-111815425D01*
X139540574Y-111919296D01*
X139540577Y-111919298D01*
X139540580Y-111919301D01*
X139662731Y-112000920D01*
X139798454Y-112057138D01*
X139798455Y-112057139D01*
X139798456Y-112057139D01*
X139798458Y-112057140D01*
X139894949Y-112076332D01*
X139942544Y-112085800D01*
X139942545Y-112085800D01*
X140089456Y-112085800D01*
X140125232Y-112078683D01*
X140233542Y-112057140D01*
X140369269Y-112000920D01*
X140491420Y-111919301D01*
X140595301Y-111815420D01*
X140676920Y-111693269D01*
X140733140Y-111557542D01*
X140761800Y-111413455D01*
X140761800Y-111266545D01*
X140733140Y-111122458D01*
X140676920Y-110986731D01*
X140595301Y-110864580D01*
X140595298Y-110864577D01*
X140595296Y-110864574D01*
X140491425Y-110760703D01*
X140491422Y-110760701D01*
X140491420Y-110760699D01*
X140369269Y-110679080D01*
X140313093Y-110655811D01*
X140233545Y-110622861D01*
X140233544Y-110622860D01*
X140089456Y-110594200D01*
X140089455Y-110594200D01*
X139942545Y-110594200D01*
X139942544Y-110594200D01*
X139798455Y-110622860D01*
X139798454Y-110622861D01*
X139662732Y-110679079D01*
X139540577Y-110760701D01*
X139540574Y-110760703D01*
X139436703Y-110864574D01*
X139436701Y-110864577D01*
X139355079Y-110986732D01*
X139298861Y-111122454D01*
X139298860Y-111122455D01*
X139270200Y-111266544D01*
X138729800Y-111266544D01*
X138701140Y-111122458D01*
X138644920Y-110986731D01*
X138563301Y-110864580D01*
X138563298Y-110864577D01*
X138563296Y-110864574D01*
X138459425Y-110760703D01*
X138459422Y-110760701D01*
X138459420Y-110760699D01*
X138337269Y-110679080D01*
X138281093Y-110655811D01*
X138201545Y-110622861D01*
X138201544Y-110622860D01*
X138057456Y-110594200D01*
X138057455Y-110594200D01*
X137910545Y-110594200D01*
X137910544Y-110594200D01*
X137766455Y-110622860D01*
X137766454Y-110622861D01*
X137630732Y-110679079D01*
X137508577Y-110760701D01*
X137508574Y-110760703D01*
X137404703Y-110864574D01*
X137404701Y-110864577D01*
X137323079Y-110986732D01*
X137266861Y-111122454D01*
X137266860Y-111122455D01*
X137238200Y-111266544D01*
X134488767Y-111266544D01*
X134131890Y-110765318D01*
X134130008Y-110762541D01*
X133687280Y-110076793D01*
X133659127Y-110033186D01*
X133657339Y-110030273D01*
X133599009Y-109930222D01*
X133599006Y-109930219D01*
X133596371Y-109925700D01*
X133579798Y-109897273D01*
X141399500Y-109897273D01*
X141399500Y-110002727D01*
X141419346Y-110076793D01*
X141426793Y-110104588D01*
X141479519Y-110195911D01*
X141479523Y-110195917D01*
X141554082Y-110270476D01*
X141554085Y-110270478D01*
X141554087Y-110270480D01*
X141645413Y-110323207D01*
X141747273Y-110350500D01*
X141747276Y-110350500D01*
X141852724Y-110350500D01*
X141852727Y-110350500D01*
X141954587Y-110323207D01*
X142045913Y-110270480D01*
X142120480Y-110195913D01*
X142173207Y-110104587D01*
X142200500Y-110002727D01*
X142200500Y-109897273D01*
X142173207Y-109795413D01*
X142120480Y-109704087D01*
X142120478Y-109704085D01*
X142120476Y-109704082D01*
X142045917Y-109629523D01*
X142045911Y-109629519D01*
X141954588Y-109576793D01*
X141929122Y-109569969D01*
X141852727Y-109549500D01*
X141747273Y-109549500D01*
X141686157Y-109565875D01*
X141645411Y-109576793D01*
X141554088Y-109629519D01*
X141554082Y-109629523D01*
X141479523Y-109704082D01*
X141479519Y-109704088D01*
X141426793Y-109795411D01*
X141413146Y-109846343D01*
X141399500Y-109897273D01*
X133579798Y-109897273D01*
X133498913Y-109758533D01*
X133260734Y-109349993D01*
X133250500Y-109312118D01*
X133250500Y-108747273D01*
X136999500Y-108747273D01*
X136999500Y-108852727D01*
X137012301Y-108900500D01*
X137026793Y-108954588D01*
X137079519Y-109045911D01*
X137079523Y-109045917D01*
X137154082Y-109120476D01*
X137154085Y-109120478D01*
X137154087Y-109120480D01*
X137245413Y-109173207D01*
X137347273Y-109200500D01*
X137347276Y-109200500D01*
X137452724Y-109200500D01*
X137452727Y-109200500D01*
X137554587Y-109173207D01*
X137645913Y-109120480D01*
X137720480Y-109045913D01*
X137773207Y-108954587D01*
X137800500Y-108852727D01*
X137800500Y-108747273D01*
X137773207Y-108645413D01*
X137720480Y-108554087D01*
X137720478Y-108554085D01*
X137720476Y-108554082D01*
X137645917Y-108479523D01*
X137645911Y-108479519D01*
X137607720Y-108457469D01*
X137554589Y-108426793D01*
X137513843Y-108415875D01*
X137452727Y-108399500D01*
X137347273Y-108399500D01*
X137286157Y-108415875D01*
X137245411Y-108426793D01*
X137154088Y-108479519D01*
X137154082Y-108479523D01*
X137079523Y-108554082D01*
X137079519Y-108554088D01*
X137026793Y-108645411D01*
X137013262Y-108695911D01*
X136999500Y-108747273D01*
X133250500Y-108747273D01*
X133250500Y-108397273D01*
X144749500Y-108397273D01*
X144749500Y-108502727D01*
X144763262Y-108554087D01*
X144776793Y-108604588D01*
X144829519Y-108695911D01*
X144829523Y-108695917D01*
X144904082Y-108770476D01*
X144904085Y-108770478D01*
X144904087Y-108770480D01*
X144976112Y-108812063D01*
X144990689Y-108820480D01*
X144995413Y-108823207D01*
X145097273Y-108850500D01*
X145097276Y-108850500D01*
X145124300Y-108850500D01*
X145142659Y-108857182D01*
X145161900Y-108860575D01*
X145166260Y-108865771D01*
X145172638Y-108868093D01*
X145182407Y-108885015D01*
X145194965Y-108899980D01*
X145196687Y-108909748D01*
X145198358Y-108912642D01*
X145199500Y-108925700D01*
X145199500Y-108974300D01*
X145181907Y-109022638D01*
X145137358Y-109048358D01*
X145124300Y-109049500D01*
X145097273Y-109049500D01*
X145036157Y-109065875D01*
X144995411Y-109076793D01*
X144904088Y-109129519D01*
X144904082Y-109129523D01*
X144829523Y-109204082D01*
X144829519Y-109204088D01*
X144776793Y-109295411D01*
X144766872Y-109332440D01*
X144749500Y-109397273D01*
X144749500Y-109502727D01*
X144769346Y-109576793D01*
X144776793Y-109604588D01*
X144829519Y-109695911D01*
X144829523Y-109695917D01*
X144904082Y-109770476D01*
X144904085Y-109770478D01*
X144904087Y-109770480D01*
X144995413Y-109823207D01*
X145097273Y-109850500D01*
X145097276Y-109850500D01*
X145124300Y-109850500D01*
X145142659Y-109857182D01*
X145161900Y-109860575D01*
X145166260Y-109865771D01*
X145172638Y-109868093D01*
X145182407Y-109885015D01*
X145194965Y-109899980D01*
X145196687Y-109909748D01*
X145198358Y-109912642D01*
X145199500Y-109925700D01*
X145199500Y-109974300D01*
X145181907Y-110022638D01*
X145137358Y-110048358D01*
X145124300Y-110049500D01*
X145097273Y-110049500D01*
X145036157Y-110065875D01*
X144995411Y-110076793D01*
X144904088Y-110129519D01*
X144904082Y-110129523D01*
X144829523Y-110204082D01*
X144829519Y-110204088D01*
X144776793Y-110295411D01*
X144763146Y-110346343D01*
X144749500Y-110397273D01*
X144749500Y-110502727D01*
X144769969Y-110579122D01*
X144776793Y-110604588D01*
X144829519Y-110695911D01*
X144829523Y-110695917D01*
X144904082Y-110770476D01*
X144904085Y-110770478D01*
X144904087Y-110770480D01*
X144995413Y-110823207D01*
X145097273Y-110850500D01*
X145097276Y-110850500D01*
X145202724Y-110850500D01*
X145202727Y-110850500D01*
X145304587Y-110823207D01*
X145395913Y-110770480D01*
X145470480Y-110695913D01*
X145523207Y-110604587D01*
X145550500Y-110502727D01*
X145550500Y-110425700D01*
X145568093Y-110377362D01*
X145612642Y-110351642D01*
X145625700Y-110350500D01*
X145652724Y-110350500D01*
X145652727Y-110350500D01*
X145754587Y-110323207D01*
X145845913Y-110270480D01*
X145920480Y-110195913D01*
X145973207Y-110104587D01*
X146000500Y-110002727D01*
X146000500Y-109897273D01*
X145973207Y-109795413D01*
X145920480Y-109704087D01*
X145920478Y-109704085D01*
X145920476Y-109704082D01*
X145845917Y-109629523D01*
X145845911Y-109629519D01*
X145754588Y-109576793D01*
X145729122Y-109569969D01*
X145652727Y-109549500D01*
X145625700Y-109549500D01*
X145607340Y-109542817D01*
X145588100Y-109539425D01*
X145583739Y-109534228D01*
X145577362Y-109531907D01*
X145567592Y-109514984D01*
X145555035Y-109500020D01*
X145553312Y-109490251D01*
X145551642Y-109487358D01*
X145550500Y-109474300D01*
X145550500Y-109425700D01*
X145568093Y-109377362D01*
X145612642Y-109351642D01*
X145625700Y-109350500D01*
X145652724Y-109350500D01*
X145652727Y-109350500D01*
X145754587Y-109323207D01*
X145845913Y-109270480D01*
X145920480Y-109195913D01*
X145973207Y-109104587D01*
X146000500Y-109002727D01*
X146000500Y-108897273D01*
X145973207Y-108795413D01*
X145920480Y-108704087D01*
X145920478Y-108704085D01*
X145920476Y-108704082D01*
X145845917Y-108629523D01*
X145845911Y-108629519D01*
X145754588Y-108576793D01*
X145729122Y-108569969D01*
X145652727Y-108549500D01*
X145625700Y-108549500D01*
X145607340Y-108542817D01*
X145588100Y-108539425D01*
X145583739Y-108534228D01*
X145577362Y-108531907D01*
X145567592Y-108514984D01*
X145555035Y-108500020D01*
X145553312Y-108490251D01*
X145551642Y-108487358D01*
X145550500Y-108474300D01*
X145550500Y-108447273D01*
X162899500Y-108447273D01*
X162899500Y-108552727D01*
X162913396Y-108604587D01*
X162926793Y-108654588D01*
X162979519Y-108745911D01*
X162979523Y-108745917D01*
X163054082Y-108820476D01*
X163054085Y-108820478D01*
X163054087Y-108820480D01*
X163145413Y-108873207D01*
X163247273Y-108900500D01*
X163247276Y-108900500D01*
X163352724Y-108900500D01*
X163352727Y-108900500D01*
X163454587Y-108873207D01*
X163545913Y-108820480D01*
X163620480Y-108745913D01*
X163673207Y-108654587D01*
X163700500Y-108552727D01*
X163700500Y-108447273D01*
X163673207Y-108345413D01*
X163620480Y-108254087D01*
X163620478Y-108254085D01*
X163620476Y-108254082D01*
X163545917Y-108179523D01*
X163545911Y-108179519D01*
X163454588Y-108126793D01*
X163429122Y-108119969D01*
X163352727Y-108099500D01*
X163247273Y-108099500D01*
X163186157Y-108115875D01*
X163145411Y-108126793D01*
X163054088Y-108179519D01*
X163054082Y-108179523D01*
X162979523Y-108254082D01*
X162979519Y-108254088D01*
X162926793Y-108345411D01*
X162919171Y-108373858D01*
X162899500Y-108447273D01*
X145550500Y-108447273D01*
X145550500Y-108422196D01*
X145568093Y-108373858D01*
X145606234Y-108349560D01*
X145704587Y-108323207D01*
X145795913Y-108270480D01*
X145870480Y-108195913D01*
X145923207Y-108104587D01*
X145950500Y-108002727D01*
X145950500Y-107897273D01*
X145923207Y-107795413D01*
X145870480Y-107704087D01*
X145870478Y-107704085D01*
X145870476Y-107704082D01*
X145795917Y-107629523D01*
X145795911Y-107629519D01*
X145757720Y-107607469D01*
X145704589Y-107576793D01*
X145663843Y-107565875D01*
X145602727Y-107549500D01*
X145497273Y-107549500D01*
X145436157Y-107565875D01*
X145395411Y-107576793D01*
X145304088Y-107629519D01*
X145304082Y-107629523D01*
X145229523Y-107704082D01*
X145229519Y-107704088D01*
X145176793Y-107795411D01*
X145176294Y-107797275D01*
X145149500Y-107897273D01*
X145149500Y-107897275D01*
X145149500Y-107977803D01*
X145131907Y-108026141D01*
X145093764Y-108050440D01*
X145045860Y-108063275D01*
X144995411Y-108076793D01*
X144904088Y-108129519D01*
X144904082Y-108129523D01*
X144829523Y-108204082D01*
X144829519Y-108204088D01*
X144776793Y-108295411D01*
X144763396Y-108345411D01*
X144749500Y-108397273D01*
X133250500Y-108397273D01*
X133250500Y-107447273D01*
X136999500Y-107447273D01*
X136999500Y-107552727D01*
X137013262Y-107604087D01*
X137026793Y-107654588D01*
X137079519Y-107745911D01*
X137079523Y-107745917D01*
X137154082Y-107820476D01*
X137154085Y-107820478D01*
X137154087Y-107820480D01*
X137245413Y-107873207D01*
X137347273Y-107900500D01*
X137347276Y-107900500D01*
X137452724Y-107900500D01*
X137452727Y-107900500D01*
X137554587Y-107873207D01*
X137645913Y-107820480D01*
X137669120Y-107797273D01*
X143449500Y-107797273D01*
X143449500Y-107902727D01*
X143454256Y-107920476D01*
X143476793Y-108004588D01*
X143529519Y-108095911D01*
X143529523Y-108095917D01*
X143604082Y-108170476D01*
X143604085Y-108170478D01*
X143604087Y-108170480D01*
X143695413Y-108223207D01*
X143797273Y-108250500D01*
X143797276Y-108250500D01*
X143902724Y-108250500D01*
X143902727Y-108250500D01*
X144004587Y-108223207D01*
X144095913Y-108170480D01*
X144170480Y-108095913D01*
X144223207Y-108004587D01*
X144250500Y-107902727D01*
X144250500Y-107797273D01*
X144223207Y-107695413D01*
X144170480Y-107604087D01*
X144170478Y-107604085D01*
X144170476Y-107604082D01*
X144113667Y-107547273D01*
X157599500Y-107547273D01*
X157599500Y-107652727D01*
X157613262Y-107704087D01*
X157626793Y-107754588D01*
X157679519Y-107845911D01*
X157679523Y-107845917D01*
X157754082Y-107920476D01*
X157754085Y-107920478D01*
X157754087Y-107920480D01*
X157845413Y-107973207D01*
X157947273Y-108000500D01*
X157947276Y-108000500D01*
X158052724Y-108000500D01*
X158052727Y-108000500D01*
X158154587Y-107973207D01*
X158245913Y-107920480D01*
X158320480Y-107845913D01*
X158373207Y-107754587D01*
X158400500Y-107652727D01*
X158400500Y-107547273D01*
X158373207Y-107445413D01*
X158320480Y-107354087D01*
X158320478Y-107354085D01*
X158320476Y-107354082D01*
X158245917Y-107279523D01*
X158245911Y-107279519D01*
X158154588Y-107226793D01*
X158129122Y-107219969D01*
X158052727Y-107199500D01*
X157947273Y-107199500D01*
X157886157Y-107215875D01*
X157845411Y-107226793D01*
X157754088Y-107279519D01*
X157754082Y-107279523D01*
X157679523Y-107354082D01*
X157679519Y-107354088D01*
X157626793Y-107445411D01*
X157618385Y-107476793D01*
X157599500Y-107547273D01*
X144113667Y-107547273D01*
X144095917Y-107529523D01*
X144095911Y-107529519D01*
X144004588Y-107476793D01*
X143979122Y-107469969D01*
X143902727Y-107449500D01*
X143797273Y-107449500D01*
X143736157Y-107465875D01*
X143695411Y-107476793D01*
X143604088Y-107529519D01*
X143604082Y-107529523D01*
X143529523Y-107604082D01*
X143529519Y-107604088D01*
X143476793Y-107695411D01*
X143463262Y-107745911D01*
X143449500Y-107797273D01*
X137669120Y-107797273D01*
X137720480Y-107745913D01*
X137773207Y-107654587D01*
X137800500Y-107552727D01*
X137800500Y-107447273D01*
X137773207Y-107345413D01*
X137720480Y-107254087D01*
X137720478Y-107254085D01*
X137720476Y-107254082D01*
X137645917Y-107179523D01*
X137645911Y-107179519D01*
X137554588Y-107126793D01*
X137529122Y-107119969D01*
X137452727Y-107099500D01*
X137347273Y-107099500D01*
X137286157Y-107115875D01*
X137245411Y-107126793D01*
X137154088Y-107179519D01*
X137154082Y-107179523D01*
X137079523Y-107254082D01*
X137079519Y-107254088D01*
X137026793Y-107345411D01*
X137013146Y-107396343D01*
X136999500Y-107447273D01*
X133250500Y-107447273D01*
X133250500Y-106186544D01*
X138254200Y-106186544D01*
X138254200Y-106333455D01*
X138282860Y-106477544D01*
X138282861Y-106477545D01*
X138339080Y-106613269D01*
X138420699Y-106735420D01*
X138420701Y-106735422D01*
X138420703Y-106735425D01*
X138524574Y-106839296D01*
X138524577Y-106839298D01*
X138524580Y-106839301D01*
X138646731Y-106920920D01*
X138782454Y-106977138D01*
X138782455Y-106977139D01*
X138782456Y-106977139D01*
X138782458Y-106977140D01*
X138878949Y-106996332D01*
X138926544Y-107005800D01*
X138926545Y-107005800D01*
X139073456Y-107005800D01*
X139109232Y-106998683D01*
X139217542Y-106977140D01*
X139353269Y-106920920D01*
X139475420Y-106839301D01*
X139579301Y-106735420D01*
X139660920Y-106613269D01*
X139717140Y-106477542D01*
X139745800Y-106333455D01*
X139745800Y-106186545D01*
X139717140Y-106042458D01*
X139660920Y-105906731D01*
X139579301Y-105784580D01*
X139579298Y-105784577D01*
X139579296Y-105784574D01*
X139475425Y-105680703D01*
X139475422Y-105680701D01*
X139475420Y-105680699D01*
X139353269Y-105599080D01*
X139353267Y-105599079D01*
X139217545Y-105542861D01*
X139217544Y-105542860D01*
X139073456Y-105514200D01*
X139073455Y-105514200D01*
X138926545Y-105514200D01*
X138926544Y-105514200D01*
X138782455Y-105542860D01*
X138782454Y-105542861D01*
X138646732Y-105599079D01*
X138524577Y-105680701D01*
X138524574Y-105680703D01*
X138420703Y-105784574D01*
X138420701Y-105784577D01*
X138339079Y-105906732D01*
X138282861Y-106042454D01*
X138282860Y-106042455D01*
X138254200Y-106186544D01*
X133250500Y-106186544D01*
X133250500Y-104847273D01*
X143099500Y-104847273D01*
X143099500Y-104952727D01*
X143119969Y-105029122D01*
X143126793Y-105054588D01*
X143179519Y-105145911D01*
X143179523Y-105145917D01*
X143254082Y-105220476D01*
X143254085Y-105220478D01*
X143254087Y-105220480D01*
X143345413Y-105273207D01*
X143447273Y-105300500D01*
X143447276Y-105300500D01*
X143552724Y-105300500D01*
X143552727Y-105300500D01*
X143654587Y-105273207D01*
X143716731Y-105237327D01*
X143767389Y-105228395D01*
X143811937Y-105254115D01*
X143819456Y-105264853D01*
X143866255Y-105345911D01*
X143866259Y-105345917D01*
X143940818Y-105420476D01*
X143940821Y-105420478D01*
X143940823Y-105420480D01*
X144032149Y-105473207D01*
X144134009Y-105500500D01*
X144134012Y-105500500D01*
X144239460Y-105500500D01*
X144239463Y-105500500D01*
X144341323Y-105473207D01*
X144432649Y-105420480D01*
X144507216Y-105345913D01*
X144559943Y-105254587D01*
X144587236Y-105152727D01*
X144587236Y-105047273D01*
X144559943Y-104945413D01*
X144559942Y-104945412D01*
X144559942Y-104945410D01*
X144522146Y-104879947D01*
X144522145Y-104879945D01*
X144507216Y-104854087D01*
X144507214Y-104854085D01*
X144507212Y-104854082D01*
X144500403Y-104847273D01*
X157599500Y-104847273D01*
X157599500Y-104952727D01*
X157619969Y-105029122D01*
X157626793Y-105054588D01*
X157679519Y-105145911D01*
X157679523Y-105145917D01*
X157754082Y-105220476D01*
X157754085Y-105220478D01*
X157754087Y-105220480D01*
X157845413Y-105273207D01*
X157947273Y-105300500D01*
X157947276Y-105300500D01*
X158052724Y-105300500D01*
X158052727Y-105300500D01*
X158154587Y-105273207D01*
X158245913Y-105220480D01*
X158320480Y-105145913D01*
X158373207Y-105054587D01*
X158400500Y-104952727D01*
X158400500Y-104847273D01*
X158373207Y-104745413D01*
X158320480Y-104654087D01*
X158320478Y-104654085D01*
X158320476Y-104654082D01*
X158245917Y-104579523D01*
X158245911Y-104579519D01*
X158234978Y-104573207D01*
X158226612Y-104568376D01*
X158154588Y-104526793D01*
X158129122Y-104519969D01*
X158052727Y-104499500D01*
X157947273Y-104499500D01*
X157886157Y-104515875D01*
X157845411Y-104526793D01*
X157754088Y-104579519D01*
X157754082Y-104579523D01*
X157679523Y-104654082D01*
X157679519Y-104654088D01*
X157626793Y-104745411D01*
X157619775Y-104771603D01*
X157599500Y-104847273D01*
X144500403Y-104847273D01*
X144432653Y-104779523D01*
X144432647Y-104779519D01*
X144341324Y-104726793D01*
X144315858Y-104719969D01*
X144239463Y-104699500D01*
X144134009Y-104699500D01*
X144057614Y-104719969D01*
X144032148Y-104726793D01*
X143970003Y-104762672D01*
X143919345Y-104771603D01*
X143874797Y-104745883D01*
X143867279Y-104735146D01*
X143820480Y-104654087D01*
X143820478Y-104654085D01*
X143820476Y-104654082D01*
X143745917Y-104579523D01*
X143745911Y-104579519D01*
X143734978Y-104573207D01*
X143726612Y-104568376D01*
X143654588Y-104526793D01*
X143629122Y-104519969D01*
X143552727Y-104499500D01*
X143447273Y-104499500D01*
X143386157Y-104515875D01*
X143345411Y-104526793D01*
X143254088Y-104579519D01*
X143254082Y-104579523D01*
X143179523Y-104654082D01*
X143179519Y-104654088D01*
X143126793Y-104745411D01*
X143119775Y-104771603D01*
X143099500Y-104847273D01*
X133250500Y-104847273D01*
X133250500Y-104147273D01*
X154199500Y-104147273D01*
X154199500Y-104252727D01*
X154218183Y-104322454D01*
X154226793Y-104354588D01*
X154279519Y-104445911D01*
X154279523Y-104445917D01*
X154354082Y-104520476D01*
X154354085Y-104520478D01*
X154354087Y-104520480D01*
X154445413Y-104573207D01*
X154547273Y-104600500D01*
X154547276Y-104600500D01*
X154652724Y-104600500D01*
X154652727Y-104600500D01*
X154754587Y-104573207D01*
X154845913Y-104520480D01*
X154920480Y-104445913D01*
X154973207Y-104354587D01*
X155000500Y-104252727D01*
X155000500Y-104147273D01*
X154973207Y-104045413D01*
X154920480Y-103954087D01*
X154920478Y-103954085D01*
X154920476Y-103954082D01*
X154845917Y-103879523D01*
X154845911Y-103879519D01*
X154842495Y-103877547D01*
X154826612Y-103868376D01*
X154754588Y-103826793D01*
X154729122Y-103819969D01*
X154652727Y-103799500D01*
X154547273Y-103799500D01*
X154486157Y-103815875D01*
X154445411Y-103826793D01*
X154354088Y-103879519D01*
X154354082Y-103879523D01*
X154279523Y-103954082D01*
X154279519Y-103954088D01*
X154226793Y-104045411D01*
X154213146Y-104096343D01*
X154199500Y-104147273D01*
X133250500Y-104147273D01*
X133250500Y-102418693D01*
X134174500Y-102418693D01*
X134174500Y-102581306D01*
X134191249Y-102665509D01*
X134206224Y-102740789D01*
X134268452Y-102891021D01*
X134340971Y-102999554D01*
X134358794Y-103026228D01*
X134473771Y-103141205D01*
X134473774Y-103141207D01*
X134473775Y-103141208D01*
X134608979Y-103231548D01*
X134759211Y-103293776D01*
X134853452Y-103312522D01*
X134918693Y-103325500D01*
X134918695Y-103325500D01*
X135081307Y-103325500D01*
X135146548Y-103312522D01*
X135240789Y-103293776D01*
X135391021Y-103231548D01*
X135526225Y-103141208D01*
X135641208Y-103026225D01*
X135731548Y-102891021D01*
X135793776Y-102740789D01*
X135825500Y-102581305D01*
X135825500Y-102418695D01*
X135817707Y-102379520D01*
X135801790Y-102299500D01*
X135793776Y-102259211D01*
X135777871Y-102220812D01*
X136396000Y-102220812D01*
X136396000Y-102423000D01*
X136875000Y-102423000D01*
X136875000Y-102677000D01*
X136396000Y-102677000D01*
X136396000Y-102879187D01*
X136426896Y-103034514D01*
X136426897Y-103034517D01*
X136487504Y-103180835D01*
X136575495Y-103312522D01*
X136575497Y-103312525D01*
X136687474Y-103424502D01*
X136687477Y-103424504D01*
X136819164Y-103512495D01*
X136965482Y-103573102D01*
X136965484Y-103573103D01*
X137072999Y-103594489D01*
X137073000Y-103594489D01*
X137073000Y-103101953D01*
X137074555Y-103102851D01*
X137157213Y-103125000D01*
X137242787Y-103125000D01*
X137325445Y-103102851D01*
X137327000Y-103101953D01*
X137327000Y-103594489D01*
X137434515Y-103573103D01*
X137434517Y-103573102D01*
X137580835Y-103512495D01*
X137712522Y-103424504D01*
X137712525Y-103424502D01*
X137824502Y-103312525D01*
X137824504Y-103312522D01*
X137912495Y-103180835D01*
X137973102Y-103034517D01*
X137973103Y-103034514D01*
X138004000Y-102879187D01*
X138004000Y-102677000D01*
X137525000Y-102677000D01*
X137525000Y-102647273D01*
X146299500Y-102647273D01*
X146299500Y-102752727D01*
X146305952Y-102776806D01*
X146326793Y-102854588D01*
X146379519Y-102945911D01*
X146379523Y-102945917D01*
X146454082Y-103020476D01*
X146454085Y-103020478D01*
X146454087Y-103020480D01*
X146545413Y-103073207D01*
X146647273Y-103100500D01*
X146647276Y-103100500D01*
X146752724Y-103100500D01*
X146752727Y-103100500D01*
X146854587Y-103073207D01*
X146945913Y-103020480D01*
X147020480Y-102945913D01*
X147073207Y-102854587D01*
X147100500Y-102752727D01*
X147100500Y-102647273D01*
X147073207Y-102545413D01*
X147073206Y-102545411D01*
X147073206Y-102545410D01*
X147035410Y-102479947D01*
X147035409Y-102479945D01*
X147020480Y-102454087D01*
X147020478Y-102454085D01*
X147020476Y-102454082D01*
X147013667Y-102447273D01*
X154699500Y-102447273D01*
X154699500Y-102552727D01*
X154716596Y-102616530D01*
X154726793Y-102654588D01*
X154779519Y-102745911D01*
X154779523Y-102745917D01*
X154854082Y-102820476D01*
X154854085Y-102820478D01*
X154854087Y-102820480D01*
X154945413Y-102873207D01*
X155047273Y-102900500D01*
X155047276Y-102900500D01*
X155152724Y-102900500D01*
X155152727Y-102900500D01*
X155254587Y-102873207D01*
X155299506Y-102847273D01*
X164399500Y-102847273D01*
X164399500Y-102952727D01*
X164412047Y-102999554D01*
X164426793Y-103054588D01*
X164479519Y-103145911D01*
X164479523Y-103145917D01*
X164554082Y-103220476D01*
X164554085Y-103220478D01*
X164554087Y-103220480D01*
X164645413Y-103273207D01*
X164747273Y-103300500D01*
X164747276Y-103300500D01*
X164852724Y-103300500D01*
X164852727Y-103300500D01*
X164954587Y-103273207D01*
X165045913Y-103220480D01*
X165120480Y-103145913D01*
X165173207Y-103054587D01*
X165200500Y-102952727D01*
X165200500Y-102847273D01*
X165173207Y-102745413D01*
X165120480Y-102654087D01*
X165120478Y-102654085D01*
X165120476Y-102654082D01*
X165045917Y-102579523D01*
X165045911Y-102579519D01*
X164954588Y-102526793D01*
X164929122Y-102519969D01*
X164852727Y-102499500D01*
X164747273Y-102499500D01*
X164686157Y-102515875D01*
X164645411Y-102526793D01*
X164554088Y-102579519D01*
X164554082Y-102579523D01*
X164479523Y-102654082D01*
X164479519Y-102654088D01*
X164426793Y-102745411D01*
X164418382Y-102776803D01*
X164399500Y-102847273D01*
X155299506Y-102847273D01*
X155345913Y-102820480D01*
X155349341Y-102817052D01*
X155377224Y-102789170D01*
X155420476Y-102745917D01*
X155420480Y-102745913D01*
X155473207Y-102654587D01*
X155500500Y-102552727D01*
X155500500Y-102447273D01*
X155473207Y-102345413D01*
X155420480Y-102254087D01*
X155420478Y-102254085D01*
X155420476Y-102254082D01*
X155345917Y-102179523D01*
X155345911Y-102179519D01*
X155254588Y-102126793D01*
X155229122Y-102119969D01*
X155152727Y-102099500D01*
X155047273Y-102099500D01*
X154986157Y-102115875D01*
X154945411Y-102126793D01*
X154854088Y-102179519D01*
X154854082Y-102179523D01*
X154779523Y-102254082D01*
X154779519Y-102254088D01*
X154726793Y-102345411D01*
X154717654Y-102379519D01*
X154699500Y-102447273D01*
X147013667Y-102447273D01*
X146945917Y-102379523D01*
X146945911Y-102379519D01*
X146854588Y-102326793D01*
X146829122Y-102319969D01*
X146752727Y-102299500D01*
X146647273Y-102299500D01*
X146586157Y-102315875D01*
X146545411Y-102326793D01*
X146454088Y-102379519D01*
X146454082Y-102379523D01*
X146379523Y-102454082D01*
X146379519Y-102454088D01*
X146326793Y-102545411D01*
X146313146Y-102596343D01*
X146299500Y-102647273D01*
X137525000Y-102647273D01*
X137525000Y-102423000D01*
X138004000Y-102423000D01*
X138004000Y-102220812D01*
X137973103Y-102065485D01*
X137973102Y-102065482D01*
X137912495Y-101919164D01*
X137824504Y-101787477D01*
X137824502Y-101787474D01*
X137712525Y-101675497D01*
X137712522Y-101675495D01*
X137580835Y-101587504D01*
X137434517Y-101526897D01*
X137434514Y-101526896D01*
X137327000Y-101505510D01*
X137327000Y-101998046D01*
X137325445Y-101997149D01*
X137242787Y-101975000D01*
X137157213Y-101975000D01*
X137074555Y-101997149D01*
X137073000Y-101998046D01*
X137073000Y-101505510D01*
X136965485Y-101526896D01*
X136965482Y-101526897D01*
X136819164Y-101587504D01*
X136687477Y-101675495D01*
X136687474Y-101675497D01*
X136575497Y-101787474D01*
X136575495Y-101787477D01*
X136487504Y-101919164D01*
X136426897Y-102065482D01*
X136426896Y-102065485D01*
X136396000Y-102220812D01*
X135777871Y-102220812D01*
X135731548Y-102108979D01*
X135641208Y-101973775D01*
X135641207Y-101973774D01*
X135641205Y-101973771D01*
X135526228Y-101858794D01*
X135419494Y-101787477D01*
X135391021Y-101768452D01*
X135240789Y-101706224D01*
X135240786Y-101706223D01*
X135240785Y-101706223D01*
X135081307Y-101674500D01*
X135081305Y-101674500D01*
X134918695Y-101674500D01*
X134918693Y-101674500D01*
X134759214Y-101706223D01*
X134759211Y-101706224D01*
X134608980Y-101768451D01*
X134473771Y-101858794D01*
X134358794Y-101973771D01*
X134268451Y-102108980D01*
X134206224Y-102259211D01*
X134206223Y-102259214D01*
X134174500Y-102418693D01*
X133250500Y-102418693D01*
X133250500Y-99295673D01*
X138999500Y-99295673D01*
X138999500Y-99401127D01*
X139013325Y-99452724D01*
X139026793Y-99502988D01*
X139079519Y-99594311D01*
X139079523Y-99594317D01*
X139107032Y-99621826D01*
X139128772Y-99668446D01*
X139115458Y-99718133D01*
X139107032Y-99728174D01*
X139079523Y-99755682D01*
X139079519Y-99755688D01*
X139026793Y-99847011D01*
X139013146Y-99897943D01*
X138999500Y-99948873D01*
X138999500Y-100054327D01*
X139019969Y-100130722D01*
X139026793Y-100156188D01*
X139079519Y-100247511D01*
X139079523Y-100247517D01*
X139154082Y-100322076D01*
X139154085Y-100322078D01*
X139154087Y-100322080D01*
X139245413Y-100374807D01*
X139347273Y-100402100D01*
X139347276Y-100402100D01*
X139452724Y-100402100D01*
X139452727Y-100402100D01*
X139554587Y-100374807D01*
X139645913Y-100322080D01*
X139720480Y-100247513D01*
X139773207Y-100156187D01*
X139800500Y-100054327D01*
X139800500Y-99948873D01*
X139773207Y-99847013D01*
X139720480Y-99755687D01*
X139720478Y-99755685D01*
X139720476Y-99755682D01*
X139692968Y-99728174D01*
X139671228Y-99681554D01*
X139684542Y-99631867D01*
X139692968Y-99621826D01*
X139720476Y-99594317D01*
X139720480Y-99594313D01*
X139773207Y-99502987D01*
X139800500Y-99401127D01*
X139800500Y-99295673D01*
X139773207Y-99193813D01*
X139720480Y-99102487D01*
X139720478Y-99102485D01*
X139720476Y-99102482D01*
X139645917Y-99027923D01*
X139645911Y-99027919D01*
X139554588Y-98975193D01*
X139529122Y-98968369D01*
X139452727Y-98947900D01*
X139347273Y-98947900D01*
X139286157Y-98964275D01*
X139245411Y-98975193D01*
X139154088Y-99027919D01*
X139154082Y-99027923D01*
X139079523Y-99102482D01*
X139079519Y-99102488D01*
X139026793Y-99193811D01*
X139025001Y-99200500D01*
X138999500Y-99295673D01*
X133250500Y-99295673D01*
X133250500Y-98747273D01*
X152599500Y-98747273D01*
X152599500Y-98852727D01*
X152613463Y-98904837D01*
X152626793Y-98954588D01*
X152679519Y-99045911D01*
X152679523Y-99045917D01*
X152754082Y-99120476D01*
X152754085Y-99120478D01*
X152754087Y-99120480D01*
X152845413Y-99173207D01*
X152947273Y-99200500D01*
X152947276Y-99200500D01*
X153040825Y-99200500D01*
X153089163Y-99218093D01*
X153114883Y-99262642D01*
X153113463Y-99295161D01*
X153099500Y-99347273D01*
X153099500Y-99452727D01*
X153119969Y-99529122D01*
X153126793Y-99554588D01*
X153179519Y-99645911D01*
X153179523Y-99645917D01*
X153254082Y-99720476D01*
X153254085Y-99720478D01*
X153254087Y-99720480D01*
X153345413Y-99773207D01*
X153447273Y-99800500D01*
X153447276Y-99800500D01*
X153552724Y-99800500D01*
X153552727Y-99800500D01*
X153654587Y-99773207D01*
X153745913Y-99720480D01*
X153820480Y-99645913D01*
X153873207Y-99554587D01*
X153900500Y-99452727D01*
X153900500Y-99347273D01*
X153873207Y-99245413D01*
X153820480Y-99154087D01*
X153820478Y-99154085D01*
X153820476Y-99154082D01*
X153745917Y-99079523D01*
X153745911Y-99079519D01*
X153654589Y-99026793D01*
X153633871Y-99021242D01*
X153552727Y-98999500D01*
X153459175Y-98999500D01*
X153410837Y-98981907D01*
X153390841Y-98947273D01*
X157099500Y-98947273D01*
X157099500Y-99052727D01*
X157117653Y-99120476D01*
X157126793Y-99154588D01*
X157179519Y-99245911D01*
X157179523Y-99245917D01*
X157254082Y-99320476D01*
X157254085Y-99320478D01*
X157254087Y-99320480D01*
X157345413Y-99373207D01*
X157447273Y-99400500D01*
X157447276Y-99400500D01*
X157552724Y-99400500D01*
X157552727Y-99400500D01*
X157654587Y-99373207D01*
X157745913Y-99320480D01*
X157820480Y-99245913D01*
X157873207Y-99154587D01*
X157900500Y-99052727D01*
X157900500Y-98947273D01*
X157873207Y-98845413D01*
X157820480Y-98754087D01*
X157820478Y-98754085D01*
X157820476Y-98754082D01*
X157745917Y-98679523D01*
X157745911Y-98679519D01*
X157654588Y-98626793D01*
X157629122Y-98619969D01*
X157552727Y-98599500D01*
X157447273Y-98599500D01*
X157386157Y-98615875D01*
X157345411Y-98626793D01*
X157254088Y-98679519D01*
X157254082Y-98679523D01*
X157179523Y-98754082D01*
X157179519Y-98754088D01*
X157126793Y-98845411D01*
X157124834Y-98852724D01*
X157099500Y-98947273D01*
X153390841Y-98947273D01*
X153385117Y-98937358D01*
X153386537Y-98904837D01*
X153400500Y-98852727D01*
X153400500Y-98747273D01*
X153386537Y-98695162D01*
X153391021Y-98643919D01*
X153427395Y-98607545D01*
X153459175Y-98600500D01*
X153552724Y-98600500D01*
X153552727Y-98600500D01*
X153654587Y-98573207D01*
X153745913Y-98520480D01*
X153820480Y-98445913D01*
X153873207Y-98354587D01*
X153900500Y-98252727D01*
X153900500Y-98147273D01*
X153873207Y-98045413D01*
X153820480Y-97954087D01*
X153820478Y-97954085D01*
X153820476Y-97954082D01*
X153745917Y-97879523D01*
X153745911Y-97879519D01*
X153654588Y-97826793D01*
X153629122Y-97819969D01*
X153552727Y-97799500D01*
X153447273Y-97799500D01*
X153386157Y-97815875D01*
X153345411Y-97826793D01*
X153254088Y-97879519D01*
X153254082Y-97879523D01*
X153179523Y-97954082D01*
X153179519Y-97954088D01*
X153126793Y-98045411D01*
X153117302Y-98080835D01*
X153099500Y-98147273D01*
X153099500Y-98252727D01*
X153110499Y-98293775D01*
X153113463Y-98304837D01*
X153108979Y-98356081D01*
X153072605Y-98392455D01*
X153040825Y-98399500D01*
X152947273Y-98399500D01*
X152886157Y-98415875D01*
X152845411Y-98426793D01*
X152754088Y-98479519D01*
X152754082Y-98479523D01*
X152679523Y-98554082D01*
X152679519Y-98554088D01*
X152626793Y-98645411D01*
X152617654Y-98679519D01*
X152599500Y-98747273D01*
X133250500Y-98747273D01*
X133250500Y-97418695D01*
X134174500Y-97418695D01*
X134174500Y-97581305D01*
X134206224Y-97740789D01*
X134241290Y-97825445D01*
X134268451Y-97891019D01*
X134358794Y-98026228D01*
X134473771Y-98141205D01*
X134473774Y-98141207D01*
X134473775Y-98141208D01*
X134608979Y-98231548D01*
X134759211Y-98293776D01*
X134854901Y-98312810D01*
X134918693Y-98325500D01*
X134918695Y-98325500D01*
X135081307Y-98325500D01*
X135134466Y-98314925D01*
X135240789Y-98293776D01*
X135391021Y-98231548D01*
X135526225Y-98141208D01*
X135641208Y-98026225D01*
X135731548Y-97891021D01*
X135793776Y-97740789D01*
X135825500Y-97581305D01*
X135825500Y-97418695D01*
X135793776Y-97259211D01*
X135762185Y-97182943D01*
X135746840Y-97145896D01*
X135736449Y-97120812D01*
X136396000Y-97120812D01*
X136396000Y-97323000D01*
X136875000Y-97323000D01*
X136875000Y-97577000D01*
X136396000Y-97577000D01*
X136396000Y-97779187D01*
X136426896Y-97934514D01*
X136426897Y-97934517D01*
X136487504Y-98080835D01*
X136575495Y-98212522D01*
X136575497Y-98212525D01*
X136687474Y-98324502D01*
X136687477Y-98324504D01*
X136819164Y-98412495D01*
X136965482Y-98473102D01*
X136965484Y-98473103D01*
X137072999Y-98494489D01*
X137073000Y-98494489D01*
X137073000Y-98001953D01*
X137074555Y-98002851D01*
X137157213Y-98025000D01*
X137242787Y-98025000D01*
X137325445Y-98002851D01*
X137327000Y-98001953D01*
X137327000Y-98494489D01*
X137434515Y-98473103D01*
X137434517Y-98473102D01*
X137580835Y-98412495D01*
X137712522Y-98324504D01*
X137712525Y-98324502D01*
X137824502Y-98212525D01*
X137824504Y-98212522D01*
X137912495Y-98080835D01*
X137973102Y-97934517D01*
X137973103Y-97934514D01*
X138004000Y-97779187D01*
X138004000Y-97577000D01*
X137525000Y-97577000D01*
X137525000Y-97323000D01*
X138004000Y-97323000D01*
X138004000Y-97120812D01*
X137973103Y-96965485D01*
X137973102Y-96965482D01*
X137912495Y-96819164D01*
X137824504Y-96687477D01*
X137824502Y-96687474D01*
X137712525Y-96575497D01*
X137712522Y-96575495D01*
X137580835Y-96487504D01*
X137434517Y-96426897D01*
X137434514Y-96426896D01*
X137327000Y-96405510D01*
X137327000Y-96898046D01*
X137325445Y-96897149D01*
X137242787Y-96875000D01*
X137157213Y-96875000D01*
X137074555Y-96897149D01*
X137073000Y-96898046D01*
X137073000Y-96405510D01*
X136965485Y-96426896D01*
X136965482Y-96426897D01*
X136819164Y-96487504D01*
X136687477Y-96575495D01*
X136687474Y-96575497D01*
X136575497Y-96687474D01*
X136575495Y-96687477D01*
X136487504Y-96819164D01*
X136426897Y-96965482D01*
X136426896Y-96965485D01*
X136396000Y-97120812D01*
X135736449Y-97120812D01*
X135731548Y-97108980D01*
X135731548Y-97108979D01*
X135641208Y-96973775D01*
X135641207Y-96973774D01*
X135641205Y-96973771D01*
X135526228Y-96858794D01*
X135448603Y-96806927D01*
X135391021Y-96768452D01*
X135240789Y-96706224D01*
X135240786Y-96706223D01*
X135240785Y-96706223D01*
X135081307Y-96674500D01*
X135081305Y-96674500D01*
X134918695Y-96674500D01*
X134918693Y-96674500D01*
X134759214Y-96706223D01*
X134759211Y-96706224D01*
X134608980Y-96768451D01*
X134473771Y-96858794D01*
X134358794Y-96973771D01*
X134268451Y-97108980D01*
X134206224Y-97259211D01*
X134206223Y-97259214D01*
X134179579Y-97393160D01*
X134174500Y-97418695D01*
X133250500Y-97418695D01*
X133250500Y-95547273D01*
X163602000Y-95547273D01*
X163602000Y-95652727D01*
X163622469Y-95729122D01*
X163629293Y-95754588D01*
X163682019Y-95845911D01*
X163682023Y-95845917D01*
X163756582Y-95920476D01*
X163756585Y-95920478D01*
X163756587Y-95920480D01*
X163847913Y-95973207D01*
X163949773Y-96000500D01*
X163949776Y-96000500D01*
X164055224Y-96000500D01*
X164055227Y-96000500D01*
X164157087Y-95973207D01*
X164248413Y-95920480D01*
X164322980Y-95845913D01*
X164375707Y-95754587D01*
X164403000Y-95652727D01*
X164403000Y-95547273D01*
X164375707Y-95445413D01*
X164322980Y-95354087D01*
X164322978Y-95354085D01*
X164322976Y-95354082D01*
X164248417Y-95279523D01*
X164248411Y-95279519D01*
X164157088Y-95226793D01*
X164131622Y-95219969D01*
X164055227Y-95199500D01*
X163949773Y-95199500D01*
X163888657Y-95215875D01*
X163847911Y-95226793D01*
X163756588Y-95279519D01*
X163756582Y-95279523D01*
X163682023Y-95354082D01*
X163682019Y-95354088D01*
X163629293Y-95445411D01*
X163615646Y-95496343D01*
X163602000Y-95547273D01*
X133250500Y-95547273D01*
X133250500Y-94297273D01*
X153349500Y-94297273D01*
X153349500Y-94402727D01*
X153369969Y-94479122D01*
X153376793Y-94504588D01*
X153429519Y-94595911D01*
X153429523Y-94595917D01*
X153504082Y-94670476D01*
X153504085Y-94670478D01*
X153504087Y-94670480D01*
X153595413Y-94723207D01*
X153697273Y-94750500D01*
X153697276Y-94750500D01*
X153802724Y-94750500D01*
X153802727Y-94750500D01*
X153904587Y-94723207D01*
X153995913Y-94670480D01*
X154070480Y-94595913D01*
X154123207Y-94504587D01*
X154150500Y-94402727D01*
X154150500Y-94297273D01*
X154123207Y-94195413D01*
X154070480Y-94104087D01*
X154070478Y-94104085D01*
X154070476Y-94104082D01*
X153995917Y-94029523D01*
X153995911Y-94029519D01*
X153904588Y-93976793D01*
X153879122Y-93969969D01*
X153802727Y-93949500D01*
X153697273Y-93949500D01*
X153636157Y-93965875D01*
X153595411Y-93976793D01*
X153504088Y-94029519D01*
X153504082Y-94029523D01*
X153429523Y-94104082D01*
X153429519Y-94104088D01*
X153376793Y-94195411D01*
X153370403Y-94219260D01*
X153349500Y-94297273D01*
X133250500Y-94297273D01*
X133250500Y-93647273D01*
X145999500Y-93647273D01*
X145999500Y-93752727D01*
X146011979Y-93799298D01*
X146026793Y-93854588D01*
X146079519Y-93945911D01*
X146079523Y-93945917D01*
X146154082Y-94020476D01*
X146154085Y-94020478D01*
X146154087Y-94020480D01*
X146245413Y-94073207D01*
X146347273Y-94100500D01*
X146347276Y-94100500D01*
X146452724Y-94100500D01*
X146452727Y-94100500D01*
X146554587Y-94073207D01*
X146645913Y-94020480D01*
X146720480Y-93945913D01*
X146773207Y-93854587D01*
X146800500Y-93752727D01*
X146800500Y-93747273D01*
X150799500Y-93747273D01*
X150799500Y-93852727D01*
X150799999Y-93854588D01*
X150826793Y-93954588D01*
X150879519Y-94045911D01*
X150879523Y-94045917D01*
X150954082Y-94120476D01*
X150954085Y-94120478D01*
X150954087Y-94120480D01*
X151045413Y-94173207D01*
X151147273Y-94200500D01*
X151147276Y-94200500D01*
X151252724Y-94200500D01*
X151252727Y-94200500D01*
X151354587Y-94173207D01*
X151445913Y-94120480D01*
X151520480Y-94045913D01*
X151573207Y-93954587D01*
X151600500Y-93852727D01*
X151600500Y-93747273D01*
X151573207Y-93645413D01*
X151520480Y-93554087D01*
X151520478Y-93554085D01*
X151520476Y-93554082D01*
X151445917Y-93479523D01*
X151445911Y-93479519D01*
X151354588Y-93426793D01*
X151329122Y-93419969D01*
X151252727Y-93399500D01*
X151147273Y-93399500D01*
X151086157Y-93415875D01*
X151045411Y-93426793D01*
X150954088Y-93479519D01*
X150954082Y-93479523D01*
X150879523Y-93554082D01*
X150879519Y-93554088D01*
X150826793Y-93645411D01*
X150813146Y-93696343D01*
X150799500Y-93747273D01*
X146800500Y-93747273D01*
X146800500Y-93647273D01*
X146773207Y-93545413D01*
X146720480Y-93454087D01*
X146720478Y-93454085D01*
X146720476Y-93454082D01*
X146645917Y-93379523D01*
X146645911Y-93379519D01*
X146554588Y-93326793D01*
X146529122Y-93319969D01*
X146452727Y-93299500D01*
X146347273Y-93299500D01*
X146286157Y-93315875D01*
X146245411Y-93326793D01*
X146154088Y-93379519D01*
X146154082Y-93379523D01*
X146079523Y-93454082D01*
X146079519Y-93454088D01*
X146026793Y-93545411D01*
X146013146Y-93596343D01*
X145999500Y-93647273D01*
X133250500Y-93647273D01*
X133250500Y-93247273D01*
X162399500Y-93247273D01*
X162399500Y-93352727D01*
X162406680Y-93379523D01*
X162426793Y-93454588D01*
X162479519Y-93545911D01*
X162479523Y-93545917D01*
X162554082Y-93620476D01*
X162554085Y-93620478D01*
X162554087Y-93620480D01*
X162645413Y-93673207D01*
X162747273Y-93700500D01*
X162747276Y-93700500D01*
X162852724Y-93700500D01*
X162852727Y-93700500D01*
X162954587Y-93673207D01*
X163045913Y-93620480D01*
X163120480Y-93545913D01*
X163173207Y-93454587D01*
X163200500Y-93352727D01*
X163200500Y-93247273D01*
X163173207Y-93145413D01*
X163120480Y-93054087D01*
X163120478Y-93054085D01*
X163120476Y-93054082D01*
X163045917Y-92979523D01*
X163045911Y-92979519D01*
X162954588Y-92926793D01*
X162929122Y-92919969D01*
X162852727Y-92899500D01*
X162747273Y-92899500D01*
X162686157Y-92915875D01*
X162645411Y-92926793D01*
X162554088Y-92979519D01*
X162554082Y-92979523D01*
X162479523Y-93054082D01*
X162479519Y-93054088D01*
X162426793Y-93145411D01*
X162417655Y-93179515D01*
X162399500Y-93247273D01*
X133250500Y-93247273D01*
X133250500Y-92747273D01*
X157299500Y-92747273D01*
X157299500Y-92852727D01*
X157312033Y-92899500D01*
X157326793Y-92954588D01*
X157379519Y-93045911D01*
X157379523Y-93045917D01*
X157454082Y-93120476D01*
X157454085Y-93120478D01*
X157454087Y-93120480D01*
X157545413Y-93173207D01*
X157647273Y-93200500D01*
X157647276Y-93200500D01*
X157752724Y-93200500D01*
X157752727Y-93200500D01*
X157854587Y-93173207D01*
X157945913Y-93120480D01*
X158020480Y-93045913D01*
X158073207Y-92954587D01*
X158100500Y-92852727D01*
X158100500Y-92747273D01*
X158073207Y-92645413D01*
X158020480Y-92554087D01*
X158020478Y-92554085D01*
X158020476Y-92554082D01*
X157945917Y-92479523D01*
X157945911Y-92479519D01*
X157854588Y-92426793D01*
X157829122Y-92419969D01*
X157752727Y-92399500D01*
X157647273Y-92399500D01*
X157586157Y-92415875D01*
X157545411Y-92426793D01*
X157454088Y-92479519D01*
X157454082Y-92479523D01*
X157379523Y-92554082D01*
X157379519Y-92554088D01*
X157326793Y-92645411D01*
X157326575Y-92646225D01*
X157299500Y-92747273D01*
X133250500Y-92747273D01*
X133250500Y-90687880D01*
X133260734Y-90650005D01*
X133277947Y-90620480D01*
X133495528Y-90247273D01*
X137999500Y-90247273D01*
X137999500Y-90352727D01*
X138012033Y-90399500D01*
X138026793Y-90454588D01*
X138079519Y-90545911D01*
X138079523Y-90545917D01*
X138154082Y-90620476D01*
X138154085Y-90620478D01*
X138154087Y-90620480D01*
X138245413Y-90673207D01*
X138343764Y-90699560D01*
X138385900Y-90729062D01*
X138399500Y-90772196D01*
X138399500Y-90852727D01*
X138414393Y-90908310D01*
X138426793Y-90954588D01*
X138479519Y-91045911D01*
X138479523Y-91045917D01*
X138554082Y-91120476D01*
X138554085Y-91120478D01*
X138554087Y-91120480D01*
X138645413Y-91173207D01*
X138747273Y-91200500D01*
X138747276Y-91200500D01*
X138852724Y-91200500D01*
X138852727Y-91200500D01*
X138954587Y-91173207D01*
X139045913Y-91120480D01*
X139120480Y-91045913D01*
X139173207Y-90954587D01*
X139200500Y-90852727D01*
X139200500Y-90747273D01*
X144299500Y-90747273D01*
X144299500Y-90852727D01*
X144314393Y-90908310D01*
X144326793Y-90954588D01*
X144379519Y-91045911D01*
X144379523Y-91045917D01*
X144454082Y-91120476D01*
X144454085Y-91120478D01*
X144454087Y-91120480D01*
X144545413Y-91173207D01*
X144545420Y-91173209D01*
X144549964Y-91175091D01*
X144549316Y-91176654D01*
X144585896Y-91202263D01*
X144599500Y-91245402D01*
X144599500Y-91247273D01*
X144599500Y-91352727D01*
X144619969Y-91429122D01*
X144626793Y-91454588D01*
X144679519Y-91545911D01*
X144679523Y-91545917D01*
X144754082Y-91620476D01*
X144754085Y-91620478D01*
X144754087Y-91620480D01*
X144845413Y-91673207D01*
X144947273Y-91700500D01*
X144947276Y-91700500D01*
X145052724Y-91700500D01*
X145052727Y-91700500D01*
X145064770Y-91697273D01*
X151849500Y-91697273D01*
X151849500Y-91802727D01*
X151869969Y-91879122D01*
X151876793Y-91904588D01*
X151929519Y-91995911D01*
X151929523Y-91995917D01*
X152004082Y-92070476D01*
X152004085Y-92070478D01*
X152004087Y-92070480D01*
X152095413Y-92123207D01*
X152197273Y-92150500D01*
X152197276Y-92150500D01*
X152302724Y-92150500D01*
X152302727Y-92150500D01*
X152404587Y-92123207D01*
X152495913Y-92070480D01*
X152570480Y-91995913D01*
X152623207Y-91904587D01*
X152650500Y-91802727D01*
X152650500Y-91697273D01*
X152623207Y-91595413D01*
X152570480Y-91504087D01*
X152570478Y-91504085D01*
X152570476Y-91504082D01*
X152495917Y-91429523D01*
X152495911Y-91429519D01*
X152404588Y-91376793D01*
X152379122Y-91369969D01*
X152302727Y-91349500D01*
X152197273Y-91349500D01*
X152136157Y-91365875D01*
X152095411Y-91376793D01*
X152004088Y-91429519D01*
X152004082Y-91429523D01*
X151929523Y-91504082D01*
X151929519Y-91504088D01*
X151876793Y-91595411D01*
X151870077Y-91620476D01*
X151849500Y-91697273D01*
X145064770Y-91697273D01*
X145154587Y-91673207D01*
X145245913Y-91620480D01*
X145320480Y-91545913D01*
X145373207Y-91454587D01*
X145400500Y-91352727D01*
X145400500Y-91247273D01*
X145373207Y-91145413D01*
X145320480Y-91054087D01*
X145320478Y-91054085D01*
X145320476Y-91054082D01*
X145245917Y-90979523D01*
X145245911Y-90979519D01*
X145154584Y-90926791D01*
X145150035Y-90924907D01*
X145150681Y-90923347D01*
X145114094Y-90897722D01*
X145100500Y-90854597D01*
X145100500Y-90747275D01*
X145100500Y-90747273D01*
X145073207Y-90645413D01*
X145020480Y-90554087D01*
X145020478Y-90554085D01*
X145020476Y-90554082D01*
X144945917Y-90479523D01*
X144945911Y-90479519D01*
X144854588Y-90426793D01*
X144829122Y-90419969D01*
X144752727Y-90399500D01*
X144647273Y-90399500D01*
X144586157Y-90415875D01*
X144545411Y-90426793D01*
X144454088Y-90479519D01*
X144454082Y-90479523D01*
X144379523Y-90554082D01*
X144379519Y-90554088D01*
X144326793Y-90645411D01*
X144315414Y-90687880D01*
X144299500Y-90747273D01*
X139200500Y-90747273D01*
X139173207Y-90645413D01*
X139120480Y-90554087D01*
X139120478Y-90554085D01*
X139120476Y-90554082D01*
X139045917Y-90479523D01*
X139045911Y-90479519D01*
X138954588Y-90426793D01*
X138920662Y-90417703D01*
X138856235Y-90400440D01*
X138814100Y-90370936D01*
X138800500Y-90327803D01*
X138800500Y-90247275D01*
X138800500Y-90247273D01*
X138773207Y-90145413D01*
X138720480Y-90054087D01*
X138720478Y-90054085D01*
X138720476Y-90054082D01*
X138645917Y-89979523D01*
X138645911Y-89979519D01*
X138554588Y-89926793D01*
X138529122Y-89919969D01*
X138452727Y-89899500D01*
X138347273Y-89899500D01*
X138286157Y-89915875D01*
X138245411Y-89926793D01*
X138154088Y-89979519D01*
X138154082Y-89979523D01*
X138079523Y-90054082D01*
X138079519Y-90054088D01*
X138026793Y-90145411D01*
X138013146Y-90196343D01*
X137999500Y-90247273D01*
X133495528Y-90247273D01*
X133651629Y-89979520D01*
X133657339Y-89969726D01*
X133659127Y-89966813D01*
X133667020Y-89954588D01*
X133800865Y-89747273D01*
X144299500Y-89747273D01*
X144299500Y-89852727D01*
X144306680Y-89879523D01*
X144326793Y-89954588D01*
X144379519Y-90045911D01*
X144379523Y-90045917D01*
X144454082Y-90120476D01*
X144454085Y-90120478D01*
X144454087Y-90120480D01*
X144545413Y-90173207D01*
X144647273Y-90200500D01*
X144647276Y-90200500D01*
X144752724Y-90200500D01*
X144752727Y-90200500D01*
X144854587Y-90173207D01*
X144899506Y-90147273D01*
X153999500Y-90147273D01*
X153999500Y-90252727D01*
X154018951Y-90325320D01*
X154026793Y-90354588D01*
X154079519Y-90445911D01*
X154079523Y-90445917D01*
X154154082Y-90520476D01*
X154154085Y-90520478D01*
X154154087Y-90520480D01*
X154245413Y-90573207D01*
X154347273Y-90600500D01*
X154347276Y-90600500D01*
X154452724Y-90600500D01*
X154452727Y-90600500D01*
X154554587Y-90573207D01*
X154645913Y-90520480D01*
X154720480Y-90445913D01*
X154769032Y-90361817D01*
X154808436Y-90328752D01*
X154859876Y-90328752D01*
X154899282Y-90361816D01*
X154906795Y-90379953D01*
X154924468Y-90445911D01*
X154926794Y-90454589D01*
X154979519Y-90545911D01*
X154979523Y-90545917D01*
X155054082Y-90620476D01*
X155054085Y-90620478D01*
X155054087Y-90620480D01*
X155145413Y-90673207D01*
X155247273Y-90700500D01*
X155247276Y-90700500D01*
X155352724Y-90700500D01*
X155352727Y-90700500D01*
X155454587Y-90673207D01*
X155545913Y-90620480D01*
X155620480Y-90545913D01*
X155673207Y-90454587D01*
X155700500Y-90352727D01*
X155700500Y-90247273D01*
X155673207Y-90145413D01*
X155620480Y-90054087D01*
X155620478Y-90054085D01*
X155620476Y-90054082D01*
X155545917Y-89979523D01*
X155545911Y-89979519D01*
X155454588Y-89926793D01*
X155429122Y-89919969D01*
X155352727Y-89899500D01*
X155247273Y-89899500D01*
X155186157Y-89915875D01*
X155145411Y-89926793D01*
X155054088Y-89979519D01*
X155054082Y-89979523D01*
X154979523Y-90054082D01*
X154979519Y-90054088D01*
X154930967Y-90138182D01*
X154891562Y-90171247D01*
X154840122Y-90171247D01*
X154800717Y-90138182D01*
X154793204Y-90120045D01*
X154786226Y-90094002D01*
X154773207Y-90045413D01*
X154720480Y-89954087D01*
X154720478Y-89954085D01*
X154720476Y-89954082D01*
X154645917Y-89879523D01*
X154645911Y-89879519D01*
X154554588Y-89826793D01*
X154529122Y-89819969D01*
X154452727Y-89799500D01*
X154347273Y-89799500D01*
X154286157Y-89815875D01*
X154245411Y-89826793D01*
X154154088Y-89879519D01*
X154154082Y-89879523D01*
X154079523Y-89954082D01*
X154079519Y-89954088D01*
X154026793Y-90045411D01*
X154015068Y-90089170D01*
X153999500Y-90147273D01*
X144899506Y-90147273D01*
X144945913Y-90120480D01*
X144946348Y-90120045D01*
X144977224Y-90089170D01*
X145020476Y-90045917D01*
X145020480Y-90045913D01*
X145073207Y-89954587D01*
X145100500Y-89852727D01*
X145100500Y-89747273D01*
X145073207Y-89645413D01*
X145020480Y-89554087D01*
X145020478Y-89554085D01*
X145020476Y-89554082D01*
X144945917Y-89479523D01*
X144945911Y-89479519D01*
X144854588Y-89426793D01*
X144829122Y-89419969D01*
X144752727Y-89399500D01*
X144647273Y-89399500D01*
X144586157Y-89415875D01*
X144545411Y-89426793D01*
X144454088Y-89479519D01*
X144454082Y-89479523D01*
X144379523Y-89554082D01*
X144379519Y-89554088D01*
X144326793Y-89645411D01*
X144313146Y-89696343D01*
X144299500Y-89747273D01*
X133800865Y-89747273D01*
X134130021Y-89237437D01*
X134131876Y-89234701D01*
X134635486Y-88527391D01*
X134637490Y-88524710D01*
X135172671Y-87841081D01*
X135174783Y-87838505D01*
X135740517Y-87179852D01*
X135742734Y-87177387D01*
X135959314Y-86947273D01*
X141099500Y-86947273D01*
X141099500Y-87052727D01*
X141113463Y-87104837D01*
X141126793Y-87154588D01*
X141179519Y-87245911D01*
X141179523Y-87245917D01*
X141254082Y-87320476D01*
X141254085Y-87320478D01*
X141254087Y-87320480D01*
X141345413Y-87373207D01*
X141447273Y-87400500D01*
X141447276Y-87400500D01*
X141540825Y-87400500D01*
X141589163Y-87418093D01*
X141614883Y-87462642D01*
X141613463Y-87495161D01*
X141599500Y-87547273D01*
X141599500Y-87652727D01*
X141606680Y-87679523D01*
X141626793Y-87754588D01*
X141679519Y-87845911D01*
X141679523Y-87845917D01*
X141754082Y-87920476D01*
X141754085Y-87920478D01*
X141754087Y-87920480D01*
X141845413Y-87973207D01*
X141947273Y-88000500D01*
X141947276Y-88000500D01*
X142052724Y-88000500D01*
X142052727Y-88000500D01*
X142154587Y-87973207D01*
X142199506Y-87947273D01*
X145999500Y-87947273D01*
X145999500Y-88052727D01*
X146017888Y-88121354D01*
X146026793Y-88154588D01*
X146079519Y-88245911D01*
X146079523Y-88245917D01*
X146154082Y-88320476D01*
X146154085Y-88320478D01*
X146154087Y-88320480D01*
X146245413Y-88373207D01*
X146347273Y-88400500D01*
X146347276Y-88400500D01*
X146452724Y-88400500D01*
X146452727Y-88400500D01*
X146554587Y-88373207D01*
X146645913Y-88320480D01*
X146720480Y-88245913D01*
X146773207Y-88154587D01*
X146800500Y-88052727D01*
X146800500Y-87947273D01*
X153349500Y-87947273D01*
X153349500Y-88052727D01*
X153367888Y-88121354D01*
X153376793Y-88154588D01*
X153429519Y-88245911D01*
X153429523Y-88245917D01*
X153504082Y-88320476D01*
X153504085Y-88320478D01*
X153504087Y-88320480D01*
X153595413Y-88373207D01*
X153697273Y-88400500D01*
X153697276Y-88400500D01*
X153802724Y-88400500D01*
X153802727Y-88400500D01*
X153904587Y-88373207D01*
X153995913Y-88320480D01*
X154070480Y-88245913D01*
X154123207Y-88154587D01*
X154150500Y-88052727D01*
X154150500Y-87947273D01*
X154123207Y-87845413D01*
X154070480Y-87754087D01*
X154070478Y-87754085D01*
X154070476Y-87754082D01*
X153995917Y-87679523D01*
X153995911Y-87679519D01*
X153904588Y-87626793D01*
X153879122Y-87619969D01*
X153802727Y-87599500D01*
X153697273Y-87599500D01*
X153636157Y-87615875D01*
X153595411Y-87626793D01*
X153504088Y-87679519D01*
X153504082Y-87679523D01*
X153429523Y-87754082D01*
X153429519Y-87754088D01*
X153376793Y-87845411D01*
X153365068Y-87889170D01*
X153349500Y-87947273D01*
X146800500Y-87947273D01*
X146773207Y-87845413D01*
X146720480Y-87754087D01*
X146720478Y-87754085D01*
X146720476Y-87754082D01*
X146645917Y-87679523D01*
X146645911Y-87679519D01*
X146554588Y-87626793D01*
X146529122Y-87619969D01*
X146452727Y-87599500D01*
X146347273Y-87599500D01*
X146286157Y-87615875D01*
X146245411Y-87626793D01*
X146154088Y-87679519D01*
X146154082Y-87679523D01*
X146079523Y-87754082D01*
X146079519Y-87754088D01*
X146026793Y-87845411D01*
X146015068Y-87889170D01*
X145999500Y-87947273D01*
X142199506Y-87947273D01*
X142245913Y-87920480D01*
X142256551Y-87909842D01*
X142277224Y-87889170D01*
X142320476Y-87845917D01*
X142320480Y-87845913D01*
X142373207Y-87754587D01*
X142400500Y-87652727D01*
X142400500Y-87547273D01*
X142386537Y-87495162D01*
X142391021Y-87443919D01*
X142427395Y-87407545D01*
X142459175Y-87400500D01*
X142552724Y-87400500D01*
X142552727Y-87400500D01*
X142654587Y-87373207D01*
X142745913Y-87320480D01*
X142820480Y-87245913D01*
X142873207Y-87154587D01*
X142900500Y-87052727D01*
X142900500Y-86947273D01*
X142873207Y-86845413D01*
X142820480Y-86754087D01*
X142820478Y-86754085D01*
X142820476Y-86754082D01*
X142745917Y-86679523D01*
X142745911Y-86679519D01*
X142654588Y-86626793D01*
X142629122Y-86619969D01*
X142552727Y-86599500D01*
X142447273Y-86599500D01*
X142390657Y-86614670D01*
X142345411Y-86626793D01*
X142254088Y-86679519D01*
X142254082Y-86679523D01*
X142179523Y-86754082D01*
X142179519Y-86754088D01*
X142126793Y-86845411D01*
X142114631Y-86890804D01*
X142099500Y-86947273D01*
X142099500Y-87052727D01*
X142113463Y-87104837D01*
X142113163Y-87108263D01*
X142114883Y-87111242D01*
X142110951Y-87133535D01*
X142108979Y-87156081D01*
X142106547Y-87158512D01*
X142105950Y-87161900D01*
X142088609Y-87176450D01*
X142072605Y-87192455D01*
X142068434Y-87193379D01*
X142066545Y-87194965D01*
X142040825Y-87199500D01*
X141959175Y-87199500D01*
X141910837Y-87181907D01*
X141885117Y-87137358D01*
X141886537Y-87104837D01*
X141900500Y-87052727D01*
X141900500Y-86947273D01*
X141873207Y-86845413D01*
X141820480Y-86754087D01*
X141820478Y-86754085D01*
X141820476Y-86754082D01*
X141745917Y-86679523D01*
X141745911Y-86679519D01*
X141654588Y-86626793D01*
X141629122Y-86619969D01*
X141552727Y-86599500D01*
X141447273Y-86599500D01*
X141390657Y-86614670D01*
X141345411Y-86626793D01*
X141254088Y-86679519D01*
X141254082Y-86679523D01*
X141179523Y-86754082D01*
X141179519Y-86754088D01*
X141126793Y-86845411D01*
X141114631Y-86890804D01*
X141099500Y-86947273D01*
X135959314Y-86947273D01*
X136337799Y-86545138D01*
X136340132Y-86542770D01*
X136963313Y-85938214D01*
X136965764Y-85935942D01*
X137615772Y-85360330D01*
X137618323Y-85358174D01*
X137865914Y-85158237D01*
X142376000Y-85158237D01*
X142376000Y-85306762D01*
X142404975Y-85452430D01*
X142404976Y-85452433D01*
X142461814Y-85589654D01*
X142514456Y-85668438D01*
X142826684Y-85356210D01*
X142827149Y-85357945D01*
X142869936Y-85432054D01*
X142930446Y-85492564D01*
X143004555Y-85535351D01*
X143006288Y-85535815D01*
X142694060Y-85848042D01*
X142772848Y-85900686D01*
X142910066Y-85957523D01*
X142910069Y-85957524D01*
X143055737Y-85986500D01*
X143204263Y-85986500D01*
X143349930Y-85957524D01*
X143349933Y-85957523D01*
X143487155Y-85900684D01*
X143565937Y-85848043D01*
X143565938Y-85848042D01*
X143253711Y-85535815D01*
X143255445Y-85535351D01*
X143329554Y-85492564D01*
X143390064Y-85432054D01*
X143432851Y-85357945D01*
X143433315Y-85356211D01*
X143727474Y-85650370D01*
X143749214Y-85696990D01*
X143749500Y-85703544D01*
X143749500Y-85747320D01*
X143758232Y-85791220D01*
X143758233Y-85791222D01*
X143791495Y-85841004D01*
X143811826Y-85854588D01*
X143841278Y-85874267D01*
X143885180Y-85883000D01*
X144914820Y-85883000D01*
X144958722Y-85874267D01*
X145008504Y-85841004D01*
X145041767Y-85791222D01*
X145050500Y-85747320D01*
X145050500Y-85647273D01*
X152699500Y-85647273D01*
X152699500Y-85752727D01*
X152709814Y-85791220D01*
X152726793Y-85854588D01*
X152779519Y-85945911D01*
X152779523Y-85945917D01*
X152854082Y-86020476D01*
X152854085Y-86020478D01*
X152854087Y-86020480D01*
X152945413Y-86073207D01*
X153047273Y-86100500D01*
X153047276Y-86100500D01*
X153152724Y-86100500D01*
X153152727Y-86100500D01*
X153254587Y-86073207D01*
X153345913Y-86020480D01*
X153420480Y-85945913D01*
X153473207Y-85854587D01*
X153500500Y-85752727D01*
X153500500Y-85647273D01*
X153473207Y-85545413D01*
X153420480Y-85454087D01*
X153420478Y-85454085D01*
X153420476Y-85454082D01*
X153345917Y-85379523D01*
X153345911Y-85379519D01*
X153254588Y-85326793D01*
X153229122Y-85319969D01*
X153152727Y-85299500D01*
X153047273Y-85299500D01*
X152986157Y-85315875D01*
X152945411Y-85326793D01*
X152854088Y-85379519D01*
X152854082Y-85379523D01*
X152779523Y-85454082D01*
X152779519Y-85454088D01*
X152726793Y-85545411D01*
X152723554Y-85557500D01*
X152699500Y-85647273D01*
X145050500Y-85647273D01*
X145050500Y-84717680D01*
X145041767Y-84673778D01*
X145030728Y-84657258D01*
X145008504Y-84623995D01*
X144958722Y-84590733D01*
X144958720Y-84590732D01*
X144914820Y-84582000D01*
X143885180Y-84582000D01*
X143841279Y-84590732D01*
X143841277Y-84590733D01*
X143791495Y-84623995D01*
X143758233Y-84673777D01*
X143758232Y-84673779D01*
X143749500Y-84717679D01*
X143749500Y-84761455D01*
X143731907Y-84809793D01*
X143727474Y-84814629D01*
X143433315Y-85108787D01*
X143432851Y-85107055D01*
X143390064Y-85032946D01*
X143329554Y-84972436D01*
X143255445Y-84929649D01*
X143253710Y-84929184D01*
X143565938Y-84616956D01*
X143565938Y-84616955D01*
X143487154Y-84564314D01*
X143349933Y-84507476D01*
X143349930Y-84507475D01*
X143204263Y-84478500D01*
X143055737Y-84478500D01*
X142910069Y-84507475D01*
X142910066Y-84507476D01*
X142772845Y-84564314D01*
X142694060Y-84616955D01*
X142694060Y-84616956D01*
X143006289Y-84929184D01*
X143004555Y-84929649D01*
X142930446Y-84972436D01*
X142869936Y-85032946D01*
X142827149Y-85107055D01*
X142826684Y-85108788D01*
X142514456Y-84796560D01*
X142514455Y-84796560D01*
X142461814Y-84875345D01*
X142404976Y-85012566D01*
X142404975Y-85012569D01*
X142376000Y-85158237D01*
X137865914Y-85158237D01*
X138293784Y-84812719D01*
X138296470Y-84810650D01*
X138996002Y-84296465D01*
X138998770Y-84294525D01*
X139720964Y-83812646D01*
X139723799Y-83810846D01*
X140467161Y-83362272D01*
X140470072Y-83360604D01*
X141233054Y-82946272D01*
X141236036Y-82944739D01*
X142017036Y-82565514D01*
X142020091Y-82564116D01*
X142817532Y-82220766D01*
X142820637Y-82219512D01*
X143632852Y-81912755D01*
X143636073Y-81911623D01*
X144461335Y-81642108D01*
X144464554Y-81641137D01*
X145301236Y-81409395D01*
X145304522Y-81408564D01*
X146150889Y-81215077D01*
X146154192Y-81214400D01*
X147008459Y-81059576D01*
X147011818Y-81059046D01*
X147872226Y-80943201D01*
X147875605Y-80942824D01*
X148740405Y-80866197D01*
X148743769Y-80865976D01*
X149611156Y-80828725D01*
X149614544Y-80828657D01*
X150482751Y-80830859D01*
G37*
%TD.AperFunction*%
%TD*%
M02*
