%TF.GenerationSoftware,KiCad,Pcbnew,9.0.7-1.fc43*%
%TF.CreationDate,2026-01-31T17:59:12-08:00*%
%TF.ProjectId,watch,77617463-682e-46b6-9963-61645f706362,rev?*%
%TF.SameCoordinates,Original*%
%TF.FileFunction,Legend,Top*%
%TF.FilePolarity,Positive*%
%FSLAX46Y46*%
G04 Gerber Fmt 4.6, Leading zero omitted, Abs format (unit mm)*
G04 Created by KiCad (PCBNEW 9.0.7-1.fc43) date 2026-01-31 17:59:12*
%MOMM*%
%LPD*%
G01*
G04 APERTURE LIST*
G04 Aperture macros list*
%AMRoundRect*
0 Rectangle with rounded corners*
0 $1 Rounding radius*
0 $2 $3 $4 $5 $6 $7 $8 $9 X,Y pos of 4 corners*
0 Add a 4 corners polygon primitive as box body*
4,1,4,$2,$3,$4,$5,$6,$7,$8,$9,$2,$3,0*
0 Add four circle primitives for the rounded corners*
1,1,$1+$1,$2,$3*
1,1,$1+$1,$4,$5*
1,1,$1+$1,$6,$7*
1,1,$1+$1,$8,$9*
0 Add four rect primitives between the rounded corners*
20,1,$1+$1,$2,$3,$4,$5,0*
20,1,$1+$1,$4,$5,$6,$7,0*
20,1,$1+$1,$6,$7,$8,$9,0*
20,1,$1+$1,$8,$9,$2,$3,0*%
%AMRotRect*
0 Rectangle, with rotation*
0 The origin of the aperture is its center*
0 $1 length*
0 $2 width*
0 $3 Rotation angle, in degrees counterclockwise*
0 Add horizontal line*
21,1,$1,$2,0,0,$3*%
%AMFreePoly0*
4,1,17,0.675000,0.300000,0.260846,0.300000,0.317341,0.243505,0.369552,0.153073,0.396578,0.052210,0.396578,-0.052210,0.369552,-0.153073,0.317341,-0.243505,0.243505,-0.317341,0.153073,-0.369552,0.052210,-0.396578,0.000000,-0.396578,0.000000,-0.400000,-0.475000,-0.400000,-0.475000,0.950000,0.675000,0.950000,0.675000,0.300000,0.675000,0.300000,$1*%
%AMFreePoly1*
4,1,17,0.475000,-0.400000,0.000000,-0.400000,0.000000,-0.396578,-0.052210,-0.396578,-0.153073,-0.369552,-0.243505,-0.317341,-0.317341,-0.243505,-0.369552,-0.153073,-0.396578,-0.052210,-0.396578,0.052210,-0.369552,0.153073,-0.317341,0.243505,-0.260846,0.300000,-0.675000,0.300000,-0.675000,0.950000,0.475000,0.950000,0.475000,-0.400000,0.475000,-0.400000,$1*%
G04 Aperture macros list end*
%ADD10C,0.130000*%
%ADD11C,0.120000*%
%ADD12C,0.150000*%
%ADD13C,0.160000*%
%ADD14C,0.100000*%
%ADD15C,0.990600*%
%ADD16C,0.787400*%
%ADD17RoundRect,0.155000X-0.155000X0.212500X-0.155000X-0.212500X0.155000X-0.212500X0.155000X0.212500X0*%
%ADD18RoundRect,0.160000X-0.160000X0.197500X-0.160000X-0.197500X0.160000X-0.197500X0.160000X0.197500X0*%
%ADD19RoundRect,0.160000X-0.197500X-0.160000X0.197500X-0.160000X0.197500X0.160000X-0.197500X0.160000X0*%
%ADD20RoundRect,0.200000X0.200000X-0.250000X0.200000X0.250000X-0.200000X0.250000X-0.200000X-0.250000X0*%
%ADD21RoundRect,0.250000X-0.275000X-0.350000X0.275000X-0.350000X0.275000X0.350000X-0.275000X0.350000X0*%
%ADD22R,1.000000X1.000000*%
%ADD23C,1.000000*%
%ADD24RotRect,0.700000X1.100000X255.000000*%
%ADD25RotRect,1.400000X1.100000X255.000000*%
%ADD26FreePoly0,255.000000*%
%ADD27FreePoly1,255.000000*%
%ADD28RoundRect,0.155000X-0.212500X-0.155000X0.212500X-0.155000X0.212500X0.155000X-0.212500X0.155000X0*%
%ADD29R,0.350000X0.300000*%
%ADD30R,0.300000X0.350000*%
%ADD31RoundRect,0.250000X-0.475000X0.337500X-0.475000X-0.337500X0.475000X-0.337500X0.475000X0.337500X0*%
%ADD32RoundRect,0.155000X0.212500X0.155000X-0.212500X0.155000X-0.212500X-0.155000X0.212500X-0.155000X0*%
%ADD33RoundRect,0.062500X0.062500X-0.337500X0.062500X0.337500X-0.062500X0.337500X-0.062500X-0.337500X0*%
%ADD34RoundRect,0.062500X0.337500X-0.062500X0.337500X0.062500X-0.337500X0.062500X-0.337500X-0.062500X0*%
%ADD35R,3.500000X3.500000*%
%ADD36R,0.852300X0.254000*%
%ADD37R,0.852300X0.253994*%
%ADD38R,0.700000X1.295400*%
%ADD39C,1.150000*%
%ADD40RoundRect,0.100000X-0.700000X-0.100000X0.700000X-0.100000X0.700000X0.100000X-0.700000X0.100000X0*%
%ADD41O,1.100000X1.600000*%
%ADD42RoundRect,0.237500X-0.300000X-0.237500X0.300000X-0.237500X0.300000X0.237500X-0.300000X0.237500X0*%
%ADD43RoundRect,0.237500X0.300000X0.237500X-0.300000X0.237500X-0.300000X-0.237500X0.300000X-0.237500X0*%
%ADD44RoundRect,0.155000X0.155000X-0.212500X0.155000X0.212500X-0.155000X0.212500X-0.155000X-0.212500X0*%
%ADD45RoundRect,0.250000X0.475000X-0.337500X0.475000X0.337500X-0.475000X0.337500X-0.475000X-0.337500X0*%
%ADD46RoundRect,0.250000X-0.275000X-0.300000X0.275000X-0.300000X0.275000X0.300000X-0.275000X0.300000X0*%
%ADD47RoundRect,0.075000X0.675000X-0.075000X0.675000X0.075000X-0.675000X0.075000X-0.675000X-0.075000X0*%
%ADD48RoundRect,0.200000X0.200000X-0.275000X0.200000X0.275000X-0.200000X0.275000X-0.200000X-0.275000X0*%
%ADD49RoundRect,0.062500X0.375000X0.062500X-0.375000X0.062500X-0.375000X-0.062500X0.375000X-0.062500X0*%
%ADD50RoundRect,0.062500X0.062500X0.375000X-0.062500X0.375000X-0.062500X-0.375000X0.062500X-0.375000X0*%
%ADD51R,2.150000X2.150000*%
%ADD52RoundRect,0.160000X0.160000X-0.197500X0.160000X0.197500X-0.160000X0.197500X-0.160000X-0.197500X0*%
%ADD53RotRect,0.700000X1.100000X285.000000*%
%ADD54RotRect,1.400000X1.100000X285.000000*%
%ADD55FreePoly0,285.000000*%
%ADD56FreePoly1,285.000000*%
G04 APERTURE END LIST*
D10*
X135536467Y-109043332D02*
X136143610Y-109043332D01*
X136143610Y-109043332D02*
X136265038Y-109083809D01*
X136265038Y-109083809D02*
X136345991Y-109164761D01*
X136345991Y-109164761D02*
X136386467Y-109286190D01*
X136386467Y-109286190D02*
X136386467Y-109367142D01*
X135536467Y-108719523D02*
X135536467Y-108193332D01*
X135536467Y-108193332D02*
X135860276Y-108476666D01*
X135860276Y-108476666D02*
X135860276Y-108355237D01*
X135860276Y-108355237D02*
X135900752Y-108274285D01*
X135900752Y-108274285D02*
X135941229Y-108233809D01*
X135941229Y-108233809D02*
X136022181Y-108193332D01*
X136022181Y-108193332D02*
X136224562Y-108193332D01*
X136224562Y-108193332D02*
X136305514Y-108233809D01*
X136305514Y-108233809D02*
X136345991Y-108274285D01*
X136345991Y-108274285D02*
X136386467Y-108355237D01*
X136386467Y-108355237D02*
X136386467Y-108598094D01*
X136386467Y-108598094D02*
X136345991Y-108679047D01*
X136345991Y-108679047D02*
X136305514Y-108719523D01*
X144805514Y-117146428D02*
X144845991Y-117186904D01*
X144845991Y-117186904D02*
X144886467Y-117308333D01*
X144886467Y-117308333D02*
X144886467Y-117389285D01*
X144886467Y-117389285D02*
X144845991Y-117510714D01*
X144845991Y-117510714D02*
X144765038Y-117591666D01*
X144765038Y-117591666D02*
X144684086Y-117632143D01*
X144684086Y-117632143D02*
X144522181Y-117672619D01*
X144522181Y-117672619D02*
X144400752Y-117672619D01*
X144400752Y-117672619D02*
X144238848Y-117632143D01*
X144238848Y-117632143D02*
X144157895Y-117591666D01*
X144157895Y-117591666D02*
X144076943Y-117510714D01*
X144076943Y-117510714D02*
X144036467Y-117389285D01*
X144036467Y-117389285D02*
X144036467Y-117308333D01*
X144036467Y-117308333D02*
X144076943Y-117186904D01*
X144076943Y-117186904D02*
X144117419Y-117146428D01*
X144886467Y-116336904D02*
X144886467Y-116822619D01*
X144886467Y-116579762D02*
X144036467Y-116579762D01*
X144036467Y-116579762D02*
X144157895Y-116660714D01*
X144157895Y-116660714D02*
X144238848Y-116741666D01*
X144238848Y-116741666D02*
X144279324Y-116822619D01*
X144036467Y-116053571D02*
X144036467Y-115527380D01*
X144036467Y-115527380D02*
X144360276Y-115810714D01*
X144360276Y-115810714D02*
X144360276Y-115689285D01*
X144360276Y-115689285D02*
X144400752Y-115608333D01*
X144400752Y-115608333D02*
X144441229Y-115567857D01*
X144441229Y-115567857D02*
X144522181Y-115527380D01*
X144522181Y-115527380D02*
X144724562Y-115527380D01*
X144724562Y-115527380D02*
X144805514Y-115567857D01*
X144805514Y-115567857D02*
X144845991Y-115608333D01*
X144845991Y-115608333D02*
X144886467Y-115689285D01*
X144886467Y-115689285D02*
X144886467Y-115932142D01*
X144886467Y-115932142D02*
X144845991Y-116013095D01*
X144845991Y-116013095D02*
X144805514Y-116053571D01*
X136486467Y-88744166D02*
X136081705Y-89027500D01*
X136486467Y-89229881D02*
X135636467Y-89229881D01*
X135636467Y-89229881D02*
X135636467Y-88906071D01*
X135636467Y-88906071D02*
X135676943Y-88825119D01*
X135676943Y-88825119D02*
X135717419Y-88784642D01*
X135717419Y-88784642D02*
X135798371Y-88744166D01*
X135798371Y-88744166D02*
X135919800Y-88744166D01*
X135919800Y-88744166D02*
X136000752Y-88784642D01*
X136000752Y-88784642D02*
X136041229Y-88825119D01*
X136041229Y-88825119D02*
X136081705Y-88906071D01*
X136081705Y-88906071D02*
X136081705Y-89229881D01*
X135636467Y-87975119D02*
X135636467Y-88379881D01*
X135636467Y-88379881D02*
X136041229Y-88420357D01*
X136041229Y-88420357D02*
X136000752Y-88379881D01*
X136000752Y-88379881D02*
X135960276Y-88298928D01*
X135960276Y-88298928D02*
X135960276Y-88096547D01*
X135960276Y-88096547D02*
X136000752Y-88015595D01*
X136000752Y-88015595D02*
X136041229Y-87975119D01*
X136041229Y-87975119D02*
X136122181Y-87934642D01*
X136122181Y-87934642D02*
X136324562Y-87934642D01*
X136324562Y-87934642D02*
X136405514Y-87975119D01*
X136405514Y-87975119D02*
X136445991Y-88015595D01*
X136445991Y-88015595D02*
X136486467Y-88096547D01*
X136486467Y-88096547D02*
X136486467Y-88298928D01*
X136486467Y-88298928D02*
X136445991Y-88379881D01*
X136445991Y-88379881D02*
X136405514Y-88420357D01*
X163258333Y-93616467D02*
X162974999Y-93211705D01*
X162772618Y-93616467D02*
X162772618Y-92766467D01*
X162772618Y-92766467D02*
X163096428Y-92766467D01*
X163096428Y-92766467D02*
X163177380Y-92806943D01*
X163177380Y-92806943D02*
X163217857Y-92847419D01*
X163217857Y-92847419D02*
X163258333Y-92928371D01*
X163258333Y-92928371D02*
X163258333Y-93049800D01*
X163258333Y-93049800D02*
X163217857Y-93130752D01*
X163217857Y-93130752D02*
X163177380Y-93171229D01*
X163177380Y-93171229D02*
X163096428Y-93211705D01*
X163096428Y-93211705D02*
X162772618Y-93211705D01*
X163541666Y-92766467D02*
X164108333Y-92766467D01*
X164108333Y-92766467D02*
X163744047Y-93616467D01*
X139660833Y-86216467D02*
X139377499Y-85811705D01*
X139175118Y-86216467D02*
X139175118Y-85366467D01*
X139175118Y-85366467D02*
X139498928Y-85366467D01*
X139498928Y-85366467D02*
X139579880Y-85406943D01*
X139579880Y-85406943D02*
X139620357Y-85447419D01*
X139620357Y-85447419D02*
X139660833Y-85528371D01*
X139660833Y-85528371D02*
X139660833Y-85649800D01*
X139660833Y-85649800D02*
X139620357Y-85730752D01*
X139620357Y-85730752D02*
X139579880Y-85771229D01*
X139579880Y-85771229D02*
X139498928Y-85811705D01*
X139498928Y-85811705D02*
X139175118Y-85811705D01*
X140389404Y-85366467D02*
X140227499Y-85366467D01*
X140227499Y-85366467D02*
X140146547Y-85406943D01*
X140146547Y-85406943D02*
X140106071Y-85447419D01*
X140106071Y-85447419D02*
X140025118Y-85568848D01*
X140025118Y-85568848D02*
X139984642Y-85730752D01*
X139984642Y-85730752D02*
X139984642Y-86054562D01*
X139984642Y-86054562D02*
X140025118Y-86135514D01*
X140025118Y-86135514D02*
X140065595Y-86175991D01*
X140065595Y-86175991D02*
X140146547Y-86216467D01*
X140146547Y-86216467D02*
X140308452Y-86216467D01*
X140308452Y-86216467D02*
X140389404Y-86175991D01*
X140389404Y-86175991D02*
X140429880Y-86135514D01*
X140429880Y-86135514D02*
X140470357Y-86054562D01*
X140470357Y-86054562D02*
X140470357Y-85852181D01*
X140470357Y-85852181D02*
X140429880Y-85771229D01*
X140429880Y-85771229D02*
X140389404Y-85730752D01*
X140389404Y-85730752D02*
X140308452Y-85690276D01*
X140308452Y-85690276D02*
X140146547Y-85690276D01*
X140146547Y-85690276D02*
X140065595Y-85730752D01*
X140065595Y-85730752D02*
X140025118Y-85771229D01*
X140025118Y-85771229D02*
X139984642Y-85852181D01*
X152811904Y-99036467D02*
X153378571Y-99886467D01*
X153378571Y-99036467D02*
X152811904Y-99886467D01*
X154147619Y-99886467D02*
X153661904Y-99886467D01*
X153904761Y-99886467D02*
X153904761Y-99036467D01*
X153904761Y-99036467D02*
X153823809Y-99157895D01*
X153823809Y-99157895D02*
X153742857Y-99238848D01*
X153742857Y-99238848D02*
X153661904Y-99279324D01*
X144258333Y-96586467D02*
X143853571Y-96586467D01*
X143853571Y-96586467D02*
X143853571Y-95736467D01*
X144946428Y-95736467D02*
X144541666Y-95736467D01*
X144541666Y-95736467D02*
X144501190Y-96141229D01*
X144501190Y-96141229D02*
X144541666Y-96100752D01*
X144541666Y-96100752D02*
X144622619Y-96060276D01*
X144622619Y-96060276D02*
X144825000Y-96060276D01*
X144825000Y-96060276D02*
X144905952Y-96100752D01*
X144905952Y-96100752D02*
X144946428Y-96141229D01*
X144946428Y-96141229D02*
X144986905Y-96222181D01*
X144986905Y-96222181D02*
X144986905Y-96424562D01*
X144986905Y-96424562D02*
X144946428Y-96505514D01*
X144946428Y-96505514D02*
X144905952Y-96545991D01*
X144905952Y-96545991D02*
X144825000Y-96586467D01*
X144825000Y-96586467D02*
X144622619Y-96586467D01*
X144622619Y-96586467D02*
X144541666Y-96545991D01*
X144541666Y-96545991D02*
X144501190Y-96505514D01*
X146086229Y-85900356D02*
X146126705Y-85778928D01*
X146126705Y-85778928D02*
X146167181Y-85738451D01*
X146167181Y-85738451D02*
X146248133Y-85697975D01*
X146248133Y-85697975D02*
X146369562Y-85697975D01*
X146369562Y-85697975D02*
X146450514Y-85738451D01*
X146450514Y-85738451D02*
X146490991Y-85778928D01*
X146490991Y-85778928D02*
X146531467Y-85859880D01*
X146531467Y-85859880D02*
X146531467Y-86183690D01*
X146531467Y-86183690D02*
X145681467Y-86183690D01*
X145681467Y-86183690D02*
X145681467Y-85900356D01*
X145681467Y-85900356D02*
X145721943Y-85819404D01*
X145721943Y-85819404D02*
X145762419Y-85778928D01*
X145762419Y-85778928D02*
X145843371Y-85738451D01*
X145843371Y-85738451D02*
X145924324Y-85738451D01*
X145924324Y-85738451D02*
X146005276Y-85778928D01*
X146005276Y-85778928D02*
X146045752Y-85819404D01*
X146045752Y-85819404D02*
X146086229Y-85900356D01*
X146086229Y-85900356D02*
X146086229Y-86183690D01*
X145681467Y-85455118D02*
X145681467Y-84969404D01*
X146531467Y-85212261D02*
X145681467Y-85212261D01*
X146531467Y-84240832D02*
X146531467Y-84726547D01*
X146531467Y-84483690D02*
X145681467Y-84483690D01*
X145681467Y-84483690D02*
X145802895Y-84564642D01*
X145802895Y-84564642D02*
X145883848Y-84645594D01*
X145883848Y-84645594D02*
X145924324Y-84726547D01*
X163758333Y-109086467D02*
X163474999Y-108681705D01*
X163272618Y-109086467D02*
X163272618Y-108236467D01*
X163272618Y-108236467D02*
X163596428Y-108236467D01*
X163596428Y-108236467D02*
X163677380Y-108276943D01*
X163677380Y-108276943D02*
X163717857Y-108317419D01*
X163717857Y-108317419D02*
X163758333Y-108398371D01*
X163758333Y-108398371D02*
X163758333Y-108519800D01*
X163758333Y-108519800D02*
X163717857Y-108600752D01*
X163717857Y-108600752D02*
X163677380Y-108641229D01*
X163677380Y-108641229D02*
X163596428Y-108681705D01*
X163596428Y-108681705D02*
X163272618Y-108681705D01*
X164244047Y-108600752D02*
X164163095Y-108560276D01*
X164163095Y-108560276D02*
X164122618Y-108519800D01*
X164122618Y-108519800D02*
X164082142Y-108438848D01*
X164082142Y-108438848D02*
X164082142Y-108398371D01*
X164082142Y-108398371D02*
X164122618Y-108317419D01*
X164122618Y-108317419D02*
X164163095Y-108276943D01*
X164163095Y-108276943D02*
X164244047Y-108236467D01*
X164244047Y-108236467D02*
X164405952Y-108236467D01*
X164405952Y-108236467D02*
X164486904Y-108276943D01*
X164486904Y-108276943D02*
X164527380Y-108317419D01*
X164527380Y-108317419D02*
X164567857Y-108398371D01*
X164567857Y-108398371D02*
X164567857Y-108438848D01*
X164567857Y-108438848D02*
X164527380Y-108519800D01*
X164527380Y-108519800D02*
X164486904Y-108560276D01*
X164486904Y-108560276D02*
X164405952Y-108600752D01*
X164405952Y-108600752D02*
X164244047Y-108600752D01*
X164244047Y-108600752D02*
X164163095Y-108641229D01*
X164163095Y-108641229D02*
X164122618Y-108681705D01*
X164122618Y-108681705D02*
X164082142Y-108762657D01*
X164082142Y-108762657D02*
X164082142Y-108924562D01*
X164082142Y-108924562D02*
X164122618Y-109005514D01*
X164122618Y-109005514D02*
X164163095Y-109045991D01*
X164163095Y-109045991D02*
X164244047Y-109086467D01*
X164244047Y-109086467D02*
X164405952Y-109086467D01*
X164405952Y-109086467D02*
X164486904Y-109045991D01*
X164486904Y-109045991D02*
X164527380Y-109005514D01*
X164527380Y-109005514D02*
X164567857Y-108924562D01*
X164567857Y-108924562D02*
X164567857Y-108762657D01*
X164567857Y-108762657D02*
X164527380Y-108681705D01*
X164527380Y-108681705D02*
X164486904Y-108641229D01*
X164486904Y-108641229D02*
X164405952Y-108600752D01*
X164351719Y-102671805D02*
X164281194Y-102778620D01*
X164281194Y-102778620D02*
X164228814Y-102974105D01*
X164228814Y-102974105D02*
X164246959Y-103062775D01*
X164246959Y-103062775D02*
X164275580Y-103112348D01*
X164275580Y-103112348D02*
X164343298Y-103172397D01*
X164343298Y-103172397D02*
X164421492Y-103193349D01*
X164421492Y-103193349D02*
X164510162Y-103175204D01*
X164510162Y-103175204D02*
X164559735Y-103146583D01*
X164559735Y-103146583D02*
X164619784Y-103078865D01*
X164619784Y-103078865D02*
X164700785Y-102932953D01*
X164700785Y-102932953D02*
X164760834Y-102865235D01*
X164760834Y-102865235D02*
X164810407Y-102836614D01*
X164810407Y-102836614D02*
X164899077Y-102818469D01*
X164899077Y-102818469D02*
X164977271Y-102839421D01*
X164977271Y-102839421D02*
X165044989Y-102899470D01*
X165044989Y-102899470D02*
X165073610Y-102949043D01*
X165073610Y-102949043D02*
X165091755Y-103037713D01*
X165091755Y-103037713D02*
X165039375Y-103233198D01*
X165039375Y-103233198D02*
X164968850Y-103340013D01*
X164934615Y-103624168D02*
X164061198Y-103599657D01*
X164061198Y-103599657D02*
X164605749Y-103913185D01*
X164605749Y-103913185D02*
X163977390Y-103912433D01*
X163977390Y-103912433D02*
X164746047Y-104327914D01*
X164594520Y-104580641D02*
X164623141Y-104630214D01*
X164623141Y-104630214D02*
X164641286Y-104718884D01*
X164641286Y-104718884D02*
X164588906Y-104914369D01*
X164588906Y-104914369D02*
X164528857Y-104982087D01*
X164528857Y-104982087D02*
X164479284Y-105010708D01*
X164479284Y-105010708D02*
X164390614Y-105028853D01*
X164390614Y-105028853D02*
X164312420Y-105007901D01*
X164312420Y-105007901D02*
X164205605Y-104937376D01*
X164205605Y-104937376D02*
X163862154Y-104342500D01*
X163862154Y-104342500D02*
X163725965Y-104850761D01*
X154758333Y-115358014D02*
X154717857Y-115398491D01*
X154717857Y-115398491D02*
X154596428Y-115438967D01*
X154596428Y-115438967D02*
X154515476Y-115438967D01*
X154515476Y-115438967D02*
X154394047Y-115398491D01*
X154394047Y-115398491D02*
X154313095Y-115317538D01*
X154313095Y-115317538D02*
X154272618Y-115236586D01*
X154272618Y-115236586D02*
X154232142Y-115074681D01*
X154232142Y-115074681D02*
X154232142Y-114953252D01*
X154232142Y-114953252D02*
X154272618Y-114791348D01*
X154272618Y-114791348D02*
X154313095Y-114710395D01*
X154313095Y-114710395D02*
X154394047Y-114629443D01*
X154394047Y-114629443D02*
X154515476Y-114588967D01*
X154515476Y-114588967D02*
X154596428Y-114588967D01*
X154596428Y-114588967D02*
X154717857Y-114629443D01*
X154717857Y-114629443D02*
X154758333Y-114669919D01*
X155244047Y-114953252D02*
X155163095Y-114912776D01*
X155163095Y-114912776D02*
X155122618Y-114872300D01*
X155122618Y-114872300D02*
X155082142Y-114791348D01*
X155082142Y-114791348D02*
X155082142Y-114750871D01*
X155082142Y-114750871D02*
X155122618Y-114669919D01*
X155122618Y-114669919D02*
X155163095Y-114629443D01*
X155163095Y-114629443D02*
X155244047Y-114588967D01*
X155244047Y-114588967D02*
X155405952Y-114588967D01*
X155405952Y-114588967D02*
X155486904Y-114629443D01*
X155486904Y-114629443D02*
X155527380Y-114669919D01*
X155527380Y-114669919D02*
X155567857Y-114750871D01*
X155567857Y-114750871D02*
X155567857Y-114791348D01*
X155567857Y-114791348D02*
X155527380Y-114872300D01*
X155527380Y-114872300D02*
X155486904Y-114912776D01*
X155486904Y-114912776D02*
X155405952Y-114953252D01*
X155405952Y-114953252D02*
X155244047Y-114953252D01*
X155244047Y-114953252D02*
X155163095Y-114993729D01*
X155163095Y-114993729D02*
X155122618Y-115034205D01*
X155122618Y-115034205D02*
X155082142Y-115115157D01*
X155082142Y-115115157D02*
X155082142Y-115277062D01*
X155082142Y-115277062D02*
X155122618Y-115358014D01*
X155122618Y-115358014D02*
X155163095Y-115398491D01*
X155163095Y-115398491D02*
X155244047Y-115438967D01*
X155244047Y-115438967D02*
X155405952Y-115438967D01*
X155405952Y-115438967D02*
X155486904Y-115398491D01*
X155486904Y-115398491D02*
X155527380Y-115358014D01*
X155527380Y-115358014D02*
X155567857Y-115277062D01*
X155567857Y-115277062D02*
X155567857Y-115115157D01*
X155567857Y-115115157D02*
X155527380Y-115034205D01*
X155527380Y-115034205D02*
X155486904Y-114993729D01*
X155486904Y-114993729D02*
X155405952Y-114953252D01*
X150158333Y-118786467D02*
X149874999Y-118381705D01*
X149672618Y-118786467D02*
X149672618Y-117936467D01*
X149672618Y-117936467D02*
X149996428Y-117936467D01*
X149996428Y-117936467D02*
X150077380Y-117976943D01*
X150077380Y-117976943D02*
X150117857Y-118017419D01*
X150117857Y-118017419D02*
X150158333Y-118098371D01*
X150158333Y-118098371D02*
X150158333Y-118219800D01*
X150158333Y-118219800D02*
X150117857Y-118300752D01*
X150117857Y-118300752D02*
X150077380Y-118341229D01*
X150077380Y-118341229D02*
X149996428Y-118381705D01*
X149996428Y-118381705D02*
X149672618Y-118381705D01*
X150482142Y-118017419D02*
X150522618Y-117976943D01*
X150522618Y-117976943D02*
X150603571Y-117936467D01*
X150603571Y-117936467D02*
X150805952Y-117936467D01*
X150805952Y-117936467D02*
X150886904Y-117976943D01*
X150886904Y-117976943D02*
X150927380Y-118017419D01*
X150927380Y-118017419D02*
X150967857Y-118098371D01*
X150967857Y-118098371D02*
X150967857Y-118179324D01*
X150967857Y-118179324D02*
X150927380Y-118300752D01*
X150927380Y-118300752D02*
X150441666Y-118786467D01*
X150441666Y-118786467D02*
X150967857Y-118786467D01*
X153352380Y-88736467D02*
X153352380Y-89424562D01*
X153352380Y-89424562D02*
X153392857Y-89505514D01*
X153392857Y-89505514D02*
X153433333Y-89545991D01*
X153433333Y-89545991D02*
X153514285Y-89586467D01*
X153514285Y-89586467D02*
X153676190Y-89586467D01*
X153676190Y-89586467D02*
X153757142Y-89545991D01*
X153757142Y-89545991D02*
X153797619Y-89505514D01*
X153797619Y-89505514D02*
X153838095Y-89424562D01*
X153838095Y-89424562D02*
X153838095Y-88736467D01*
X154607142Y-89019800D02*
X154607142Y-89586467D01*
X154404761Y-88695991D02*
X154202380Y-89303133D01*
X154202380Y-89303133D02*
X154728571Y-89303133D01*
X156405514Y-99113928D02*
X156445991Y-99154404D01*
X156445991Y-99154404D02*
X156486467Y-99275833D01*
X156486467Y-99275833D02*
X156486467Y-99356785D01*
X156486467Y-99356785D02*
X156445991Y-99478214D01*
X156445991Y-99478214D02*
X156365038Y-99559166D01*
X156365038Y-99559166D02*
X156284086Y-99599643D01*
X156284086Y-99599643D02*
X156122181Y-99640119D01*
X156122181Y-99640119D02*
X156000752Y-99640119D01*
X156000752Y-99640119D02*
X155838848Y-99599643D01*
X155838848Y-99599643D02*
X155757895Y-99559166D01*
X155757895Y-99559166D02*
X155676943Y-99478214D01*
X155676943Y-99478214D02*
X155636467Y-99356785D01*
X155636467Y-99356785D02*
X155636467Y-99275833D01*
X155636467Y-99275833D02*
X155676943Y-99154404D01*
X155676943Y-99154404D02*
X155717419Y-99113928D01*
X155717419Y-98790119D02*
X155676943Y-98749643D01*
X155676943Y-98749643D02*
X155636467Y-98668690D01*
X155636467Y-98668690D02*
X155636467Y-98466309D01*
X155636467Y-98466309D02*
X155676943Y-98385357D01*
X155676943Y-98385357D02*
X155717419Y-98344881D01*
X155717419Y-98344881D02*
X155798371Y-98304404D01*
X155798371Y-98304404D02*
X155879324Y-98304404D01*
X155879324Y-98304404D02*
X156000752Y-98344881D01*
X156000752Y-98344881D02*
X156486467Y-98830595D01*
X156486467Y-98830595D02*
X156486467Y-98304404D01*
X155636467Y-97535357D02*
X155636467Y-97940119D01*
X155636467Y-97940119D02*
X156041229Y-97980595D01*
X156041229Y-97980595D02*
X156000752Y-97940119D01*
X156000752Y-97940119D02*
X155960276Y-97859166D01*
X155960276Y-97859166D02*
X155960276Y-97656785D01*
X155960276Y-97656785D02*
X156000752Y-97575833D01*
X156000752Y-97575833D02*
X156041229Y-97535357D01*
X156041229Y-97535357D02*
X156122181Y-97494880D01*
X156122181Y-97494880D02*
X156324562Y-97494880D01*
X156324562Y-97494880D02*
X156405514Y-97535357D01*
X156405514Y-97535357D02*
X156445991Y-97575833D01*
X156445991Y-97575833D02*
X156486467Y-97656785D01*
X156486467Y-97656785D02*
X156486467Y-97859166D01*
X156486467Y-97859166D02*
X156445991Y-97940119D01*
X156445991Y-97940119D02*
X156405514Y-97980595D01*
X157405514Y-110361666D02*
X157445991Y-110402142D01*
X157445991Y-110402142D02*
X157486467Y-110523571D01*
X157486467Y-110523571D02*
X157486467Y-110604523D01*
X157486467Y-110604523D02*
X157445991Y-110725952D01*
X157445991Y-110725952D02*
X157365038Y-110806904D01*
X157365038Y-110806904D02*
X157284086Y-110847381D01*
X157284086Y-110847381D02*
X157122181Y-110887857D01*
X157122181Y-110887857D02*
X157000752Y-110887857D01*
X157000752Y-110887857D02*
X156838848Y-110847381D01*
X156838848Y-110847381D02*
X156757895Y-110806904D01*
X156757895Y-110806904D02*
X156676943Y-110725952D01*
X156676943Y-110725952D02*
X156636467Y-110604523D01*
X156636467Y-110604523D02*
X156636467Y-110523571D01*
X156636467Y-110523571D02*
X156676943Y-110402142D01*
X156676943Y-110402142D02*
X156717419Y-110361666D01*
X156636467Y-109633095D02*
X156636467Y-109795000D01*
X156636467Y-109795000D02*
X156676943Y-109875952D01*
X156676943Y-109875952D02*
X156717419Y-109916428D01*
X156717419Y-109916428D02*
X156838848Y-109997381D01*
X156838848Y-109997381D02*
X157000752Y-110037857D01*
X157000752Y-110037857D02*
X157324562Y-110037857D01*
X157324562Y-110037857D02*
X157405514Y-109997381D01*
X157405514Y-109997381D02*
X157445991Y-109956904D01*
X157445991Y-109956904D02*
X157486467Y-109875952D01*
X157486467Y-109875952D02*
X157486467Y-109714047D01*
X157486467Y-109714047D02*
X157445991Y-109633095D01*
X157445991Y-109633095D02*
X157405514Y-109592619D01*
X157405514Y-109592619D02*
X157324562Y-109552142D01*
X157324562Y-109552142D02*
X157122181Y-109552142D01*
X157122181Y-109552142D02*
X157041229Y-109592619D01*
X157041229Y-109592619D02*
X157000752Y-109633095D01*
X157000752Y-109633095D02*
X156960276Y-109714047D01*
X156960276Y-109714047D02*
X156960276Y-109875952D01*
X156960276Y-109875952D02*
X157000752Y-109956904D01*
X157000752Y-109956904D02*
X157041229Y-109997381D01*
X157041229Y-109997381D02*
X157122181Y-110037857D01*
X139105514Y-96146428D02*
X139145991Y-96186904D01*
X139145991Y-96186904D02*
X139186467Y-96308333D01*
X139186467Y-96308333D02*
X139186467Y-96389285D01*
X139186467Y-96389285D02*
X139145991Y-96510714D01*
X139145991Y-96510714D02*
X139065038Y-96591666D01*
X139065038Y-96591666D02*
X138984086Y-96632143D01*
X138984086Y-96632143D02*
X138822181Y-96672619D01*
X138822181Y-96672619D02*
X138700752Y-96672619D01*
X138700752Y-96672619D02*
X138538848Y-96632143D01*
X138538848Y-96632143D02*
X138457895Y-96591666D01*
X138457895Y-96591666D02*
X138376943Y-96510714D01*
X138376943Y-96510714D02*
X138336467Y-96389285D01*
X138336467Y-96389285D02*
X138336467Y-96308333D01*
X138336467Y-96308333D02*
X138376943Y-96186904D01*
X138376943Y-96186904D02*
X138417419Y-96146428D01*
X139186467Y-95336904D02*
X139186467Y-95822619D01*
X139186467Y-95579762D02*
X138336467Y-95579762D01*
X138336467Y-95579762D02*
X138457895Y-95660714D01*
X138457895Y-95660714D02*
X138538848Y-95741666D01*
X138538848Y-95741666D02*
X138579324Y-95822619D01*
X138700752Y-94851190D02*
X138660276Y-94932142D01*
X138660276Y-94932142D02*
X138619800Y-94972619D01*
X138619800Y-94972619D02*
X138538848Y-95013095D01*
X138538848Y-95013095D02*
X138498371Y-95013095D01*
X138498371Y-95013095D02*
X138417419Y-94972619D01*
X138417419Y-94972619D02*
X138376943Y-94932142D01*
X138376943Y-94932142D02*
X138336467Y-94851190D01*
X138336467Y-94851190D02*
X138336467Y-94689285D01*
X138336467Y-94689285D02*
X138376943Y-94608333D01*
X138376943Y-94608333D02*
X138417419Y-94567857D01*
X138417419Y-94567857D02*
X138498371Y-94527380D01*
X138498371Y-94527380D02*
X138538848Y-94527380D01*
X138538848Y-94527380D02*
X138619800Y-94567857D01*
X138619800Y-94567857D02*
X138660276Y-94608333D01*
X138660276Y-94608333D02*
X138700752Y-94689285D01*
X138700752Y-94689285D02*
X138700752Y-94851190D01*
X138700752Y-94851190D02*
X138741229Y-94932142D01*
X138741229Y-94932142D02*
X138781705Y-94972619D01*
X138781705Y-94972619D02*
X138862657Y-95013095D01*
X138862657Y-95013095D02*
X139024562Y-95013095D01*
X139024562Y-95013095D02*
X139105514Y-94972619D01*
X139105514Y-94972619D02*
X139145991Y-94932142D01*
X139145991Y-94932142D02*
X139186467Y-94851190D01*
X139186467Y-94851190D02*
X139186467Y-94689285D01*
X139186467Y-94689285D02*
X139145991Y-94608333D01*
X139145991Y-94608333D02*
X139105514Y-94567857D01*
X139105514Y-94567857D02*
X139024562Y-94527380D01*
X139024562Y-94527380D02*
X138862657Y-94527380D01*
X138862657Y-94527380D02*
X138781705Y-94567857D01*
X138781705Y-94567857D02*
X138741229Y-94608333D01*
X138741229Y-94608333D02*
X138700752Y-94689285D01*
X146958333Y-101136467D02*
X146553571Y-101136467D01*
X146553571Y-101136467D02*
X146553571Y-100286467D01*
X147686905Y-101136467D02*
X147201190Y-101136467D01*
X147444047Y-101136467D02*
X147444047Y-100286467D01*
X147444047Y-100286467D02*
X147363095Y-100407895D01*
X147363095Y-100407895D02*
X147282143Y-100488848D01*
X147282143Y-100488848D02*
X147201190Y-100529324D01*
X143353571Y-106305514D02*
X143313095Y-106345991D01*
X143313095Y-106345991D02*
X143191666Y-106386467D01*
X143191666Y-106386467D02*
X143110714Y-106386467D01*
X143110714Y-106386467D02*
X142989285Y-106345991D01*
X142989285Y-106345991D02*
X142908333Y-106265038D01*
X142908333Y-106265038D02*
X142867856Y-106184086D01*
X142867856Y-106184086D02*
X142827380Y-106022181D01*
X142827380Y-106022181D02*
X142827380Y-105900752D01*
X142827380Y-105900752D02*
X142867856Y-105738848D01*
X142867856Y-105738848D02*
X142908333Y-105657895D01*
X142908333Y-105657895D02*
X142989285Y-105576943D01*
X142989285Y-105576943D02*
X143110714Y-105536467D01*
X143110714Y-105536467D02*
X143191666Y-105536467D01*
X143191666Y-105536467D02*
X143313095Y-105576943D01*
X143313095Y-105576943D02*
X143353571Y-105617419D01*
X144163095Y-106386467D02*
X143677380Y-106386467D01*
X143920237Y-106386467D02*
X143920237Y-105536467D01*
X143920237Y-105536467D02*
X143839285Y-105657895D01*
X143839285Y-105657895D02*
X143758333Y-105738848D01*
X143758333Y-105738848D02*
X143677380Y-105779324D01*
X144689285Y-105536467D02*
X144770238Y-105536467D01*
X144770238Y-105536467D02*
X144851190Y-105576943D01*
X144851190Y-105576943D02*
X144891666Y-105617419D01*
X144891666Y-105617419D02*
X144932142Y-105698371D01*
X144932142Y-105698371D02*
X144972619Y-105860276D01*
X144972619Y-105860276D02*
X144972619Y-106062657D01*
X144972619Y-106062657D02*
X144932142Y-106224562D01*
X144932142Y-106224562D02*
X144891666Y-106305514D01*
X144891666Y-106305514D02*
X144851190Y-106345991D01*
X144851190Y-106345991D02*
X144770238Y-106386467D01*
X144770238Y-106386467D02*
X144689285Y-106386467D01*
X144689285Y-106386467D02*
X144608333Y-106345991D01*
X144608333Y-106345991D02*
X144567857Y-106305514D01*
X144567857Y-106305514D02*
X144527380Y-106224562D01*
X144527380Y-106224562D02*
X144486904Y-106062657D01*
X144486904Y-106062657D02*
X144486904Y-105860276D01*
X144486904Y-105860276D02*
X144527380Y-105698371D01*
X144527380Y-105698371D02*
X144567857Y-105617419D01*
X144567857Y-105617419D02*
X144608333Y-105576943D01*
X144608333Y-105576943D02*
X144689285Y-105536467D01*
X156005514Y-103641666D02*
X156045991Y-103682142D01*
X156045991Y-103682142D02*
X156086467Y-103803571D01*
X156086467Y-103803571D02*
X156086467Y-103884523D01*
X156086467Y-103884523D02*
X156045991Y-104005952D01*
X156045991Y-104005952D02*
X155965038Y-104086904D01*
X155965038Y-104086904D02*
X155884086Y-104127381D01*
X155884086Y-104127381D02*
X155722181Y-104167857D01*
X155722181Y-104167857D02*
X155600752Y-104167857D01*
X155600752Y-104167857D02*
X155438848Y-104127381D01*
X155438848Y-104127381D02*
X155357895Y-104086904D01*
X155357895Y-104086904D02*
X155276943Y-104005952D01*
X155276943Y-104005952D02*
X155236467Y-103884523D01*
X155236467Y-103884523D02*
X155236467Y-103803571D01*
X155236467Y-103803571D02*
X155276943Y-103682142D01*
X155276943Y-103682142D02*
X155317419Y-103641666D01*
X155317419Y-103317857D02*
X155276943Y-103277381D01*
X155276943Y-103277381D02*
X155236467Y-103196428D01*
X155236467Y-103196428D02*
X155236467Y-102994047D01*
X155236467Y-102994047D02*
X155276943Y-102913095D01*
X155276943Y-102913095D02*
X155317419Y-102872619D01*
X155317419Y-102872619D02*
X155398371Y-102832142D01*
X155398371Y-102832142D02*
X155479324Y-102832142D01*
X155479324Y-102832142D02*
X155600752Y-102872619D01*
X155600752Y-102872619D02*
X156086467Y-103358333D01*
X156086467Y-103358333D02*
X156086467Y-102832142D01*
X154102380Y-111536467D02*
X154102380Y-112224562D01*
X154102380Y-112224562D02*
X154142857Y-112305514D01*
X154142857Y-112305514D02*
X154183333Y-112345991D01*
X154183333Y-112345991D02*
X154264285Y-112386467D01*
X154264285Y-112386467D02*
X154426190Y-112386467D01*
X154426190Y-112386467D02*
X154507142Y-112345991D01*
X154507142Y-112345991D02*
X154547619Y-112305514D01*
X154547619Y-112305514D02*
X154588095Y-112224562D01*
X154588095Y-112224562D02*
X154588095Y-111536467D01*
X155438095Y-112386467D02*
X154952380Y-112386467D01*
X155195237Y-112386467D02*
X155195237Y-111536467D01*
X155195237Y-111536467D02*
X155114285Y-111657895D01*
X155114285Y-111657895D02*
X155033333Y-111738848D01*
X155033333Y-111738848D02*
X154952380Y-111779324D01*
X150352380Y-81968967D02*
X150352380Y-82657062D01*
X150352380Y-82657062D02*
X150392857Y-82738014D01*
X150392857Y-82738014D02*
X150433333Y-82778491D01*
X150433333Y-82778491D02*
X150514285Y-82818967D01*
X150514285Y-82818967D02*
X150676190Y-82818967D01*
X150676190Y-82818967D02*
X150757142Y-82778491D01*
X150757142Y-82778491D02*
X150797619Y-82738014D01*
X150797619Y-82738014D02*
X150838095Y-82657062D01*
X150838095Y-82657062D02*
X150838095Y-81968967D01*
X151161904Y-81968967D02*
X151688095Y-81968967D01*
X151688095Y-81968967D02*
X151404761Y-82292776D01*
X151404761Y-82292776D02*
X151526190Y-82292776D01*
X151526190Y-82292776D02*
X151607142Y-82333252D01*
X151607142Y-82333252D02*
X151647618Y-82373729D01*
X151647618Y-82373729D02*
X151688095Y-82454681D01*
X151688095Y-82454681D02*
X151688095Y-82657062D01*
X151688095Y-82657062D02*
X151647618Y-82738014D01*
X151647618Y-82738014D02*
X151607142Y-82778491D01*
X151607142Y-82778491D02*
X151526190Y-82818967D01*
X151526190Y-82818967D02*
X151283333Y-82818967D01*
X151283333Y-82818967D02*
X151202380Y-82778491D01*
X151202380Y-82778491D02*
X151161904Y-82738014D01*
X148865514Y-85346428D02*
X148905991Y-85386904D01*
X148905991Y-85386904D02*
X148946467Y-85508333D01*
X148946467Y-85508333D02*
X148946467Y-85589285D01*
X148946467Y-85589285D02*
X148905991Y-85710714D01*
X148905991Y-85710714D02*
X148825038Y-85791666D01*
X148825038Y-85791666D02*
X148744086Y-85832143D01*
X148744086Y-85832143D02*
X148582181Y-85872619D01*
X148582181Y-85872619D02*
X148460752Y-85872619D01*
X148460752Y-85872619D02*
X148298848Y-85832143D01*
X148298848Y-85832143D02*
X148217895Y-85791666D01*
X148217895Y-85791666D02*
X148136943Y-85710714D01*
X148136943Y-85710714D02*
X148096467Y-85589285D01*
X148096467Y-85589285D02*
X148096467Y-85508333D01*
X148096467Y-85508333D02*
X148136943Y-85386904D01*
X148136943Y-85386904D02*
X148177419Y-85346428D01*
X148177419Y-85022619D02*
X148136943Y-84982143D01*
X148136943Y-84982143D02*
X148096467Y-84901190D01*
X148096467Y-84901190D02*
X148096467Y-84698809D01*
X148096467Y-84698809D02*
X148136943Y-84617857D01*
X148136943Y-84617857D02*
X148177419Y-84577381D01*
X148177419Y-84577381D02*
X148258371Y-84536904D01*
X148258371Y-84536904D02*
X148339324Y-84536904D01*
X148339324Y-84536904D02*
X148460752Y-84577381D01*
X148460752Y-84577381D02*
X148946467Y-85063095D01*
X148946467Y-85063095D02*
X148946467Y-84536904D01*
X148946467Y-83727380D02*
X148946467Y-84213095D01*
X148946467Y-83970238D02*
X148096467Y-83970238D01*
X148096467Y-83970238D02*
X148217895Y-84051190D01*
X148217895Y-84051190D02*
X148298848Y-84132142D01*
X148298848Y-84132142D02*
X148339324Y-84213095D01*
X134536467Y-100283332D02*
X135143610Y-100283332D01*
X135143610Y-100283332D02*
X135265038Y-100323809D01*
X135265038Y-100323809D02*
X135345991Y-100404761D01*
X135345991Y-100404761D02*
X135386467Y-100526190D01*
X135386467Y-100526190D02*
X135386467Y-100607142D01*
X135386467Y-99433332D02*
X135386467Y-99919047D01*
X135386467Y-99676190D02*
X134536467Y-99676190D01*
X134536467Y-99676190D02*
X134657895Y-99757142D01*
X134657895Y-99757142D02*
X134738848Y-99838094D01*
X134738848Y-99838094D02*
X134779324Y-99919047D01*
X151058333Y-103055514D02*
X151017857Y-103095991D01*
X151017857Y-103095991D02*
X150896428Y-103136467D01*
X150896428Y-103136467D02*
X150815476Y-103136467D01*
X150815476Y-103136467D02*
X150694047Y-103095991D01*
X150694047Y-103095991D02*
X150613095Y-103015038D01*
X150613095Y-103015038D02*
X150572618Y-102934086D01*
X150572618Y-102934086D02*
X150532142Y-102772181D01*
X150532142Y-102772181D02*
X150532142Y-102650752D01*
X150532142Y-102650752D02*
X150572618Y-102488848D01*
X150572618Y-102488848D02*
X150613095Y-102407895D01*
X150613095Y-102407895D02*
X150694047Y-102326943D01*
X150694047Y-102326943D02*
X150815476Y-102286467D01*
X150815476Y-102286467D02*
X150896428Y-102286467D01*
X150896428Y-102286467D02*
X151017857Y-102326943D01*
X151017857Y-102326943D02*
X151058333Y-102367419D01*
X151463095Y-103136467D02*
X151624999Y-103136467D01*
X151624999Y-103136467D02*
X151705952Y-103095991D01*
X151705952Y-103095991D02*
X151746428Y-103055514D01*
X151746428Y-103055514D02*
X151827380Y-102934086D01*
X151827380Y-102934086D02*
X151867857Y-102772181D01*
X151867857Y-102772181D02*
X151867857Y-102448371D01*
X151867857Y-102448371D02*
X151827380Y-102367419D01*
X151827380Y-102367419D02*
X151786904Y-102326943D01*
X151786904Y-102326943D02*
X151705952Y-102286467D01*
X151705952Y-102286467D02*
X151544047Y-102286467D01*
X151544047Y-102286467D02*
X151463095Y-102326943D01*
X151463095Y-102326943D02*
X151422618Y-102367419D01*
X151422618Y-102367419D02*
X151382142Y-102448371D01*
X151382142Y-102448371D02*
X151382142Y-102650752D01*
X151382142Y-102650752D02*
X151422618Y-102731705D01*
X151422618Y-102731705D02*
X151463095Y-102772181D01*
X151463095Y-102772181D02*
X151544047Y-102812657D01*
X151544047Y-102812657D02*
X151705952Y-102812657D01*
X151705952Y-102812657D02*
X151786904Y-102772181D01*
X151786904Y-102772181D02*
X151827380Y-102731705D01*
X151827380Y-102731705D02*
X151867857Y-102650752D01*
X146453571Y-99055514D02*
X146413095Y-99095991D01*
X146413095Y-99095991D02*
X146291666Y-99136467D01*
X146291666Y-99136467D02*
X146210714Y-99136467D01*
X146210714Y-99136467D02*
X146089285Y-99095991D01*
X146089285Y-99095991D02*
X146008333Y-99015038D01*
X146008333Y-99015038D02*
X145967856Y-98934086D01*
X145967856Y-98934086D02*
X145927380Y-98772181D01*
X145927380Y-98772181D02*
X145927380Y-98650752D01*
X145927380Y-98650752D02*
X145967856Y-98488848D01*
X145967856Y-98488848D02*
X146008333Y-98407895D01*
X146008333Y-98407895D02*
X146089285Y-98326943D01*
X146089285Y-98326943D02*
X146210714Y-98286467D01*
X146210714Y-98286467D02*
X146291666Y-98286467D01*
X146291666Y-98286467D02*
X146413095Y-98326943D01*
X146413095Y-98326943D02*
X146453571Y-98367419D01*
X147263095Y-99136467D02*
X146777380Y-99136467D01*
X147020237Y-99136467D02*
X147020237Y-98286467D01*
X147020237Y-98286467D02*
X146939285Y-98407895D01*
X146939285Y-98407895D02*
X146858333Y-98488848D01*
X146858333Y-98488848D02*
X146777380Y-98529324D01*
X148072619Y-99136467D02*
X147586904Y-99136467D01*
X147829761Y-99136467D02*
X147829761Y-98286467D01*
X147829761Y-98286467D02*
X147748809Y-98407895D01*
X147748809Y-98407895D02*
X147667857Y-98488848D01*
X147667857Y-98488848D02*
X147586904Y-98529324D01*
X158405514Y-92746428D02*
X158445991Y-92786904D01*
X158445991Y-92786904D02*
X158486467Y-92908333D01*
X158486467Y-92908333D02*
X158486467Y-92989285D01*
X158486467Y-92989285D02*
X158445991Y-93110714D01*
X158445991Y-93110714D02*
X158365038Y-93191666D01*
X158365038Y-93191666D02*
X158284086Y-93232143D01*
X158284086Y-93232143D02*
X158122181Y-93272619D01*
X158122181Y-93272619D02*
X158000752Y-93272619D01*
X158000752Y-93272619D02*
X157838848Y-93232143D01*
X157838848Y-93232143D02*
X157757895Y-93191666D01*
X157757895Y-93191666D02*
X157676943Y-93110714D01*
X157676943Y-93110714D02*
X157636467Y-92989285D01*
X157636467Y-92989285D02*
X157636467Y-92908333D01*
X157636467Y-92908333D02*
X157676943Y-92786904D01*
X157676943Y-92786904D02*
X157717419Y-92746428D01*
X157717419Y-92422619D02*
X157676943Y-92382143D01*
X157676943Y-92382143D02*
X157636467Y-92301190D01*
X157636467Y-92301190D02*
X157636467Y-92098809D01*
X157636467Y-92098809D02*
X157676943Y-92017857D01*
X157676943Y-92017857D02*
X157717419Y-91977381D01*
X157717419Y-91977381D02*
X157798371Y-91936904D01*
X157798371Y-91936904D02*
X157879324Y-91936904D01*
X157879324Y-91936904D02*
X158000752Y-91977381D01*
X158000752Y-91977381D02*
X158486467Y-92463095D01*
X158486467Y-92463095D02*
X158486467Y-91936904D01*
X157717419Y-91613095D02*
X157676943Y-91572619D01*
X157676943Y-91572619D02*
X157636467Y-91491666D01*
X157636467Y-91491666D02*
X157636467Y-91289285D01*
X157636467Y-91289285D02*
X157676943Y-91208333D01*
X157676943Y-91208333D02*
X157717419Y-91167857D01*
X157717419Y-91167857D02*
X157798371Y-91127380D01*
X157798371Y-91127380D02*
X157879324Y-91127380D01*
X157879324Y-91127380D02*
X158000752Y-91167857D01*
X158000752Y-91167857D02*
X158486467Y-91653571D01*
X158486467Y-91653571D02*
X158486467Y-91127380D01*
X141358333Y-110336467D02*
X141074999Y-109931705D01*
X140872618Y-110336467D02*
X140872618Y-109486467D01*
X140872618Y-109486467D02*
X141196428Y-109486467D01*
X141196428Y-109486467D02*
X141277380Y-109526943D01*
X141277380Y-109526943D02*
X141317857Y-109567419D01*
X141317857Y-109567419D02*
X141358333Y-109648371D01*
X141358333Y-109648371D02*
X141358333Y-109769800D01*
X141358333Y-109769800D02*
X141317857Y-109850752D01*
X141317857Y-109850752D02*
X141277380Y-109891229D01*
X141277380Y-109891229D02*
X141196428Y-109931705D01*
X141196428Y-109931705D02*
X140872618Y-109931705D01*
X142086904Y-109769800D02*
X142086904Y-110336467D01*
X141884523Y-109445991D02*
X141682142Y-110053133D01*
X141682142Y-110053133D02*
X142208333Y-110053133D01*
X149153571Y-116405514D02*
X149113095Y-116445991D01*
X149113095Y-116445991D02*
X148991666Y-116486467D01*
X148991666Y-116486467D02*
X148910714Y-116486467D01*
X148910714Y-116486467D02*
X148789285Y-116445991D01*
X148789285Y-116445991D02*
X148708333Y-116365038D01*
X148708333Y-116365038D02*
X148667856Y-116284086D01*
X148667856Y-116284086D02*
X148627380Y-116122181D01*
X148627380Y-116122181D02*
X148627380Y-116000752D01*
X148627380Y-116000752D02*
X148667856Y-115838848D01*
X148667856Y-115838848D02*
X148708333Y-115757895D01*
X148708333Y-115757895D02*
X148789285Y-115676943D01*
X148789285Y-115676943D02*
X148910714Y-115636467D01*
X148910714Y-115636467D02*
X148991666Y-115636467D01*
X148991666Y-115636467D02*
X149113095Y-115676943D01*
X149113095Y-115676943D02*
X149153571Y-115717419D01*
X149963095Y-116486467D02*
X149477380Y-116486467D01*
X149720237Y-116486467D02*
X149720237Y-115636467D01*
X149720237Y-115636467D02*
X149639285Y-115757895D01*
X149639285Y-115757895D02*
X149558333Y-115838848D01*
X149558333Y-115838848D02*
X149477380Y-115879324D01*
X150286904Y-115717419D02*
X150327380Y-115676943D01*
X150327380Y-115676943D02*
X150408333Y-115636467D01*
X150408333Y-115636467D02*
X150610714Y-115636467D01*
X150610714Y-115636467D02*
X150691666Y-115676943D01*
X150691666Y-115676943D02*
X150732142Y-115717419D01*
X150732142Y-115717419D02*
X150772619Y-115798371D01*
X150772619Y-115798371D02*
X150772619Y-115879324D01*
X150772619Y-115879324D02*
X150732142Y-116000752D01*
X150732142Y-116000752D02*
X150246428Y-116486467D01*
X150246428Y-116486467D02*
X150772619Y-116486467D01*
X135305514Y-92946428D02*
X135345991Y-92986904D01*
X135345991Y-92986904D02*
X135386467Y-93108333D01*
X135386467Y-93108333D02*
X135386467Y-93189285D01*
X135386467Y-93189285D02*
X135345991Y-93310714D01*
X135345991Y-93310714D02*
X135265038Y-93391666D01*
X135265038Y-93391666D02*
X135184086Y-93432143D01*
X135184086Y-93432143D02*
X135022181Y-93472619D01*
X135022181Y-93472619D02*
X134900752Y-93472619D01*
X134900752Y-93472619D02*
X134738848Y-93432143D01*
X134738848Y-93432143D02*
X134657895Y-93391666D01*
X134657895Y-93391666D02*
X134576943Y-93310714D01*
X134576943Y-93310714D02*
X134536467Y-93189285D01*
X134536467Y-93189285D02*
X134536467Y-93108333D01*
X134536467Y-93108333D02*
X134576943Y-92986904D01*
X134576943Y-92986904D02*
X134617419Y-92946428D01*
X135386467Y-92136904D02*
X135386467Y-92622619D01*
X135386467Y-92379762D02*
X134536467Y-92379762D01*
X134536467Y-92379762D02*
X134657895Y-92460714D01*
X134657895Y-92460714D02*
X134738848Y-92541666D01*
X134738848Y-92541666D02*
X134779324Y-92622619D01*
X135386467Y-91732142D02*
X135386467Y-91570238D01*
X135386467Y-91570238D02*
X135345991Y-91489285D01*
X135345991Y-91489285D02*
X135305514Y-91448809D01*
X135305514Y-91448809D02*
X135184086Y-91367857D01*
X135184086Y-91367857D02*
X135022181Y-91327380D01*
X135022181Y-91327380D02*
X134698371Y-91327380D01*
X134698371Y-91327380D02*
X134617419Y-91367857D01*
X134617419Y-91367857D02*
X134576943Y-91408333D01*
X134576943Y-91408333D02*
X134536467Y-91489285D01*
X134536467Y-91489285D02*
X134536467Y-91651190D01*
X134536467Y-91651190D02*
X134576943Y-91732142D01*
X134576943Y-91732142D02*
X134617419Y-91772619D01*
X134617419Y-91772619D02*
X134698371Y-91813095D01*
X134698371Y-91813095D02*
X134900752Y-91813095D01*
X134900752Y-91813095D02*
X134981705Y-91772619D01*
X134981705Y-91772619D02*
X135022181Y-91732142D01*
X135022181Y-91732142D02*
X135062657Y-91651190D01*
X135062657Y-91651190D02*
X135062657Y-91489285D01*
X135062657Y-91489285D02*
X135022181Y-91408333D01*
X135022181Y-91408333D02*
X134981705Y-91367857D01*
X134981705Y-91367857D02*
X134900752Y-91327380D01*
X157405514Y-103641666D02*
X157445991Y-103682142D01*
X157445991Y-103682142D02*
X157486467Y-103803571D01*
X157486467Y-103803571D02*
X157486467Y-103884523D01*
X157486467Y-103884523D02*
X157445991Y-104005952D01*
X157445991Y-104005952D02*
X157365038Y-104086904D01*
X157365038Y-104086904D02*
X157284086Y-104127381D01*
X157284086Y-104127381D02*
X157122181Y-104167857D01*
X157122181Y-104167857D02*
X157000752Y-104167857D01*
X157000752Y-104167857D02*
X156838848Y-104127381D01*
X156838848Y-104127381D02*
X156757895Y-104086904D01*
X156757895Y-104086904D02*
X156676943Y-104005952D01*
X156676943Y-104005952D02*
X156636467Y-103884523D01*
X156636467Y-103884523D02*
X156636467Y-103803571D01*
X156636467Y-103803571D02*
X156676943Y-103682142D01*
X156676943Y-103682142D02*
X156717419Y-103641666D01*
X157486467Y-102832142D02*
X157486467Y-103317857D01*
X157486467Y-103075000D02*
X156636467Y-103075000D01*
X156636467Y-103075000D02*
X156757895Y-103155952D01*
X156757895Y-103155952D02*
X156838848Y-103236904D01*
X156838848Y-103236904D02*
X156879324Y-103317857D01*
X145005514Y-103341666D02*
X145045991Y-103382142D01*
X145045991Y-103382142D02*
X145086467Y-103503571D01*
X145086467Y-103503571D02*
X145086467Y-103584523D01*
X145086467Y-103584523D02*
X145045991Y-103705952D01*
X145045991Y-103705952D02*
X144965038Y-103786904D01*
X144965038Y-103786904D02*
X144884086Y-103827381D01*
X144884086Y-103827381D02*
X144722181Y-103867857D01*
X144722181Y-103867857D02*
X144600752Y-103867857D01*
X144600752Y-103867857D02*
X144438848Y-103827381D01*
X144438848Y-103827381D02*
X144357895Y-103786904D01*
X144357895Y-103786904D02*
X144276943Y-103705952D01*
X144276943Y-103705952D02*
X144236467Y-103584523D01*
X144236467Y-103584523D02*
X144236467Y-103503571D01*
X144236467Y-103503571D02*
X144276943Y-103382142D01*
X144276943Y-103382142D02*
X144317419Y-103341666D01*
X144519800Y-102613095D02*
X145086467Y-102613095D01*
X144195991Y-102815476D02*
X144803133Y-103017857D01*
X144803133Y-103017857D02*
X144803133Y-102491666D01*
X157805514Y-99113928D02*
X157845991Y-99154404D01*
X157845991Y-99154404D02*
X157886467Y-99275833D01*
X157886467Y-99275833D02*
X157886467Y-99356785D01*
X157886467Y-99356785D02*
X157845991Y-99478214D01*
X157845991Y-99478214D02*
X157765038Y-99559166D01*
X157765038Y-99559166D02*
X157684086Y-99599643D01*
X157684086Y-99599643D02*
X157522181Y-99640119D01*
X157522181Y-99640119D02*
X157400752Y-99640119D01*
X157400752Y-99640119D02*
X157238848Y-99599643D01*
X157238848Y-99599643D02*
X157157895Y-99559166D01*
X157157895Y-99559166D02*
X157076943Y-99478214D01*
X157076943Y-99478214D02*
X157036467Y-99356785D01*
X157036467Y-99356785D02*
X157036467Y-99275833D01*
X157036467Y-99275833D02*
X157076943Y-99154404D01*
X157076943Y-99154404D02*
X157117419Y-99113928D01*
X157117419Y-98790119D02*
X157076943Y-98749643D01*
X157076943Y-98749643D02*
X157036467Y-98668690D01*
X157036467Y-98668690D02*
X157036467Y-98466309D01*
X157036467Y-98466309D02*
X157076943Y-98385357D01*
X157076943Y-98385357D02*
X157117419Y-98344881D01*
X157117419Y-98344881D02*
X157198371Y-98304404D01*
X157198371Y-98304404D02*
X157279324Y-98304404D01*
X157279324Y-98304404D02*
X157400752Y-98344881D01*
X157400752Y-98344881D02*
X157886467Y-98830595D01*
X157886467Y-98830595D02*
X157886467Y-98304404D01*
X157319800Y-97575833D02*
X157886467Y-97575833D01*
X156995991Y-97778214D02*
X157603133Y-97980595D01*
X157603133Y-97980595D02*
X157603133Y-97454404D01*
X148505514Y-91346428D02*
X148545991Y-91386904D01*
X148545991Y-91386904D02*
X148586467Y-91508333D01*
X148586467Y-91508333D02*
X148586467Y-91589285D01*
X148586467Y-91589285D02*
X148545991Y-91710714D01*
X148545991Y-91710714D02*
X148465038Y-91791666D01*
X148465038Y-91791666D02*
X148384086Y-91832143D01*
X148384086Y-91832143D02*
X148222181Y-91872619D01*
X148222181Y-91872619D02*
X148100752Y-91872619D01*
X148100752Y-91872619D02*
X147938848Y-91832143D01*
X147938848Y-91832143D02*
X147857895Y-91791666D01*
X147857895Y-91791666D02*
X147776943Y-91710714D01*
X147776943Y-91710714D02*
X147736467Y-91589285D01*
X147736467Y-91589285D02*
X147736467Y-91508333D01*
X147736467Y-91508333D02*
X147776943Y-91386904D01*
X147776943Y-91386904D02*
X147817419Y-91346428D01*
X147817419Y-91022619D02*
X147776943Y-90982143D01*
X147776943Y-90982143D02*
X147736467Y-90901190D01*
X147736467Y-90901190D02*
X147736467Y-90698809D01*
X147736467Y-90698809D02*
X147776943Y-90617857D01*
X147776943Y-90617857D02*
X147817419Y-90577381D01*
X147817419Y-90577381D02*
X147898371Y-90536904D01*
X147898371Y-90536904D02*
X147979324Y-90536904D01*
X147979324Y-90536904D02*
X148100752Y-90577381D01*
X148100752Y-90577381D02*
X148586467Y-91063095D01*
X148586467Y-91063095D02*
X148586467Y-90536904D01*
X147736467Y-90010714D02*
X147736467Y-89929761D01*
X147736467Y-89929761D02*
X147776943Y-89848809D01*
X147776943Y-89848809D02*
X147817419Y-89808333D01*
X147817419Y-89808333D02*
X147898371Y-89767857D01*
X147898371Y-89767857D02*
X148060276Y-89727380D01*
X148060276Y-89727380D02*
X148262657Y-89727380D01*
X148262657Y-89727380D02*
X148424562Y-89767857D01*
X148424562Y-89767857D02*
X148505514Y-89808333D01*
X148505514Y-89808333D02*
X148545991Y-89848809D01*
X148545991Y-89848809D02*
X148586467Y-89929761D01*
X148586467Y-89929761D02*
X148586467Y-90010714D01*
X148586467Y-90010714D02*
X148545991Y-90091666D01*
X148545991Y-90091666D02*
X148505514Y-90132142D01*
X148505514Y-90132142D02*
X148424562Y-90172619D01*
X148424562Y-90172619D02*
X148262657Y-90213095D01*
X148262657Y-90213095D02*
X148060276Y-90213095D01*
X148060276Y-90213095D02*
X147898371Y-90172619D01*
X147898371Y-90172619D02*
X147817419Y-90132142D01*
X147817419Y-90132142D02*
X147776943Y-90091666D01*
X147776943Y-90091666D02*
X147736467Y-90010714D01*
X141358333Y-111536467D02*
X141074999Y-111131705D01*
X140872618Y-111536467D02*
X140872618Y-110686467D01*
X140872618Y-110686467D02*
X141196428Y-110686467D01*
X141196428Y-110686467D02*
X141277380Y-110726943D01*
X141277380Y-110726943D02*
X141317857Y-110767419D01*
X141317857Y-110767419D02*
X141358333Y-110848371D01*
X141358333Y-110848371D02*
X141358333Y-110969800D01*
X141358333Y-110969800D02*
X141317857Y-111050752D01*
X141317857Y-111050752D02*
X141277380Y-111091229D01*
X141277380Y-111091229D02*
X141196428Y-111131705D01*
X141196428Y-111131705D02*
X140872618Y-111131705D01*
X141641666Y-110686467D02*
X142167857Y-110686467D01*
X142167857Y-110686467D02*
X141884523Y-111010276D01*
X141884523Y-111010276D02*
X142005952Y-111010276D01*
X142005952Y-111010276D02*
X142086904Y-111050752D01*
X142086904Y-111050752D02*
X142127380Y-111091229D01*
X142127380Y-111091229D02*
X142167857Y-111172181D01*
X142167857Y-111172181D02*
X142167857Y-111374562D01*
X142167857Y-111374562D02*
X142127380Y-111455514D01*
X142127380Y-111455514D02*
X142086904Y-111495991D01*
X142086904Y-111495991D02*
X142005952Y-111536467D01*
X142005952Y-111536467D02*
X141763095Y-111536467D01*
X141763095Y-111536467D02*
X141682142Y-111495991D01*
X141682142Y-111495991D02*
X141641666Y-111455514D01*
X147205514Y-117146428D02*
X147245991Y-117186904D01*
X147245991Y-117186904D02*
X147286467Y-117308333D01*
X147286467Y-117308333D02*
X147286467Y-117389285D01*
X147286467Y-117389285D02*
X147245991Y-117510714D01*
X147245991Y-117510714D02*
X147165038Y-117591666D01*
X147165038Y-117591666D02*
X147084086Y-117632143D01*
X147084086Y-117632143D02*
X146922181Y-117672619D01*
X146922181Y-117672619D02*
X146800752Y-117672619D01*
X146800752Y-117672619D02*
X146638848Y-117632143D01*
X146638848Y-117632143D02*
X146557895Y-117591666D01*
X146557895Y-117591666D02*
X146476943Y-117510714D01*
X146476943Y-117510714D02*
X146436467Y-117389285D01*
X146436467Y-117389285D02*
X146436467Y-117308333D01*
X146436467Y-117308333D02*
X146476943Y-117186904D01*
X146476943Y-117186904D02*
X146517419Y-117146428D01*
X147286467Y-116336904D02*
X147286467Y-116822619D01*
X147286467Y-116579762D02*
X146436467Y-116579762D01*
X146436467Y-116579762D02*
X146557895Y-116660714D01*
X146557895Y-116660714D02*
X146638848Y-116741666D01*
X146638848Y-116741666D02*
X146679324Y-116822619D01*
X146719800Y-115608333D02*
X147286467Y-115608333D01*
X146395991Y-115810714D02*
X147003133Y-116013095D01*
X147003133Y-116013095D02*
X147003133Y-115486904D01*
X143411904Y-113736467D02*
X143978571Y-114586467D01*
X143978571Y-113736467D02*
X143411904Y-114586467D01*
X144261904Y-113817419D02*
X144302380Y-113776943D01*
X144302380Y-113776943D02*
X144383333Y-113736467D01*
X144383333Y-113736467D02*
X144585714Y-113736467D01*
X144585714Y-113736467D02*
X144666666Y-113776943D01*
X144666666Y-113776943D02*
X144707142Y-113817419D01*
X144707142Y-113817419D02*
X144747619Y-113898371D01*
X144747619Y-113898371D02*
X144747619Y-113979324D01*
X144747619Y-113979324D02*
X144707142Y-114100752D01*
X144707142Y-114100752D02*
X144221428Y-114586467D01*
X144221428Y-114586467D02*
X144747619Y-114586467D01*
X155985514Y-110361666D02*
X156025991Y-110402142D01*
X156025991Y-110402142D02*
X156066467Y-110523571D01*
X156066467Y-110523571D02*
X156066467Y-110604523D01*
X156066467Y-110604523D02*
X156025991Y-110725952D01*
X156025991Y-110725952D02*
X155945038Y-110806904D01*
X155945038Y-110806904D02*
X155864086Y-110847381D01*
X155864086Y-110847381D02*
X155702181Y-110887857D01*
X155702181Y-110887857D02*
X155580752Y-110887857D01*
X155580752Y-110887857D02*
X155418848Y-110847381D01*
X155418848Y-110847381D02*
X155337895Y-110806904D01*
X155337895Y-110806904D02*
X155256943Y-110725952D01*
X155256943Y-110725952D02*
X155216467Y-110604523D01*
X155216467Y-110604523D02*
X155216467Y-110523571D01*
X155216467Y-110523571D02*
X155256943Y-110402142D01*
X155256943Y-110402142D02*
X155297419Y-110361666D01*
X155216467Y-110078333D02*
X155216467Y-109552142D01*
X155216467Y-109552142D02*
X155540276Y-109835476D01*
X155540276Y-109835476D02*
X155540276Y-109714047D01*
X155540276Y-109714047D02*
X155580752Y-109633095D01*
X155580752Y-109633095D02*
X155621229Y-109592619D01*
X155621229Y-109592619D02*
X155702181Y-109552142D01*
X155702181Y-109552142D02*
X155904562Y-109552142D01*
X155904562Y-109552142D02*
X155985514Y-109592619D01*
X155985514Y-109592619D02*
X156025991Y-109633095D01*
X156025991Y-109633095D02*
X156066467Y-109714047D01*
X156066467Y-109714047D02*
X156066467Y-109956904D01*
X156066467Y-109956904D02*
X156025991Y-110037857D01*
X156025991Y-110037857D02*
X155985514Y-110078333D01*
X154758333Y-114105514D02*
X154717857Y-114145991D01*
X154717857Y-114145991D02*
X154596428Y-114186467D01*
X154596428Y-114186467D02*
X154515476Y-114186467D01*
X154515476Y-114186467D02*
X154394047Y-114145991D01*
X154394047Y-114145991D02*
X154313095Y-114065038D01*
X154313095Y-114065038D02*
X154272618Y-113984086D01*
X154272618Y-113984086D02*
X154232142Y-113822181D01*
X154232142Y-113822181D02*
X154232142Y-113700752D01*
X154232142Y-113700752D02*
X154272618Y-113538848D01*
X154272618Y-113538848D02*
X154313095Y-113457895D01*
X154313095Y-113457895D02*
X154394047Y-113376943D01*
X154394047Y-113376943D02*
X154515476Y-113336467D01*
X154515476Y-113336467D02*
X154596428Y-113336467D01*
X154596428Y-113336467D02*
X154717857Y-113376943D01*
X154717857Y-113376943D02*
X154758333Y-113417419D01*
X155041666Y-113336467D02*
X155608333Y-113336467D01*
X155608333Y-113336467D02*
X155244047Y-114186467D01*
X159717856Y-95886467D02*
X159717856Y-95036467D01*
X159717856Y-95036467D02*
X159920237Y-95036467D01*
X159920237Y-95036467D02*
X160041666Y-95076943D01*
X160041666Y-95076943D02*
X160122618Y-95157895D01*
X160122618Y-95157895D02*
X160163095Y-95238848D01*
X160163095Y-95238848D02*
X160203571Y-95400752D01*
X160203571Y-95400752D02*
X160203571Y-95522181D01*
X160203571Y-95522181D02*
X160163095Y-95684086D01*
X160163095Y-95684086D02*
X160122618Y-95765038D01*
X160122618Y-95765038D02*
X160041666Y-95845991D01*
X160041666Y-95845991D02*
X159920237Y-95886467D01*
X159920237Y-95886467D02*
X159717856Y-95886467D01*
X160527380Y-95845991D02*
X160648809Y-95886467D01*
X160648809Y-95886467D02*
X160851190Y-95886467D01*
X160851190Y-95886467D02*
X160932142Y-95845991D01*
X160932142Y-95845991D02*
X160972618Y-95805514D01*
X160972618Y-95805514D02*
X161013095Y-95724562D01*
X161013095Y-95724562D02*
X161013095Y-95643610D01*
X161013095Y-95643610D02*
X160972618Y-95562657D01*
X160972618Y-95562657D02*
X160932142Y-95522181D01*
X160932142Y-95522181D02*
X160851190Y-95481705D01*
X160851190Y-95481705D02*
X160689285Y-95441229D01*
X160689285Y-95441229D02*
X160608333Y-95400752D01*
X160608333Y-95400752D02*
X160567856Y-95360276D01*
X160567856Y-95360276D02*
X160527380Y-95279324D01*
X160527380Y-95279324D02*
X160527380Y-95198371D01*
X160527380Y-95198371D02*
X160567856Y-95117419D01*
X160567856Y-95117419D02*
X160608333Y-95076943D01*
X160608333Y-95076943D02*
X160689285Y-95036467D01*
X160689285Y-95036467D02*
X160891666Y-95036467D01*
X160891666Y-95036467D02*
X161013095Y-95076943D01*
X161822619Y-95886467D02*
X161336904Y-95886467D01*
X161579761Y-95886467D02*
X161579761Y-95036467D01*
X161579761Y-95036467D02*
X161498809Y-95157895D01*
X161498809Y-95157895D02*
X161417857Y-95238848D01*
X161417857Y-95238848D02*
X161336904Y-95279324D01*
X142058333Y-112705514D02*
X142017857Y-112745991D01*
X142017857Y-112745991D02*
X141896428Y-112786467D01*
X141896428Y-112786467D02*
X141815476Y-112786467D01*
X141815476Y-112786467D02*
X141694047Y-112745991D01*
X141694047Y-112745991D02*
X141613095Y-112665038D01*
X141613095Y-112665038D02*
X141572618Y-112584086D01*
X141572618Y-112584086D02*
X141532142Y-112422181D01*
X141532142Y-112422181D02*
X141532142Y-112300752D01*
X141532142Y-112300752D02*
X141572618Y-112138848D01*
X141572618Y-112138848D02*
X141613095Y-112057895D01*
X141613095Y-112057895D02*
X141694047Y-111976943D01*
X141694047Y-111976943D02*
X141815476Y-111936467D01*
X141815476Y-111936467D02*
X141896428Y-111936467D01*
X141896428Y-111936467D02*
X142017857Y-111976943D01*
X142017857Y-111976943D02*
X142058333Y-112017419D01*
X142827380Y-111936467D02*
X142422618Y-111936467D01*
X142422618Y-111936467D02*
X142382142Y-112341229D01*
X142382142Y-112341229D02*
X142422618Y-112300752D01*
X142422618Y-112300752D02*
X142503571Y-112260276D01*
X142503571Y-112260276D02*
X142705952Y-112260276D01*
X142705952Y-112260276D02*
X142786904Y-112300752D01*
X142786904Y-112300752D02*
X142827380Y-112341229D01*
X142827380Y-112341229D02*
X142867857Y-112422181D01*
X142867857Y-112422181D02*
X142867857Y-112624562D01*
X142867857Y-112624562D02*
X142827380Y-112705514D01*
X142827380Y-112705514D02*
X142786904Y-112745991D01*
X142786904Y-112745991D02*
X142705952Y-112786467D01*
X142705952Y-112786467D02*
X142503571Y-112786467D01*
X142503571Y-112786467D02*
X142422618Y-112745991D01*
X142422618Y-112745991D02*
X142382142Y-112705514D01*
X141852380Y-86736467D02*
X141852380Y-87424562D01*
X141852380Y-87424562D02*
X141892857Y-87505514D01*
X141892857Y-87505514D02*
X141933333Y-87545991D01*
X141933333Y-87545991D02*
X142014285Y-87586467D01*
X142014285Y-87586467D02*
X142176190Y-87586467D01*
X142176190Y-87586467D02*
X142257142Y-87545991D01*
X142257142Y-87545991D02*
X142297619Y-87505514D01*
X142297619Y-87505514D02*
X142338095Y-87424562D01*
X142338095Y-87424562D02*
X142338095Y-86736467D01*
X142702380Y-86817419D02*
X142742856Y-86776943D01*
X142742856Y-86776943D02*
X142823809Y-86736467D01*
X142823809Y-86736467D02*
X143026190Y-86736467D01*
X143026190Y-86736467D02*
X143107142Y-86776943D01*
X143107142Y-86776943D02*
X143147618Y-86817419D01*
X143147618Y-86817419D02*
X143188095Y-86898371D01*
X143188095Y-86898371D02*
X143188095Y-86979324D01*
X143188095Y-86979324D02*
X143147618Y-87100752D01*
X143147618Y-87100752D02*
X142661904Y-87586467D01*
X142661904Y-87586467D02*
X143188095Y-87586467D01*
X151658333Y-116486467D02*
X151374999Y-116081705D01*
X151172618Y-116486467D02*
X151172618Y-115636467D01*
X151172618Y-115636467D02*
X151496428Y-115636467D01*
X151496428Y-115636467D02*
X151577380Y-115676943D01*
X151577380Y-115676943D02*
X151617857Y-115717419D01*
X151617857Y-115717419D02*
X151658333Y-115798371D01*
X151658333Y-115798371D02*
X151658333Y-115919800D01*
X151658333Y-115919800D02*
X151617857Y-116000752D01*
X151617857Y-116000752D02*
X151577380Y-116041229D01*
X151577380Y-116041229D02*
X151496428Y-116081705D01*
X151496428Y-116081705D02*
X151172618Y-116081705D01*
X152467857Y-116486467D02*
X151982142Y-116486467D01*
X152224999Y-116486467D02*
X152224999Y-115636467D01*
X152224999Y-115636467D02*
X152144047Y-115757895D01*
X152144047Y-115757895D02*
X152063095Y-115838848D01*
X152063095Y-115838848D02*
X151982142Y-115879324D01*
X150005514Y-92746428D02*
X150045991Y-92786904D01*
X150045991Y-92786904D02*
X150086467Y-92908333D01*
X150086467Y-92908333D02*
X150086467Y-92989285D01*
X150086467Y-92989285D02*
X150045991Y-93110714D01*
X150045991Y-93110714D02*
X149965038Y-93191666D01*
X149965038Y-93191666D02*
X149884086Y-93232143D01*
X149884086Y-93232143D02*
X149722181Y-93272619D01*
X149722181Y-93272619D02*
X149600752Y-93272619D01*
X149600752Y-93272619D02*
X149438848Y-93232143D01*
X149438848Y-93232143D02*
X149357895Y-93191666D01*
X149357895Y-93191666D02*
X149276943Y-93110714D01*
X149276943Y-93110714D02*
X149236467Y-92989285D01*
X149236467Y-92989285D02*
X149236467Y-92908333D01*
X149236467Y-92908333D02*
X149276943Y-92786904D01*
X149276943Y-92786904D02*
X149317419Y-92746428D01*
X149317419Y-92422619D02*
X149276943Y-92382143D01*
X149276943Y-92382143D02*
X149236467Y-92301190D01*
X149236467Y-92301190D02*
X149236467Y-92098809D01*
X149236467Y-92098809D02*
X149276943Y-92017857D01*
X149276943Y-92017857D02*
X149317419Y-91977381D01*
X149317419Y-91977381D02*
X149398371Y-91936904D01*
X149398371Y-91936904D02*
X149479324Y-91936904D01*
X149479324Y-91936904D02*
X149600752Y-91977381D01*
X149600752Y-91977381D02*
X150086467Y-92463095D01*
X150086467Y-92463095D02*
X150086467Y-91936904D01*
X149236467Y-91653571D02*
X149236467Y-91127380D01*
X149236467Y-91127380D02*
X149560276Y-91410714D01*
X149560276Y-91410714D02*
X149560276Y-91289285D01*
X149560276Y-91289285D02*
X149600752Y-91208333D01*
X149600752Y-91208333D02*
X149641229Y-91167857D01*
X149641229Y-91167857D02*
X149722181Y-91127380D01*
X149722181Y-91127380D02*
X149924562Y-91127380D01*
X149924562Y-91127380D02*
X150005514Y-91167857D01*
X150005514Y-91167857D02*
X150045991Y-91208333D01*
X150045991Y-91208333D02*
X150086467Y-91289285D01*
X150086467Y-91289285D02*
X150086467Y-91532142D01*
X150086467Y-91532142D02*
X150045991Y-91613095D01*
X150045991Y-91613095D02*
X150005514Y-91653571D01*
X163765063Y-95138763D02*
X163757394Y-95266530D01*
X163757394Y-95266530D02*
X163809774Y-95462015D01*
X163809774Y-95462015D02*
X163869823Y-95529733D01*
X163869823Y-95529733D02*
X163919396Y-95558354D01*
X163919396Y-95558354D02*
X164008066Y-95576499D01*
X164008066Y-95576499D02*
X164086260Y-95555547D01*
X164086260Y-95555547D02*
X164153978Y-95495498D01*
X164153978Y-95495498D02*
X164182599Y-95445925D01*
X164182599Y-95445925D02*
X164200744Y-95357255D01*
X164200744Y-95357255D02*
X164197937Y-95190391D01*
X164197937Y-95190391D02*
X164216082Y-95101721D01*
X164216082Y-95101721D02*
X164244703Y-95052148D01*
X164244703Y-95052148D02*
X164312421Y-94992099D01*
X164312421Y-94992099D02*
X164390615Y-94971147D01*
X164390615Y-94971147D02*
X164479285Y-94989292D01*
X164479285Y-94989292D02*
X164528858Y-95017913D01*
X164528858Y-95017913D02*
X164588907Y-95085631D01*
X164588907Y-95085631D02*
X164641287Y-95281116D01*
X164641287Y-95281116D02*
X164633618Y-95408883D01*
X164746047Y-95672086D02*
X163977390Y-96087567D01*
X163977390Y-96087567D02*
X164605749Y-96086815D01*
X164605749Y-96086815D02*
X164061198Y-96400343D01*
X164061198Y-96400343D02*
X164934615Y-96375832D01*
X164312622Y-97338671D02*
X164186910Y-96869507D01*
X164249766Y-97104089D02*
X165070803Y-96884093D01*
X165070803Y-96884093D02*
X164932560Y-96837327D01*
X164932560Y-96837327D02*
X164833414Y-96780085D01*
X164833414Y-96780085D02*
X164773365Y-96712367D01*
D11*
%TO.C,J3*%
X137730000Y-106895000D02*
X138365000Y-106895000D01*
X137730000Y-107530000D02*
X137730000Y-106895000D01*
%TO.C,C13*%
X145960000Y-116484165D02*
X145960000Y-116715835D01*
X145240000Y-116484165D02*
X145240000Y-116715835D01*
%TO.C,R5*%
X137980000Y-88434879D02*
X137980000Y-88770121D01*
X137220000Y-88434879D02*
X137220000Y-88770121D01*
%TO.C,R7*%
X163232379Y-94020000D02*
X163567621Y-94020000D01*
X163232379Y-94780000D02*
X163567621Y-94780000D01*
%TO.C,R6*%
X139634879Y-86620000D02*
X139970121Y-86620000D01*
X139634879Y-87380000D02*
X139970121Y-87380000D01*
%TO.C,X1*%
X152290000Y-103160000D02*
X154710000Y-103160000D01*
X154710000Y-103160000D02*
X154710000Y-100340000D01*
%TO.C,L5*%
X143989758Y-94040000D02*
X144810242Y-94040000D01*
X143989758Y-95160000D02*
X144810242Y-95160000D01*
%TO.C,BT1*%
X145210000Y-84072500D02*
X145210000Y-85232500D01*
X144400000Y-84072500D02*
X145210000Y-84072500D01*
X143590000Y-84072500D02*
X142385000Y-84072500D01*
X143590000Y-84072500D02*
X143590000Y-84565792D01*
X142385000Y-84072500D02*
X142385000Y-84914577D01*
X142385000Y-85550423D02*
X142385000Y-86392500D01*
X143590000Y-85899208D02*
X143590000Y-86392500D01*
X143590000Y-86392500D02*
X142385000Y-86392500D01*
%TO.C,R8*%
X163732379Y-107020000D02*
X164067621Y-107020000D01*
X163732379Y-107780000D02*
X164067621Y-107780000D01*
%TO.C,SW2*%
X167228453Y-102545385D02*
X166165935Y-102260684D01*
X166193177Y-106409088D02*
X165130658Y-106124387D01*
%TO.C,C8*%
X152784165Y-114692500D02*
X153015835Y-114692500D01*
X152784165Y-115412500D02*
X153015835Y-115412500D01*
%TO.C,R2*%
X150082379Y-116820000D02*
X150417621Y-116820000D01*
X150082379Y-117580000D02*
X150417621Y-117580000D01*
%TO.C,U4*%
D12*
X152775000Y-90800000D02*
G75*
G02*
X152625000Y-90800000I-75000J0D01*
G01*
X152625000Y-90800000D02*
G75*
G02*
X152775000Y-90800000I75000J0D01*
G01*
D11*
%TO.C,C25*%
X156460000Y-100701665D02*
X156460000Y-100933335D01*
X155740000Y-100701665D02*
X155740000Y-100933335D01*
%TO.C,C6*%
X157460000Y-108104165D02*
X157460000Y-108335835D01*
X156740000Y-108104165D02*
X156740000Y-108335835D01*
%TO.C,C18*%
X141535000Y-95338748D02*
X141535000Y-95861252D01*
X140065000Y-95338748D02*
X140065000Y-95861252D01*
%TO.C,L1*%
X149339758Y-100190000D02*
X150160242Y-100190000D01*
X149339758Y-101310000D02*
X150160242Y-101310000D01*
%TO.C,C10*%
X144015835Y-107460000D02*
X143784165Y-107460000D01*
X144015835Y-106740000D02*
X143784165Y-106740000D01*
%TO.C,C2*%
X156060000Y-105384165D02*
X156060000Y-105615835D01*
X155340000Y-105384165D02*
X155340000Y-105615835D01*
%TO.C,U1*%
X146390000Y-111810000D02*
X146390000Y-111335000D01*
X146865000Y-111810000D02*
X146390000Y-111810000D01*
X153610000Y-111810000D02*
X153135000Y-111810000D01*
X153610000Y-111335000D02*
X153610000Y-111810000D01*
X146390000Y-105065000D02*
X146390000Y-104590000D01*
X146390000Y-104590000D02*
X146865000Y-104590000D01*
X153135000Y-104590000D02*
X153610000Y-104590000D01*
X153610000Y-104590000D02*
X153610000Y-105065000D01*
X147490000Y-112640000D02*
X147010000Y-112640000D01*
X147250000Y-112310000D01*
X147490000Y-112640000D01*
G36*
X147490000Y-112640000D02*
G01*
X147010000Y-112640000D01*
X147250000Y-112310000D01*
X147490000Y-112640000D01*
G37*
%TO.C,U3*%
X150487355Y-85613600D02*
X151512645Y-85613600D01*
X151512645Y-83251400D02*
X150487355Y-83251400D01*
D13*
X149830000Y-83132500D02*
G75*
G02*
X149670000Y-83132500I-80000J0D01*
G01*
X149670000Y-83132500D02*
G75*
G02*
X149830000Y-83132500I80000J0D01*
G01*
D11*
%TO.C,C21*%
X147760000Y-84684165D02*
X147760000Y-84915835D01*
X147040000Y-84684165D02*
X147040000Y-84915835D01*
D14*
%TO.C,J1*%
X133200000Y-95000000D02*
X136700000Y-95000000D01*
X133200000Y-105000000D02*
X136700000Y-105000000D01*
D11*
%TO.C,C9*%
X148603733Y-102240000D02*
X148896267Y-102240000D01*
X148603733Y-103260000D02*
X148896267Y-103260000D01*
%TO.C,C11*%
X149896267Y-99260000D02*
X149603733Y-99260000D01*
X149896267Y-98240000D02*
X149603733Y-98240000D01*
%TO.C,C22*%
X156240000Y-92315835D02*
X156240000Y-92084165D01*
X156960000Y-92315835D02*
X156960000Y-92084165D01*
%TO.C,R4*%
X143232379Y-109570000D02*
X143567621Y-109570000D01*
X143232379Y-110330000D02*
X143567621Y-110330000D01*
%TO.C,C12*%
X149960000Y-114236665D02*
X149960000Y-114468335D01*
X149240000Y-114236665D02*
X149240000Y-114468335D01*
%TO.C,C19*%
X137735000Y-92138748D02*
X137735000Y-92661252D01*
X136265000Y-92138748D02*
X136265000Y-92661252D01*
%TO.C,C1*%
X157460000Y-105384165D02*
X157460000Y-105615835D01*
X156740000Y-105384165D02*
X156740000Y-105615835D01*
%TO.C,C4*%
X145390000Y-103298335D02*
X145390000Y-103066665D01*
X146110000Y-103298335D02*
X146110000Y-103066665D01*
%TO.C,C24*%
X157860000Y-100701665D02*
X157860000Y-100933335D01*
X157140000Y-100701665D02*
X157140000Y-100933335D01*
%TO.C,C20*%
X145665000Y-91061252D02*
X145665000Y-90538748D01*
X147135000Y-91061252D02*
X147135000Y-90538748D01*
%TO.C,R3*%
X143232379Y-110770000D02*
X143567621Y-110770000D01*
X143232379Y-111530000D02*
X143567621Y-111530000D01*
%TO.C,C14*%
X148360000Y-116484165D02*
X148360000Y-116715835D01*
X147640000Y-116484165D02*
X147640000Y-116715835D01*
%TO.C,X2*%
X145090000Y-113340000D02*
X145090000Y-115060000D01*
X145090000Y-115060000D02*
X148060000Y-115060000D01*
X148060000Y-113340000D02*
X145090000Y-113340000D01*
%TO.C,C3*%
X156060000Y-108104165D02*
X156060000Y-108335835D01*
X155340000Y-108104165D02*
X155340000Y-108335835D01*
%TO.C,C7*%
X152784165Y-113440000D02*
X153015835Y-113440000D01*
X152784165Y-114160000D02*
X153015835Y-114160000D01*
%TO.C,DS1*%
X159600000Y-103600000D02*
X161900000Y-103600000D01*
X159600000Y-103600000D02*
X159600000Y-102550000D01*
X159600000Y-96400000D02*
X159600000Y-97450000D01*
X159600000Y-96400000D02*
X161900000Y-96400000D01*
D13*
X159230000Y-97000000D02*
G75*
G02*
X159070000Y-97000000I-80000J0D01*
G01*
X159070000Y-97000000D02*
G75*
G02*
X159230000Y-97000000I80000J0D01*
G01*
D11*
%TO.C,C5*%
X144315835Y-112760000D02*
X144084165Y-112760000D01*
X144315835Y-112040000D02*
X144084165Y-112040000D01*
%TO.C,U2*%
X143860000Y-92660000D02*
X143385000Y-92660000D01*
X143860000Y-92185000D02*
X143860000Y-92660000D01*
X143860000Y-88440000D02*
X143860000Y-88915000D01*
X143385000Y-88440000D02*
X143860000Y-88440000D01*
X140115000Y-92660000D02*
X139640000Y-92660000D01*
X139640000Y-92660000D02*
X139640000Y-92185000D01*
X139640000Y-88915000D02*
X139640000Y-88440000D01*
X139640000Y-88440000D02*
X140115000Y-88440000D01*
X144720000Y-92040000D02*
X144390000Y-91800000D01*
X144720000Y-91560000D01*
X144720000Y-92040000D01*
G36*
X144720000Y-92040000D02*
G01*
X144390000Y-91800000D01*
X144720000Y-91560000D01*
X144720000Y-92040000D01*
G37*
%TO.C,R1*%
X150520000Y-114567621D02*
X150520000Y-114232379D01*
X151280000Y-114567621D02*
X151280000Y-114232379D01*
%TO.C,C23*%
X150840000Y-92315835D02*
X150840000Y-92084165D01*
X151560000Y-92315835D02*
X151560000Y-92084165D01*
%TO.C,SW1*%
X166193177Y-93590912D02*
X165130658Y-93875613D01*
X167228453Y-97454615D02*
X166165935Y-97739316D01*
%TD*%
%LPC*%
D15*
%TO.C,J3*%
X139000000Y-106260000D03*
X140016000Y-111340000D03*
X137984000Y-111340000D03*
D16*
X138365000Y-107530000D03*
X139635000Y-107530000D03*
X138365000Y-108800000D03*
X139635000Y-108800000D03*
X138365000Y-110070000D03*
X139635000Y-110070000D03*
%TD*%
D17*
%TO.C,C13*%
X145600000Y-116032500D03*
X145600000Y-117167500D03*
%TD*%
D18*
%TO.C,R5*%
X137600000Y-88005000D03*
X137600000Y-89200000D03*
%TD*%
D19*
%TO.C,R7*%
X162802500Y-94400000D03*
X163997500Y-94400000D03*
%TD*%
%TO.C,R6*%
X139205000Y-87000000D03*
X140400000Y-87000000D03*
%TD*%
D20*
%TO.C,X1*%
X154050000Y-102450000D03*
X154050000Y-101050000D03*
X152950000Y-101050000D03*
X152950000Y-102450000D03*
%TD*%
D21*
%TO.C,L5*%
X143250000Y-94600000D03*
X145550000Y-94600000D03*
%TD*%
D22*
%TO.C,BT1*%
X144400000Y-85232500D03*
D23*
X143130000Y-85232500D03*
%TD*%
D19*
%TO.C,R8*%
X163302500Y-107400000D03*
X164497500Y-107400000D03*
%TD*%
D24*
%TO.C,SW2*%
X166348717Y-102930826D03*
X165624024Y-105635418D03*
D25*
X165841482Y-104244299D03*
D26*
X167762715Y-102869713D03*
D27*
X166818026Y-106395342D03*
%TD*%
D28*
%TO.C,C8*%
X152332500Y-115052500D03*
X153467500Y-115052500D03*
%TD*%
D19*
%TO.C,R2*%
X149652500Y-117200000D03*
X150847500Y-117200000D03*
%TD*%
D29*
%TO.C,U4*%
X153225000Y-91250000D03*
X153225000Y-91750000D03*
X153225000Y-92250000D03*
X153225000Y-92750000D03*
D30*
X153750000Y-92775000D03*
X154250000Y-92775000D03*
D29*
X154775000Y-92750000D03*
X154775000Y-92250000D03*
X154775000Y-91750000D03*
X154775000Y-91250000D03*
D30*
X154250000Y-91225000D03*
X153750000Y-91225000D03*
%TD*%
D17*
%TO.C,C25*%
X156100000Y-100250000D03*
X156100000Y-101385000D03*
%TD*%
%TO.C,C6*%
X157100000Y-107652500D03*
X157100000Y-108787500D03*
%TD*%
D31*
%TO.C,C18*%
X140800000Y-94562500D03*
X140800000Y-96637500D03*
%TD*%
D21*
%TO.C,L1*%
X148600000Y-100750000D03*
X150900000Y-100750000D03*
%TD*%
D32*
%TO.C,C10*%
X144467500Y-107100000D03*
X143332500Y-107100000D03*
%TD*%
D17*
%TO.C,C2*%
X155700000Y-104932500D03*
X155700000Y-106067500D03*
%TD*%
D33*
%TO.C,U1*%
X147250000Y-111650000D03*
X147750000Y-111650000D03*
X148250000Y-111650000D03*
X148750000Y-111650000D03*
X149250000Y-111650000D03*
X149750000Y-111650000D03*
X150250000Y-111650000D03*
X150750000Y-111650000D03*
X151250000Y-111650000D03*
X151750000Y-111650000D03*
X152250000Y-111650000D03*
X152750000Y-111650000D03*
D34*
X153450000Y-110950000D03*
X153450000Y-110450000D03*
X153450000Y-109950000D03*
X153450000Y-109450000D03*
X153450000Y-108950000D03*
X153450000Y-108450000D03*
X153450000Y-107950000D03*
X153450000Y-107450000D03*
X153450000Y-106950000D03*
X153450000Y-106450000D03*
X153450000Y-105950000D03*
X153450000Y-105450000D03*
D33*
X152750000Y-104750000D03*
X152250000Y-104750000D03*
X151750000Y-104750000D03*
X151250000Y-104750000D03*
X150750000Y-104750000D03*
X150250000Y-104750000D03*
X149750000Y-104750000D03*
X149250000Y-104750000D03*
X148750000Y-104750000D03*
X148250000Y-104750000D03*
X147750000Y-104750000D03*
X147250000Y-104750000D03*
D34*
X146550000Y-105450000D03*
X146550000Y-105950000D03*
X146550000Y-106450000D03*
X146550000Y-106950000D03*
X146550000Y-107450000D03*
X146550000Y-107950000D03*
X146550000Y-108450000D03*
X146550000Y-108950000D03*
X146550000Y-109450000D03*
X146550000Y-109950000D03*
X146550000Y-110450000D03*
X146550000Y-110950000D03*
D35*
X150000000Y-108200000D03*
%TD*%
D36*
%TO.C,U3*%
X149926150Y-83682499D03*
X149926150Y-84182500D03*
X149926150Y-84682500D03*
X149926150Y-85182501D03*
X152073850Y-85182501D03*
X152073850Y-84682500D03*
X152073850Y-84182500D03*
D37*
X152073850Y-83682502D03*
D38*
X151000000Y-84432500D03*
%TD*%
D17*
%TO.C,C21*%
X147400000Y-84232500D03*
X147400000Y-85367500D03*
%TD*%
D39*
%TO.C,J1*%
X135000000Y-97500000D03*
X135000000Y-102500000D03*
D40*
X137400000Y-98700000D03*
X137400000Y-99350000D03*
X137400000Y-100000000D03*
X137400000Y-100650000D03*
X137400000Y-101300000D03*
D41*
X137200000Y-97450000D03*
X137200000Y-102550000D03*
%TD*%
D42*
%TO.C,C9*%
X147887500Y-102750000D03*
X149612500Y-102750000D03*
%TD*%
D43*
%TO.C,C11*%
X150612500Y-98750000D03*
X148887500Y-98750000D03*
%TD*%
D44*
%TO.C,C22*%
X156600000Y-92767500D03*
X156600000Y-91632500D03*
%TD*%
D19*
%TO.C,R4*%
X142802500Y-109950000D03*
X143997500Y-109950000D03*
%TD*%
D17*
%TO.C,C12*%
X149600000Y-113785000D03*
X149600000Y-114920000D03*
%TD*%
D31*
%TO.C,C19*%
X137000000Y-91362500D03*
X137000000Y-93437500D03*
%TD*%
D17*
%TO.C,C1*%
X157100000Y-104932500D03*
X157100000Y-106067500D03*
%TD*%
D44*
%TO.C,C4*%
X145750000Y-103750000D03*
X145750000Y-102615000D03*
%TD*%
D17*
%TO.C,C24*%
X157500000Y-100250000D03*
X157500000Y-101385000D03*
%TD*%
D45*
%TO.C,C20*%
X146400000Y-91837500D03*
X146400000Y-89762500D03*
%TD*%
D19*
%TO.C,R3*%
X142802500Y-111150000D03*
X143997500Y-111150000D03*
%TD*%
D17*
%TO.C,C14*%
X148000000Y-116032500D03*
X148000000Y-117167500D03*
%TD*%
D46*
%TO.C,X2*%
X145875000Y-114200000D03*
X147725000Y-114200000D03*
%TD*%
D17*
%TO.C,C3*%
X155700000Y-107652500D03*
X155700000Y-108787500D03*
%TD*%
D28*
%TO.C,C7*%
X152332500Y-113800000D03*
X153467500Y-113800000D03*
%TD*%
D47*
%TO.C,DS1*%
X159650000Y-97750000D03*
X159650000Y-98250000D03*
X159650000Y-98750000D03*
X159650000Y-99250000D03*
X159650000Y-99750000D03*
X159650000Y-100250000D03*
X159650000Y-100750000D03*
X159650000Y-101250000D03*
X159650000Y-101750000D03*
X159650000Y-102250000D03*
D48*
X162500000Y-103525000D03*
X162500000Y-96475000D03*
%TD*%
D32*
%TO.C,C5*%
X144767500Y-112400000D03*
X143632500Y-112400000D03*
%TD*%
D49*
%TO.C,U2*%
X143687500Y-91800000D03*
X143687500Y-91300000D03*
X143687500Y-90800000D03*
X143687500Y-90300000D03*
X143687500Y-89800000D03*
X143687500Y-89300000D03*
D50*
X143000000Y-88612500D03*
X142500000Y-88612500D03*
X142000000Y-88612500D03*
X141500000Y-88612500D03*
X141000000Y-88612500D03*
X140500000Y-88612500D03*
D49*
X139812500Y-89300000D03*
X139812500Y-89800000D03*
X139812500Y-90300000D03*
X139812500Y-90800000D03*
X139812500Y-91300000D03*
X139812500Y-91800000D03*
D50*
X140500000Y-92487500D03*
X141000000Y-92487500D03*
X141500000Y-92487500D03*
X142000000Y-92487500D03*
X142500000Y-92487500D03*
X143000000Y-92487500D03*
D51*
X141750000Y-90550000D03*
%TD*%
D52*
%TO.C,R1*%
X150900000Y-114997500D03*
X150900000Y-113802500D03*
%TD*%
D44*
%TO.C,C23*%
X151200000Y-92767500D03*
X151200000Y-91632500D03*
%TD*%
D53*
%TO.C,SW1*%
X165624024Y-94364582D03*
X166348717Y-97069174D03*
D54*
X165841482Y-95755701D03*
D55*
X166818026Y-93604658D03*
D56*
X167762715Y-97130287D03*
%TD*%
%LPD*%
M02*
