M48
; DRILL file {KiCad 9.0.7-1.fc43} date 2026-01-31T17:59:18-0800
; FORMAT={-:-/ absolute / metric / decimal}
; #@! TF.CreationDate,2026-01-31T17:59:18-08:00
; #@! TF.GenerationSoftware,Kicad,Pcbnew,9.0.7-1.fc43
; #@! TF.FileFunction,Plated,1,6,PTH
FMAT,2
METRIC
; #@! TA.AperFunction,Plated,PTH,ViaDrill
T1C0.300
; #@! TA.AperFunction,Plated,PTH,ComponentDrill
T2C0.600
; #@! TA.AperFunction,Plated,PTH,ComponentDrill
T3C0.650
%
G90
G05
T1
X137.0Y-94.7
X137.4Y-107.5
X137.4Y-108.8
X137.4Y-110.1
X138.4Y-90.3
X138.8Y-90.8
X139.0Y-101.3
X139.4Y-99.348
X139.4Y-100.002
X140.5Y-93.4
X141.25Y-90.0
X141.25Y-91.0
X141.5Y-87.0
X141.8Y-109.95
X142.0Y-87.6
X142.2Y-96.7
X142.25Y-90.0
X142.25Y-91.0
X142.4Y-107.1
X142.5Y-87.0
X143.0Y-87.6
X143.5Y-104.9
X143.6Y-113.3
X143.85Y-107.85
X144.187Y-105.1
X144.4Y-93.3
X144.7Y-89.8
X144.7Y-90.8
X144.8Y-113.3
X145.0Y-89.0
X145.0Y-91.3
X145.15Y-108.45
X145.15Y-109.45
X145.15Y-110.45
X145.55Y-107.95
X145.6Y-108.95
X145.6Y-109.95
X146.2Y-101.6
X146.4Y-88.0
X146.4Y-93.7
X146.7Y-102.7
X146.7Y-117.3
X147.0Y-98.6
X148.9Y-83.4
X149.4Y-107.6
X149.4Y-108.8
X149.9Y-115.9
X150.2Y-92.7
X150.25Y-112.75
X150.6Y-107.6
X150.6Y-108.8
X151.2Y-93.8
X151.4Y-86.0
X152.25Y-91.75
X152.25Y-112.8
X152.35Y-115.953
X152.5Y-90.6
X153.0Y-98.8
X153.1Y-85.7
X153.1Y-112.8
X153.2Y-84.9
X153.2Y-103.6
X153.5Y-98.2
X153.5Y-99.4
X153.75Y-88.0
X153.75Y-94.35
X154.4Y-90.2
X154.6Y-104.2
X154.6Y-113.6
X154.7Y-111.1
X155.1Y-102.5
X155.2Y-101.1
X155.3Y-90.3
X156.6Y-89.5
X157.5Y-99.0
X157.5Y-102.4
X157.7Y-92.8
X158.0Y-104.9
X158.0Y-106.1
X158.0Y-107.6
X158.0Y-108.8
X158.2Y-99.0
X160.0Y-91.5
X162.8Y-93.3
X163.3Y-108.5
X164.002Y-95.6
X164.8Y-102.9
X165.9Y-107.0
X166.4Y-98.5
T2
X166.818Y-93.605
X166.818Y-106.395
X167.763Y-97.13
X167.763Y-102.87
T3
X143.13Y-85.233
X144.4Y-85.233
T3
X137.2Y-97.2G85X137.2Y-97.7
G05
X137.2Y-102.3G85X137.2Y-102.8
G05
M30
