%TF.GenerationSoftware,KiCad,Pcbnew,9.0.7-1.fc43*%
%TF.CreationDate,2026-01-31T17:59:18-08:00*%
%TF.ProjectId,watch,77617463-682e-46b6-9963-61645f706362,rev?*%
%TF.SameCoordinates,Original*%
%TF.FileFunction,Drillmap*%
%TF.FilePolarity,Positive*%
%FSLAX45Y45*%
G04 Gerber Fmt 4.5, Leading zero omitted, Abs format (unit mm)*
G04 Created by KiCad (PCBNEW 9.0.7-1.fc43) date 2026-01-31 17:59:18*
%MOMM*%
%LPD*%
G01*
G04 APERTURE LIST*
%ADD10C,0.100000*%
%ADD11C,0.200000*%
%ADD12C,0.115000*%
G04 APERTURE END LIST*
D10*
X13300000Y-10500000D02*
X13300000Y-10940000D01*
X13300000Y-9060000D02*
G75*
G02*
X13300000Y-10940000I1700000J-940000D01*
G01*
X13300000Y-9500000D02*
X13300000Y-9060000D01*
X13300000Y-9500000D02*
X13300000Y-10500000D01*
D11*
D10*
X13748870Y-11084470D02*
X13847930Y-11183530D01*
X13847930Y-11084470D02*
X13748870Y-11183530D01*
X13850470Y-10576470D02*
X13949530Y-10675530D01*
X13949530Y-10576470D02*
X13850470Y-10675530D01*
X13952070Y-11084470D02*
X14051130Y-11183530D01*
X14051130Y-11084470D02*
X13952070Y-11183530D01*
D12*
X13557500Y-9750000D02*
G75*
G02*
X13442500Y-9750000I-57500J0D01*
G01*
X13442500Y-9750000D02*
G75*
G02*
X13557500Y-9750000I57500J0D01*
G01*
X13557500Y-10250000D02*
G75*
G02*
X13442500Y-10250000I-57500J0D01*
G01*
X13442500Y-10250000D02*
G75*
G02*
X13557500Y-10250000I57500J0D01*
G01*
D11*
X13555777Y-12259059D02*
X13555777Y-12059059D01*
X13555777Y-12059059D02*
X13603396Y-12059059D01*
X13603396Y-12059059D02*
X13631967Y-12068583D01*
X13631967Y-12068583D02*
X13651015Y-12087631D01*
X13651015Y-12087631D02*
X13660539Y-12106678D01*
X13660539Y-12106678D02*
X13670062Y-12144774D01*
X13670062Y-12144774D02*
X13670062Y-12173345D01*
X13670062Y-12173345D02*
X13660539Y-12211440D01*
X13660539Y-12211440D02*
X13651015Y-12230488D01*
X13651015Y-12230488D02*
X13631967Y-12249536D01*
X13631967Y-12249536D02*
X13603396Y-12259059D01*
X13603396Y-12259059D02*
X13555777Y-12259059D01*
X13755777Y-12259059D02*
X13755777Y-12125726D01*
X13755777Y-12163821D02*
X13765301Y-12144774D01*
X13765301Y-12144774D02*
X13774824Y-12135250D01*
X13774824Y-12135250D02*
X13793872Y-12125726D01*
X13793872Y-12125726D02*
X13812920Y-12125726D01*
X13879586Y-12259059D02*
X13879586Y-12125726D01*
X13879586Y-12059059D02*
X13870062Y-12068583D01*
X13870062Y-12068583D02*
X13879586Y-12078107D01*
X13879586Y-12078107D02*
X13889110Y-12068583D01*
X13889110Y-12068583D02*
X13879586Y-12059059D01*
X13879586Y-12059059D02*
X13879586Y-12078107D01*
X14003396Y-12259059D02*
X13984348Y-12249536D01*
X13984348Y-12249536D02*
X13974824Y-12230488D01*
X13974824Y-12230488D02*
X13974824Y-12059059D01*
X14108158Y-12259059D02*
X14089110Y-12249536D01*
X14089110Y-12249536D02*
X14079586Y-12230488D01*
X14079586Y-12230488D02*
X14079586Y-12059059D01*
X14336729Y-12259059D02*
X14336729Y-12059059D01*
X14336729Y-12059059D02*
X14403396Y-12201916D01*
X14403396Y-12201916D02*
X14470062Y-12059059D01*
X14470062Y-12059059D02*
X14470062Y-12259059D01*
X14651015Y-12259059D02*
X14651015Y-12154297D01*
X14651015Y-12154297D02*
X14641491Y-12135250D01*
X14641491Y-12135250D02*
X14622443Y-12125726D01*
X14622443Y-12125726D02*
X14584348Y-12125726D01*
X14584348Y-12125726D02*
X14565301Y-12135250D01*
X14651015Y-12249536D02*
X14631967Y-12259059D01*
X14631967Y-12259059D02*
X14584348Y-12259059D01*
X14584348Y-12259059D02*
X14565301Y-12249536D01*
X14565301Y-12249536D02*
X14555777Y-12230488D01*
X14555777Y-12230488D02*
X14555777Y-12211440D01*
X14555777Y-12211440D02*
X14565301Y-12192393D01*
X14565301Y-12192393D02*
X14584348Y-12182869D01*
X14584348Y-12182869D02*
X14631967Y-12182869D01*
X14631967Y-12182869D02*
X14651015Y-12173345D01*
X14746253Y-12125726D02*
X14746253Y-12325726D01*
X14746253Y-12135250D02*
X14765301Y-12125726D01*
X14765301Y-12125726D02*
X14803396Y-12125726D01*
X14803396Y-12125726D02*
X14822443Y-12135250D01*
X14822443Y-12135250D02*
X14831967Y-12144774D01*
X14831967Y-12144774D02*
X14841491Y-12163821D01*
X14841491Y-12163821D02*
X14841491Y-12220964D01*
X14841491Y-12220964D02*
X14831967Y-12240012D01*
X14831967Y-12240012D02*
X14822443Y-12249536D01*
X14822443Y-12249536D02*
X14803396Y-12259059D01*
X14803396Y-12259059D02*
X14765301Y-12259059D01*
X14765301Y-12259059D02*
X14746253Y-12249536D01*
X14927205Y-12240012D02*
X14936729Y-12249536D01*
X14936729Y-12249536D02*
X14927205Y-12259059D01*
X14927205Y-12259059D02*
X14917682Y-12249536D01*
X14917682Y-12249536D02*
X14927205Y-12240012D01*
X14927205Y-12240012D02*
X14927205Y-12259059D01*
X14927205Y-12135250D02*
X14936729Y-12144774D01*
X14936729Y-12144774D02*
X14927205Y-12154297D01*
X14927205Y-12154297D02*
X14917682Y-12144774D01*
X14917682Y-12144774D02*
X14927205Y-12135250D01*
X14927205Y-12135250D02*
X14927205Y-12154297D01*
D10*
X13195940Y-12538046D02*
X13295000Y-12637106D01*
X13295000Y-12538046D02*
X13195940Y-12637106D01*
D11*
X13593872Y-12479059D02*
X13612920Y-12479059D01*
X13612920Y-12479059D02*
X13631967Y-12488583D01*
X13631967Y-12488583D02*
X13641491Y-12498107D01*
X13641491Y-12498107D02*
X13651015Y-12517155D01*
X13651015Y-12517155D02*
X13660539Y-12555250D01*
X13660539Y-12555250D02*
X13660539Y-12602869D01*
X13660539Y-12602869D02*
X13651015Y-12640964D01*
X13651015Y-12640964D02*
X13641491Y-12660012D01*
X13641491Y-12660012D02*
X13631967Y-12669536D01*
X13631967Y-12669536D02*
X13612920Y-12679059D01*
X13612920Y-12679059D02*
X13593872Y-12679059D01*
X13593872Y-12679059D02*
X13574824Y-12669536D01*
X13574824Y-12669536D02*
X13565301Y-12660012D01*
X13565301Y-12660012D02*
X13555777Y-12640964D01*
X13555777Y-12640964D02*
X13546253Y-12602869D01*
X13546253Y-12602869D02*
X13546253Y-12555250D01*
X13546253Y-12555250D02*
X13555777Y-12517155D01*
X13555777Y-12517155D02*
X13565301Y-12498107D01*
X13565301Y-12498107D02*
X13574824Y-12488583D01*
X13574824Y-12488583D02*
X13593872Y-12479059D01*
X13746253Y-12660012D02*
X13755777Y-12669536D01*
X13755777Y-12669536D02*
X13746253Y-12679059D01*
X13746253Y-12679059D02*
X13736729Y-12669536D01*
X13736729Y-12669536D02*
X13746253Y-12660012D01*
X13746253Y-12660012D02*
X13746253Y-12679059D01*
X13851015Y-12679059D02*
X13889110Y-12679059D01*
X13889110Y-12679059D02*
X13908158Y-12669536D01*
X13908158Y-12669536D02*
X13917682Y-12660012D01*
X13917682Y-12660012D02*
X13936729Y-12631440D01*
X13936729Y-12631440D02*
X13946253Y-12593345D01*
X13946253Y-12593345D02*
X13946253Y-12517155D01*
X13946253Y-12517155D02*
X13936729Y-12498107D01*
X13936729Y-12498107D02*
X13927205Y-12488583D01*
X13927205Y-12488583D02*
X13908158Y-12479059D01*
X13908158Y-12479059D02*
X13870062Y-12479059D01*
X13870062Y-12479059D02*
X13851015Y-12488583D01*
X13851015Y-12488583D02*
X13841491Y-12498107D01*
X13841491Y-12498107D02*
X13831967Y-12517155D01*
X13831967Y-12517155D02*
X13831967Y-12564774D01*
X13831967Y-12564774D02*
X13841491Y-12583821D01*
X13841491Y-12583821D02*
X13851015Y-12593345D01*
X13851015Y-12593345D02*
X13870062Y-12602869D01*
X13870062Y-12602869D02*
X13908158Y-12602869D01*
X13908158Y-12602869D02*
X13927205Y-12593345D01*
X13927205Y-12593345D02*
X13936729Y-12583821D01*
X13936729Y-12583821D02*
X13946253Y-12564774D01*
X14041491Y-12679059D02*
X14079586Y-12679059D01*
X14079586Y-12679059D02*
X14098634Y-12669536D01*
X14098634Y-12669536D02*
X14108158Y-12660012D01*
X14108158Y-12660012D02*
X14127205Y-12631440D01*
X14127205Y-12631440D02*
X14136729Y-12593345D01*
X14136729Y-12593345D02*
X14136729Y-12517155D01*
X14136729Y-12517155D02*
X14127205Y-12498107D01*
X14127205Y-12498107D02*
X14117682Y-12488583D01*
X14117682Y-12488583D02*
X14098634Y-12479059D01*
X14098634Y-12479059D02*
X14060539Y-12479059D01*
X14060539Y-12479059D02*
X14041491Y-12488583D01*
X14041491Y-12488583D02*
X14031967Y-12498107D01*
X14031967Y-12498107D02*
X14022443Y-12517155D01*
X14022443Y-12517155D02*
X14022443Y-12564774D01*
X14022443Y-12564774D02*
X14031967Y-12583821D01*
X14031967Y-12583821D02*
X14041491Y-12593345D01*
X14041491Y-12593345D02*
X14060539Y-12602869D01*
X14060539Y-12602869D02*
X14098634Y-12602869D01*
X14098634Y-12602869D02*
X14117682Y-12593345D01*
X14117682Y-12593345D02*
X14127205Y-12583821D01*
X14127205Y-12583821D02*
X14136729Y-12564774D01*
X14327205Y-12679059D02*
X14212920Y-12679059D01*
X14270062Y-12679059D02*
X14270062Y-12479059D01*
X14270062Y-12479059D02*
X14251015Y-12507631D01*
X14251015Y-12507631D02*
X14231967Y-12526678D01*
X14231967Y-12526678D02*
X14212920Y-12536202D01*
X14412920Y-12679059D02*
X14412920Y-12545726D01*
X14412920Y-12564774D02*
X14422443Y-12555250D01*
X14422443Y-12555250D02*
X14441491Y-12545726D01*
X14441491Y-12545726D02*
X14470063Y-12545726D01*
X14470063Y-12545726D02*
X14489110Y-12555250D01*
X14489110Y-12555250D02*
X14498634Y-12574297D01*
X14498634Y-12574297D02*
X14498634Y-12679059D01*
X14498634Y-12574297D02*
X14508158Y-12555250D01*
X14508158Y-12555250D02*
X14527205Y-12545726D01*
X14527205Y-12545726D02*
X14555777Y-12545726D01*
X14555777Y-12545726D02*
X14574824Y-12555250D01*
X14574824Y-12555250D02*
X14584348Y-12574297D01*
X14584348Y-12574297D02*
X14584348Y-12679059D01*
X14679586Y-12679059D02*
X14679586Y-12545726D01*
X14679586Y-12564774D02*
X14689110Y-12555250D01*
X14689110Y-12555250D02*
X14708158Y-12545726D01*
X14708158Y-12545726D02*
X14736729Y-12545726D01*
X14736729Y-12545726D02*
X14755777Y-12555250D01*
X14755777Y-12555250D02*
X14765301Y-12574297D01*
X14765301Y-12574297D02*
X14765301Y-12679059D01*
X14765301Y-12574297D02*
X14774824Y-12555250D01*
X14774824Y-12555250D02*
X14793872Y-12545726D01*
X14793872Y-12545726D02*
X14822443Y-12545726D01*
X14822443Y-12545726D02*
X14841491Y-12555250D01*
X14841491Y-12555250D02*
X14851015Y-12574297D01*
X14851015Y-12574297D02*
X14851015Y-12679059D01*
X15241491Y-12469536D02*
X15070063Y-12726678D01*
X15498634Y-12479059D02*
X15517682Y-12479059D01*
X15517682Y-12479059D02*
X15536729Y-12488583D01*
X15536729Y-12488583D02*
X15546253Y-12498107D01*
X15546253Y-12498107D02*
X15555777Y-12517155D01*
X15555777Y-12517155D02*
X15565301Y-12555250D01*
X15565301Y-12555250D02*
X15565301Y-12602869D01*
X15565301Y-12602869D02*
X15555777Y-12640964D01*
X15555777Y-12640964D02*
X15546253Y-12660012D01*
X15546253Y-12660012D02*
X15536729Y-12669536D01*
X15536729Y-12669536D02*
X15517682Y-12679059D01*
X15517682Y-12679059D02*
X15498634Y-12679059D01*
X15498634Y-12679059D02*
X15479586Y-12669536D01*
X15479586Y-12669536D02*
X15470063Y-12660012D01*
X15470063Y-12660012D02*
X15460539Y-12640964D01*
X15460539Y-12640964D02*
X15451015Y-12602869D01*
X15451015Y-12602869D02*
X15451015Y-12555250D01*
X15451015Y-12555250D02*
X15460539Y-12517155D01*
X15460539Y-12517155D02*
X15470063Y-12498107D01*
X15470063Y-12498107D02*
X15479586Y-12488583D01*
X15479586Y-12488583D02*
X15498634Y-12479059D01*
X15651015Y-12660012D02*
X15660539Y-12669536D01*
X15660539Y-12669536D02*
X15651015Y-12679059D01*
X15651015Y-12679059D02*
X15641491Y-12669536D01*
X15641491Y-12669536D02*
X15651015Y-12660012D01*
X15651015Y-12660012D02*
X15651015Y-12679059D01*
X15784348Y-12479059D02*
X15803396Y-12479059D01*
X15803396Y-12479059D02*
X15822444Y-12488583D01*
X15822444Y-12488583D02*
X15831967Y-12498107D01*
X15831967Y-12498107D02*
X15841491Y-12517155D01*
X15841491Y-12517155D02*
X15851015Y-12555250D01*
X15851015Y-12555250D02*
X15851015Y-12602869D01*
X15851015Y-12602869D02*
X15841491Y-12640964D01*
X15841491Y-12640964D02*
X15831967Y-12660012D01*
X15831967Y-12660012D02*
X15822444Y-12669536D01*
X15822444Y-12669536D02*
X15803396Y-12679059D01*
X15803396Y-12679059D02*
X15784348Y-12679059D01*
X15784348Y-12679059D02*
X15765301Y-12669536D01*
X15765301Y-12669536D02*
X15755777Y-12660012D01*
X15755777Y-12660012D02*
X15746253Y-12640964D01*
X15746253Y-12640964D02*
X15736729Y-12602869D01*
X15736729Y-12602869D02*
X15736729Y-12555250D01*
X15736729Y-12555250D02*
X15746253Y-12517155D01*
X15746253Y-12517155D02*
X15755777Y-12498107D01*
X15755777Y-12498107D02*
X15765301Y-12488583D01*
X15765301Y-12488583D02*
X15784348Y-12479059D01*
X15917682Y-12479059D02*
X16041491Y-12479059D01*
X16041491Y-12479059D02*
X15974825Y-12555250D01*
X15974825Y-12555250D02*
X16003396Y-12555250D01*
X16003396Y-12555250D02*
X16022444Y-12564774D01*
X16022444Y-12564774D02*
X16031967Y-12574297D01*
X16031967Y-12574297D02*
X16041491Y-12593345D01*
X16041491Y-12593345D02*
X16041491Y-12640964D01*
X16041491Y-12640964D02*
X16031967Y-12660012D01*
X16031967Y-12660012D02*
X16022444Y-12669536D01*
X16022444Y-12669536D02*
X16003396Y-12679059D01*
X16003396Y-12679059D02*
X15946253Y-12679059D01*
X15946253Y-12679059D02*
X15927206Y-12669536D01*
X15927206Y-12669536D02*
X15917682Y-12660012D01*
X16136729Y-12679059D02*
X16174825Y-12679059D01*
X16174825Y-12679059D02*
X16193872Y-12669536D01*
X16193872Y-12669536D02*
X16203396Y-12660012D01*
X16203396Y-12660012D02*
X16222444Y-12631440D01*
X16222444Y-12631440D02*
X16231967Y-12593345D01*
X16231967Y-12593345D02*
X16231967Y-12517155D01*
X16231967Y-12517155D02*
X16222444Y-12498107D01*
X16222444Y-12498107D02*
X16212920Y-12488583D01*
X16212920Y-12488583D02*
X16193872Y-12479059D01*
X16193872Y-12479059D02*
X16155777Y-12479059D01*
X16155777Y-12479059D02*
X16136729Y-12488583D01*
X16136729Y-12488583D02*
X16127206Y-12498107D01*
X16127206Y-12498107D02*
X16117682Y-12517155D01*
X16117682Y-12517155D02*
X16117682Y-12564774D01*
X16117682Y-12564774D02*
X16127206Y-12583821D01*
X16127206Y-12583821D02*
X16136729Y-12593345D01*
X16136729Y-12593345D02*
X16155777Y-12602869D01*
X16155777Y-12602869D02*
X16193872Y-12602869D01*
X16193872Y-12602869D02*
X16212920Y-12593345D01*
X16212920Y-12593345D02*
X16222444Y-12583821D01*
X16222444Y-12583821D02*
X16231967Y-12564774D01*
X16355777Y-12479059D02*
X16374825Y-12479059D01*
X16374825Y-12479059D02*
X16393872Y-12488583D01*
X16393872Y-12488583D02*
X16403396Y-12498107D01*
X16403396Y-12498107D02*
X16412920Y-12517155D01*
X16412920Y-12517155D02*
X16422444Y-12555250D01*
X16422444Y-12555250D02*
X16422444Y-12602869D01*
X16422444Y-12602869D02*
X16412920Y-12640964D01*
X16412920Y-12640964D02*
X16403396Y-12660012D01*
X16403396Y-12660012D02*
X16393872Y-12669536D01*
X16393872Y-12669536D02*
X16374825Y-12679059D01*
X16374825Y-12679059D02*
X16355777Y-12679059D01*
X16355777Y-12679059D02*
X16336729Y-12669536D01*
X16336729Y-12669536D02*
X16327206Y-12660012D01*
X16327206Y-12660012D02*
X16317682Y-12640964D01*
X16317682Y-12640964D02*
X16308158Y-12602869D01*
X16308158Y-12602869D02*
X16308158Y-12555250D01*
X16308158Y-12555250D02*
X16317682Y-12517155D01*
X16317682Y-12517155D02*
X16327206Y-12498107D01*
X16327206Y-12498107D02*
X16336729Y-12488583D01*
X16336729Y-12488583D02*
X16355777Y-12479059D01*
X16498634Y-12479059D02*
X16498634Y-12517155D01*
X16574825Y-12479059D02*
X16574825Y-12517155D01*
X16870063Y-12755250D02*
X16860539Y-12745726D01*
X16860539Y-12745726D02*
X16841491Y-12717155D01*
X16841491Y-12717155D02*
X16831968Y-12698107D01*
X16831968Y-12698107D02*
X16822444Y-12669536D01*
X16822444Y-12669536D02*
X16812920Y-12621916D01*
X16812920Y-12621916D02*
X16812920Y-12583821D01*
X16812920Y-12583821D02*
X16822444Y-12536202D01*
X16822444Y-12536202D02*
X16831968Y-12507631D01*
X16831968Y-12507631D02*
X16841491Y-12488583D01*
X16841491Y-12488583D02*
X16860539Y-12460012D01*
X16860539Y-12460012D02*
X16870063Y-12450488D01*
X16927206Y-12479059D02*
X17051015Y-12479059D01*
X17051015Y-12479059D02*
X16984349Y-12555250D01*
X16984349Y-12555250D02*
X17012920Y-12555250D01*
X17012920Y-12555250D02*
X17031968Y-12564774D01*
X17031968Y-12564774D02*
X17041491Y-12574297D01*
X17041491Y-12574297D02*
X17051015Y-12593345D01*
X17051015Y-12593345D02*
X17051015Y-12640964D01*
X17051015Y-12640964D02*
X17041491Y-12660012D01*
X17041491Y-12660012D02*
X17031968Y-12669536D01*
X17031968Y-12669536D02*
X17012920Y-12679059D01*
X17012920Y-12679059D02*
X16955777Y-12679059D01*
X16955777Y-12679059D02*
X16936730Y-12669536D01*
X16936730Y-12669536D02*
X16927206Y-12660012D01*
X17289111Y-12679059D02*
X17289111Y-12479059D01*
X17374825Y-12679059D02*
X17374825Y-12574297D01*
X17374825Y-12574297D02*
X17365301Y-12555250D01*
X17365301Y-12555250D02*
X17346253Y-12545726D01*
X17346253Y-12545726D02*
X17317682Y-12545726D01*
X17317682Y-12545726D02*
X17298634Y-12555250D01*
X17298634Y-12555250D02*
X17289111Y-12564774D01*
X17498634Y-12679059D02*
X17479587Y-12669536D01*
X17479587Y-12669536D02*
X17470063Y-12660012D01*
X17470063Y-12660012D02*
X17460539Y-12640964D01*
X17460539Y-12640964D02*
X17460539Y-12583821D01*
X17460539Y-12583821D02*
X17470063Y-12564774D01*
X17470063Y-12564774D02*
X17479587Y-12555250D01*
X17479587Y-12555250D02*
X17498634Y-12545726D01*
X17498634Y-12545726D02*
X17527206Y-12545726D01*
X17527206Y-12545726D02*
X17546253Y-12555250D01*
X17546253Y-12555250D02*
X17555777Y-12564774D01*
X17555777Y-12564774D02*
X17565301Y-12583821D01*
X17565301Y-12583821D02*
X17565301Y-12640964D01*
X17565301Y-12640964D02*
X17555777Y-12660012D01*
X17555777Y-12660012D02*
X17546253Y-12669536D01*
X17546253Y-12669536D02*
X17527206Y-12679059D01*
X17527206Y-12679059D02*
X17498634Y-12679059D01*
X17679587Y-12679059D02*
X17660539Y-12669536D01*
X17660539Y-12669536D02*
X17651015Y-12650488D01*
X17651015Y-12650488D02*
X17651015Y-12479059D01*
X17831968Y-12669536D02*
X17812920Y-12679059D01*
X17812920Y-12679059D02*
X17774825Y-12679059D01*
X17774825Y-12679059D02*
X17755777Y-12669536D01*
X17755777Y-12669536D02*
X17746253Y-12650488D01*
X17746253Y-12650488D02*
X17746253Y-12574297D01*
X17746253Y-12574297D02*
X17755777Y-12555250D01*
X17755777Y-12555250D02*
X17774825Y-12545726D01*
X17774825Y-12545726D02*
X17812920Y-12545726D01*
X17812920Y-12545726D02*
X17831968Y-12555250D01*
X17831968Y-12555250D02*
X17841492Y-12574297D01*
X17841492Y-12574297D02*
X17841492Y-12593345D01*
X17841492Y-12593345D02*
X17746253Y-12612393D01*
X17917682Y-12669536D02*
X17936730Y-12679059D01*
X17936730Y-12679059D02*
X17974825Y-12679059D01*
X17974825Y-12679059D02*
X17993873Y-12669536D01*
X17993873Y-12669536D02*
X18003396Y-12650488D01*
X18003396Y-12650488D02*
X18003396Y-12640964D01*
X18003396Y-12640964D02*
X17993873Y-12621916D01*
X17993873Y-12621916D02*
X17974825Y-12612393D01*
X17974825Y-12612393D02*
X17946253Y-12612393D01*
X17946253Y-12612393D02*
X17927206Y-12602869D01*
X17927206Y-12602869D02*
X17917682Y-12583821D01*
X17917682Y-12583821D02*
X17917682Y-12574297D01*
X17917682Y-12574297D02*
X17927206Y-12555250D01*
X17927206Y-12555250D02*
X17946253Y-12545726D01*
X17946253Y-12545726D02*
X17974825Y-12545726D01*
X17974825Y-12545726D02*
X17993873Y-12555250D01*
X18070063Y-12755250D02*
X18079587Y-12745726D01*
X18079587Y-12745726D02*
X18098634Y-12717155D01*
X18098634Y-12717155D02*
X18108158Y-12698107D01*
X18108158Y-12698107D02*
X18117682Y-12669536D01*
X18117682Y-12669536D02*
X18127206Y-12621916D01*
X18127206Y-12621916D02*
X18127206Y-12583821D01*
X18127206Y-12583821D02*
X18117682Y-12536202D01*
X18117682Y-12536202D02*
X18108158Y-12507631D01*
X18108158Y-12507631D02*
X18098634Y-12488583D01*
X18098634Y-12488583D02*
X18079587Y-12460012D01*
X18079587Y-12460012D02*
X18070063Y-12450488D01*
X18431968Y-12755250D02*
X18422444Y-12745726D01*
X18422444Y-12745726D02*
X18403396Y-12717155D01*
X18403396Y-12717155D02*
X18393873Y-12698107D01*
X18393873Y-12698107D02*
X18384349Y-12669536D01*
X18384349Y-12669536D02*
X18374825Y-12621916D01*
X18374825Y-12621916D02*
X18374825Y-12583821D01*
X18374825Y-12583821D02*
X18384349Y-12536202D01*
X18384349Y-12536202D02*
X18393873Y-12507631D01*
X18393873Y-12507631D02*
X18403396Y-12488583D01*
X18403396Y-12488583D02*
X18422444Y-12460012D01*
X18422444Y-12460012D02*
X18431968Y-12450488D01*
X18508158Y-12545726D02*
X18508158Y-12679059D01*
X18508158Y-12564774D02*
X18517682Y-12555250D01*
X18517682Y-12555250D02*
X18536730Y-12545726D01*
X18536730Y-12545726D02*
X18565301Y-12545726D01*
X18565301Y-12545726D02*
X18584349Y-12555250D01*
X18584349Y-12555250D02*
X18593873Y-12574297D01*
X18593873Y-12574297D02*
X18593873Y-12679059D01*
X18717682Y-12679059D02*
X18698634Y-12669536D01*
X18698634Y-12669536D02*
X18689111Y-12660012D01*
X18689111Y-12660012D02*
X18679587Y-12640964D01*
X18679587Y-12640964D02*
X18679587Y-12583821D01*
X18679587Y-12583821D02*
X18689111Y-12564774D01*
X18689111Y-12564774D02*
X18698634Y-12555250D01*
X18698634Y-12555250D02*
X18717682Y-12545726D01*
X18717682Y-12545726D02*
X18746254Y-12545726D01*
X18746254Y-12545726D02*
X18765301Y-12555250D01*
X18765301Y-12555250D02*
X18774825Y-12564774D01*
X18774825Y-12564774D02*
X18784349Y-12583821D01*
X18784349Y-12583821D02*
X18784349Y-12640964D01*
X18784349Y-12640964D02*
X18774825Y-12660012D01*
X18774825Y-12660012D02*
X18765301Y-12669536D01*
X18765301Y-12669536D02*
X18746254Y-12679059D01*
X18746254Y-12679059D02*
X18717682Y-12679059D01*
X18841492Y-12545726D02*
X18917682Y-12545726D01*
X18870063Y-12479059D02*
X18870063Y-12650488D01*
X18870063Y-12650488D02*
X18879587Y-12669536D01*
X18879587Y-12669536D02*
X18898634Y-12679059D01*
X18898634Y-12679059D02*
X18917682Y-12679059D01*
X19136730Y-12545726D02*
X19136730Y-12745726D01*
X19136730Y-12555250D02*
X19155777Y-12545726D01*
X19155777Y-12545726D02*
X19193873Y-12545726D01*
X19193873Y-12545726D02*
X19212920Y-12555250D01*
X19212920Y-12555250D02*
X19222444Y-12564774D01*
X19222444Y-12564774D02*
X19231968Y-12583821D01*
X19231968Y-12583821D02*
X19231968Y-12640964D01*
X19231968Y-12640964D02*
X19222444Y-12660012D01*
X19222444Y-12660012D02*
X19212920Y-12669536D01*
X19212920Y-12669536D02*
X19193873Y-12679059D01*
X19193873Y-12679059D02*
X19155777Y-12679059D01*
X19155777Y-12679059D02*
X19136730Y-12669536D01*
X19346254Y-12679059D02*
X19327206Y-12669536D01*
X19327206Y-12669536D02*
X19317682Y-12650488D01*
X19317682Y-12650488D02*
X19317682Y-12479059D01*
X19508158Y-12679059D02*
X19508158Y-12574297D01*
X19508158Y-12574297D02*
X19498635Y-12555250D01*
X19498635Y-12555250D02*
X19479587Y-12545726D01*
X19479587Y-12545726D02*
X19441492Y-12545726D01*
X19441492Y-12545726D02*
X19422444Y-12555250D01*
X19508158Y-12669536D02*
X19489111Y-12679059D01*
X19489111Y-12679059D02*
X19441492Y-12679059D01*
X19441492Y-12679059D02*
X19422444Y-12669536D01*
X19422444Y-12669536D02*
X19412920Y-12650488D01*
X19412920Y-12650488D02*
X19412920Y-12631440D01*
X19412920Y-12631440D02*
X19422444Y-12612393D01*
X19422444Y-12612393D02*
X19441492Y-12602869D01*
X19441492Y-12602869D02*
X19489111Y-12602869D01*
X19489111Y-12602869D02*
X19508158Y-12593345D01*
X19574825Y-12545726D02*
X19651015Y-12545726D01*
X19603396Y-12479059D02*
X19603396Y-12650488D01*
X19603396Y-12650488D02*
X19612920Y-12669536D01*
X19612920Y-12669536D02*
X19631968Y-12679059D01*
X19631968Y-12679059D02*
X19651015Y-12679059D01*
X19793873Y-12669536D02*
X19774825Y-12679059D01*
X19774825Y-12679059D02*
X19736730Y-12679059D01*
X19736730Y-12679059D02*
X19717682Y-12669536D01*
X19717682Y-12669536D02*
X19708158Y-12650488D01*
X19708158Y-12650488D02*
X19708158Y-12574297D01*
X19708158Y-12574297D02*
X19717682Y-12555250D01*
X19717682Y-12555250D02*
X19736730Y-12545726D01*
X19736730Y-12545726D02*
X19774825Y-12545726D01*
X19774825Y-12545726D02*
X19793873Y-12555250D01*
X19793873Y-12555250D02*
X19803396Y-12574297D01*
X19803396Y-12574297D02*
X19803396Y-12593345D01*
X19803396Y-12593345D02*
X19708158Y-12612393D01*
X19974825Y-12679059D02*
X19974825Y-12479059D01*
X19974825Y-12669536D02*
X19955777Y-12679059D01*
X19955777Y-12679059D02*
X19917682Y-12679059D01*
X19917682Y-12679059D02*
X19898635Y-12669536D01*
X19898635Y-12669536D02*
X19889111Y-12660012D01*
X19889111Y-12660012D02*
X19879587Y-12640964D01*
X19879587Y-12640964D02*
X19879587Y-12583821D01*
X19879587Y-12583821D02*
X19889111Y-12564774D01*
X19889111Y-12564774D02*
X19898635Y-12555250D01*
X19898635Y-12555250D02*
X19917682Y-12545726D01*
X19917682Y-12545726D02*
X19955777Y-12545726D01*
X19955777Y-12545726D02*
X19974825Y-12555250D01*
X20051016Y-12755250D02*
X20060539Y-12745726D01*
X20060539Y-12745726D02*
X20079587Y-12717155D01*
X20079587Y-12717155D02*
X20089111Y-12698107D01*
X20089111Y-12698107D02*
X20098635Y-12669536D01*
X20098635Y-12669536D02*
X20108158Y-12621916D01*
X20108158Y-12621916D02*
X20108158Y-12583821D01*
X20108158Y-12583821D02*
X20098635Y-12536202D01*
X20098635Y-12536202D02*
X20089111Y-12507631D01*
X20089111Y-12507631D02*
X20079587Y-12488583D01*
X20079587Y-12488583D02*
X20060539Y-12460012D01*
X20060539Y-12460012D02*
X20051016Y-12450488D01*
D12*
X13295000Y-12851576D02*
G75*
G02*
X13180000Y-12851576I-57500J0D01*
G01*
X13180000Y-12851576D02*
G75*
G02*
X13295000Y-12851576I57500J0D01*
G01*
D11*
X13660539Y-12943059D02*
X13546253Y-12943059D01*
X13603396Y-12943059D02*
X13603396Y-12743059D01*
X13603396Y-12743059D02*
X13584348Y-12771631D01*
X13584348Y-12771631D02*
X13565301Y-12790678D01*
X13565301Y-12790678D02*
X13546253Y-12800202D01*
X13746253Y-12924012D02*
X13755777Y-12933536D01*
X13755777Y-12933536D02*
X13746253Y-12943059D01*
X13746253Y-12943059D02*
X13736729Y-12933536D01*
X13736729Y-12933536D02*
X13746253Y-12924012D01*
X13746253Y-12924012D02*
X13746253Y-12943059D01*
X13946253Y-12943059D02*
X13831967Y-12943059D01*
X13889110Y-12943059D02*
X13889110Y-12743059D01*
X13889110Y-12743059D02*
X13870062Y-12771631D01*
X13870062Y-12771631D02*
X13851015Y-12790678D01*
X13851015Y-12790678D02*
X13831967Y-12800202D01*
X14127205Y-12743059D02*
X14031967Y-12743059D01*
X14031967Y-12743059D02*
X14022443Y-12838297D01*
X14022443Y-12838297D02*
X14031967Y-12828774D01*
X14031967Y-12828774D02*
X14051015Y-12819250D01*
X14051015Y-12819250D02*
X14098634Y-12819250D01*
X14098634Y-12819250D02*
X14117682Y-12828774D01*
X14117682Y-12828774D02*
X14127205Y-12838297D01*
X14127205Y-12838297D02*
X14136729Y-12857345D01*
X14136729Y-12857345D02*
X14136729Y-12904964D01*
X14136729Y-12904964D02*
X14127205Y-12924012D01*
X14127205Y-12924012D02*
X14117682Y-12933536D01*
X14117682Y-12933536D02*
X14098634Y-12943059D01*
X14098634Y-12943059D02*
X14051015Y-12943059D01*
X14051015Y-12943059D02*
X14031967Y-12933536D01*
X14031967Y-12933536D02*
X14022443Y-12924012D01*
X14260539Y-12743059D02*
X14279586Y-12743059D01*
X14279586Y-12743059D02*
X14298634Y-12752583D01*
X14298634Y-12752583D02*
X14308158Y-12762107D01*
X14308158Y-12762107D02*
X14317682Y-12781155D01*
X14317682Y-12781155D02*
X14327205Y-12819250D01*
X14327205Y-12819250D02*
X14327205Y-12866869D01*
X14327205Y-12866869D02*
X14317682Y-12904964D01*
X14317682Y-12904964D02*
X14308158Y-12924012D01*
X14308158Y-12924012D02*
X14298634Y-12933536D01*
X14298634Y-12933536D02*
X14279586Y-12943059D01*
X14279586Y-12943059D02*
X14260539Y-12943059D01*
X14260539Y-12943059D02*
X14241491Y-12933536D01*
X14241491Y-12933536D02*
X14231967Y-12924012D01*
X14231967Y-12924012D02*
X14222443Y-12904964D01*
X14222443Y-12904964D02*
X14212920Y-12866869D01*
X14212920Y-12866869D02*
X14212920Y-12819250D01*
X14212920Y-12819250D02*
X14222443Y-12781155D01*
X14222443Y-12781155D02*
X14231967Y-12762107D01*
X14231967Y-12762107D02*
X14241491Y-12752583D01*
X14241491Y-12752583D02*
X14260539Y-12743059D01*
X14412920Y-12943059D02*
X14412920Y-12809726D01*
X14412920Y-12828774D02*
X14422443Y-12819250D01*
X14422443Y-12819250D02*
X14441491Y-12809726D01*
X14441491Y-12809726D02*
X14470063Y-12809726D01*
X14470063Y-12809726D02*
X14489110Y-12819250D01*
X14489110Y-12819250D02*
X14498634Y-12838297D01*
X14498634Y-12838297D02*
X14498634Y-12943059D01*
X14498634Y-12838297D02*
X14508158Y-12819250D01*
X14508158Y-12819250D02*
X14527205Y-12809726D01*
X14527205Y-12809726D02*
X14555777Y-12809726D01*
X14555777Y-12809726D02*
X14574824Y-12819250D01*
X14574824Y-12819250D02*
X14584348Y-12838297D01*
X14584348Y-12838297D02*
X14584348Y-12943059D01*
X14679586Y-12943059D02*
X14679586Y-12809726D01*
X14679586Y-12828774D02*
X14689110Y-12819250D01*
X14689110Y-12819250D02*
X14708158Y-12809726D01*
X14708158Y-12809726D02*
X14736729Y-12809726D01*
X14736729Y-12809726D02*
X14755777Y-12819250D01*
X14755777Y-12819250D02*
X14765301Y-12838297D01*
X14765301Y-12838297D02*
X14765301Y-12943059D01*
X14765301Y-12838297D02*
X14774824Y-12819250D01*
X14774824Y-12819250D02*
X14793872Y-12809726D01*
X14793872Y-12809726D02*
X14822443Y-12809726D01*
X14822443Y-12809726D02*
X14841491Y-12819250D01*
X14841491Y-12819250D02*
X14851015Y-12838297D01*
X14851015Y-12838297D02*
X14851015Y-12943059D01*
X15241491Y-12733536D02*
X15070063Y-12990678D01*
X15498634Y-12743059D02*
X15517682Y-12743059D01*
X15517682Y-12743059D02*
X15536729Y-12752583D01*
X15536729Y-12752583D02*
X15546253Y-12762107D01*
X15546253Y-12762107D02*
X15555777Y-12781155D01*
X15555777Y-12781155D02*
X15565301Y-12819250D01*
X15565301Y-12819250D02*
X15565301Y-12866869D01*
X15565301Y-12866869D02*
X15555777Y-12904964D01*
X15555777Y-12904964D02*
X15546253Y-12924012D01*
X15546253Y-12924012D02*
X15536729Y-12933536D01*
X15536729Y-12933536D02*
X15517682Y-12943059D01*
X15517682Y-12943059D02*
X15498634Y-12943059D01*
X15498634Y-12943059D02*
X15479586Y-12933536D01*
X15479586Y-12933536D02*
X15470063Y-12924012D01*
X15470063Y-12924012D02*
X15460539Y-12904964D01*
X15460539Y-12904964D02*
X15451015Y-12866869D01*
X15451015Y-12866869D02*
X15451015Y-12819250D01*
X15451015Y-12819250D02*
X15460539Y-12781155D01*
X15460539Y-12781155D02*
X15470063Y-12762107D01*
X15470063Y-12762107D02*
X15479586Y-12752583D01*
X15479586Y-12752583D02*
X15498634Y-12743059D01*
X15651015Y-12924012D02*
X15660539Y-12933536D01*
X15660539Y-12933536D02*
X15651015Y-12943059D01*
X15651015Y-12943059D02*
X15641491Y-12933536D01*
X15641491Y-12933536D02*
X15651015Y-12924012D01*
X15651015Y-12924012D02*
X15651015Y-12943059D01*
X15784348Y-12743059D02*
X15803396Y-12743059D01*
X15803396Y-12743059D02*
X15822444Y-12752583D01*
X15822444Y-12752583D02*
X15831967Y-12762107D01*
X15831967Y-12762107D02*
X15841491Y-12781155D01*
X15841491Y-12781155D02*
X15851015Y-12819250D01*
X15851015Y-12819250D02*
X15851015Y-12866869D01*
X15851015Y-12866869D02*
X15841491Y-12904964D01*
X15841491Y-12904964D02*
X15831967Y-12924012D01*
X15831967Y-12924012D02*
X15822444Y-12933536D01*
X15822444Y-12933536D02*
X15803396Y-12943059D01*
X15803396Y-12943059D02*
X15784348Y-12943059D01*
X15784348Y-12943059D02*
X15765301Y-12933536D01*
X15765301Y-12933536D02*
X15755777Y-12924012D01*
X15755777Y-12924012D02*
X15746253Y-12904964D01*
X15746253Y-12904964D02*
X15736729Y-12866869D01*
X15736729Y-12866869D02*
X15736729Y-12819250D01*
X15736729Y-12819250D02*
X15746253Y-12781155D01*
X15746253Y-12781155D02*
X15755777Y-12762107D01*
X15755777Y-12762107D02*
X15765301Y-12752583D01*
X15765301Y-12752583D02*
X15784348Y-12743059D01*
X16022444Y-12809726D02*
X16022444Y-12943059D01*
X15974825Y-12733536D02*
X15927206Y-12876393D01*
X15927206Y-12876393D02*
X16051015Y-12876393D01*
X16222444Y-12743059D02*
X16127206Y-12743059D01*
X16127206Y-12743059D02*
X16117682Y-12838297D01*
X16117682Y-12838297D02*
X16127206Y-12828774D01*
X16127206Y-12828774D02*
X16146253Y-12819250D01*
X16146253Y-12819250D02*
X16193872Y-12819250D01*
X16193872Y-12819250D02*
X16212920Y-12828774D01*
X16212920Y-12828774D02*
X16222444Y-12838297D01*
X16222444Y-12838297D02*
X16231967Y-12857345D01*
X16231967Y-12857345D02*
X16231967Y-12904964D01*
X16231967Y-12904964D02*
X16222444Y-12924012D01*
X16222444Y-12924012D02*
X16212920Y-12933536D01*
X16212920Y-12933536D02*
X16193872Y-12943059D01*
X16193872Y-12943059D02*
X16146253Y-12943059D01*
X16146253Y-12943059D02*
X16127206Y-12933536D01*
X16127206Y-12933536D02*
X16117682Y-12924012D01*
X16298634Y-12743059D02*
X16422444Y-12743059D01*
X16422444Y-12743059D02*
X16355777Y-12819250D01*
X16355777Y-12819250D02*
X16384348Y-12819250D01*
X16384348Y-12819250D02*
X16403396Y-12828774D01*
X16403396Y-12828774D02*
X16412920Y-12838297D01*
X16412920Y-12838297D02*
X16422444Y-12857345D01*
X16422444Y-12857345D02*
X16422444Y-12904964D01*
X16422444Y-12904964D02*
X16412920Y-12924012D01*
X16412920Y-12924012D02*
X16403396Y-12933536D01*
X16403396Y-12933536D02*
X16384348Y-12943059D01*
X16384348Y-12943059D02*
X16327206Y-12943059D01*
X16327206Y-12943059D02*
X16308158Y-12933536D01*
X16308158Y-12933536D02*
X16298634Y-12924012D01*
X16498634Y-12743059D02*
X16498634Y-12781155D01*
X16574825Y-12743059D02*
X16574825Y-12781155D01*
X16870063Y-13019250D02*
X16860539Y-13009726D01*
X16860539Y-13009726D02*
X16841491Y-12981155D01*
X16841491Y-12981155D02*
X16831968Y-12962107D01*
X16831968Y-12962107D02*
X16822444Y-12933536D01*
X16822444Y-12933536D02*
X16812920Y-12885916D01*
X16812920Y-12885916D02*
X16812920Y-12847821D01*
X16812920Y-12847821D02*
X16822444Y-12800202D01*
X16822444Y-12800202D02*
X16831968Y-12771631D01*
X16831968Y-12771631D02*
X16841491Y-12752583D01*
X16841491Y-12752583D02*
X16860539Y-12724012D01*
X16860539Y-12724012D02*
X16870063Y-12714488D01*
X16936730Y-12762107D02*
X16946253Y-12752583D01*
X16946253Y-12752583D02*
X16965301Y-12743059D01*
X16965301Y-12743059D02*
X17012920Y-12743059D01*
X17012920Y-12743059D02*
X17031968Y-12752583D01*
X17031968Y-12752583D02*
X17041491Y-12762107D01*
X17041491Y-12762107D02*
X17051015Y-12781155D01*
X17051015Y-12781155D02*
X17051015Y-12800202D01*
X17051015Y-12800202D02*
X17041491Y-12828774D01*
X17041491Y-12828774D02*
X16927206Y-12943059D01*
X16927206Y-12943059D02*
X17051015Y-12943059D01*
X17289111Y-12943059D02*
X17289111Y-12743059D01*
X17374825Y-12943059D02*
X17374825Y-12838297D01*
X17374825Y-12838297D02*
X17365301Y-12819250D01*
X17365301Y-12819250D02*
X17346253Y-12809726D01*
X17346253Y-12809726D02*
X17317682Y-12809726D01*
X17317682Y-12809726D02*
X17298634Y-12819250D01*
X17298634Y-12819250D02*
X17289111Y-12828774D01*
X17498634Y-12943059D02*
X17479587Y-12933536D01*
X17479587Y-12933536D02*
X17470063Y-12924012D01*
X17470063Y-12924012D02*
X17460539Y-12904964D01*
X17460539Y-12904964D02*
X17460539Y-12847821D01*
X17460539Y-12847821D02*
X17470063Y-12828774D01*
X17470063Y-12828774D02*
X17479587Y-12819250D01*
X17479587Y-12819250D02*
X17498634Y-12809726D01*
X17498634Y-12809726D02*
X17527206Y-12809726D01*
X17527206Y-12809726D02*
X17546253Y-12819250D01*
X17546253Y-12819250D02*
X17555777Y-12828774D01*
X17555777Y-12828774D02*
X17565301Y-12847821D01*
X17565301Y-12847821D02*
X17565301Y-12904964D01*
X17565301Y-12904964D02*
X17555777Y-12924012D01*
X17555777Y-12924012D02*
X17546253Y-12933536D01*
X17546253Y-12933536D02*
X17527206Y-12943059D01*
X17527206Y-12943059D02*
X17498634Y-12943059D01*
X17679587Y-12943059D02*
X17660539Y-12933536D01*
X17660539Y-12933536D02*
X17651015Y-12914488D01*
X17651015Y-12914488D02*
X17651015Y-12743059D01*
X17831968Y-12933536D02*
X17812920Y-12943059D01*
X17812920Y-12943059D02*
X17774825Y-12943059D01*
X17774825Y-12943059D02*
X17755777Y-12933536D01*
X17755777Y-12933536D02*
X17746253Y-12914488D01*
X17746253Y-12914488D02*
X17746253Y-12838297D01*
X17746253Y-12838297D02*
X17755777Y-12819250D01*
X17755777Y-12819250D02*
X17774825Y-12809726D01*
X17774825Y-12809726D02*
X17812920Y-12809726D01*
X17812920Y-12809726D02*
X17831968Y-12819250D01*
X17831968Y-12819250D02*
X17841492Y-12838297D01*
X17841492Y-12838297D02*
X17841492Y-12857345D01*
X17841492Y-12857345D02*
X17746253Y-12876393D01*
X17917682Y-12933536D02*
X17936730Y-12943059D01*
X17936730Y-12943059D02*
X17974825Y-12943059D01*
X17974825Y-12943059D02*
X17993873Y-12933536D01*
X17993873Y-12933536D02*
X18003396Y-12914488D01*
X18003396Y-12914488D02*
X18003396Y-12904964D01*
X18003396Y-12904964D02*
X17993873Y-12885916D01*
X17993873Y-12885916D02*
X17974825Y-12876393D01*
X17974825Y-12876393D02*
X17946253Y-12876393D01*
X17946253Y-12876393D02*
X17927206Y-12866869D01*
X17927206Y-12866869D02*
X17917682Y-12847821D01*
X17917682Y-12847821D02*
X17917682Y-12838297D01*
X17917682Y-12838297D02*
X17927206Y-12819250D01*
X17927206Y-12819250D02*
X17946253Y-12809726D01*
X17946253Y-12809726D02*
X17974825Y-12809726D01*
X17974825Y-12809726D02*
X17993873Y-12819250D01*
X18070063Y-13019250D02*
X18079587Y-13009726D01*
X18079587Y-13009726D02*
X18098634Y-12981155D01*
X18098634Y-12981155D02*
X18108158Y-12962107D01*
X18108158Y-12962107D02*
X18117682Y-12933536D01*
X18117682Y-12933536D02*
X18127206Y-12885916D01*
X18127206Y-12885916D02*
X18127206Y-12847821D01*
X18127206Y-12847821D02*
X18117682Y-12800202D01*
X18117682Y-12800202D02*
X18108158Y-12771631D01*
X18108158Y-12771631D02*
X18098634Y-12752583D01*
X18098634Y-12752583D02*
X18079587Y-12724012D01*
X18079587Y-12724012D02*
X18070063Y-12714488D01*
X18431968Y-13019250D02*
X18422444Y-13009726D01*
X18422444Y-13009726D02*
X18403396Y-12981155D01*
X18403396Y-12981155D02*
X18393873Y-12962107D01*
X18393873Y-12962107D02*
X18384349Y-12933536D01*
X18384349Y-12933536D02*
X18374825Y-12885916D01*
X18374825Y-12885916D02*
X18374825Y-12847821D01*
X18374825Y-12847821D02*
X18384349Y-12800202D01*
X18384349Y-12800202D02*
X18393873Y-12771631D01*
X18393873Y-12771631D02*
X18403396Y-12752583D01*
X18403396Y-12752583D02*
X18422444Y-12724012D01*
X18422444Y-12724012D02*
X18431968Y-12714488D01*
X18508158Y-12809726D02*
X18508158Y-12943059D01*
X18508158Y-12828774D02*
X18517682Y-12819250D01*
X18517682Y-12819250D02*
X18536730Y-12809726D01*
X18536730Y-12809726D02*
X18565301Y-12809726D01*
X18565301Y-12809726D02*
X18584349Y-12819250D01*
X18584349Y-12819250D02*
X18593873Y-12838297D01*
X18593873Y-12838297D02*
X18593873Y-12943059D01*
X18717682Y-12943059D02*
X18698634Y-12933536D01*
X18698634Y-12933536D02*
X18689111Y-12924012D01*
X18689111Y-12924012D02*
X18679587Y-12904964D01*
X18679587Y-12904964D02*
X18679587Y-12847821D01*
X18679587Y-12847821D02*
X18689111Y-12828774D01*
X18689111Y-12828774D02*
X18698634Y-12819250D01*
X18698634Y-12819250D02*
X18717682Y-12809726D01*
X18717682Y-12809726D02*
X18746254Y-12809726D01*
X18746254Y-12809726D02*
X18765301Y-12819250D01*
X18765301Y-12819250D02*
X18774825Y-12828774D01*
X18774825Y-12828774D02*
X18784349Y-12847821D01*
X18784349Y-12847821D02*
X18784349Y-12904964D01*
X18784349Y-12904964D02*
X18774825Y-12924012D01*
X18774825Y-12924012D02*
X18765301Y-12933536D01*
X18765301Y-12933536D02*
X18746254Y-12943059D01*
X18746254Y-12943059D02*
X18717682Y-12943059D01*
X18841492Y-12809726D02*
X18917682Y-12809726D01*
X18870063Y-12743059D02*
X18870063Y-12914488D01*
X18870063Y-12914488D02*
X18879587Y-12933536D01*
X18879587Y-12933536D02*
X18898634Y-12943059D01*
X18898634Y-12943059D02*
X18917682Y-12943059D01*
X19136730Y-12809726D02*
X19136730Y-13009726D01*
X19136730Y-12819250D02*
X19155777Y-12809726D01*
X19155777Y-12809726D02*
X19193873Y-12809726D01*
X19193873Y-12809726D02*
X19212920Y-12819250D01*
X19212920Y-12819250D02*
X19222444Y-12828774D01*
X19222444Y-12828774D02*
X19231968Y-12847821D01*
X19231968Y-12847821D02*
X19231968Y-12904964D01*
X19231968Y-12904964D02*
X19222444Y-12924012D01*
X19222444Y-12924012D02*
X19212920Y-12933536D01*
X19212920Y-12933536D02*
X19193873Y-12943059D01*
X19193873Y-12943059D02*
X19155777Y-12943059D01*
X19155777Y-12943059D02*
X19136730Y-12933536D01*
X19346254Y-12943059D02*
X19327206Y-12933536D01*
X19327206Y-12933536D02*
X19317682Y-12914488D01*
X19317682Y-12914488D02*
X19317682Y-12743059D01*
X19508158Y-12943059D02*
X19508158Y-12838297D01*
X19508158Y-12838297D02*
X19498635Y-12819250D01*
X19498635Y-12819250D02*
X19479587Y-12809726D01*
X19479587Y-12809726D02*
X19441492Y-12809726D01*
X19441492Y-12809726D02*
X19422444Y-12819250D01*
X19508158Y-12933536D02*
X19489111Y-12943059D01*
X19489111Y-12943059D02*
X19441492Y-12943059D01*
X19441492Y-12943059D02*
X19422444Y-12933536D01*
X19422444Y-12933536D02*
X19412920Y-12914488D01*
X19412920Y-12914488D02*
X19412920Y-12895440D01*
X19412920Y-12895440D02*
X19422444Y-12876393D01*
X19422444Y-12876393D02*
X19441492Y-12866869D01*
X19441492Y-12866869D02*
X19489111Y-12866869D01*
X19489111Y-12866869D02*
X19508158Y-12857345D01*
X19574825Y-12809726D02*
X19651015Y-12809726D01*
X19603396Y-12743059D02*
X19603396Y-12914488D01*
X19603396Y-12914488D02*
X19612920Y-12933536D01*
X19612920Y-12933536D02*
X19631968Y-12943059D01*
X19631968Y-12943059D02*
X19651015Y-12943059D01*
X19793873Y-12933536D02*
X19774825Y-12943059D01*
X19774825Y-12943059D02*
X19736730Y-12943059D01*
X19736730Y-12943059D02*
X19717682Y-12933536D01*
X19717682Y-12933536D02*
X19708158Y-12914488D01*
X19708158Y-12914488D02*
X19708158Y-12838297D01*
X19708158Y-12838297D02*
X19717682Y-12819250D01*
X19717682Y-12819250D02*
X19736730Y-12809726D01*
X19736730Y-12809726D02*
X19774825Y-12809726D01*
X19774825Y-12809726D02*
X19793873Y-12819250D01*
X19793873Y-12819250D02*
X19803396Y-12838297D01*
X19803396Y-12838297D02*
X19803396Y-12857345D01*
X19803396Y-12857345D02*
X19708158Y-12876393D01*
X19974825Y-12943059D02*
X19974825Y-12743059D01*
X19974825Y-12933536D02*
X19955777Y-12943059D01*
X19955777Y-12943059D02*
X19917682Y-12943059D01*
X19917682Y-12943059D02*
X19898635Y-12933536D01*
X19898635Y-12933536D02*
X19889111Y-12924012D01*
X19889111Y-12924012D02*
X19879587Y-12904964D01*
X19879587Y-12904964D02*
X19879587Y-12847821D01*
X19879587Y-12847821D02*
X19889111Y-12828774D01*
X19889111Y-12828774D02*
X19898635Y-12819250D01*
X19898635Y-12819250D02*
X19917682Y-12809726D01*
X19917682Y-12809726D02*
X19955777Y-12809726D01*
X19955777Y-12809726D02*
X19974825Y-12819250D01*
X20051016Y-13019250D02*
X20060539Y-13009726D01*
X20060539Y-13009726D02*
X20079587Y-12981155D01*
X20079587Y-12981155D02*
X20089111Y-12962107D01*
X20089111Y-12962107D02*
X20098635Y-12933536D01*
X20098635Y-12933536D02*
X20108158Y-12885916D01*
X20108158Y-12885916D02*
X20108158Y-12847821D01*
X20108158Y-12847821D02*
X20098635Y-12800202D01*
X20098635Y-12800202D02*
X20089111Y-12771631D01*
X20089111Y-12771631D02*
X20079587Y-12752583D01*
X20079587Y-12752583D02*
X20060539Y-12724012D01*
X20060539Y-12724012D02*
X20051016Y-12714488D01*
M02*
