%TF.GenerationSoftware,KiCad,Pcbnew,9.0.7-1.fc43*%
%TF.CreationDate,2026-01-31T17:59:18-08:00*%
%TF.ProjectId,watch,77617463-682e-46b6-9963-61645f706362,rev?*%
%TF.SameCoordinates,Original*%
%TF.FileFunction,Drillmap*%
%TF.FilePolarity,Positive*%
%FSLAX45Y45*%
G04 Gerber Fmt 4.5, Leading zero omitted, Abs format (unit mm)*
G04 Created by KiCad (PCBNEW 9.0.7-1.fc43) date 2026-01-31 17:59:18*
%MOMM*%
%LPD*%
G01*
G04 APERTURE LIST*
%ADD10C,0.100000*%
%ADD11C,0.200000*%
G04 APERTURE END LIST*
D10*
X13300000Y-10500000D02*
X13300000Y-10940000D01*
X13300000Y-9060000D02*
G75*
G02*
X13300000Y-10940000I1700000J-940000D01*
G01*
X13300000Y-9500000D02*
X13300000Y-9060000D01*
X13300000Y-9500000D02*
X13300000Y-10500000D01*
D11*
D10*
X13685000Y-9455000D02*
X13715000Y-9485000D01*
X13715000Y-9455000D02*
X13685000Y-9485000D01*
X13725000Y-10735000D02*
X13755000Y-10765000D01*
X13755000Y-10735000D02*
X13725000Y-10765000D01*
X13725000Y-10865000D02*
X13755000Y-10895000D01*
X13755000Y-10865000D02*
X13725000Y-10895000D01*
X13725000Y-10995000D02*
X13755000Y-11025000D01*
X13755000Y-10995000D02*
X13725000Y-11025000D01*
X13825000Y-9015000D02*
X13855000Y-9045000D01*
X13855000Y-9015000D02*
X13825000Y-9045000D01*
X13865000Y-9065000D02*
X13895000Y-9095000D01*
X13895000Y-9065000D02*
X13865000Y-9095000D01*
X13885000Y-10115000D02*
X13915000Y-10145000D01*
X13915000Y-10115000D02*
X13885000Y-10145000D01*
X13925000Y-9919840D02*
X13955000Y-9949840D01*
X13955000Y-9919840D02*
X13925000Y-9949840D01*
X13925000Y-9985160D02*
X13955000Y-10015160D01*
X13955000Y-9985160D02*
X13925000Y-10015160D01*
X14035000Y-9325000D02*
X14065000Y-9355000D01*
X14065000Y-9325000D02*
X14035000Y-9355000D01*
X14110000Y-8985000D02*
X14140000Y-9015000D01*
X14140000Y-8985000D02*
X14110000Y-9015000D01*
X14110000Y-9085000D02*
X14140000Y-9115000D01*
X14140000Y-9085000D02*
X14110000Y-9115000D01*
X14135000Y-8685000D02*
X14165000Y-8715000D01*
X14165000Y-8685000D02*
X14135000Y-8715000D01*
X14165000Y-10980000D02*
X14195000Y-11010000D01*
X14195000Y-10980000D02*
X14165000Y-11010000D01*
X14185000Y-8745000D02*
X14215000Y-8775000D01*
X14215000Y-8745000D02*
X14185000Y-8775000D01*
X14205000Y-9655000D02*
X14235000Y-9685000D01*
X14235000Y-9655000D02*
X14205000Y-9685000D01*
X14210000Y-8985000D02*
X14240000Y-9015000D01*
X14240000Y-8985000D02*
X14210000Y-9015000D01*
X14210000Y-9085000D02*
X14240000Y-9115000D01*
X14240000Y-9085000D02*
X14210000Y-9115000D01*
X14225000Y-10695000D02*
X14255000Y-10725000D01*
X14255000Y-10695000D02*
X14225000Y-10725000D01*
X14235000Y-8685000D02*
X14265000Y-8715000D01*
X14265000Y-8685000D02*
X14235000Y-8715000D01*
X14285000Y-8745000D02*
X14315000Y-8775000D01*
X14315000Y-8745000D02*
X14285000Y-8775000D01*
X14335000Y-10475000D02*
X14365000Y-10505000D01*
X14365000Y-10475000D02*
X14335000Y-10505000D01*
X14345000Y-11315000D02*
X14375000Y-11345000D01*
X14375000Y-11315000D02*
X14345000Y-11345000D01*
X14370000Y-10770000D02*
X14400000Y-10800000D01*
X14400000Y-10770000D02*
X14370000Y-10800000D01*
X14403674Y-10495000D02*
X14433674Y-10525000D01*
X14433674Y-10495000D02*
X14403674Y-10525000D01*
X14425000Y-9315000D02*
X14455000Y-9345000D01*
X14455000Y-9315000D02*
X14425000Y-9345000D01*
X14455000Y-8965000D02*
X14485000Y-8995000D01*
X14485000Y-8965000D02*
X14455000Y-8995000D01*
X14455000Y-9065000D02*
X14485000Y-9095000D01*
X14485000Y-9065000D02*
X14455000Y-9095000D01*
X14465000Y-11315000D02*
X14495000Y-11345000D01*
X14495000Y-11315000D02*
X14465000Y-11345000D01*
X14485000Y-8885000D02*
X14515000Y-8915000D01*
X14515000Y-8885000D02*
X14485000Y-8915000D01*
X14485000Y-9115000D02*
X14515000Y-9145000D01*
X14515000Y-9115000D02*
X14485000Y-9145000D01*
X14500000Y-10830000D02*
X14530000Y-10860000D01*
X14530000Y-10830000D02*
X14500000Y-10860000D01*
X14500000Y-10930000D02*
X14530000Y-10960000D01*
X14530000Y-10930000D02*
X14500000Y-10960000D01*
X14500000Y-11030000D02*
X14530000Y-11060000D01*
X14530000Y-11030000D02*
X14500000Y-11060000D01*
X14540000Y-10780000D02*
X14570000Y-10810000D01*
X14570000Y-10780000D02*
X14540000Y-10810000D01*
X14545000Y-10880000D02*
X14575000Y-10910000D01*
X14575000Y-10880000D02*
X14545000Y-10910000D01*
X14545000Y-10980000D02*
X14575000Y-11010000D01*
X14575000Y-10980000D02*
X14545000Y-11010000D01*
X14605000Y-10145000D02*
X14635000Y-10175000D01*
X14635000Y-10145000D02*
X14605000Y-10175000D01*
X14625000Y-8785000D02*
X14655000Y-8815000D01*
X14655000Y-8785000D02*
X14625000Y-8815000D01*
X14625000Y-9355000D02*
X14655000Y-9385000D01*
X14655000Y-9355000D02*
X14625000Y-9385000D01*
X14655000Y-10255000D02*
X14685000Y-10285000D01*
X14685000Y-10255000D02*
X14655000Y-10285000D01*
X14655000Y-11715000D02*
X14685000Y-11745000D01*
X14685000Y-11715000D02*
X14655000Y-11745000D01*
X14685000Y-9845000D02*
X14715000Y-9875000D01*
X14715000Y-9845000D02*
X14685000Y-9875000D01*
X14875000Y-8325000D02*
X14905000Y-8355000D01*
X14905000Y-8325000D02*
X14875000Y-8355000D01*
X14925000Y-10745000D02*
X14955000Y-10775000D01*
X14955000Y-10745000D02*
X14925000Y-10775000D01*
X14925000Y-10865000D02*
X14955000Y-10895000D01*
X14955000Y-10865000D02*
X14925000Y-10895000D01*
X14975000Y-11575000D02*
X15005000Y-11605000D01*
X15005000Y-11575000D02*
X14975000Y-11605000D01*
X15005000Y-9255000D02*
X15035000Y-9285000D01*
X15035000Y-9255000D02*
X15005000Y-9285000D01*
X15010000Y-11260000D02*
X15040000Y-11290000D01*
X15040000Y-11260000D02*
X15010000Y-11290000D01*
X15045000Y-10745000D02*
X15075000Y-10775000D01*
X15075000Y-10745000D02*
X15045000Y-10775000D01*
X15045000Y-10865000D02*
X15075000Y-10895000D01*
X15075000Y-10865000D02*
X15045000Y-10895000D01*
X15105000Y-9365000D02*
X15135000Y-9395000D01*
X15135000Y-9365000D02*
X15105000Y-9395000D01*
X15125000Y-8585000D02*
X15155000Y-8615000D01*
X15155000Y-8585000D02*
X15125000Y-8615000D01*
X15210000Y-9160000D02*
X15240000Y-9190000D01*
X15240000Y-9160000D02*
X15210000Y-9190000D01*
X15210000Y-11265000D02*
X15240000Y-11295000D01*
X15240000Y-11265000D02*
X15210000Y-11295000D01*
X15220000Y-11580250D02*
X15250000Y-11610250D01*
X15250000Y-11580250D02*
X15220000Y-11610250D01*
X15235000Y-9045000D02*
X15265000Y-9075000D01*
X15265000Y-9045000D02*
X15235000Y-9075000D01*
X15285000Y-9865000D02*
X15315000Y-9895000D01*
X15315000Y-9865000D02*
X15285000Y-9895000D01*
X15295000Y-8555000D02*
X15325000Y-8585000D01*
X15325000Y-8555000D02*
X15295000Y-8585000D01*
X15295000Y-11265000D02*
X15325000Y-11295000D01*
X15325000Y-11265000D02*
X15295000Y-11295000D01*
X15305000Y-8475000D02*
X15335000Y-8505000D01*
X15335000Y-8475000D02*
X15305000Y-8505000D01*
X15305000Y-10345000D02*
X15335000Y-10375000D01*
X15335000Y-10345000D02*
X15305000Y-10375000D01*
X15335000Y-9805000D02*
X15365000Y-9835000D01*
X15365000Y-9805000D02*
X15335000Y-9835000D01*
X15335000Y-9925000D02*
X15365000Y-9955000D01*
X15365000Y-9925000D02*
X15335000Y-9955000D01*
X15360000Y-8785000D02*
X15390000Y-8815000D01*
X15390000Y-8785000D02*
X15360000Y-8815000D01*
X15360000Y-9420000D02*
X15390000Y-9450000D01*
X15390000Y-9420000D02*
X15360000Y-9450000D01*
X15425000Y-9005000D02*
X15455000Y-9035000D01*
X15455000Y-9005000D02*
X15425000Y-9035000D01*
X15445000Y-10405000D02*
X15475000Y-10435000D01*
X15475000Y-10405000D02*
X15445000Y-10435000D01*
X15445000Y-11345000D02*
X15475000Y-11375000D01*
X15475000Y-11345000D02*
X15445000Y-11375000D01*
X15455000Y-11095000D02*
X15485000Y-11125000D01*
X15485000Y-11095000D02*
X15455000Y-11125000D01*
X15495000Y-10235000D02*
X15525000Y-10265000D01*
X15525000Y-10235000D02*
X15495000Y-10265000D01*
X15505000Y-10095000D02*
X15535000Y-10125000D01*
X15535000Y-10095000D02*
X15505000Y-10125000D01*
X15515000Y-9015000D02*
X15545000Y-9045000D01*
X15545000Y-9015000D02*
X15515000Y-9045000D01*
X15645000Y-8935000D02*
X15675000Y-8965000D01*
X15675000Y-8935000D02*
X15645000Y-8965000D01*
X15735000Y-9885000D02*
X15765000Y-9915000D01*
X15765000Y-9885000D02*
X15735000Y-9915000D01*
X15735000Y-10225000D02*
X15765000Y-10255000D01*
X15765000Y-10225000D02*
X15735000Y-10255000D01*
X15755000Y-9265000D02*
X15785000Y-9295000D01*
X15785000Y-9265000D02*
X15755000Y-9295000D01*
X15785000Y-10475000D02*
X15815000Y-10505000D01*
X15815000Y-10475000D02*
X15785000Y-10505000D01*
X15785000Y-10595000D02*
X15815000Y-10625000D01*
X15815000Y-10595000D02*
X15785000Y-10625000D01*
X15785000Y-10745000D02*
X15815000Y-10775000D01*
X15815000Y-10745000D02*
X15785000Y-10775000D01*
X15785000Y-10865000D02*
X15815000Y-10895000D01*
X15815000Y-10865000D02*
X15785000Y-10895000D01*
X15805000Y-9885000D02*
X15835000Y-9915000D01*
X15835000Y-9885000D02*
X15805000Y-9915000D01*
X15985000Y-9135000D02*
X16015000Y-9165000D01*
X16015000Y-9135000D02*
X15985000Y-9165000D01*
X16265000Y-9315000D02*
X16295000Y-9345000D01*
X16295000Y-9315000D02*
X16265000Y-9345000D01*
X16315000Y-10835000D02*
X16345000Y-10865000D01*
X16345000Y-10835000D02*
X16315000Y-10865000D01*
X16385250Y-9545000D02*
X16415250Y-9575000D01*
X16415250Y-9545000D02*
X16385250Y-9575000D01*
X16465000Y-10275000D02*
X16495000Y-10305000D01*
X16495000Y-10275000D02*
X16465000Y-10305000D01*
X16575000Y-10685000D02*
X16605000Y-10715000D01*
X16605000Y-10685000D02*
X16575000Y-10715000D01*
X16625000Y-9835000D02*
X16655000Y-9865000D01*
X16655000Y-9835000D02*
X16625000Y-9865000D01*
X16711803Y-9360466D02*
G75*
G02*
X16651803Y-9360466I-30000J0D01*
G01*
X16651803Y-9360466D02*
G75*
G02*
X16711803Y-9360466I30000J0D01*
G01*
X16711803Y-10639534D02*
G75*
G02*
X16651803Y-10639534I-30000J0D01*
G01*
X16651803Y-10639534D02*
G75*
G02*
X16711803Y-10639534I30000J0D01*
G01*
X16806272Y-9713029D02*
G75*
G02*
X16746271Y-9713029I-30000J0D01*
G01*
X16746271Y-9713029D02*
G75*
G02*
X16806272Y-9713029I30000J0D01*
G01*
X16806272Y-10286971D02*
G75*
G02*
X16746271Y-10286971I-30000J0D01*
G01*
X16746271Y-10286971D02*
G75*
G02*
X16806272Y-10286971I30000J0D01*
G01*
X13720000Y-9712500D02*
X13720000Y-9777500D01*
X13687500Y-9745000D02*
X13752500Y-9745000D01*
X13687500Y-9720000D02*
X13687500Y-9770000D01*
X13752500Y-9770000D02*
G75*
G02*
X13687500Y-9770000I-32500J0D01*
G01*
X13752500Y-9770000D02*
X13752500Y-9720000D01*
X13752500Y-9720000D02*
G75*
G03*
X13687500Y-9720000I-32500J0D01*
G01*
X13720000Y-10222500D02*
X13720000Y-10287500D01*
X13687500Y-10255000D02*
X13752500Y-10255000D01*
X13687500Y-10230000D02*
X13687500Y-10280000D01*
X13752500Y-10280000D02*
G75*
G02*
X13687500Y-10280000I-32500J0D01*
G01*
X13752500Y-10280000D02*
X13752500Y-10230000D01*
X13752500Y-10230000D02*
G75*
G03*
X13687500Y-10230000I-32500J0D01*
G01*
X14313000Y-8490750D02*
X14313000Y-8555750D01*
X14280500Y-8523250D02*
X14345500Y-8523250D01*
X14440000Y-8490750D02*
X14440000Y-8555750D01*
X14407500Y-8523250D02*
X14472500Y-8523250D01*
D11*
X13555777Y-12259059D02*
X13555777Y-12059059D01*
X13555777Y-12059059D02*
X13603396Y-12059059D01*
X13603396Y-12059059D02*
X13631967Y-12068583D01*
X13631967Y-12068583D02*
X13651015Y-12087631D01*
X13651015Y-12087631D02*
X13660539Y-12106678D01*
X13660539Y-12106678D02*
X13670062Y-12144774D01*
X13670062Y-12144774D02*
X13670062Y-12173345D01*
X13670062Y-12173345D02*
X13660539Y-12211440D01*
X13660539Y-12211440D02*
X13651015Y-12230488D01*
X13651015Y-12230488D02*
X13631967Y-12249536D01*
X13631967Y-12249536D02*
X13603396Y-12259059D01*
X13603396Y-12259059D02*
X13555777Y-12259059D01*
X13755777Y-12259059D02*
X13755777Y-12125726D01*
X13755777Y-12163821D02*
X13765301Y-12144774D01*
X13765301Y-12144774D02*
X13774824Y-12135250D01*
X13774824Y-12135250D02*
X13793872Y-12125726D01*
X13793872Y-12125726D02*
X13812920Y-12125726D01*
X13879586Y-12259059D02*
X13879586Y-12125726D01*
X13879586Y-12059059D02*
X13870062Y-12068583D01*
X13870062Y-12068583D02*
X13879586Y-12078107D01*
X13879586Y-12078107D02*
X13889110Y-12068583D01*
X13889110Y-12068583D02*
X13879586Y-12059059D01*
X13879586Y-12059059D02*
X13879586Y-12078107D01*
X14003396Y-12259059D02*
X13984348Y-12249536D01*
X13984348Y-12249536D02*
X13974824Y-12230488D01*
X13974824Y-12230488D02*
X13974824Y-12059059D01*
X14108158Y-12259059D02*
X14089110Y-12249536D01*
X14089110Y-12249536D02*
X14079586Y-12230488D01*
X14079586Y-12230488D02*
X14079586Y-12059059D01*
X14336729Y-12259059D02*
X14336729Y-12059059D01*
X14336729Y-12059059D02*
X14403396Y-12201916D01*
X14403396Y-12201916D02*
X14470062Y-12059059D01*
X14470062Y-12059059D02*
X14470062Y-12259059D01*
X14651015Y-12259059D02*
X14651015Y-12154297D01*
X14651015Y-12154297D02*
X14641491Y-12135250D01*
X14641491Y-12135250D02*
X14622443Y-12125726D01*
X14622443Y-12125726D02*
X14584348Y-12125726D01*
X14584348Y-12125726D02*
X14565301Y-12135250D01*
X14651015Y-12249536D02*
X14631967Y-12259059D01*
X14631967Y-12259059D02*
X14584348Y-12259059D01*
X14584348Y-12259059D02*
X14565301Y-12249536D01*
X14565301Y-12249536D02*
X14555777Y-12230488D01*
X14555777Y-12230488D02*
X14555777Y-12211440D01*
X14555777Y-12211440D02*
X14565301Y-12192393D01*
X14565301Y-12192393D02*
X14584348Y-12182869D01*
X14584348Y-12182869D02*
X14631967Y-12182869D01*
X14631967Y-12182869D02*
X14651015Y-12173345D01*
X14746253Y-12125726D02*
X14746253Y-12325726D01*
X14746253Y-12135250D02*
X14765301Y-12125726D01*
X14765301Y-12125726D02*
X14803396Y-12125726D01*
X14803396Y-12125726D02*
X14822443Y-12135250D01*
X14822443Y-12135250D02*
X14831967Y-12144774D01*
X14831967Y-12144774D02*
X14841491Y-12163821D01*
X14841491Y-12163821D02*
X14841491Y-12220964D01*
X14841491Y-12220964D02*
X14831967Y-12240012D01*
X14831967Y-12240012D02*
X14822443Y-12249536D01*
X14822443Y-12249536D02*
X14803396Y-12259059D01*
X14803396Y-12259059D02*
X14765301Y-12259059D01*
X14765301Y-12259059D02*
X14746253Y-12249536D01*
X14927205Y-12240012D02*
X14936729Y-12249536D01*
X14936729Y-12249536D02*
X14927205Y-12259059D01*
X14927205Y-12259059D02*
X14917682Y-12249536D01*
X14917682Y-12249536D02*
X14927205Y-12240012D01*
X14927205Y-12240012D02*
X14927205Y-12259059D01*
X14927205Y-12135250D02*
X14936729Y-12144774D01*
X14936729Y-12144774D02*
X14927205Y-12154297D01*
X14927205Y-12154297D02*
X14917682Y-12144774D01*
X14917682Y-12144774D02*
X14927205Y-12135250D01*
X14927205Y-12135250D02*
X14927205Y-12154297D01*
D10*
X13265000Y-12572576D02*
X13295000Y-12602576D01*
X13295000Y-12572576D02*
X13265000Y-12602576D01*
D11*
X13593872Y-12479059D02*
X13612920Y-12479059D01*
X13612920Y-12479059D02*
X13631967Y-12488583D01*
X13631967Y-12488583D02*
X13641491Y-12498107D01*
X13641491Y-12498107D02*
X13651015Y-12517155D01*
X13651015Y-12517155D02*
X13660539Y-12555250D01*
X13660539Y-12555250D02*
X13660539Y-12602869D01*
X13660539Y-12602869D02*
X13651015Y-12640964D01*
X13651015Y-12640964D02*
X13641491Y-12660012D01*
X13641491Y-12660012D02*
X13631967Y-12669536D01*
X13631967Y-12669536D02*
X13612920Y-12679059D01*
X13612920Y-12679059D02*
X13593872Y-12679059D01*
X13593872Y-12679059D02*
X13574824Y-12669536D01*
X13574824Y-12669536D02*
X13565301Y-12660012D01*
X13565301Y-12660012D02*
X13555777Y-12640964D01*
X13555777Y-12640964D02*
X13546253Y-12602869D01*
X13546253Y-12602869D02*
X13546253Y-12555250D01*
X13546253Y-12555250D02*
X13555777Y-12517155D01*
X13555777Y-12517155D02*
X13565301Y-12498107D01*
X13565301Y-12498107D02*
X13574824Y-12488583D01*
X13574824Y-12488583D02*
X13593872Y-12479059D01*
X13746253Y-12660012D02*
X13755777Y-12669536D01*
X13755777Y-12669536D02*
X13746253Y-12679059D01*
X13746253Y-12679059D02*
X13736729Y-12669536D01*
X13736729Y-12669536D02*
X13746253Y-12660012D01*
X13746253Y-12660012D02*
X13746253Y-12679059D01*
X13822443Y-12479059D02*
X13946253Y-12479059D01*
X13946253Y-12479059D02*
X13879586Y-12555250D01*
X13879586Y-12555250D02*
X13908158Y-12555250D01*
X13908158Y-12555250D02*
X13927205Y-12564774D01*
X13927205Y-12564774D02*
X13936729Y-12574297D01*
X13936729Y-12574297D02*
X13946253Y-12593345D01*
X13946253Y-12593345D02*
X13946253Y-12640964D01*
X13946253Y-12640964D02*
X13936729Y-12660012D01*
X13936729Y-12660012D02*
X13927205Y-12669536D01*
X13927205Y-12669536D02*
X13908158Y-12679059D01*
X13908158Y-12679059D02*
X13851015Y-12679059D01*
X13851015Y-12679059D02*
X13831967Y-12669536D01*
X13831967Y-12669536D02*
X13822443Y-12660012D01*
X14070062Y-12479059D02*
X14089110Y-12479059D01*
X14089110Y-12479059D02*
X14108158Y-12488583D01*
X14108158Y-12488583D02*
X14117682Y-12498107D01*
X14117682Y-12498107D02*
X14127205Y-12517155D01*
X14127205Y-12517155D02*
X14136729Y-12555250D01*
X14136729Y-12555250D02*
X14136729Y-12602869D01*
X14136729Y-12602869D02*
X14127205Y-12640964D01*
X14127205Y-12640964D02*
X14117682Y-12660012D01*
X14117682Y-12660012D02*
X14108158Y-12669536D01*
X14108158Y-12669536D02*
X14089110Y-12679059D01*
X14089110Y-12679059D02*
X14070062Y-12679059D01*
X14070062Y-12679059D02*
X14051015Y-12669536D01*
X14051015Y-12669536D02*
X14041491Y-12660012D01*
X14041491Y-12660012D02*
X14031967Y-12640964D01*
X14031967Y-12640964D02*
X14022443Y-12602869D01*
X14022443Y-12602869D02*
X14022443Y-12555250D01*
X14022443Y-12555250D02*
X14031967Y-12517155D01*
X14031967Y-12517155D02*
X14041491Y-12498107D01*
X14041491Y-12498107D02*
X14051015Y-12488583D01*
X14051015Y-12488583D02*
X14070062Y-12479059D01*
X14260539Y-12479059D02*
X14279586Y-12479059D01*
X14279586Y-12479059D02*
X14298634Y-12488583D01*
X14298634Y-12488583D02*
X14308158Y-12498107D01*
X14308158Y-12498107D02*
X14317682Y-12517155D01*
X14317682Y-12517155D02*
X14327205Y-12555250D01*
X14327205Y-12555250D02*
X14327205Y-12602869D01*
X14327205Y-12602869D02*
X14317682Y-12640964D01*
X14317682Y-12640964D02*
X14308158Y-12660012D01*
X14308158Y-12660012D02*
X14298634Y-12669536D01*
X14298634Y-12669536D02*
X14279586Y-12679059D01*
X14279586Y-12679059D02*
X14260539Y-12679059D01*
X14260539Y-12679059D02*
X14241491Y-12669536D01*
X14241491Y-12669536D02*
X14231967Y-12660012D01*
X14231967Y-12660012D02*
X14222443Y-12640964D01*
X14222443Y-12640964D02*
X14212920Y-12602869D01*
X14212920Y-12602869D02*
X14212920Y-12555250D01*
X14212920Y-12555250D02*
X14222443Y-12517155D01*
X14222443Y-12517155D02*
X14231967Y-12498107D01*
X14231967Y-12498107D02*
X14241491Y-12488583D01*
X14241491Y-12488583D02*
X14260539Y-12479059D01*
X14412920Y-12679059D02*
X14412920Y-12545726D01*
X14412920Y-12564774D02*
X14422443Y-12555250D01*
X14422443Y-12555250D02*
X14441491Y-12545726D01*
X14441491Y-12545726D02*
X14470063Y-12545726D01*
X14470063Y-12545726D02*
X14489110Y-12555250D01*
X14489110Y-12555250D02*
X14498634Y-12574297D01*
X14498634Y-12574297D02*
X14498634Y-12679059D01*
X14498634Y-12574297D02*
X14508158Y-12555250D01*
X14508158Y-12555250D02*
X14527205Y-12545726D01*
X14527205Y-12545726D02*
X14555777Y-12545726D01*
X14555777Y-12545726D02*
X14574824Y-12555250D01*
X14574824Y-12555250D02*
X14584348Y-12574297D01*
X14584348Y-12574297D02*
X14584348Y-12679059D01*
X14679586Y-12679059D02*
X14679586Y-12545726D01*
X14679586Y-12564774D02*
X14689110Y-12555250D01*
X14689110Y-12555250D02*
X14708158Y-12545726D01*
X14708158Y-12545726D02*
X14736729Y-12545726D01*
X14736729Y-12545726D02*
X14755777Y-12555250D01*
X14755777Y-12555250D02*
X14765301Y-12574297D01*
X14765301Y-12574297D02*
X14765301Y-12679059D01*
X14765301Y-12574297D02*
X14774824Y-12555250D01*
X14774824Y-12555250D02*
X14793872Y-12545726D01*
X14793872Y-12545726D02*
X14822443Y-12545726D01*
X14822443Y-12545726D02*
X14841491Y-12555250D01*
X14841491Y-12555250D02*
X14851015Y-12574297D01*
X14851015Y-12574297D02*
X14851015Y-12679059D01*
X15241491Y-12469536D02*
X15070063Y-12726678D01*
X15498634Y-12479059D02*
X15517682Y-12479059D01*
X15517682Y-12479059D02*
X15536729Y-12488583D01*
X15536729Y-12488583D02*
X15546253Y-12498107D01*
X15546253Y-12498107D02*
X15555777Y-12517155D01*
X15555777Y-12517155D02*
X15565301Y-12555250D01*
X15565301Y-12555250D02*
X15565301Y-12602869D01*
X15565301Y-12602869D02*
X15555777Y-12640964D01*
X15555777Y-12640964D02*
X15546253Y-12660012D01*
X15546253Y-12660012D02*
X15536729Y-12669536D01*
X15536729Y-12669536D02*
X15517682Y-12679059D01*
X15517682Y-12679059D02*
X15498634Y-12679059D01*
X15498634Y-12679059D02*
X15479586Y-12669536D01*
X15479586Y-12669536D02*
X15470063Y-12660012D01*
X15470063Y-12660012D02*
X15460539Y-12640964D01*
X15460539Y-12640964D02*
X15451015Y-12602869D01*
X15451015Y-12602869D02*
X15451015Y-12555250D01*
X15451015Y-12555250D02*
X15460539Y-12517155D01*
X15460539Y-12517155D02*
X15470063Y-12498107D01*
X15470063Y-12498107D02*
X15479586Y-12488583D01*
X15479586Y-12488583D02*
X15498634Y-12479059D01*
X15651015Y-12660012D02*
X15660539Y-12669536D01*
X15660539Y-12669536D02*
X15651015Y-12679059D01*
X15651015Y-12679059D02*
X15641491Y-12669536D01*
X15641491Y-12669536D02*
X15651015Y-12660012D01*
X15651015Y-12660012D02*
X15651015Y-12679059D01*
X15784348Y-12479059D02*
X15803396Y-12479059D01*
X15803396Y-12479059D02*
X15822444Y-12488583D01*
X15822444Y-12488583D02*
X15831967Y-12498107D01*
X15831967Y-12498107D02*
X15841491Y-12517155D01*
X15841491Y-12517155D02*
X15851015Y-12555250D01*
X15851015Y-12555250D02*
X15851015Y-12602869D01*
X15851015Y-12602869D02*
X15841491Y-12640964D01*
X15841491Y-12640964D02*
X15831967Y-12660012D01*
X15831967Y-12660012D02*
X15822444Y-12669536D01*
X15822444Y-12669536D02*
X15803396Y-12679059D01*
X15803396Y-12679059D02*
X15784348Y-12679059D01*
X15784348Y-12679059D02*
X15765301Y-12669536D01*
X15765301Y-12669536D02*
X15755777Y-12660012D01*
X15755777Y-12660012D02*
X15746253Y-12640964D01*
X15746253Y-12640964D02*
X15736729Y-12602869D01*
X15736729Y-12602869D02*
X15736729Y-12555250D01*
X15736729Y-12555250D02*
X15746253Y-12517155D01*
X15746253Y-12517155D02*
X15755777Y-12498107D01*
X15755777Y-12498107D02*
X15765301Y-12488583D01*
X15765301Y-12488583D02*
X15784348Y-12479059D01*
X16041491Y-12679059D02*
X15927206Y-12679059D01*
X15984348Y-12679059D02*
X15984348Y-12479059D01*
X15984348Y-12479059D02*
X15965301Y-12507631D01*
X15965301Y-12507631D02*
X15946253Y-12526678D01*
X15946253Y-12526678D02*
X15927206Y-12536202D01*
X16231967Y-12679059D02*
X16117682Y-12679059D01*
X16174825Y-12679059D02*
X16174825Y-12479059D01*
X16174825Y-12479059D02*
X16155777Y-12507631D01*
X16155777Y-12507631D02*
X16136729Y-12526678D01*
X16136729Y-12526678D02*
X16117682Y-12536202D01*
X16346253Y-12564774D02*
X16327206Y-12555250D01*
X16327206Y-12555250D02*
X16317682Y-12545726D01*
X16317682Y-12545726D02*
X16308158Y-12526678D01*
X16308158Y-12526678D02*
X16308158Y-12517155D01*
X16308158Y-12517155D02*
X16317682Y-12498107D01*
X16317682Y-12498107D02*
X16327206Y-12488583D01*
X16327206Y-12488583D02*
X16346253Y-12479059D01*
X16346253Y-12479059D02*
X16384348Y-12479059D01*
X16384348Y-12479059D02*
X16403396Y-12488583D01*
X16403396Y-12488583D02*
X16412920Y-12498107D01*
X16412920Y-12498107D02*
X16422444Y-12517155D01*
X16422444Y-12517155D02*
X16422444Y-12526678D01*
X16422444Y-12526678D02*
X16412920Y-12545726D01*
X16412920Y-12545726D02*
X16403396Y-12555250D01*
X16403396Y-12555250D02*
X16384348Y-12564774D01*
X16384348Y-12564774D02*
X16346253Y-12564774D01*
X16346253Y-12564774D02*
X16327206Y-12574297D01*
X16327206Y-12574297D02*
X16317682Y-12583821D01*
X16317682Y-12583821D02*
X16308158Y-12602869D01*
X16308158Y-12602869D02*
X16308158Y-12640964D01*
X16308158Y-12640964D02*
X16317682Y-12660012D01*
X16317682Y-12660012D02*
X16327206Y-12669536D01*
X16327206Y-12669536D02*
X16346253Y-12679059D01*
X16346253Y-12679059D02*
X16384348Y-12679059D01*
X16384348Y-12679059D02*
X16403396Y-12669536D01*
X16403396Y-12669536D02*
X16412920Y-12660012D01*
X16412920Y-12660012D02*
X16422444Y-12640964D01*
X16422444Y-12640964D02*
X16422444Y-12602869D01*
X16422444Y-12602869D02*
X16412920Y-12583821D01*
X16412920Y-12583821D02*
X16403396Y-12574297D01*
X16403396Y-12574297D02*
X16384348Y-12564774D01*
X16498634Y-12479059D02*
X16498634Y-12517155D01*
X16574825Y-12479059D02*
X16574825Y-12517155D01*
X16870063Y-12755250D02*
X16860539Y-12745726D01*
X16860539Y-12745726D02*
X16841491Y-12717155D01*
X16841491Y-12717155D02*
X16831968Y-12698107D01*
X16831968Y-12698107D02*
X16822444Y-12669536D01*
X16822444Y-12669536D02*
X16812920Y-12621916D01*
X16812920Y-12621916D02*
X16812920Y-12583821D01*
X16812920Y-12583821D02*
X16822444Y-12536202D01*
X16822444Y-12536202D02*
X16831968Y-12507631D01*
X16831968Y-12507631D02*
X16841491Y-12488583D01*
X16841491Y-12488583D02*
X16860539Y-12460012D01*
X16860539Y-12460012D02*
X16870063Y-12450488D01*
X16974825Y-12564774D02*
X16955777Y-12555250D01*
X16955777Y-12555250D02*
X16946253Y-12545726D01*
X16946253Y-12545726D02*
X16936730Y-12526678D01*
X16936730Y-12526678D02*
X16936730Y-12517155D01*
X16936730Y-12517155D02*
X16946253Y-12498107D01*
X16946253Y-12498107D02*
X16955777Y-12488583D01*
X16955777Y-12488583D02*
X16974825Y-12479059D01*
X16974825Y-12479059D02*
X17012920Y-12479059D01*
X17012920Y-12479059D02*
X17031968Y-12488583D01*
X17031968Y-12488583D02*
X17041491Y-12498107D01*
X17041491Y-12498107D02*
X17051015Y-12517155D01*
X17051015Y-12517155D02*
X17051015Y-12526678D01*
X17051015Y-12526678D02*
X17041491Y-12545726D01*
X17041491Y-12545726D02*
X17031968Y-12555250D01*
X17031968Y-12555250D02*
X17012920Y-12564774D01*
X17012920Y-12564774D02*
X16974825Y-12564774D01*
X16974825Y-12564774D02*
X16955777Y-12574297D01*
X16955777Y-12574297D02*
X16946253Y-12583821D01*
X16946253Y-12583821D02*
X16936730Y-12602869D01*
X16936730Y-12602869D02*
X16936730Y-12640964D01*
X16936730Y-12640964D02*
X16946253Y-12660012D01*
X16946253Y-12660012D02*
X16955777Y-12669536D01*
X16955777Y-12669536D02*
X16974825Y-12679059D01*
X16974825Y-12679059D02*
X17012920Y-12679059D01*
X17012920Y-12679059D02*
X17031968Y-12669536D01*
X17031968Y-12669536D02*
X17041491Y-12660012D01*
X17041491Y-12660012D02*
X17051015Y-12640964D01*
X17051015Y-12640964D02*
X17051015Y-12602869D01*
X17051015Y-12602869D02*
X17041491Y-12583821D01*
X17041491Y-12583821D02*
X17031968Y-12574297D01*
X17031968Y-12574297D02*
X17012920Y-12564774D01*
X17146253Y-12679059D02*
X17184349Y-12679059D01*
X17184349Y-12679059D02*
X17203396Y-12669536D01*
X17203396Y-12669536D02*
X17212920Y-12660012D01*
X17212920Y-12660012D02*
X17231968Y-12631440D01*
X17231968Y-12631440D02*
X17241491Y-12593345D01*
X17241491Y-12593345D02*
X17241491Y-12517155D01*
X17241491Y-12517155D02*
X17231968Y-12498107D01*
X17231968Y-12498107D02*
X17222444Y-12488583D01*
X17222444Y-12488583D02*
X17203396Y-12479059D01*
X17203396Y-12479059D02*
X17165301Y-12479059D01*
X17165301Y-12479059D02*
X17146253Y-12488583D01*
X17146253Y-12488583D02*
X17136730Y-12498107D01*
X17136730Y-12498107D02*
X17127206Y-12517155D01*
X17127206Y-12517155D02*
X17127206Y-12564774D01*
X17127206Y-12564774D02*
X17136730Y-12583821D01*
X17136730Y-12583821D02*
X17146253Y-12593345D01*
X17146253Y-12593345D02*
X17165301Y-12602869D01*
X17165301Y-12602869D02*
X17203396Y-12602869D01*
X17203396Y-12602869D02*
X17222444Y-12593345D01*
X17222444Y-12593345D02*
X17231968Y-12583821D01*
X17231968Y-12583821D02*
X17241491Y-12564774D01*
X17479587Y-12679059D02*
X17479587Y-12479059D01*
X17565301Y-12679059D02*
X17565301Y-12574297D01*
X17565301Y-12574297D02*
X17555777Y-12555250D01*
X17555777Y-12555250D02*
X17536730Y-12545726D01*
X17536730Y-12545726D02*
X17508158Y-12545726D01*
X17508158Y-12545726D02*
X17489111Y-12555250D01*
X17489111Y-12555250D02*
X17479587Y-12564774D01*
X17689111Y-12679059D02*
X17670063Y-12669536D01*
X17670063Y-12669536D02*
X17660539Y-12660012D01*
X17660539Y-12660012D02*
X17651015Y-12640964D01*
X17651015Y-12640964D02*
X17651015Y-12583821D01*
X17651015Y-12583821D02*
X17660539Y-12564774D01*
X17660539Y-12564774D02*
X17670063Y-12555250D01*
X17670063Y-12555250D02*
X17689111Y-12545726D01*
X17689111Y-12545726D02*
X17717682Y-12545726D01*
X17717682Y-12545726D02*
X17736730Y-12555250D01*
X17736730Y-12555250D02*
X17746253Y-12564774D01*
X17746253Y-12564774D02*
X17755777Y-12583821D01*
X17755777Y-12583821D02*
X17755777Y-12640964D01*
X17755777Y-12640964D02*
X17746253Y-12660012D01*
X17746253Y-12660012D02*
X17736730Y-12669536D01*
X17736730Y-12669536D02*
X17717682Y-12679059D01*
X17717682Y-12679059D02*
X17689111Y-12679059D01*
X17870063Y-12679059D02*
X17851015Y-12669536D01*
X17851015Y-12669536D02*
X17841492Y-12650488D01*
X17841492Y-12650488D02*
X17841492Y-12479059D01*
X18022444Y-12669536D02*
X18003396Y-12679059D01*
X18003396Y-12679059D02*
X17965301Y-12679059D01*
X17965301Y-12679059D02*
X17946253Y-12669536D01*
X17946253Y-12669536D02*
X17936730Y-12650488D01*
X17936730Y-12650488D02*
X17936730Y-12574297D01*
X17936730Y-12574297D02*
X17946253Y-12555250D01*
X17946253Y-12555250D02*
X17965301Y-12545726D01*
X17965301Y-12545726D02*
X18003396Y-12545726D01*
X18003396Y-12545726D02*
X18022444Y-12555250D01*
X18022444Y-12555250D02*
X18031968Y-12574297D01*
X18031968Y-12574297D02*
X18031968Y-12593345D01*
X18031968Y-12593345D02*
X17936730Y-12612393D01*
X18108158Y-12669536D02*
X18127206Y-12679059D01*
X18127206Y-12679059D02*
X18165301Y-12679059D01*
X18165301Y-12679059D02*
X18184349Y-12669536D01*
X18184349Y-12669536D02*
X18193873Y-12650488D01*
X18193873Y-12650488D02*
X18193873Y-12640964D01*
X18193873Y-12640964D02*
X18184349Y-12621916D01*
X18184349Y-12621916D02*
X18165301Y-12612393D01*
X18165301Y-12612393D02*
X18136730Y-12612393D01*
X18136730Y-12612393D02*
X18117682Y-12602869D01*
X18117682Y-12602869D02*
X18108158Y-12583821D01*
X18108158Y-12583821D02*
X18108158Y-12574297D01*
X18108158Y-12574297D02*
X18117682Y-12555250D01*
X18117682Y-12555250D02*
X18136730Y-12545726D01*
X18136730Y-12545726D02*
X18165301Y-12545726D01*
X18165301Y-12545726D02*
X18184349Y-12555250D01*
X18260539Y-12755250D02*
X18270063Y-12745726D01*
X18270063Y-12745726D02*
X18289111Y-12717155D01*
X18289111Y-12717155D02*
X18298634Y-12698107D01*
X18298634Y-12698107D02*
X18308158Y-12669536D01*
X18308158Y-12669536D02*
X18317682Y-12621916D01*
X18317682Y-12621916D02*
X18317682Y-12583821D01*
X18317682Y-12583821D02*
X18308158Y-12536202D01*
X18308158Y-12536202D02*
X18298634Y-12507631D01*
X18298634Y-12507631D02*
X18289111Y-12488583D01*
X18289111Y-12488583D02*
X18270063Y-12460012D01*
X18270063Y-12460012D02*
X18260539Y-12450488D01*
D10*
X13295000Y-12851576D02*
G75*
G02*
X13235000Y-12851576I-30000J0D01*
G01*
X13235000Y-12851576D02*
G75*
G02*
X13295000Y-12851576I30000J0D01*
G01*
D11*
X13593872Y-12743059D02*
X13612920Y-12743059D01*
X13612920Y-12743059D02*
X13631967Y-12752583D01*
X13631967Y-12752583D02*
X13641491Y-12762107D01*
X13641491Y-12762107D02*
X13651015Y-12781155D01*
X13651015Y-12781155D02*
X13660539Y-12819250D01*
X13660539Y-12819250D02*
X13660539Y-12866869D01*
X13660539Y-12866869D02*
X13651015Y-12904964D01*
X13651015Y-12904964D02*
X13641491Y-12924012D01*
X13641491Y-12924012D02*
X13631967Y-12933536D01*
X13631967Y-12933536D02*
X13612920Y-12943059D01*
X13612920Y-12943059D02*
X13593872Y-12943059D01*
X13593872Y-12943059D02*
X13574824Y-12933536D01*
X13574824Y-12933536D02*
X13565301Y-12924012D01*
X13565301Y-12924012D02*
X13555777Y-12904964D01*
X13555777Y-12904964D02*
X13546253Y-12866869D01*
X13546253Y-12866869D02*
X13546253Y-12819250D01*
X13546253Y-12819250D02*
X13555777Y-12781155D01*
X13555777Y-12781155D02*
X13565301Y-12762107D01*
X13565301Y-12762107D02*
X13574824Y-12752583D01*
X13574824Y-12752583D02*
X13593872Y-12743059D01*
X13746253Y-12924012D02*
X13755777Y-12933536D01*
X13755777Y-12933536D02*
X13746253Y-12943059D01*
X13746253Y-12943059D02*
X13736729Y-12933536D01*
X13736729Y-12933536D02*
X13746253Y-12924012D01*
X13746253Y-12924012D02*
X13746253Y-12943059D01*
X13927205Y-12743059D02*
X13889110Y-12743059D01*
X13889110Y-12743059D02*
X13870062Y-12752583D01*
X13870062Y-12752583D02*
X13860539Y-12762107D01*
X13860539Y-12762107D02*
X13841491Y-12790678D01*
X13841491Y-12790678D02*
X13831967Y-12828774D01*
X13831967Y-12828774D02*
X13831967Y-12904964D01*
X13831967Y-12904964D02*
X13841491Y-12924012D01*
X13841491Y-12924012D02*
X13851015Y-12933536D01*
X13851015Y-12933536D02*
X13870062Y-12943059D01*
X13870062Y-12943059D02*
X13908158Y-12943059D01*
X13908158Y-12943059D02*
X13927205Y-12933536D01*
X13927205Y-12933536D02*
X13936729Y-12924012D01*
X13936729Y-12924012D02*
X13946253Y-12904964D01*
X13946253Y-12904964D02*
X13946253Y-12857345D01*
X13946253Y-12857345D02*
X13936729Y-12838297D01*
X13936729Y-12838297D02*
X13927205Y-12828774D01*
X13927205Y-12828774D02*
X13908158Y-12819250D01*
X13908158Y-12819250D02*
X13870062Y-12819250D01*
X13870062Y-12819250D02*
X13851015Y-12828774D01*
X13851015Y-12828774D02*
X13841491Y-12838297D01*
X13841491Y-12838297D02*
X13831967Y-12857345D01*
X14070062Y-12743059D02*
X14089110Y-12743059D01*
X14089110Y-12743059D02*
X14108158Y-12752583D01*
X14108158Y-12752583D02*
X14117682Y-12762107D01*
X14117682Y-12762107D02*
X14127205Y-12781155D01*
X14127205Y-12781155D02*
X14136729Y-12819250D01*
X14136729Y-12819250D02*
X14136729Y-12866869D01*
X14136729Y-12866869D02*
X14127205Y-12904964D01*
X14127205Y-12904964D02*
X14117682Y-12924012D01*
X14117682Y-12924012D02*
X14108158Y-12933536D01*
X14108158Y-12933536D02*
X14089110Y-12943059D01*
X14089110Y-12943059D02*
X14070062Y-12943059D01*
X14070062Y-12943059D02*
X14051015Y-12933536D01*
X14051015Y-12933536D02*
X14041491Y-12924012D01*
X14041491Y-12924012D02*
X14031967Y-12904964D01*
X14031967Y-12904964D02*
X14022443Y-12866869D01*
X14022443Y-12866869D02*
X14022443Y-12819250D01*
X14022443Y-12819250D02*
X14031967Y-12781155D01*
X14031967Y-12781155D02*
X14041491Y-12762107D01*
X14041491Y-12762107D02*
X14051015Y-12752583D01*
X14051015Y-12752583D02*
X14070062Y-12743059D01*
X14260539Y-12743059D02*
X14279586Y-12743059D01*
X14279586Y-12743059D02*
X14298634Y-12752583D01*
X14298634Y-12752583D02*
X14308158Y-12762107D01*
X14308158Y-12762107D02*
X14317682Y-12781155D01*
X14317682Y-12781155D02*
X14327205Y-12819250D01*
X14327205Y-12819250D02*
X14327205Y-12866869D01*
X14327205Y-12866869D02*
X14317682Y-12904964D01*
X14317682Y-12904964D02*
X14308158Y-12924012D01*
X14308158Y-12924012D02*
X14298634Y-12933536D01*
X14298634Y-12933536D02*
X14279586Y-12943059D01*
X14279586Y-12943059D02*
X14260539Y-12943059D01*
X14260539Y-12943059D02*
X14241491Y-12933536D01*
X14241491Y-12933536D02*
X14231967Y-12924012D01*
X14231967Y-12924012D02*
X14222443Y-12904964D01*
X14222443Y-12904964D02*
X14212920Y-12866869D01*
X14212920Y-12866869D02*
X14212920Y-12819250D01*
X14212920Y-12819250D02*
X14222443Y-12781155D01*
X14222443Y-12781155D02*
X14231967Y-12762107D01*
X14231967Y-12762107D02*
X14241491Y-12752583D01*
X14241491Y-12752583D02*
X14260539Y-12743059D01*
X14412920Y-12943059D02*
X14412920Y-12809726D01*
X14412920Y-12828774D02*
X14422443Y-12819250D01*
X14422443Y-12819250D02*
X14441491Y-12809726D01*
X14441491Y-12809726D02*
X14470063Y-12809726D01*
X14470063Y-12809726D02*
X14489110Y-12819250D01*
X14489110Y-12819250D02*
X14498634Y-12838297D01*
X14498634Y-12838297D02*
X14498634Y-12943059D01*
X14498634Y-12838297D02*
X14508158Y-12819250D01*
X14508158Y-12819250D02*
X14527205Y-12809726D01*
X14527205Y-12809726D02*
X14555777Y-12809726D01*
X14555777Y-12809726D02*
X14574824Y-12819250D01*
X14574824Y-12819250D02*
X14584348Y-12838297D01*
X14584348Y-12838297D02*
X14584348Y-12943059D01*
X14679586Y-12943059D02*
X14679586Y-12809726D01*
X14679586Y-12828774D02*
X14689110Y-12819250D01*
X14689110Y-12819250D02*
X14708158Y-12809726D01*
X14708158Y-12809726D02*
X14736729Y-12809726D01*
X14736729Y-12809726D02*
X14755777Y-12819250D01*
X14755777Y-12819250D02*
X14765301Y-12838297D01*
X14765301Y-12838297D02*
X14765301Y-12943059D01*
X14765301Y-12838297D02*
X14774824Y-12819250D01*
X14774824Y-12819250D02*
X14793872Y-12809726D01*
X14793872Y-12809726D02*
X14822443Y-12809726D01*
X14822443Y-12809726D02*
X14841491Y-12819250D01*
X14841491Y-12819250D02*
X14851015Y-12838297D01*
X14851015Y-12838297D02*
X14851015Y-12943059D01*
X15241491Y-12733536D02*
X15070063Y-12990678D01*
X15498634Y-12743059D02*
X15517682Y-12743059D01*
X15517682Y-12743059D02*
X15536729Y-12752583D01*
X15536729Y-12752583D02*
X15546253Y-12762107D01*
X15546253Y-12762107D02*
X15555777Y-12781155D01*
X15555777Y-12781155D02*
X15565301Y-12819250D01*
X15565301Y-12819250D02*
X15565301Y-12866869D01*
X15565301Y-12866869D02*
X15555777Y-12904964D01*
X15555777Y-12904964D02*
X15546253Y-12924012D01*
X15546253Y-12924012D02*
X15536729Y-12933536D01*
X15536729Y-12933536D02*
X15517682Y-12943059D01*
X15517682Y-12943059D02*
X15498634Y-12943059D01*
X15498634Y-12943059D02*
X15479586Y-12933536D01*
X15479586Y-12933536D02*
X15470063Y-12924012D01*
X15470063Y-12924012D02*
X15460539Y-12904964D01*
X15460539Y-12904964D02*
X15451015Y-12866869D01*
X15451015Y-12866869D02*
X15451015Y-12819250D01*
X15451015Y-12819250D02*
X15460539Y-12781155D01*
X15460539Y-12781155D02*
X15470063Y-12762107D01*
X15470063Y-12762107D02*
X15479586Y-12752583D01*
X15479586Y-12752583D02*
X15498634Y-12743059D01*
X15651015Y-12924012D02*
X15660539Y-12933536D01*
X15660539Y-12933536D02*
X15651015Y-12943059D01*
X15651015Y-12943059D02*
X15641491Y-12933536D01*
X15641491Y-12933536D02*
X15651015Y-12924012D01*
X15651015Y-12924012D02*
X15651015Y-12943059D01*
X15784348Y-12743059D02*
X15803396Y-12743059D01*
X15803396Y-12743059D02*
X15822444Y-12752583D01*
X15822444Y-12752583D02*
X15831967Y-12762107D01*
X15831967Y-12762107D02*
X15841491Y-12781155D01*
X15841491Y-12781155D02*
X15851015Y-12819250D01*
X15851015Y-12819250D02*
X15851015Y-12866869D01*
X15851015Y-12866869D02*
X15841491Y-12904964D01*
X15841491Y-12904964D02*
X15831967Y-12924012D01*
X15831967Y-12924012D02*
X15822444Y-12933536D01*
X15822444Y-12933536D02*
X15803396Y-12943059D01*
X15803396Y-12943059D02*
X15784348Y-12943059D01*
X15784348Y-12943059D02*
X15765301Y-12933536D01*
X15765301Y-12933536D02*
X15755777Y-12924012D01*
X15755777Y-12924012D02*
X15746253Y-12904964D01*
X15746253Y-12904964D02*
X15736729Y-12866869D01*
X15736729Y-12866869D02*
X15736729Y-12819250D01*
X15736729Y-12819250D02*
X15746253Y-12781155D01*
X15746253Y-12781155D02*
X15755777Y-12762107D01*
X15755777Y-12762107D02*
X15765301Y-12752583D01*
X15765301Y-12752583D02*
X15784348Y-12743059D01*
X15927206Y-12762107D02*
X15936729Y-12752583D01*
X15936729Y-12752583D02*
X15955777Y-12743059D01*
X15955777Y-12743059D02*
X16003396Y-12743059D01*
X16003396Y-12743059D02*
X16022444Y-12752583D01*
X16022444Y-12752583D02*
X16031967Y-12762107D01*
X16031967Y-12762107D02*
X16041491Y-12781155D01*
X16041491Y-12781155D02*
X16041491Y-12800202D01*
X16041491Y-12800202D02*
X16031967Y-12828774D01*
X16031967Y-12828774D02*
X15917682Y-12943059D01*
X15917682Y-12943059D02*
X16041491Y-12943059D01*
X16108158Y-12743059D02*
X16231967Y-12743059D01*
X16231967Y-12743059D02*
X16165301Y-12819250D01*
X16165301Y-12819250D02*
X16193872Y-12819250D01*
X16193872Y-12819250D02*
X16212920Y-12828774D01*
X16212920Y-12828774D02*
X16222444Y-12838297D01*
X16222444Y-12838297D02*
X16231967Y-12857345D01*
X16231967Y-12857345D02*
X16231967Y-12904964D01*
X16231967Y-12904964D02*
X16222444Y-12924012D01*
X16222444Y-12924012D02*
X16212920Y-12933536D01*
X16212920Y-12933536D02*
X16193872Y-12943059D01*
X16193872Y-12943059D02*
X16136729Y-12943059D01*
X16136729Y-12943059D02*
X16117682Y-12933536D01*
X16117682Y-12933536D02*
X16108158Y-12924012D01*
X16403396Y-12743059D02*
X16365301Y-12743059D01*
X16365301Y-12743059D02*
X16346253Y-12752583D01*
X16346253Y-12752583D02*
X16336729Y-12762107D01*
X16336729Y-12762107D02*
X16317682Y-12790678D01*
X16317682Y-12790678D02*
X16308158Y-12828774D01*
X16308158Y-12828774D02*
X16308158Y-12904964D01*
X16308158Y-12904964D02*
X16317682Y-12924012D01*
X16317682Y-12924012D02*
X16327206Y-12933536D01*
X16327206Y-12933536D02*
X16346253Y-12943059D01*
X16346253Y-12943059D02*
X16384348Y-12943059D01*
X16384348Y-12943059D02*
X16403396Y-12933536D01*
X16403396Y-12933536D02*
X16412920Y-12924012D01*
X16412920Y-12924012D02*
X16422444Y-12904964D01*
X16422444Y-12904964D02*
X16422444Y-12857345D01*
X16422444Y-12857345D02*
X16412920Y-12838297D01*
X16412920Y-12838297D02*
X16403396Y-12828774D01*
X16403396Y-12828774D02*
X16384348Y-12819250D01*
X16384348Y-12819250D02*
X16346253Y-12819250D01*
X16346253Y-12819250D02*
X16327206Y-12828774D01*
X16327206Y-12828774D02*
X16317682Y-12838297D01*
X16317682Y-12838297D02*
X16308158Y-12857345D01*
X16498634Y-12743059D02*
X16498634Y-12781155D01*
X16574825Y-12743059D02*
X16574825Y-12781155D01*
X16870063Y-13019250D02*
X16860539Y-13009726D01*
X16860539Y-13009726D02*
X16841491Y-12981155D01*
X16841491Y-12981155D02*
X16831968Y-12962107D01*
X16831968Y-12962107D02*
X16822444Y-12933536D01*
X16822444Y-12933536D02*
X16812920Y-12885916D01*
X16812920Y-12885916D02*
X16812920Y-12847821D01*
X16812920Y-12847821D02*
X16822444Y-12800202D01*
X16822444Y-12800202D02*
X16831968Y-12771631D01*
X16831968Y-12771631D02*
X16841491Y-12752583D01*
X16841491Y-12752583D02*
X16860539Y-12724012D01*
X16860539Y-12724012D02*
X16870063Y-12714488D01*
X17031968Y-12809726D02*
X17031968Y-12943059D01*
X16984349Y-12733536D02*
X16936730Y-12876393D01*
X16936730Y-12876393D02*
X17060539Y-12876393D01*
X17289111Y-12943059D02*
X17289111Y-12743059D01*
X17374825Y-12943059D02*
X17374825Y-12838297D01*
X17374825Y-12838297D02*
X17365301Y-12819250D01*
X17365301Y-12819250D02*
X17346253Y-12809726D01*
X17346253Y-12809726D02*
X17317682Y-12809726D01*
X17317682Y-12809726D02*
X17298634Y-12819250D01*
X17298634Y-12819250D02*
X17289111Y-12828774D01*
X17498634Y-12943059D02*
X17479587Y-12933536D01*
X17479587Y-12933536D02*
X17470063Y-12924012D01*
X17470063Y-12924012D02*
X17460539Y-12904964D01*
X17460539Y-12904964D02*
X17460539Y-12847821D01*
X17460539Y-12847821D02*
X17470063Y-12828774D01*
X17470063Y-12828774D02*
X17479587Y-12819250D01*
X17479587Y-12819250D02*
X17498634Y-12809726D01*
X17498634Y-12809726D02*
X17527206Y-12809726D01*
X17527206Y-12809726D02*
X17546253Y-12819250D01*
X17546253Y-12819250D02*
X17555777Y-12828774D01*
X17555777Y-12828774D02*
X17565301Y-12847821D01*
X17565301Y-12847821D02*
X17565301Y-12904964D01*
X17565301Y-12904964D02*
X17555777Y-12924012D01*
X17555777Y-12924012D02*
X17546253Y-12933536D01*
X17546253Y-12933536D02*
X17527206Y-12943059D01*
X17527206Y-12943059D02*
X17498634Y-12943059D01*
X17679587Y-12943059D02*
X17660539Y-12933536D01*
X17660539Y-12933536D02*
X17651015Y-12914488D01*
X17651015Y-12914488D02*
X17651015Y-12743059D01*
X17831968Y-12933536D02*
X17812920Y-12943059D01*
X17812920Y-12943059D02*
X17774825Y-12943059D01*
X17774825Y-12943059D02*
X17755777Y-12933536D01*
X17755777Y-12933536D02*
X17746253Y-12914488D01*
X17746253Y-12914488D02*
X17746253Y-12838297D01*
X17746253Y-12838297D02*
X17755777Y-12819250D01*
X17755777Y-12819250D02*
X17774825Y-12809726D01*
X17774825Y-12809726D02*
X17812920Y-12809726D01*
X17812920Y-12809726D02*
X17831968Y-12819250D01*
X17831968Y-12819250D02*
X17841492Y-12838297D01*
X17841492Y-12838297D02*
X17841492Y-12857345D01*
X17841492Y-12857345D02*
X17746253Y-12876393D01*
X17917682Y-12933536D02*
X17936730Y-12943059D01*
X17936730Y-12943059D02*
X17974825Y-12943059D01*
X17974825Y-12943059D02*
X17993873Y-12933536D01*
X17993873Y-12933536D02*
X18003396Y-12914488D01*
X18003396Y-12914488D02*
X18003396Y-12904964D01*
X18003396Y-12904964D02*
X17993873Y-12885916D01*
X17993873Y-12885916D02*
X17974825Y-12876393D01*
X17974825Y-12876393D02*
X17946253Y-12876393D01*
X17946253Y-12876393D02*
X17927206Y-12866869D01*
X17927206Y-12866869D02*
X17917682Y-12847821D01*
X17917682Y-12847821D02*
X17917682Y-12838297D01*
X17917682Y-12838297D02*
X17927206Y-12819250D01*
X17927206Y-12819250D02*
X17946253Y-12809726D01*
X17946253Y-12809726D02*
X17974825Y-12809726D01*
X17974825Y-12809726D02*
X17993873Y-12819250D01*
X18070063Y-13019250D02*
X18079587Y-13009726D01*
X18079587Y-13009726D02*
X18098634Y-12981155D01*
X18098634Y-12981155D02*
X18108158Y-12962107D01*
X18108158Y-12962107D02*
X18117682Y-12933536D01*
X18117682Y-12933536D02*
X18127206Y-12885916D01*
X18127206Y-12885916D02*
X18127206Y-12847821D01*
X18127206Y-12847821D02*
X18117682Y-12800202D01*
X18117682Y-12800202D02*
X18108158Y-12771631D01*
X18108158Y-12771631D02*
X18098634Y-12752583D01*
X18098634Y-12752583D02*
X18079587Y-12724012D01*
X18079587Y-12724012D02*
X18070063Y-12714488D01*
D10*
X13262500Y-13083076D02*
X13262500Y-13148076D01*
X13230000Y-13115576D02*
X13295000Y-13115576D01*
D11*
X13593872Y-13007059D02*
X13612920Y-13007059D01*
X13612920Y-13007059D02*
X13631967Y-13016583D01*
X13631967Y-13016583D02*
X13641491Y-13026107D01*
X13641491Y-13026107D02*
X13651015Y-13045155D01*
X13651015Y-13045155D02*
X13660539Y-13083250D01*
X13660539Y-13083250D02*
X13660539Y-13130869D01*
X13660539Y-13130869D02*
X13651015Y-13168964D01*
X13651015Y-13168964D02*
X13641491Y-13188012D01*
X13641491Y-13188012D02*
X13631967Y-13197536D01*
X13631967Y-13197536D02*
X13612920Y-13207059D01*
X13612920Y-13207059D02*
X13593872Y-13207059D01*
X13593872Y-13207059D02*
X13574824Y-13197536D01*
X13574824Y-13197536D02*
X13565301Y-13188012D01*
X13565301Y-13188012D02*
X13555777Y-13168964D01*
X13555777Y-13168964D02*
X13546253Y-13130869D01*
X13546253Y-13130869D02*
X13546253Y-13083250D01*
X13546253Y-13083250D02*
X13555777Y-13045155D01*
X13555777Y-13045155D02*
X13565301Y-13026107D01*
X13565301Y-13026107D02*
X13574824Y-13016583D01*
X13574824Y-13016583D02*
X13593872Y-13007059D01*
X13746253Y-13188012D02*
X13755777Y-13197536D01*
X13755777Y-13197536D02*
X13746253Y-13207059D01*
X13746253Y-13207059D02*
X13736729Y-13197536D01*
X13736729Y-13197536D02*
X13746253Y-13188012D01*
X13746253Y-13188012D02*
X13746253Y-13207059D01*
X13927205Y-13007059D02*
X13889110Y-13007059D01*
X13889110Y-13007059D02*
X13870062Y-13016583D01*
X13870062Y-13016583D02*
X13860539Y-13026107D01*
X13860539Y-13026107D02*
X13841491Y-13054678D01*
X13841491Y-13054678D02*
X13831967Y-13092774D01*
X13831967Y-13092774D02*
X13831967Y-13168964D01*
X13831967Y-13168964D02*
X13841491Y-13188012D01*
X13841491Y-13188012D02*
X13851015Y-13197536D01*
X13851015Y-13197536D02*
X13870062Y-13207059D01*
X13870062Y-13207059D02*
X13908158Y-13207059D01*
X13908158Y-13207059D02*
X13927205Y-13197536D01*
X13927205Y-13197536D02*
X13936729Y-13188012D01*
X13936729Y-13188012D02*
X13946253Y-13168964D01*
X13946253Y-13168964D02*
X13946253Y-13121345D01*
X13946253Y-13121345D02*
X13936729Y-13102297D01*
X13936729Y-13102297D02*
X13927205Y-13092774D01*
X13927205Y-13092774D02*
X13908158Y-13083250D01*
X13908158Y-13083250D02*
X13870062Y-13083250D01*
X13870062Y-13083250D02*
X13851015Y-13092774D01*
X13851015Y-13092774D02*
X13841491Y-13102297D01*
X13841491Y-13102297D02*
X13831967Y-13121345D01*
X14127205Y-13007059D02*
X14031967Y-13007059D01*
X14031967Y-13007059D02*
X14022443Y-13102297D01*
X14022443Y-13102297D02*
X14031967Y-13092774D01*
X14031967Y-13092774D02*
X14051015Y-13083250D01*
X14051015Y-13083250D02*
X14098634Y-13083250D01*
X14098634Y-13083250D02*
X14117682Y-13092774D01*
X14117682Y-13092774D02*
X14127205Y-13102297D01*
X14127205Y-13102297D02*
X14136729Y-13121345D01*
X14136729Y-13121345D02*
X14136729Y-13168964D01*
X14136729Y-13168964D02*
X14127205Y-13188012D01*
X14127205Y-13188012D02*
X14117682Y-13197536D01*
X14117682Y-13197536D02*
X14098634Y-13207059D01*
X14098634Y-13207059D02*
X14051015Y-13207059D01*
X14051015Y-13207059D02*
X14031967Y-13197536D01*
X14031967Y-13197536D02*
X14022443Y-13188012D01*
X14260539Y-13007059D02*
X14279586Y-13007059D01*
X14279586Y-13007059D02*
X14298634Y-13016583D01*
X14298634Y-13016583D02*
X14308158Y-13026107D01*
X14308158Y-13026107D02*
X14317682Y-13045155D01*
X14317682Y-13045155D02*
X14327205Y-13083250D01*
X14327205Y-13083250D02*
X14327205Y-13130869D01*
X14327205Y-13130869D02*
X14317682Y-13168964D01*
X14317682Y-13168964D02*
X14308158Y-13188012D01*
X14308158Y-13188012D02*
X14298634Y-13197536D01*
X14298634Y-13197536D02*
X14279586Y-13207059D01*
X14279586Y-13207059D02*
X14260539Y-13207059D01*
X14260539Y-13207059D02*
X14241491Y-13197536D01*
X14241491Y-13197536D02*
X14231967Y-13188012D01*
X14231967Y-13188012D02*
X14222443Y-13168964D01*
X14222443Y-13168964D02*
X14212920Y-13130869D01*
X14212920Y-13130869D02*
X14212920Y-13083250D01*
X14212920Y-13083250D02*
X14222443Y-13045155D01*
X14222443Y-13045155D02*
X14231967Y-13026107D01*
X14231967Y-13026107D02*
X14241491Y-13016583D01*
X14241491Y-13016583D02*
X14260539Y-13007059D01*
X14412920Y-13207059D02*
X14412920Y-13073726D01*
X14412920Y-13092774D02*
X14422443Y-13083250D01*
X14422443Y-13083250D02*
X14441491Y-13073726D01*
X14441491Y-13073726D02*
X14470063Y-13073726D01*
X14470063Y-13073726D02*
X14489110Y-13083250D01*
X14489110Y-13083250D02*
X14498634Y-13102297D01*
X14498634Y-13102297D02*
X14498634Y-13207059D01*
X14498634Y-13102297D02*
X14508158Y-13083250D01*
X14508158Y-13083250D02*
X14527205Y-13073726D01*
X14527205Y-13073726D02*
X14555777Y-13073726D01*
X14555777Y-13073726D02*
X14574824Y-13083250D01*
X14574824Y-13083250D02*
X14584348Y-13102297D01*
X14584348Y-13102297D02*
X14584348Y-13207059D01*
X14679586Y-13207059D02*
X14679586Y-13073726D01*
X14679586Y-13092774D02*
X14689110Y-13083250D01*
X14689110Y-13083250D02*
X14708158Y-13073726D01*
X14708158Y-13073726D02*
X14736729Y-13073726D01*
X14736729Y-13073726D02*
X14755777Y-13083250D01*
X14755777Y-13083250D02*
X14765301Y-13102297D01*
X14765301Y-13102297D02*
X14765301Y-13207059D01*
X14765301Y-13102297D02*
X14774824Y-13083250D01*
X14774824Y-13083250D02*
X14793872Y-13073726D01*
X14793872Y-13073726D02*
X14822443Y-13073726D01*
X14822443Y-13073726D02*
X14841491Y-13083250D01*
X14841491Y-13083250D02*
X14851015Y-13102297D01*
X14851015Y-13102297D02*
X14851015Y-13207059D01*
X15241491Y-12997536D02*
X15070063Y-13254678D01*
X15498634Y-13007059D02*
X15517682Y-13007059D01*
X15517682Y-13007059D02*
X15536729Y-13016583D01*
X15536729Y-13016583D02*
X15546253Y-13026107D01*
X15546253Y-13026107D02*
X15555777Y-13045155D01*
X15555777Y-13045155D02*
X15565301Y-13083250D01*
X15565301Y-13083250D02*
X15565301Y-13130869D01*
X15565301Y-13130869D02*
X15555777Y-13168964D01*
X15555777Y-13168964D02*
X15546253Y-13188012D01*
X15546253Y-13188012D02*
X15536729Y-13197536D01*
X15536729Y-13197536D02*
X15517682Y-13207059D01*
X15517682Y-13207059D02*
X15498634Y-13207059D01*
X15498634Y-13207059D02*
X15479586Y-13197536D01*
X15479586Y-13197536D02*
X15470063Y-13188012D01*
X15470063Y-13188012D02*
X15460539Y-13168964D01*
X15460539Y-13168964D02*
X15451015Y-13130869D01*
X15451015Y-13130869D02*
X15451015Y-13083250D01*
X15451015Y-13083250D02*
X15460539Y-13045155D01*
X15460539Y-13045155D02*
X15470063Y-13026107D01*
X15470063Y-13026107D02*
X15479586Y-13016583D01*
X15479586Y-13016583D02*
X15498634Y-13007059D01*
X15651015Y-13188012D02*
X15660539Y-13197536D01*
X15660539Y-13197536D02*
X15651015Y-13207059D01*
X15651015Y-13207059D02*
X15641491Y-13197536D01*
X15641491Y-13197536D02*
X15651015Y-13188012D01*
X15651015Y-13188012D02*
X15651015Y-13207059D01*
X15784348Y-13007059D02*
X15803396Y-13007059D01*
X15803396Y-13007059D02*
X15822444Y-13016583D01*
X15822444Y-13016583D02*
X15831967Y-13026107D01*
X15831967Y-13026107D02*
X15841491Y-13045155D01*
X15841491Y-13045155D02*
X15851015Y-13083250D01*
X15851015Y-13083250D02*
X15851015Y-13130869D01*
X15851015Y-13130869D02*
X15841491Y-13168964D01*
X15841491Y-13168964D02*
X15831967Y-13188012D01*
X15831967Y-13188012D02*
X15822444Y-13197536D01*
X15822444Y-13197536D02*
X15803396Y-13207059D01*
X15803396Y-13207059D02*
X15784348Y-13207059D01*
X15784348Y-13207059D02*
X15765301Y-13197536D01*
X15765301Y-13197536D02*
X15755777Y-13188012D01*
X15755777Y-13188012D02*
X15746253Y-13168964D01*
X15746253Y-13168964D02*
X15736729Y-13130869D01*
X15736729Y-13130869D02*
X15736729Y-13083250D01*
X15736729Y-13083250D02*
X15746253Y-13045155D01*
X15746253Y-13045155D02*
X15755777Y-13026107D01*
X15755777Y-13026107D02*
X15765301Y-13016583D01*
X15765301Y-13016583D02*
X15784348Y-13007059D01*
X15927206Y-13026107D02*
X15936729Y-13016583D01*
X15936729Y-13016583D02*
X15955777Y-13007059D01*
X15955777Y-13007059D02*
X16003396Y-13007059D01*
X16003396Y-13007059D02*
X16022444Y-13016583D01*
X16022444Y-13016583D02*
X16031967Y-13026107D01*
X16031967Y-13026107D02*
X16041491Y-13045155D01*
X16041491Y-13045155D02*
X16041491Y-13064202D01*
X16041491Y-13064202D02*
X16031967Y-13092774D01*
X16031967Y-13092774D02*
X15917682Y-13207059D01*
X15917682Y-13207059D02*
X16041491Y-13207059D01*
X16222444Y-13007059D02*
X16127206Y-13007059D01*
X16127206Y-13007059D02*
X16117682Y-13102297D01*
X16117682Y-13102297D02*
X16127206Y-13092774D01*
X16127206Y-13092774D02*
X16146253Y-13083250D01*
X16146253Y-13083250D02*
X16193872Y-13083250D01*
X16193872Y-13083250D02*
X16212920Y-13092774D01*
X16212920Y-13092774D02*
X16222444Y-13102297D01*
X16222444Y-13102297D02*
X16231967Y-13121345D01*
X16231967Y-13121345D02*
X16231967Y-13168964D01*
X16231967Y-13168964D02*
X16222444Y-13188012D01*
X16222444Y-13188012D02*
X16212920Y-13197536D01*
X16212920Y-13197536D02*
X16193872Y-13207059D01*
X16193872Y-13207059D02*
X16146253Y-13207059D01*
X16146253Y-13207059D02*
X16127206Y-13197536D01*
X16127206Y-13197536D02*
X16117682Y-13188012D01*
X16403396Y-13007059D02*
X16365301Y-13007059D01*
X16365301Y-13007059D02*
X16346253Y-13016583D01*
X16346253Y-13016583D02*
X16336729Y-13026107D01*
X16336729Y-13026107D02*
X16317682Y-13054678D01*
X16317682Y-13054678D02*
X16308158Y-13092774D01*
X16308158Y-13092774D02*
X16308158Y-13168964D01*
X16308158Y-13168964D02*
X16317682Y-13188012D01*
X16317682Y-13188012D02*
X16327206Y-13197536D01*
X16327206Y-13197536D02*
X16346253Y-13207059D01*
X16346253Y-13207059D02*
X16384348Y-13207059D01*
X16384348Y-13207059D02*
X16403396Y-13197536D01*
X16403396Y-13197536D02*
X16412920Y-13188012D01*
X16412920Y-13188012D02*
X16422444Y-13168964D01*
X16422444Y-13168964D02*
X16422444Y-13121345D01*
X16422444Y-13121345D02*
X16412920Y-13102297D01*
X16412920Y-13102297D02*
X16403396Y-13092774D01*
X16403396Y-13092774D02*
X16384348Y-13083250D01*
X16384348Y-13083250D02*
X16346253Y-13083250D01*
X16346253Y-13083250D02*
X16327206Y-13092774D01*
X16327206Y-13092774D02*
X16317682Y-13102297D01*
X16317682Y-13102297D02*
X16308158Y-13121345D01*
X16498634Y-13007059D02*
X16498634Y-13045155D01*
X16574825Y-13007059D02*
X16574825Y-13045155D01*
X16870063Y-13283250D02*
X16860539Y-13273726D01*
X16860539Y-13273726D02*
X16841491Y-13245155D01*
X16841491Y-13245155D02*
X16831968Y-13226107D01*
X16831968Y-13226107D02*
X16822444Y-13197536D01*
X16822444Y-13197536D02*
X16812920Y-13149916D01*
X16812920Y-13149916D02*
X16812920Y-13111821D01*
X16812920Y-13111821D02*
X16822444Y-13064202D01*
X16822444Y-13064202D02*
X16831968Y-13035631D01*
X16831968Y-13035631D02*
X16841491Y-13016583D01*
X16841491Y-13016583D02*
X16860539Y-12988012D01*
X16860539Y-12988012D02*
X16870063Y-12978488D01*
X16936730Y-13026107D02*
X16946253Y-13016583D01*
X16946253Y-13016583D02*
X16965301Y-13007059D01*
X16965301Y-13007059D02*
X17012920Y-13007059D01*
X17012920Y-13007059D02*
X17031968Y-13016583D01*
X17031968Y-13016583D02*
X17041491Y-13026107D01*
X17041491Y-13026107D02*
X17051015Y-13045155D01*
X17051015Y-13045155D02*
X17051015Y-13064202D01*
X17051015Y-13064202D02*
X17041491Y-13092774D01*
X17041491Y-13092774D02*
X16927206Y-13207059D01*
X16927206Y-13207059D02*
X17051015Y-13207059D01*
X17289111Y-13207059D02*
X17289111Y-13007059D01*
X17374825Y-13207059D02*
X17374825Y-13102297D01*
X17374825Y-13102297D02*
X17365301Y-13083250D01*
X17365301Y-13083250D02*
X17346253Y-13073726D01*
X17346253Y-13073726D02*
X17317682Y-13073726D01*
X17317682Y-13073726D02*
X17298634Y-13083250D01*
X17298634Y-13083250D02*
X17289111Y-13092774D01*
X17498634Y-13207059D02*
X17479587Y-13197536D01*
X17479587Y-13197536D02*
X17470063Y-13188012D01*
X17470063Y-13188012D02*
X17460539Y-13168964D01*
X17460539Y-13168964D02*
X17460539Y-13111821D01*
X17460539Y-13111821D02*
X17470063Y-13092774D01*
X17470063Y-13092774D02*
X17479587Y-13083250D01*
X17479587Y-13083250D02*
X17498634Y-13073726D01*
X17498634Y-13073726D02*
X17527206Y-13073726D01*
X17527206Y-13073726D02*
X17546253Y-13083250D01*
X17546253Y-13083250D02*
X17555777Y-13092774D01*
X17555777Y-13092774D02*
X17565301Y-13111821D01*
X17565301Y-13111821D02*
X17565301Y-13168964D01*
X17565301Y-13168964D02*
X17555777Y-13188012D01*
X17555777Y-13188012D02*
X17546253Y-13197536D01*
X17546253Y-13197536D02*
X17527206Y-13207059D01*
X17527206Y-13207059D02*
X17498634Y-13207059D01*
X17679587Y-13207059D02*
X17660539Y-13197536D01*
X17660539Y-13197536D02*
X17651015Y-13178488D01*
X17651015Y-13178488D02*
X17651015Y-13007059D01*
X17831968Y-13197536D02*
X17812920Y-13207059D01*
X17812920Y-13207059D02*
X17774825Y-13207059D01*
X17774825Y-13207059D02*
X17755777Y-13197536D01*
X17755777Y-13197536D02*
X17746253Y-13178488D01*
X17746253Y-13178488D02*
X17746253Y-13102297D01*
X17746253Y-13102297D02*
X17755777Y-13083250D01*
X17755777Y-13083250D02*
X17774825Y-13073726D01*
X17774825Y-13073726D02*
X17812920Y-13073726D01*
X17812920Y-13073726D02*
X17831968Y-13083250D01*
X17831968Y-13083250D02*
X17841492Y-13102297D01*
X17841492Y-13102297D02*
X17841492Y-13121345D01*
X17841492Y-13121345D02*
X17746253Y-13140393D01*
X17917682Y-13197536D02*
X17936730Y-13207059D01*
X17936730Y-13207059D02*
X17974825Y-13207059D01*
X17974825Y-13207059D02*
X17993873Y-13197536D01*
X17993873Y-13197536D02*
X18003396Y-13178488D01*
X18003396Y-13178488D02*
X18003396Y-13168964D01*
X18003396Y-13168964D02*
X17993873Y-13149916D01*
X17993873Y-13149916D02*
X17974825Y-13140393D01*
X17974825Y-13140393D02*
X17946253Y-13140393D01*
X17946253Y-13140393D02*
X17927206Y-13130869D01*
X17927206Y-13130869D02*
X17917682Y-13111821D01*
X17917682Y-13111821D02*
X17917682Y-13102297D01*
X17917682Y-13102297D02*
X17927206Y-13083250D01*
X17927206Y-13083250D02*
X17946253Y-13073726D01*
X17946253Y-13073726D02*
X17974825Y-13073726D01*
X17974825Y-13073726D02*
X17993873Y-13083250D01*
X18241492Y-13130869D02*
X18393873Y-13130869D01*
X18317682Y-13207059D02*
X18317682Y-13054678D01*
X18631968Y-13026107D02*
X18641492Y-13016583D01*
X18641492Y-13016583D02*
X18660539Y-13007059D01*
X18660539Y-13007059D02*
X18708158Y-13007059D01*
X18708158Y-13007059D02*
X18727206Y-13016583D01*
X18727206Y-13016583D02*
X18736730Y-13026107D01*
X18736730Y-13026107D02*
X18746254Y-13045155D01*
X18746254Y-13045155D02*
X18746254Y-13064202D01*
X18746254Y-13064202D02*
X18736730Y-13092774D01*
X18736730Y-13092774D02*
X18622444Y-13207059D01*
X18622444Y-13207059D02*
X18746254Y-13207059D01*
X18974825Y-13197536D02*
X18993873Y-13207059D01*
X18993873Y-13207059D02*
X19031968Y-13207059D01*
X19031968Y-13207059D02*
X19051016Y-13197536D01*
X19051016Y-13197536D02*
X19060539Y-13178488D01*
X19060539Y-13178488D02*
X19060539Y-13168964D01*
X19060539Y-13168964D02*
X19051016Y-13149916D01*
X19051016Y-13149916D02*
X19031968Y-13140393D01*
X19031968Y-13140393D02*
X19003396Y-13140393D01*
X19003396Y-13140393D02*
X18984349Y-13130869D01*
X18984349Y-13130869D02*
X18974825Y-13111821D01*
X18974825Y-13111821D02*
X18974825Y-13102297D01*
X18974825Y-13102297D02*
X18984349Y-13083250D01*
X18984349Y-13083250D02*
X19003396Y-13073726D01*
X19003396Y-13073726D02*
X19031968Y-13073726D01*
X19031968Y-13073726D02*
X19051016Y-13083250D01*
X19174825Y-13207059D02*
X19155777Y-13197536D01*
X19155777Y-13197536D02*
X19146254Y-13178488D01*
X19146254Y-13178488D02*
X19146254Y-13007059D01*
X19279587Y-13207059D02*
X19260539Y-13197536D01*
X19260539Y-13197536D02*
X19251016Y-13188012D01*
X19251016Y-13188012D02*
X19241492Y-13168964D01*
X19241492Y-13168964D02*
X19241492Y-13111821D01*
X19241492Y-13111821D02*
X19251016Y-13092774D01*
X19251016Y-13092774D02*
X19260539Y-13083250D01*
X19260539Y-13083250D02*
X19279587Y-13073726D01*
X19279587Y-13073726D02*
X19308158Y-13073726D01*
X19308158Y-13073726D02*
X19327206Y-13083250D01*
X19327206Y-13083250D02*
X19336730Y-13092774D01*
X19336730Y-13092774D02*
X19346254Y-13111821D01*
X19346254Y-13111821D02*
X19346254Y-13168964D01*
X19346254Y-13168964D02*
X19336730Y-13188012D01*
X19336730Y-13188012D02*
X19327206Y-13197536D01*
X19327206Y-13197536D02*
X19308158Y-13207059D01*
X19308158Y-13207059D02*
X19279587Y-13207059D01*
X19403397Y-13073726D02*
X19479587Y-13073726D01*
X19431968Y-13007059D02*
X19431968Y-13178488D01*
X19431968Y-13178488D02*
X19441492Y-13197536D01*
X19441492Y-13197536D02*
X19460539Y-13207059D01*
X19460539Y-13207059D02*
X19479587Y-13207059D01*
X19536730Y-13197536D02*
X19555777Y-13207059D01*
X19555777Y-13207059D02*
X19593873Y-13207059D01*
X19593873Y-13207059D02*
X19612920Y-13197536D01*
X19612920Y-13197536D02*
X19622444Y-13178488D01*
X19622444Y-13178488D02*
X19622444Y-13168964D01*
X19622444Y-13168964D02*
X19612920Y-13149916D01*
X19612920Y-13149916D02*
X19593873Y-13140393D01*
X19593873Y-13140393D02*
X19565301Y-13140393D01*
X19565301Y-13140393D02*
X19546254Y-13130869D01*
X19546254Y-13130869D02*
X19536730Y-13111821D01*
X19536730Y-13111821D02*
X19536730Y-13102297D01*
X19536730Y-13102297D02*
X19546254Y-13083250D01*
X19546254Y-13083250D02*
X19565301Y-13073726D01*
X19565301Y-13073726D02*
X19593873Y-13073726D01*
X19593873Y-13073726D02*
X19612920Y-13083250D01*
X19689111Y-13283250D02*
X19698635Y-13273726D01*
X19698635Y-13273726D02*
X19717682Y-13245155D01*
X19717682Y-13245155D02*
X19727206Y-13226107D01*
X19727206Y-13226107D02*
X19736730Y-13197536D01*
X19736730Y-13197536D02*
X19746254Y-13149916D01*
X19746254Y-13149916D02*
X19746254Y-13111821D01*
X19746254Y-13111821D02*
X19736730Y-13064202D01*
X19736730Y-13064202D02*
X19727206Y-13035631D01*
X19727206Y-13035631D02*
X19717682Y-13016583D01*
X19717682Y-13016583D02*
X19698635Y-12988012D01*
X19698635Y-12988012D02*
X19689111Y-12978488D01*
M02*
