%TF.GenerationSoftware,KiCad,Pcbnew,9.0.7-1.fc43*%
%TF.CreationDate,2026-01-31T17:59:12-08:00*%
%TF.ProjectId,watch,77617463-682e-46b6-9963-61645f706362,rev?*%
%TF.SameCoordinates,Original*%
%TF.FileFunction,Soldermask,Top*%
%TF.FilePolarity,Negative*%
%FSLAX46Y46*%
G04 Gerber Fmt 4.6, Leading zero omitted, Abs format (unit mm)*
G04 Created by KiCad (PCBNEW 9.0.7-1.fc43) date 2026-01-31 17:59:12*
%MOMM*%
%LPD*%
G01*
G04 APERTURE LIST*
G04 Aperture macros list*
%AMRoundRect*
0 Rectangle with rounded corners*
0 $1 Rounding radius*
0 $2 $3 $4 $5 $6 $7 $8 $9 X,Y pos of 4 corners*
0 Add a 4 corners polygon primitive as box body*
4,1,4,$2,$3,$4,$5,$6,$7,$8,$9,$2,$3,0*
0 Add four circle primitives for the rounded corners*
1,1,$1+$1,$2,$3*
1,1,$1+$1,$4,$5*
1,1,$1+$1,$6,$7*
1,1,$1+$1,$8,$9*
0 Add four rect primitives between the rounded corners*
20,1,$1+$1,$2,$3,$4,$5,0*
20,1,$1+$1,$4,$5,$6,$7,0*
20,1,$1+$1,$6,$7,$8,$9,0*
20,1,$1+$1,$8,$9,$2,$3,0*%
%AMRotRect*
0 Rectangle, with rotation*
0 The origin of the aperture is its center*
0 $1 length*
0 $2 width*
0 $3 Rotation angle, in degrees counterclockwise*
0 Add horizontal line*
21,1,$1,$2,0,0,$3*%
%AMFreePoly0*
4,1,17,0.675000,0.300000,0.260846,0.300000,0.317341,0.243505,0.369552,0.153073,0.396578,0.052210,0.396578,-0.052210,0.369552,-0.153073,0.317341,-0.243505,0.243505,-0.317341,0.153073,-0.369552,0.052210,-0.396578,0.000000,-0.396578,0.000000,-0.400000,-0.475000,-0.400000,-0.475000,0.950000,0.675000,0.950000,0.675000,0.300000,0.675000,0.300000,$1*%
%AMFreePoly1*
4,1,17,0.475000,-0.400000,0.000000,-0.400000,0.000000,-0.396578,-0.052210,-0.396578,-0.153073,-0.369552,-0.243505,-0.317341,-0.317341,-0.243505,-0.369552,-0.153073,-0.396578,-0.052210,-0.396578,0.052210,-0.369552,0.153073,-0.317341,0.243505,-0.260846,0.300000,-0.675000,0.300000,-0.675000,0.950000,0.475000,0.950000,0.475000,-0.400000,0.475000,-0.400000,$1*%
G04 Aperture macros list end*
%ADD10C,0.990600*%
%ADD11C,0.787400*%
%ADD12RoundRect,0.155000X-0.155000X0.212500X-0.155000X-0.212500X0.155000X-0.212500X0.155000X0.212500X0*%
%ADD13RoundRect,0.160000X-0.160000X0.197500X-0.160000X-0.197500X0.160000X-0.197500X0.160000X0.197500X0*%
%ADD14RoundRect,0.160000X-0.197500X-0.160000X0.197500X-0.160000X0.197500X0.160000X-0.197500X0.160000X0*%
%ADD15RoundRect,0.200000X0.200000X-0.250000X0.200000X0.250000X-0.200000X0.250000X-0.200000X-0.250000X0*%
%ADD16RoundRect,0.250000X-0.275000X-0.350000X0.275000X-0.350000X0.275000X0.350000X-0.275000X0.350000X0*%
%ADD17R,1.000000X1.000000*%
%ADD18C,1.000000*%
%ADD19RotRect,0.700000X1.100000X255.000000*%
%ADD20RotRect,1.400000X1.100000X255.000000*%
%ADD21FreePoly0,255.000000*%
%ADD22FreePoly1,255.000000*%
%ADD23RoundRect,0.155000X-0.212500X-0.155000X0.212500X-0.155000X0.212500X0.155000X-0.212500X0.155000X0*%
%ADD24R,0.350000X0.300000*%
%ADD25R,0.300000X0.350000*%
%ADD26RoundRect,0.250000X-0.475000X0.337500X-0.475000X-0.337500X0.475000X-0.337500X0.475000X0.337500X0*%
%ADD27RoundRect,0.155000X0.212500X0.155000X-0.212500X0.155000X-0.212500X-0.155000X0.212500X-0.155000X0*%
%ADD28RoundRect,0.062500X0.062500X-0.337500X0.062500X0.337500X-0.062500X0.337500X-0.062500X-0.337500X0*%
%ADD29RoundRect,0.062500X0.337500X-0.062500X0.337500X0.062500X-0.337500X0.062500X-0.337500X-0.062500X0*%
%ADD30R,3.500000X3.500000*%
%ADD31R,0.852300X0.254000*%
%ADD32R,0.852300X0.253994*%
%ADD33R,0.700000X1.295400*%
%ADD34C,1.150000*%
%ADD35RoundRect,0.100000X-0.700000X-0.100000X0.700000X-0.100000X0.700000X0.100000X-0.700000X0.100000X0*%
%ADD36O,1.100000X1.600000*%
%ADD37RoundRect,0.237500X-0.300000X-0.237500X0.300000X-0.237500X0.300000X0.237500X-0.300000X0.237500X0*%
%ADD38RoundRect,0.237500X0.300000X0.237500X-0.300000X0.237500X-0.300000X-0.237500X0.300000X-0.237500X0*%
%ADD39RoundRect,0.155000X0.155000X-0.212500X0.155000X0.212500X-0.155000X0.212500X-0.155000X-0.212500X0*%
%ADD40RoundRect,0.250000X0.475000X-0.337500X0.475000X0.337500X-0.475000X0.337500X-0.475000X-0.337500X0*%
%ADD41RoundRect,0.250000X-0.275000X-0.300000X0.275000X-0.300000X0.275000X0.300000X-0.275000X0.300000X0*%
%ADD42RoundRect,0.075000X0.675000X-0.075000X0.675000X0.075000X-0.675000X0.075000X-0.675000X-0.075000X0*%
%ADD43RoundRect,0.200000X0.200000X-0.275000X0.200000X0.275000X-0.200000X0.275000X-0.200000X-0.275000X0*%
%ADD44RoundRect,0.062500X0.375000X0.062500X-0.375000X0.062500X-0.375000X-0.062500X0.375000X-0.062500X0*%
%ADD45RoundRect,0.062500X0.062500X0.375000X-0.062500X0.375000X-0.062500X-0.375000X0.062500X-0.375000X0*%
%ADD46R,2.150000X2.150000*%
%ADD47RoundRect,0.160000X0.160000X-0.197500X0.160000X0.197500X-0.160000X0.197500X-0.160000X-0.197500X0*%
%ADD48RotRect,0.700000X1.100000X285.000000*%
%ADD49RotRect,1.400000X1.100000X285.000000*%
%ADD50FreePoly0,285.000000*%
%ADD51FreePoly1,285.000000*%
G04 APERTURE END LIST*
D10*
%TO.C,J3*%
X139000000Y-106260000D03*
X140016000Y-111340000D03*
X137984000Y-111340000D03*
D11*
X138365000Y-107530000D03*
X139635000Y-107530000D03*
X138365000Y-108800000D03*
X139635000Y-108800000D03*
X138365000Y-110070000D03*
X139635000Y-110070000D03*
%TD*%
D12*
%TO.C,C13*%
X145600000Y-116032500D03*
X145600000Y-117167500D03*
%TD*%
D13*
%TO.C,R5*%
X137600000Y-88005000D03*
X137600000Y-89200000D03*
%TD*%
D14*
%TO.C,R7*%
X162802500Y-94400000D03*
X163997500Y-94400000D03*
%TD*%
%TO.C,R6*%
X139205000Y-87000000D03*
X140400000Y-87000000D03*
%TD*%
D15*
%TO.C,X1*%
X154050000Y-102450000D03*
X154050000Y-101050000D03*
X152950000Y-101050000D03*
X152950000Y-102450000D03*
%TD*%
D16*
%TO.C,L5*%
X143250000Y-94600000D03*
X145550000Y-94600000D03*
%TD*%
D17*
%TO.C,BT1*%
X144400000Y-85232500D03*
D18*
X143130000Y-85232500D03*
%TD*%
D14*
%TO.C,R8*%
X163302500Y-107400000D03*
X164497500Y-107400000D03*
%TD*%
D19*
%TO.C,SW2*%
X166348717Y-102930826D03*
X165624024Y-105635418D03*
D20*
X165841482Y-104244299D03*
D21*
X167762715Y-102869713D03*
D22*
X166818026Y-106395342D03*
%TD*%
D23*
%TO.C,C8*%
X152332500Y-115052500D03*
X153467500Y-115052500D03*
%TD*%
D14*
%TO.C,R2*%
X149652500Y-117200000D03*
X150847500Y-117200000D03*
%TD*%
D24*
%TO.C,U4*%
X153225000Y-91250000D03*
X153225000Y-91750000D03*
X153225000Y-92250000D03*
X153225000Y-92750000D03*
D25*
X153750000Y-92775000D03*
X154250000Y-92775000D03*
D24*
X154775000Y-92750000D03*
X154775000Y-92250000D03*
X154775000Y-91750000D03*
X154775000Y-91250000D03*
D25*
X154250000Y-91225000D03*
X153750000Y-91225000D03*
%TD*%
D12*
%TO.C,C25*%
X156100000Y-100250000D03*
X156100000Y-101385000D03*
%TD*%
%TO.C,C6*%
X157100000Y-107652500D03*
X157100000Y-108787500D03*
%TD*%
D26*
%TO.C,C18*%
X140800000Y-94562500D03*
X140800000Y-96637500D03*
%TD*%
D16*
%TO.C,L1*%
X148600000Y-100750000D03*
X150900000Y-100750000D03*
%TD*%
D27*
%TO.C,C10*%
X144467500Y-107100000D03*
X143332500Y-107100000D03*
%TD*%
D12*
%TO.C,C2*%
X155700000Y-104932500D03*
X155700000Y-106067500D03*
%TD*%
D28*
%TO.C,U1*%
X147250000Y-111650000D03*
X147750000Y-111650000D03*
X148250000Y-111650000D03*
X148750000Y-111650000D03*
X149250000Y-111650000D03*
X149750000Y-111650000D03*
X150250000Y-111650000D03*
X150750000Y-111650000D03*
X151250000Y-111650000D03*
X151750000Y-111650000D03*
X152250000Y-111650000D03*
X152750000Y-111650000D03*
D29*
X153450000Y-110950000D03*
X153450000Y-110450000D03*
X153450000Y-109950000D03*
X153450000Y-109450000D03*
X153450000Y-108950000D03*
X153450000Y-108450000D03*
X153450000Y-107950000D03*
X153450000Y-107450000D03*
X153450000Y-106950000D03*
X153450000Y-106450000D03*
X153450000Y-105950000D03*
X153450000Y-105450000D03*
D28*
X152750000Y-104750000D03*
X152250000Y-104750000D03*
X151750000Y-104750000D03*
X151250000Y-104750000D03*
X150750000Y-104750000D03*
X150250000Y-104750000D03*
X149750000Y-104750000D03*
X149250000Y-104750000D03*
X148750000Y-104750000D03*
X148250000Y-104750000D03*
X147750000Y-104750000D03*
X147250000Y-104750000D03*
D29*
X146550000Y-105450000D03*
X146550000Y-105950000D03*
X146550000Y-106450000D03*
X146550000Y-106950000D03*
X146550000Y-107450000D03*
X146550000Y-107950000D03*
X146550000Y-108450000D03*
X146550000Y-108950000D03*
X146550000Y-109450000D03*
X146550000Y-109950000D03*
X146550000Y-110450000D03*
X146550000Y-110950000D03*
D30*
X150000000Y-108200000D03*
%TD*%
D31*
%TO.C,U3*%
X149926150Y-83682499D03*
X149926150Y-84182500D03*
X149926150Y-84682500D03*
X149926150Y-85182501D03*
X152073850Y-85182501D03*
X152073850Y-84682500D03*
X152073850Y-84182500D03*
D32*
X152073850Y-83682502D03*
D33*
X151000000Y-84432500D03*
%TD*%
D12*
%TO.C,C21*%
X147400000Y-84232500D03*
X147400000Y-85367500D03*
%TD*%
D34*
%TO.C,J1*%
X135000000Y-97500000D03*
X135000000Y-102500000D03*
D35*
X137400000Y-98700000D03*
X137400000Y-99350000D03*
X137400000Y-100000000D03*
X137400000Y-100650000D03*
X137400000Y-101300000D03*
D36*
X137200000Y-97450000D03*
X137200000Y-102550000D03*
%TD*%
D37*
%TO.C,C9*%
X147887500Y-102750000D03*
X149612500Y-102750000D03*
%TD*%
D38*
%TO.C,C11*%
X150612500Y-98750000D03*
X148887500Y-98750000D03*
%TD*%
D39*
%TO.C,C22*%
X156600000Y-92767500D03*
X156600000Y-91632500D03*
%TD*%
D14*
%TO.C,R4*%
X142802500Y-109950000D03*
X143997500Y-109950000D03*
%TD*%
D12*
%TO.C,C12*%
X149600000Y-113785000D03*
X149600000Y-114920000D03*
%TD*%
D26*
%TO.C,C19*%
X137000000Y-91362500D03*
X137000000Y-93437500D03*
%TD*%
D12*
%TO.C,C1*%
X157100000Y-104932500D03*
X157100000Y-106067500D03*
%TD*%
D39*
%TO.C,C4*%
X145750000Y-103750000D03*
X145750000Y-102615000D03*
%TD*%
D12*
%TO.C,C24*%
X157500000Y-100250000D03*
X157500000Y-101385000D03*
%TD*%
D40*
%TO.C,C20*%
X146400000Y-91837500D03*
X146400000Y-89762500D03*
%TD*%
D14*
%TO.C,R3*%
X142802500Y-111150000D03*
X143997500Y-111150000D03*
%TD*%
D12*
%TO.C,C14*%
X148000000Y-116032500D03*
X148000000Y-117167500D03*
%TD*%
D41*
%TO.C,X2*%
X145875000Y-114200000D03*
X147725000Y-114200000D03*
%TD*%
D12*
%TO.C,C3*%
X155700000Y-107652500D03*
X155700000Y-108787500D03*
%TD*%
D23*
%TO.C,C7*%
X152332500Y-113800000D03*
X153467500Y-113800000D03*
%TD*%
D42*
%TO.C,DS1*%
X159650000Y-97750000D03*
X159650000Y-98250000D03*
X159650000Y-98750000D03*
X159650000Y-99250000D03*
X159650000Y-99750000D03*
X159650000Y-100250000D03*
X159650000Y-100750000D03*
X159650000Y-101250000D03*
X159650000Y-101750000D03*
X159650000Y-102250000D03*
D43*
X162500000Y-103525000D03*
X162500000Y-96475000D03*
%TD*%
D27*
%TO.C,C5*%
X144767500Y-112400000D03*
X143632500Y-112400000D03*
%TD*%
D44*
%TO.C,U2*%
X143687500Y-91800000D03*
X143687500Y-91300000D03*
X143687500Y-90800000D03*
X143687500Y-90300000D03*
X143687500Y-89800000D03*
X143687500Y-89300000D03*
D45*
X143000000Y-88612500D03*
X142500000Y-88612500D03*
X142000000Y-88612500D03*
X141500000Y-88612500D03*
X141000000Y-88612500D03*
X140500000Y-88612500D03*
D44*
X139812500Y-89300000D03*
X139812500Y-89800000D03*
X139812500Y-90300000D03*
X139812500Y-90800000D03*
X139812500Y-91300000D03*
X139812500Y-91800000D03*
D45*
X140500000Y-92487500D03*
X141000000Y-92487500D03*
X141500000Y-92487500D03*
X142000000Y-92487500D03*
X142500000Y-92487500D03*
X143000000Y-92487500D03*
D46*
X141750000Y-90550000D03*
%TD*%
D47*
%TO.C,R1*%
X150900000Y-114997500D03*
X150900000Y-113802500D03*
%TD*%
D39*
%TO.C,C23*%
X151200000Y-92767500D03*
X151200000Y-91632500D03*
%TD*%
D48*
%TO.C,SW1*%
X165624024Y-94364582D03*
X166348717Y-97069174D03*
D49*
X165841482Y-95755701D03*
D50*
X166818026Y-93604658D03*
D51*
X167762715Y-97130287D03*
%TD*%
M02*
