%TF.GenerationSoftware,KiCad,Pcbnew,9.0.7-1.fc43*%
%TF.CreationDate,2026-01-31T17:59:12-08:00*%
%TF.ProjectId,watch,77617463-682e-46b6-9963-61645f706362,rev?*%
%TF.SameCoordinates,Original*%
%TF.FileFunction,Copper,L3,Inr*%
%TF.FilePolarity,Positive*%
%FSLAX46Y46*%
G04 Gerber Fmt 4.6, Leading zero omitted, Abs format (unit mm)*
G04 Created by KiCad (PCBNEW 9.0.7-1.fc43) date 2026-01-31 17:59:12*
%MOMM*%
%LPD*%
G01*
G04 APERTURE LIST*
G04 Aperture macros list*
%AMFreePoly0*
4,1,17,0.675000,0.300000,0.260846,0.300000,0.317341,0.243505,0.369552,0.153073,0.396578,0.052210,0.396578,-0.052210,0.369552,-0.153073,0.317341,-0.243505,0.243505,-0.317341,0.153073,-0.369552,0.052210,-0.396578,0.000000,-0.396578,0.000000,-0.400000,-0.475000,-0.400000,-0.475000,0.950000,0.675000,0.950000,0.675000,0.300000,0.675000,0.300000,$1*%
%AMFreePoly1*
4,1,17,0.475000,-0.400000,0.000000,-0.400000,0.000000,-0.396578,-0.052210,-0.396578,-0.153073,-0.369552,-0.243505,-0.317341,-0.317341,-0.243505,-0.369552,-0.153073,-0.396578,-0.052210,-0.396578,0.052210,-0.369552,0.153073,-0.317341,0.243505,-0.260846,0.300000,-0.675000,0.300000,-0.675000,0.950000,0.475000,0.950000,0.475000,-0.400000,0.475000,-0.400000,$1*%
G04 Aperture macros list end*
%TA.AperFunction,ComponentPad*%
%ADD10R,1.000000X1.000000*%
%TD*%
%TA.AperFunction,ComponentPad*%
%ADD11C,1.000000*%
%TD*%
%TA.AperFunction,ComponentPad*%
%ADD12FreePoly0,255.000000*%
%TD*%
%TA.AperFunction,ComponentPad*%
%ADD13FreePoly1,255.000000*%
%TD*%
%TA.AperFunction,ComponentPad*%
%ADD14O,1.100000X1.600000*%
%TD*%
%TA.AperFunction,ComponentPad*%
%ADD15FreePoly0,285.000000*%
%TD*%
%TA.AperFunction,ComponentPad*%
%ADD16FreePoly1,285.000000*%
%TD*%
%TA.AperFunction,ViaPad*%
%ADD17C,0.450000*%
%TD*%
G04 APERTURE END LIST*
D10*
%TO.N,/Power/VBAT*%
%TO.C,BT1*%
X144400000Y-85232500D03*
D11*
%TO.N,GND*%
X143130000Y-85232500D03*
%TD*%
D12*
%TO.N,N/C*%
%TO.C,SW2*%
X167762715Y-102869713D03*
D13*
X166818026Y-106395342D03*
%TD*%
D14*
%TO.N,GND*%
%TO.C,J1*%
X137200000Y-97450000D03*
X137200000Y-102550000D03*
%TD*%
D15*
%TO.N,N/C*%
%TO.C,SW1*%
X166818026Y-93604658D03*
D16*
X167762715Y-97130287D03*
%TD*%
D17*
%TO.N,/USB_D_P*%
X139400000Y-99348400D03*
%TO.N,/USB_D_N*%
X139400000Y-100001600D03*
%TO.N,/SoC/NRST*%
X150250000Y-112750000D03*
X137400000Y-108800000D03*
%TO.N,/Sensors/ACC_INT*%
X145150000Y-109450000D03*
X153750000Y-94350000D03*
%TO.N,/Power/~{BAT_ALRT}*%
X153100000Y-85700000D03*
X145600000Y-108950000D03*
%TO.N,/Power/BAT_ERR*%
X145550000Y-107950000D03*
X141500000Y-87000000D03*
%TO.N,/Power/BAT_CHG*%
X142500000Y-87000000D03*
X145150000Y-108450000D03*
%TO.N,/BTN1*%
X164800000Y-102900000D03*
X153100000Y-112800000D03*
%TO.N,/BTN0*%
X164002500Y-95600000D03*
X152250000Y-112800000D03*
%TO.N,/SDA*%
X154400000Y-90200000D03*
X145150000Y-110450000D03*
X153500000Y-98200000D03*
X152250000Y-91750000D03*
%TO.N,/SCL*%
X145600000Y-109950000D03*
X153750000Y-88000000D03*
X153000000Y-98800000D03*
%TO.N,/USB_D_P*%
X144186736Y-105100000D03*
%TO.N,/USB_D_N*%
X143500000Y-104900000D03*
%TO.N,/Power/VSYS*%
X138800000Y-90800000D03*
X144700000Y-90800000D03*
X142000000Y-87600000D03*
X145000000Y-91300000D03*
X144700000Y-89800000D03*
%TO.N,VDD*%
X143850000Y-107850000D03*
X151200000Y-93800000D03*
X146700000Y-102700000D03*
X137400000Y-107500000D03*
X155300000Y-90300000D03*
X146400000Y-88000000D03*
X158000000Y-107600000D03*
X152350000Y-115952500D03*
X163300000Y-108500000D03*
X153500000Y-99400000D03*
X154600000Y-104200000D03*
X157500000Y-99000000D03*
X162800000Y-93300000D03*
X146400000Y-93700000D03*
X141800000Y-109950000D03*
X157700000Y-92800000D03*
X144800000Y-113300000D03*
X155100000Y-102500000D03*
X158000000Y-104900000D03*
%TO.N,GND*%
X158200000Y-99000000D03*
X154700000Y-111100000D03*
X150600000Y-107600000D03*
X165900000Y-107000000D03*
X142200000Y-96700000D03*
X146700000Y-117300000D03*
X143000000Y-87600000D03*
X142400000Y-107100000D03*
X139000000Y-101300000D03*
X142250000Y-91000000D03*
X151400000Y-86000000D03*
X137400000Y-110100000D03*
X144400000Y-93300000D03*
X154600000Y-113600000D03*
X158000000Y-106100000D03*
X141250000Y-91000000D03*
X149400000Y-107600000D03*
X141250000Y-90000000D03*
X143600000Y-113300000D03*
X153200000Y-84900000D03*
X148900000Y-83400000D03*
X150200000Y-92700000D03*
X137000000Y-94700000D03*
X142250000Y-90000000D03*
X156600000Y-89500000D03*
X147000000Y-98600000D03*
X157500000Y-102400000D03*
X160000000Y-91500000D03*
X145000000Y-89000000D03*
X153200000Y-103600000D03*
X149400000Y-108800000D03*
X146200000Y-101600000D03*
X149900000Y-115900000D03*
X158000000Y-108800000D03*
X150600000Y-108800000D03*
X166400000Y-98500000D03*
X152500000Y-90600000D03*
X155200000Y-101100000D03*
X140500000Y-93400000D03*
%TO.N,/Power/VBAT*%
X138400000Y-90300000D03*
%TD*%
%TA.AperFunction,Conductor*%
%TO.N,VDD*%
G36*
X150481649Y-80830856D02*
G01*
X150487207Y-80830998D01*
X151352182Y-80872543D01*
X151357765Y-80872938D01*
X152219948Y-80953745D01*
X152225525Y-80954395D01*
X153083149Y-81074297D01*
X153088680Y-81075199D01*
X153939975Y-81233950D01*
X153945463Y-81235104D01*
X154788664Y-81432374D01*
X154794088Y-81433774D01*
X155627420Y-81669148D01*
X155632780Y-81670793D01*
X156454600Y-81943805D01*
X156459880Y-81945694D01*
X157172831Y-82219102D01*
X157268430Y-82255763D01*
X157273639Y-82257898D01*
X158067237Y-82604376D01*
X158072320Y-82606735D01*
X158456674Y-82795779D01*
X158849359Y-82988921D01*
X158854358Y-82991522D01*
X159613233Y-83408624D01*
X159618109Y-83411450D01*
X160296451Y-83825499D01*
X160357238Y-83862602D01*
X160361971Y-83865641D01*
X160898661Y-84227692D01*
X161079822Y-84349903D01*
X161084422Y-84353160D01*
X161779543Y-84869556D01*
X161783990Y-84873019D01*
X162137257Y-85161265D01*
X162379876Y-85359229D01*
X162454927Y-85420466D01*
X162459206Y-85424123D01*
X162744147Y-85679042D01*
X163104563Y-86001485D01*
X163108677Y-86005337D01*
X163689449Y-86574500D01*
X163727142Y-86611439D01*
X163731076Y-86615475D01*
X164321341Y-87249035D01*
X164325089Y-87253244D01*
X164885976Y-87912995D01*
X164889528Y-87917371D01*
X165419853Y-88601924D01*
X165423202Y-88606457D01*
X165921865Y-89314392D01*
X165925005Y-89319073D01*
X166390969Y-90048914D01*
X166393894Y-90053732D01*
X166826237Y-90804036D01*
X166828939Y-90808982D01*
X167226736Y-91578150D01*
X167229210Y-91583214D01*
X167591624Y-92369619D01*
X167593866Y-92374790D01*
X167657761Y-92531844D01*
X167664791Y-92601359D01*
X167633123Y-92663639D01*
X167572810Y-92698911D01*
X167561389Y-92701186D01*
X167559535Y-92701465D01*
X166931677Y-92869700D01*
X166255522Y-93050875D01*
X166255520Y-93050876D01*
X166212692Y-93067685D01*
X166212690Y-93067686D01*
X166143373Y-93127339D01*
X166143371Y-93127341D01*
X166106799Y-93211166D01*
X166106799Y-93211167D01*
X166110218Y-93302552D01*
X166110219Y-93302558D01*
X166219528Y-93710506D01*
X166246786Y-93812237D01*
X166267315Y-93861798D01*
X166267320Y-93861808D01*
X166319979Y-93953016D01*
X166352635Y-93995573D01*
X166427110Y-94070048D01*
X166451465Y-94088737D01*
X166469670Y-94102706D01*
X166560882Y-94155367D01*
X166610445Y-94175897D01*
X166712178Y-94203156D01*
X166755859Y-94208906D01*
X166765364Y-94210158D01*
X166765365Y-94210158D01*
X166870688Y-94210158D01*
X166877402Y-94209274D01*
X166923874Y-94203156D01*
X166923881Y-94203154D01*
X166923882Y-94203154D01*
X166951418Y-94195776D01*
X167021268Y-94197437D01*
X167079131Y-94236599D01*
X167098940Y-94270245D01*
X167100819Y-94275034D01*
X167100820Y-94275036D01*
X167160475Y-94344355D01*
X167160477Y-94344357D01*
X167244302Y-94380929D01*
X167244303Y-94380929D01*
X167257358Y-94380440D01*
X167335694Y-94377510D01*
X167963545Y-94209278D01*
X168006382Y-94192466D01*
X168071917Y-94136067D01*
X168135570Y-94107259D01*
X168204695Y-94117437D01*
X168257343Y-94163371D01*
X168271427Y-94193948D01*
X168368917Y-94514239D01*
X168465645Y-94832028D01*
X168467163Y-94837455D01*
X168681410Y-95676470D01*
X168682680Y-95681962D01*
X168727309Y-95897086D01*
X168721652Y-95966726D01*
X168679244Y-96022253D01*
X168613547Y-96046038D01*
X168556309Y-96035928D01*
X168543847Y-96030491D01*
X168452460Y-96033910D01*
X168452456Y-96033910D01*
X168452455Y-96033911D01*
X168070016Y-96136385D01*
X167824595Y-96202145D01*
X167824593Y-96202146D01*
X167781765Y-96218955D01*
X167781763Y-96218956D01*
X167712446Y-96278609D01*
X167712444Y-96278611D01*
X167675872Y-96362436D01*
X167675872Y-96362437D01*
X167678259Y-96426249D01*
X167661094Y-96493978D01*
X167610037Y-96541674D01*
X167586443Y-96550658D01*
X167555135Y-96559047D01*
X167505574Y-96579576D01*
X167505564Y-96579581D01*
X167414356Y-96632240D01*
X167371799Y-96664896D01*
X167297324Y-96739371D01*
X167264668Y-96781928D01*
X167212009Y-96873136D01*
X167212004Y-96873146D01*
X167191476Y-96922705D01*
X167164217Y-97024436D01*
X167162104Y-97040486D01*
X167157215Y-97077626D01*
X167157215Y-97182948D01*
X167164217Y-97236136D01*
X167177847Y-97287003D01*
X167299437Y-97740783D01*
X167300788Y-97745823D01*
X167300789Y-97745825D01*
X167317598Y-97788653D01*
X167317599Y-97788655D01*
X167377252Y-97857972D01*
X167377254Y-97857974D01*
X167461079Y-97894546D01*
X167461080Y-97894546D01*
X167474135Y-97894057D01*
X167552471Y-97891127D01*
X168228619Y-97709954D01*
X168856471Y-97541722D01*
X168857210Y-97541432D01*
X168857404Y-97541414D01*
X168859787Y-97540631D01*
X168859969Y-97541187D01*
X168926806Y-97535257D01*
X168988693Y-97567689D01*
X169023221Y-97628431D01*
X169025723Y-97642795D01*
X169095745Y-98256301D01*
X169096257Y-98261914D01*
X169155256Y-99125844D01*
X169155512Y-99131474D01*
X169175191Y-99997182D01*
X169175191Y-100002818D01*
X169155512Y-100868525D01*
X169155256Y-100874155D01*
X169096257Y-101738085D01*
X169095745Y-101743698D01*
X169025723Y-102357205D01*
X168998563Y-102421580D01*
X168940912Y-102461052D01*
X168871072Y-102463089D01*
X168857226Y-102458574D01*
X168856479Y-102458281D01*
X168856474Y-102458279D01*
X168856471Y-102458278D01*
X168228619Y-102290046D01*
X168228616Y-102290045D01*
X167552462Y-102108870D01*
X167506967Y-102102014D01*
X167506966Y-102102014D01*
X167417105Y-102119016D01*
X167343520Y-102173326D01*
X167315638Y-102226082D01*
X167300786Y-102254183D01*
X167191476Y-102662131D01*
X167191476Y-102662132D01*
X167191476Y-102662133D01*
X167164217Y-102763862D01*
X167157215Y-102817051D01*
X167157215Y-102922374D01*
X167164217Y-102975563D01*
X167191476Y-103077294D01*
X167212004Y-103126853D01*
X167212009Y-103126863D01*
X167264668Y-103218071D01*
X167297324Y-103260628D01*
X167297325Y-103260629D01*
X167371799Y-103335103D01*
X167414359Y-103367761D01*
X167505571Y-103420422D01*
X167555134Y-103440952D01*
X167582678Y-103448332D01*
X167642338Y-103484696D01*
X167672868Y-103547543D01*
X167673201Y-103586583D01*
X167672433Y-103591676D01*
X167689435Y-103681533D01*
X167689438Y-103681540D01*
X167743743Y-103755121D01*
X167743745Y-103755123D01*
X167824595Y-103797853D01*
X167824603Y-103797857D01*
X168452455Y-103966089D01*
X168452463Y-103966090D01*
X168452466Y-103966091D01*
X168497957Y-103972947D01*
X168497957Y-103972946D01*
X168497958Y-103972947D01*
X168582627Y-103956927D01*
X168615222Y-103960151D01*
X168647889Y-103962171D01*
X168649796Y-103963570D01*
X168652155Y-103963804D01*
X168677836Y-103984142D01*
X168704224Y-104003501D01*
X168705072Y-104005710D01*
X168706929Y-104007181D01*
X168717533Y-104038160D01*
X168729271Y-104068726D01*
X168729076Y-104071879D01*
X168729557Y-104073285D01*
X168727093Y-104103953D01*
X168682680Y-104318037D01*
X168681410Y-104323529D01*
X168467163Y-105162544D01*
X168465645Y-105167971D01*
X168271089Y-105807162D01*
X168232736Y-105865565D01*
X168168897Y-105893961D01*
X168099840Y-105883335D01*
X168052693Y-105844690D01*
X168044403Y-105833457D01*
X168044400Y-105833455D01*
X167963552Y-105790725D01*
X167963548Y-105790723D01*
X167963545Y-105790722D01*
X167335694Y-105622490D01*
X167335692Y-105622489D01*
X167335682Y-105622487D01*
X167290190Y-105615631D01*
X167200330Y-105632633D01*
X167126744Y-105686942D01*
X167096904Y-105743401D01*
X167048174Y-105793472D01*
X166980109Y-105809250D01*
X166955183Y-105805232D01*
X166923880Y-105796845D01*
X166923875Y-105796844D01*
X166923874Y-105796844D01*
X166891178Y-105792539D01*
X166870688Y-105789842D01*
X166870687Y-105789842D01*
X166765365Y-105789842D01*
X166765364Y-105789842D01*
X166712175Y-105796844D01*
X166610444Y-105824103D01*
X166560885Y-105844631D01*
X166560875Y-105844636D01*
X166469667Y-105897295D01*
X166427110Y-105929951D01*
X166352635Y-106004426D01*
X166319979Y-106046983D01*
X166267320Y-106138191D01*
X166267315Y-106138202D01*
X166246790Y-106187753D01*
X166246784Y-106187771D01*
X166233157Y-106238626D01*
X166233158Y-106238627D01*
X166162717Y-106501511D01*
X166126351Y-106561171D01*
X166063504Y-106591700D01*
X166010849Y-106589192D01*
X165956018Y-106574500D01*
X165843982Y-106574500D01*
X165735763Y-106603497D01*
X165735760Y-106603498D01*
X165638740Y-106659513D01*
X165638734Y-106659517D01*
X165559517Y-106738734D01*
X165559513Y-106738740D01*
X165503498Y-106835760D01*
X165503497Y-106835763D01*
X165474500Y-106943982D01*
X165474500Y-107056018D01*
X165503497Y-107164237D01*
X165559515Y-107261263D01*
X165638737Y-107340485D01*
X165735763Y-107396503D01*
X165843982Y-107425500D01*
X165843984Y-107425500D01*
X165956016Y-107425500D01*
X165956018Y-107425500D01*
X166064237Y-107396503D01*
X166161263Y-107340485D01*
X166240485Y-107261263D01*
X166296503Y-107164237D01*
X166315442Y-107093551D01*
X166351805Y-107033894D01*
X166414651Y-107003364D01*
X166467306Y-107005871D01*
X166931677Y-107130299D01*
X166931677Y-107130300D01*
X167559528Y-107298533D01*
X167561363Y-107298809D01*
X167561780Y-107299003D01*
X167562943Y-107299246D01*
X167562886Y-107299517D01*
X167582680Y-107308716D01*
X167605500Y-107314387D01*
X167613779Y-107323168D01*
X167624724Y-107328254D01*
X167637304Y-107348117D01*
X167653433Y-107365223D01*
X167655650Y-107377085D01*
X167662108Y-107387281D01*
X167661952Y-107410791D01*
X167666273Y-107433903D01*
X167661676Y-107452399D01*
X167661645Y-107457149D01*
X167657761Y-107468155D01*
X167593867Y-107625209D01*
X167591624Y-107630380D01*
X167229210Y-108416785D01*
X167226736Y-108421849D01*
X166828939Y-109191017D01*
X166826237Y-109195963D01*
X166393894Y-109946267D01*
X166390969Y-109951085D01*
X165925005Y-110680926D01*
X165921865Y-110685607D01*
X165423202Y-111393542D01*
X165419853Y-111398075D01*
X164889528Y-112082628D01*
X164885976Y-112087004D01*
X164325089Y-112746755D01*
X164321341Y-112750964D01*
X163731076Y-113384524D01*
X163727142Y-113388560D01*
X163108677Y-113994662D01*
X163104563Y-113998514D01*
X162459212Y-114575871D01*
X162454927Y-114579533D01*
X161783990Y-115126980D01*
X161779543Y-115130443D01*
X161084422Y-115646839D01*
X161079822Y-115650096D01*
X160361980Y-116134352D01*
X160357238Y-116137397D01*
X159618110Y-116588548D01*
X159613233Y-116591375D01*
X158854358Y-117008477D01*
X158849359Y-117011078D01*
X158072335Y-117393257D01*
X158067222Y-117395629D01*
X157273645Y-117742098D01*
X157268430Y-117744236D01*
X156459894Y-118054300D01*
X156454587Y-118056198D01*
X155632794Y-118329201D01*
X155627406Y-118330855D01*
X154794110Y-118566219D01*
X154788652Y-118567628D01*
X153945472Y-118764893D01*
X153939957Y-118766052D01*
X153088696Y-118924797D01*
X153083133Y-118925704D01*
X152225535Y-119045602D01*
X152219937Y-119046255D01*
X151357784Y-119127059D01*
X151352162Y-119127457D01*
X150487246Y-119169000D01*
X150481611Y-119169143D01*
X149615662Y-119171339D01*
X149610028Y-119171225D01*
X148744891Y-119134071D01*
X148739267Y-119133701D01*
X147876719Y-119057273D01*
X147871117Y-119056648D01*
X147012923Y-118941102D01*
X147007356Y-118940223D01*
X146155308Y-118785801D01*
X146149786Y-118784670D01*
X145305642Y-118591691D01*
X145300178Y-118590311D01*
X144465643Y-118359163D01*
X144460247Y-118357535D01*
X143637112Y-118088716D01*
X143631795Y-118086845D01*
X142821722Y-117780897D01*
X142816496Y-117778787D01*
X142021134Y-117436332D01*
X142016010Y-117433986D01*
X141837691Y-117347401D01*
X141624703Y-117243982D01*
X146274500Y-117243982D01*
X146274500Y-117356018D01*
X146303497Y-117464237D01*
X146359515Y-117561263D01*
X146438737Y-117640485D01*
X146535763Y-117696503D01*
X146643982Y-117725500D01*
X146643984Y-117725500D01*
X146756016Y-117725500D01*
X146756018Y-117725500D01*
X146864237Y-117696503D01*
X146961263Y-117640485D01*
X147040485Y-117561263D01*
X147096503Y-117464237D01*
X147125500Y-117356018D01*
X147125500Y-117243982D01*
X147096503Y-117135763D01*
X147040485Y-117038737D01*
X146961263Y-116959515D01*
X146864237Y-116903497D01*
X146756018Y-116874500D01*
X146643982Y-116874500D01*
X146535763Y-116903497D01*
X146535760Y-116903498D01*
X146438740Y-116959513D01*
X146438734Y-116959517D01*
X146359517Y-117038734D01*
X146359513Y-117038740D01*
X146303498Y-117135760D01*
X146303497Y-117135763D01*
X146274500Y-117243982D01*
X141624703Y-117243982D01*
X141237047Y-117055751D01*
X141232034Y-117053174D01*
X140471087Y-116639946D01*
X140466196Y-116637145D01*
X139949748Y-116325500D01*
X139724766Y-116189736D01*
X139720028Y-116186728D01*
X139206353Y-115843982D01*
X149474500Y-115843982D01*
X149474500Y-115956018D01*
X149503497Y-116064237D01*
X149559515Y-116161263D01*
X149638737Y-116240485D01*
X149735763Y-116296503D01*
X149843982Y-116325500D01*
X149843984Y-116325500D01*
X149956016Y-116325500D01*
X149956018Y-116325500D01*
X150064237Y-116296503D01*
X150161263Y-116240485D01*
X150240485Y-116161263D01*
X150296503Y-116064237D01*
X150325500Y-115956018D01*
X150325500Y-115843982D01*
X150296503Y-115735763D01*
X150240485Y-115638737D01*
X150161263Y-115559515D01*
X150064237Y-115503497D01*
X149956018Y-115474500D01*
X149843982Y-115474500D01*
X149735763Y-115503497D01*
X149735760Y-115503498D01*
X149638740Y-115559513D01*
X149638734Y-115559517D01*
X149559517Y-115638734D01*
X149559513Y-115638740D01*
X149503498Y-115735760D01*
X149503497Y-115735763D01*
X149474500Y-115843982D01*
X139206353Y-115843982D01*
X138999713Y-115706103D01*
X138995097Y-115702869D01*
X138918870Y-115646839D01*
X138297345Y-115189993D01*
X138292913Y-115186576D01*
X137619221Y-114642551D01*
X137614922Y-114638916D01*
X136966613Y-114064809D01*
X136962480Y-114060977D01*
X136656597Y-113764236D01*
X136340957Y-113458030D01*
X136337026Y-113454039D01*
X136139323Y-113243982D01*
X143174500Y-113243982D01*
X143174500Y-113356018D01*
X143203497Y-113464237D01*
X143259515Y-113561263D01*
X143338737Y-113640485D01*
X143435763Y-113696503D01*
X143543982Y-113725500D01*
X143543984Y-113725500D01*
X143656016Y-113725500D01*
X143656018Y-113725500D01*
X143764237Y-113696503D01*
X143861263Y-113640485D01*
X143940485Y-113561263D01*
X143950462Y-113543982D01*
X154174500Y-113543982D01*
X154174500Y-113656018D01*
X154203497Y-113764237D01*
X154259515Y-113861263D01*
X154338737Y-113940485D01*
X154435763Y-113996503D01*
X154543982Y-114025500D01*
X154543984Y-114025500D01*
X154656016Y-114025500D01*
X154656018Y-114025500D01*
X154764237Y-113996503D01*
X154861263Y-113940485D01*
X154940485Y-113861263D01*
X154996503Y-113764237D01*
X155025500Y-113656018D01*
X155025500Y-113543982D01*
X154996503Y-113435763D01*
X154940485Y-113338737D01*
X154861263Y-113259515D01*
X154764237Y-113203497D01*
X154656018Y-113174500D01*
X154543982Y-113174500D01*
X154435763Y-113203497D01*
X154435760Y-113203498D01*
X154338740Y-113259513D01*
X154338734Y-113259517D01*
X154259517Y-113338734D01*
X154259513Y-113338740D01*
X154203498Y-113435760D01*
X154203497Y-113435763D01*
X154174500Y-113543982D01*
X143950462Y-113543982D01*
X143996503Y-113464237D01*
X144025500Y-113356018D01*
X144025500Y-113243982D01*
X143996503Y-113135763D01*
X143940485Y-113038737D01*
X143861263Y-112959515D01*
X143782839Y-112914237D01*
X143764239Y-112903498D01*
X143764238Y-112903497D01*
X143764237Y-112903497D01*
X143656018Y-112874500D01*
X143543982Y-112874500D01*
X143435763Y-112903497D01*
X143435760Y-112903498D01*
X143338740Y-112959513D01*
X143338734Y-112959517D01*
X143259517Y-113038734D01*
X143259513Y-113038740D01*
X143203498Y-113135760D01*
X143203497Y-113135763D01*
X143174500Y-113243982D01*
X136139323Y-113243982D01*
X135743531Y-112823459D01*
X135739763Y-112819269D01*
X135728381Y-112806018D01*
X135632151Y-112693982D01*
X149824500Y-112693982D01*
X149824500Y-112806018D01*
X149853497Y-112914237D01*
X149909515Y-113011263D01*
X149988737Y-113090485D01*
X150085763Y-113146503D01*
X150193982Y-113175500D01*
X150193984Y-113175500D01*
X150306016Y-113175500D01*
X150306018Y-113175500D01*
X150414237Y-113146503D01*
X150511263Y-113090485D01*
X150590485Y-113011263D01*
X150646503Y-112914237D01*
X150675500Y-112806018D01*
X150675500Y-112743982D01*
X151824500Y-112743982D01*
X151824500Y-112856018D01*
X151853497Y-112964237D01*
X151909515Y-113061263D01*
X151988737Y-113140485D01*
X152085763Y-113196503D01*
X152193982Y-113225500D01*
X152193984Y-113225500D01*
X152306016Y-113225500D01*
X152306018Y-113225500D01*
X152414237Y-113196503D01*
X152511263Y-113140485D01*
X152587319Y-113064429D01*
X152648642Y-113030944D01*
X152718334Y-113035928D01*
X152762681Y-113064429D01*
X152838737Y-113140485D01*
X152935763Y-113196503D01*
X153043982Y-113225500D01*
X153043984Y-113225500D01*
X153156016Y-113225500D01*
X153156018Y-113225500D01*
X153264237Y-113196503D01*
X153361263Y-113140485D01*
X153440485Y-113061263D01*
X153496503Y-112964237D01*
X153525500Y-112856018D01*
X153525500Y-112743982D01*
X153496503Y-112635763D01*
X153440485Y-112538737D01*
X153361263Y-112459515D01*
X153274664Y-112409517D01*
X153264239Y-112403498D01*
X153264238Y-112403497D01*
X153264237Y-112403497D01*
X153156018Y-112374500D01*
X153043982Y-112374500D01*
X152935763Y-112403497D01*
X152935760Y-112403498D01*
X152838740Y-112459513D01*
X152838734Y-112459517D01*
X152762681Y-112535571D01*
X152701358Y-112569056D01*
X152631666Y-112564072D01*
X152587319Y-112535571D01*
X152511265Y-112459517D01*
X152511263Y-112459515D01*
X152424664Y-112409517D01*
X152414239Y-112403498D01*
X152414238Y-112403497D01*
X152414237Y-112403497D01*
X152306018Y-112374500D01*
X152193982Y-112374500D01*
X152085763Y-112403497D01*
X152085760Y-112403498D01*
X151988740Y-112459513D01*
X151988734Y-112459517D01*
X151909517Y-112538734D01*
X151909513Y-112538740D01*
X151853498Y-112635760D01*
X151853497Y-112635763D01*
X151824500Y-112743982D01*
X150675500Y-112743982D01*
X150675500Y-112693982D01*
X150646503Y-112585763D01*
X150590485Y-112488737D01*
X150511263Y-112409515D01*
X150414237Y-112353497D01*
X150306018Y-112324500D01*
X150193982Y-112324500D01*
X150085763Y-112353497D01*
X150085760Y-112353498D01*
X149988740Y-112409513D01*
X149988734Y-112409517D01*
X149909517Y-112488734D01*
X149909513Y-112488740D01*
X149853498Y-112585760D01*
X149853497Y-112585763D01*
X149824500Y-112693982D01*
X135632151Y-112693982D01*
X135175536Y-112162370D01*
X135171964Y-112158015D01*
X134808136Y-111693269D01*
X134638185Y-111476177D01*
X134634814Y-111471663D01*
X134582419Y-111398075D01*
X134132547Y-110766241D01*
X134129392Y-110761588D01*
X133666096Y-110043982D01*
X136974500Y-110043982D01*
X136974500Y-110156018D01*
X137003497Y-110264237D01*
X137059515Y-110361263D01*
X137138737Y-110440485D01*
X137235763Y-110496503D01*
X137343982Y-110525500D01*
X137343984Y-110525500D01*
X137451806Y-110525500D01*
X137518845Y-110545185D01*
X137564600Y-110597989D01*
X137574544Y-110667147D01*
X137545519Y-110730703D01*
X137520698Y-110752601D01*
X137508582Y-110760696D01*
X137508576Y-110760701D01*
X137404701Y-110864576D01*
X137404698Y-110864580D01*
X137323083Y-110986724D01*
X137323078Y-110986733D01*
X137266861Y-111122455D01*
X137266858Y-111122465D01*
X137238200Y-111266540D01*
X137238200Y-111413459D01*
X137266858Y-111557534D01*
X137266861Y-111557544D01*
X137323078Y-111693266D01*
X137323083Y-111693275D01*
X137404698Y-111815419D01*
X137404701Y-111815423D01*
X137508576Y-111919298D01*
X137508580Y-111919301D01*
X137630724Y-112000916D01*
X137630730Y-112000919D01*
X137630731Y-112000920D01*
X137766458Y-112057140D01*
X137894598Y-112082628D01*
X137910540Y-112085799D01*
X137910544Y-112085800D01*
X137910545Y-112085800D01*
X138057456Y-112085800D01*
X138057457Y-112085799D01*
X138201542Y-112057140D01*
X138337269Y-112000920D01*
X138459420Y-111919301D01*
X138563301Y-111815420D01*
X138644920Y-111693269D01*
X138701140Y-111557542D01*
X138729800Y-111413455D01*
X138729800Y-111266545D01*
X138729799Y-111266540D01*
X139270200Y-111266540D01*
X139270200Y-111413459D01*
X139298858Y-111557534D01*
X139298861Y-111557544D01*
X139355078Y-111693266D01*
X139355083Y-111693275D01*
X139436698Y-111815419D01*
X139436701Y-111815423D01*
X139540576Y-111919298D01*
X139540580Y-111919301D01*
X139662724Y-112000916D01*
X139662730Y-112000919D01*
X139662731Y-112000920D01*
X139798458Y-112057140D01*
X139926598Y-112082628D01*
X139942540Y-112085799D01*
X139942544Y-112085800D01*
X139942545Y-112085800D01*
X140089456Y-112085800D01*
X140089457Y-112085799D01*
X140233542Y-112057140D01*
X140369269Y-112000920D01*
X140491420Y-111919301D01*
X140595301Y-111815420D01*
X140676920Y-111693269D01*
X140733140Y-111557542D01*
X140761800Y-111413455D01*
X140761800Y-111266545D01*
X140733140Y-111122458D01*
X140700634Y-111043982D01*
X154274500Y-111043982D01*
X154274500Y-111156018D01*
X154277120Y-111165794D01*
X154303497Y-111264236D01*
X154303498Y-111264239D01*
X154322169Y-111296579D01*
X154359515Y-111361263D01*
X154438737Y-111440485D01*
X154535763Y-111496503D01*
X154643982Y-111525500D01*
X154643984Y-111525500D01*
X154756016Y-111525500D01*
X154756018Y-111525500D01*
X154864237Y-111496503D01*
X154961263Y-111440485D01*
X155040485Y-111361263D01*
X155096503Y-111264237D01*
X155125500Y-111156018D01*
X155125500Y-111043982D01*
X155096503Y-110935763D01*
X155040485Y-110838737D01*
X154961263Y-110759515D01*
X154864237Y-110703497D01*
X154756018Y-110674500D01*
X154643982Y-110674500D01*
X154535763Y-110703497D01*
X154535760Y-110703498D01*
X154438740Y-110759513D01*
X154438734Y-110759517D01*
X154359517Y-110838734D01*
X154359513Y-110838740D01*
X154303498Y-110935760D01*
X154303497Y-110935763D01*
X154274500Y-111043982D01*
X140700634Y-111043982D01*
X140693868Y-111027647D01*
X140676923Y-110986737D01*
X140676916Y-110986724D01*
X140595301Y-110864580D01*
X140595298Y-110864576D01*
X140491423Y-110760701D01*
X140491419Y-110760698D01*
X140369275Y-110679083D01*
X140369266Y-110679078D01*
X140233544Y-110622861D01*
X140233545Y-110622861D01*
X140233542Y-110622860D01*
X140233538Y-110622859D01*
X140233534Y-110622858D01*
X140089459Y-110594200D01*
X140089455Y-110594200D01*
X139942545Y-110594200D01*
X139942540Y-110594200D01*
X139798465Y-110622858D01*
X139798455Y-110622861D01*
X139662733Y-110679078D01*
X139662724Y-110679083D01*
X139540580Y-110760698D01*
X139540576Y-110760701D01*
X139436701Y-110864576D01*
X139436698Y-110864580D01*
X139355083Y-110986724D01*
X139355078Y-110986733D01*
X139298861Y-111122455D01*
X139298858Y-111122465D01*
X139270200Y-111266540D01*
X138729799Y-111266540D01*
X138701140Y-111122458D01*
X138655304Y-111011800D01*
X138644921Y-110986733D01*
X138644916Y-110986724D01*
X138563301Y-110864580D01*
X138563298Y-110864576D01*
X138459423Y-110760701D01*
X138459419Y-110760698D01*
X138337275Y-110679083D01*
X138337266Y-110679078D01*
X138201544Y-110622861D01*
X138201545Y-110622861D01*
X138201542Y-110622860D01*
X138201538Y-110622859D01*
X138201534Y-110622858D01*
X138057459Y-110594200D01*
X138057455Y-110594200D01*
X137910545Y-110594200D01*
X137891496Y-110597989D01*
X137808400Y-110614517D01*
X137738808Y-110608288D01*
X137683632Y-110565425D01*
X137660388Y-110499535D01*
X137676457Y-110431538D01*
X137696526Y-110405221D01*
X137740485Y-110361263D01*
X137796503Y-110264237D01*
X137825500Y-110156018D01*
X137825500Y-110043982D01*
X137796503Y-109935763D01*
X137740485Y-109838737D01*
X137661263Y-109759515D01*
X137564237Y-109703497D01*
X137456018Y-109674500D01*
X137343982Y-109674500D01*
X137235763Y-109703497D01*
X137235760Y-109703498D01*
X137138740Y-109759513D01*
X137138734Y-109759517D01*
X137059517Y-109838734D01*
X137059513Y-109838740D01*
X137003498Y-109935760D01*
X137003497Y-109935763D01*
X136974500Y-110043982D01*
X133666096Y-110043982D01*
X133659693Y-110034064D01*
X133656777Y-110029311D01*
X133267376Y-109361385D01*
X133250500Y-109298932D01*
X133250500Y-108743982D01*
X136974500Y-108743982D01*
X136974500Y-108856018D01*
X137003497Y-108964237D01*
X137059515Y-109061263D01*
X137138737Y-109140485D01*
X137235763Y-109196503D01*
X137343982Y-109225500D01*
X137343984Y-109225500D01*
X137456016Y-109225500D01*
X137456018Y-109225500D01*
X137564237Y-109196503D01*
X137661263Y-109140485D01*
X137740485Y-109061263D01*
X137796503Y-108964237D01*
X137825500Y-108856018D01*
X137825500Y-108743982D01*
X137796503Y-108635763D01*
X137740485Y-108538737D01*
X137661263Y-108459515D01*
X137591713Y-108419360D01*
X137564239Y-108403498D01*
X137564238Y-108403497D01*
X137564237Y-108403497D01*
X137528726Y-108393982D01*
X144724500Y-108393982D01*
X144724500Y-108506018D01*
X144753497Y-108614237D01*
X144809515Y-108711263D01*
X144888737Y-108790485D01*
X144960654Y-108832006D01*
X144979025Y-108842613D01*
X145027241Y-108893180D01*
X145040463Y-108961787D01*
X145014495Y-109026652D01*
X144979025Y-109057387D01*
X144888740Y-109109513D01*
X144888734Y-109109517D01*
X144809517Y-109188734D01*
X144809513Y-109188740D01*
X144753498Y-109285760D01*
X144753497Y-109285763D01*
X144724500Y-109393982D01*
X144724500Y-109506018D01*
X144753497Y-109614237D01*
X144809515Y-109711263D01*
X144888737Y-109790485D01*
X144960654Y-109832006D01*
X144979025Y-109842613D01*
X145027241Y-109893180D01*
X145040463Y-109961787D01*
X145014495Y-110026652D01*
X144979025Y-110057387D01*
X144888740Y-110109513D01*
X144888734Y-110109517D01*
X144809517Y-110188734D01*
X144809513Y-110188740D01*
X144753498Y-110285760D01*
X144753497Y-110285763D01*
X144724500Y-110393982D01*
X144724500Y-110506018D01*
X144753497Y-110614237D01*
X144809515Y-110711263D01*
X144888737Y-110790485D01*
X144985763Y-110846503D01*
X145093982Y-110875500D01*
X145093984Y-110875500D01*
X145206016Y-110875500D01*
X145206018Y-110875500D01*
X145314237Y-110846503D01*
X145411263Y-110790485D01*
X145490485Y-110711263D01*
X145546503Y-110614237D01*
X145575500Y-110506018D01*
X145575500Y-110492222D01*
X145595185Y-110425183D01*
X145647989Y-110379428D01*
X145667396Y-110372451D01*
X145764237Y-110346503D01*
X145861263Y-110290485D01*
X145940485Y-110211263D01*
X145996503Y-110114237D01*
X146025500Y-110006018D01*
X146025500Y-109893982D01*
X145996503Y-109785763D01*
X145940485Y-109688737D01*
X145861263Y-109609515D01*
X145770973Y-109557386D01*
X145722759Y-109506820D01*
X145709535Y-109438213D01*
X145735503Y-109373349D01*
X145770972Y-109342614D01*
X145861263Y-109290485D01*
X145940485Y-109211263D01*
X145996503Y-109114237D01*
X146025500Y-109006018D01*
X146025500Y-108893982D01*
X145996503Y-108785763D01*
X145972381Y-108743982D01*
X148974500Y-108743982D01*
X148974500Y-108856018D01*
X149003497Y-108964237D01*
X149059515Y-109061263D01*
X149138737Y-109140485D01*
X149235763Y-109196503D01*
X149343982Y-109225500D01*
X149343984Y-109225500D01*
X149456016Y-109225500D01*
X149456018Y-109225500D01*
X149564237Y-109196503D01*
X149661263Y-109140485D01*
X149740485Y-109061263D01*
X149796503Y-108964237D01*
X149825500Y-108856018D01*
X149825500Y-108743982D01*
X150174500Y-108743982D01*
X150174500Y-108856018D01*
X150203497Y-108964237D01*
X150259515Y-109061263D01*
X150338737Y-109140485D01*
X150435763Y-109196503D01*
X150543982Y-109225500D01*
X150543984Y-109225500D01*
X150656016Y-109225500D01*
X150656018Y-109225500D01*
X150764237Y-109196503D01*
X150861263Y-109140485D01*
X150940485Y-109061263D01*
X150996503Y-108964237D01*
X151025500Y-108856018D01*
X151025500Y-108743982D01*
X157574500Y-108743982D01*
X157574500Y-108856018D01*
X157603497Y-108964237D01*
X157659515Y-109061263D01*
X157738737Y-109140485D01*
X157835763Y-109196503D01*
X157943982Y-109225500D01*
X157943984Y-109225500D01*
X158056016Y-109225500D01*
X158056018Y-109225500D01*
X158164237Y-109196503D01*
X158261263Y-109140485D01*
X158340485Y-109061263D01*
X158396503Y-108964237D01*
X158425500Y-108856018D01*
X158425500Y-108743982D01*
X158396503Y-108635763D01*
X158340485Y-108538737D01*
X158261263Y-108459515D01*
X158191713Y-108419360D01*
X158164239Y-108403498D01*
X158164238Y-108403497D01*
X158164237Y-108403497D01*
X158056018Y-108374500D01*
X157943982Y-108374500D01*
X157835763Y-108403497D01*
X157835760Y-108403498D01*
X157738740Y-108459513D01*
X157738734Y-108459517D01*
X157659517Y-108538734D01*
X157659513Y-108538740D01*
X157603498Y-108635760D01*
X157603497Y-108635763D01*
X157574500Y-108743982D01*
X151025500Y-108743982D01*
X150996503Y-108635763D01*
X150940485Y-108538737D01*
X150861263Y-108459515D01*
X150791713Y-108419360D01*
X150764239Y-108403498D01*
X150764238Y-108403497D01*
X150764237Y-108403497D01*
X150656018Y-108374500D01*
X150543982Y-108374500D01*
X150435763Y-108403497D01*
X150435760Y-108403498D01*
X150338740Y-108459513D01*
X150338734Y-108459517D01*
X150259517Y-108538734D01*
X150259513Y-108538740D01*
X150203498Y-108635760D01*
X150203497Y-108635763D01*
X150174500Y-108743982D01*
X149825500Y-108743982D01*
X149796503Y-108635763D01*
X149740485Y-108538737D01*
X149661263Y-108459515D01*
X149591713Y-108419360D01*
X149564239Y-108403498D01*
X149564238Y-108403497D01*
X149564237Y-108403497D01*
X149456018Y-108374500D01*
X149343982Y-108374500D01*
X149235763Y-108403497D01*
X149235760Y-108403498D01*
X149138740Y-108459513D01*
X149138734Y-108459517D01*
X149059517Y-108538734D01*
X149059513Y-108538740D01*
X149003498Y-108635760D01*
X149003497Y-108635763D01*
X148974500Y-108743982D01*
X145972381Y-108743982D01*
X145940485Y-108688737D01*
X145861263Y-108609515D01*
X145764237Y-108553497D01*
X145764235Y-108553496D01*
X145758676Y-108551194D01*
X145704272Y-108507353D01*
X145682206Y-108441059D01*
X145699484Y-108373360D01*
X145744124Y-108329247D01*
X145811263Y-108290485D01*
X145890485Y-108211263D01*
X145946503Y-108114237D01*
X145975500Y-108006018D01*
X145975500Y-107893982D01*
X145946503Y-107785763D01*
X145890485Y-107688737D01*
X145811263Y-107609515D01*
X145714237Y-107553497D01*
X145678726Y-107543982D01*
X148974500Y-107543982D01*
X148974500Y-107656018D01*
X149003497Y-107764237D01*
X149059515Y-107861263D01*
X149138737Y-107940485D01*
X149235763Y-107996503D01*
X149343982Y-108025500D01*
X149343984Y-108025500D01*
X149456016Y-108025500D01*
X149456018Y-108025500D01*
X149564237Y-107996503D01*
X149661263Y-107940485D01*
X149740485Y-107861263D01*
X149796503Y-107764237D01*
X149825500Y-107656018D01*
X149825500Y-107543982D01*
X150174500Y-107543982D01*
X150174500Y-107656018D01*
X150203497Y-107764237D01*
X150259515Y-107861263D01*
X150338737Y-107940485D01*
X150435763Y-107996503D01*
X150543982Y-108025500D01*
X150543984Y-108025500D01*
X150656016Y-108025500D01*
X150656018Y-108025500D01*
X150764237Y-107996503D01*
X150861263Y-107940485D01*
X150940485Y-107861263D01*
X150996503Y-107764237D01*
X151025500Y-107656018D01*
X151025500Y-107543982D01*
X150996503Y-107435763D01*
X150940485Y-107338737D01*
X150861263Y-107259515D01*
X150764237Y-107203497D01*
X150656018Y-107174500D01*
X150543982Y-107174500D01*
X150435763Y-107203497D01*
X150435760Y-107203498D01*
X150338740Y-107259513D01*
X150338734Y-107259517D01*
X150259517Y-107338734D01*
X150259513Y-107338740D01*
X150203498Y-107435760D01*
X150203497Y-107435763D01*
X150174500Y-107543982D01*
X149825500Y-107543982D01*
X149796503Y-107435763D01*
X149740485Y-107338737D01*
X149661263Y-107259515D01*
X149564237Y-107203497D01*
X149456018Y-107174500D01*
X149343982Y-107174500D01*
X149235763Y-107203497D01*
X149235760Y-107203498D01*
X149138740Y-107259513D01*
X149138734Y-107259517D01*
X149059517Y-107338734D01*
X149059513Y-107338740D01*
X149003498Y-107435760D01*
X149003497Y-107435763D01*
X148974500Y-107543982D01*
X145678726Y-107543982D01*
X145606018Y-107524500D01*
X145493982Y-107524500D01*
X145385763Y-107553497D01*
X145385760Y-107553498D01*
X145288740Y-107609513D01*
X145288734Y-107609517D01*
X145209517Y-107688734D01*
X145209513Y-107688740D01*
X145153498Y-107785760D01*
X145153497Y-107785763D01*
X145124500Y-107893982D01*
X145124500Y-107921174D01*
X145104815Y-107988213D01*
X145052011Y-108033968D01*
X145032596Y-108040948D01*
X145017907Y-108044883D01*
X144985761Y-108053497D01*
X144985760Y-108053498D01*
X144888740Y-108109513D01*
X144888734Y-108109517D01*
X144809517Y-108188734D01*
X144809513Y-108188740D01*
X144753498Y-108285760D01*
X144753497Y-108285763D01*
X144724500Y-108393982D01*
X137528726Y-108393982D01*
X137456018Y-108374500D01*
X137343982Y-108374500D01*
X137235763Y-108403497D01*
X137235760Y-108403498D01*
X137138740Y-108459513D01*
X137138734Y-108459517D01*
X137059517Y-108538734D01*
X137059513Y-108538740D01*
X137003498Y-108635760D01*
X137003497Y-108635763D01*
X136974500Y-108743982D01*
X133250500Y-108743982D01*
X133250500Y-107043982D01*
X141974500Y-107043982D01*
X141974500Y-107156018D01*
X142003497Y-107264237D01*
X142059515Y-107361263D01*
X142138737Y-107440485D01*
X142235763Y-107496503D01*
X142343982Y-107525500D01*
X142343984Y-107525500D01*
X142456016Y-107525500D01*
X142456018Y-107525500D01*
X142564237Y-107496503D01*
X142661263Y-107440485D01*
X142740485Y-107361263D01*
X142796503Y-107264237D01*
X142825500Y-107156018D01*
X142825500Y-107043982D01*
X142796503Y-106935763D01*
X142740485Y-106838737D01*
X142661263Y-106759515D01*
X142564237Y-106703497D01*
X142456018Y-106674500D01*
X142343982Y-106674500D01*
X142235763Y-106703497D01*
X142235760Y-106703498D01*
X142138740Y-106759513D01*
X142138734Y-106759517D01*
X142059517Y-106838734D01*
X142059513Y-106838740D01*
X142003498Y-106935760D01*
X142003497Y-106935763D01*
X141974500Y-107043982D01*
X133250500Y-107043982D01*
X133250500Y-106186540D01*
X138254200Y-106186540D01*
X138254200Y-106333459D01*
X138275488Y-106440482D01*
X138282860Y-106477542D01*
X138290714Y-106496503D01*
X138339078Y-106613266D01*
X138339083Y-106613275D01*
X138420698Y-106735419D01*
X138420701Y-106735423D01*
X138524576Y-106839298D01*
X138524580Y-106839301D01*
X138646724Y-106920916D01*
X138646733Y-106920921D01*
X138671800Y-106931304D01*
X138782458Y-106977140D01*
X138914298Y-107003364D01*
X138926540Y-107005799D01*
X138926544Y-107005800D01*
X138926545Y-107005800D01*
X139073456Y-107005800D01*
X139073457Y-107005799D01*
X139217542Y-106977140D01*
X139353269Y-106920920D01*
X139475420Y-106839301D01*
X139579301Y-106735420D01*
X139660920Y-106613269D01*
X139717140Y-106477542D01*
X139745800Y-106333455D01*
X139745800Y-106186545D01*
X139717443Y-106043982D01*
X157574500Y-106043982D01*
X157574500Y-106156018D01*
X157603497Y-106264237D01*
X157659515Y-106361263D01*
X157738737Y-106440485D01*
X157835763Y-106496503D01*
X157943982Y-106525500D01*
X157943984Y-106525500D01*
X158056016Y-106525500D01*
X158056018Y-106525500D01*
X158164237Y-106496503D01*
X158261263Y-106440485D01*
X158340485Y-106361263D01*
X158396503Y-106264237D01*
X158425500Y-106156018D01*
X158425500Y-106043982D01*
X158396503Y-105935763D01*
X158340485Y-105838737D01*
X158261263Y-105759515D01*
X158164237Y-105703497D01*
X158056018Y-105674500D01*
X157943982Y-105674500D01*
X157835763Y-105703497D01*
X157835760Y-105703498D01*
X157738740Y-105759513D01*
X157738734Y-105759517D01*
X157659517Y-105838734D01*
X157659513Y-105838740D01*
X157603498Y-105935760D01*
X157603497Y-105935763D01*
X157574500Y-106043982D01*
X139717443Y-106043982D01*
X139717140Y-106042458D01*
X139660920Y-105906731D01*
X139660919Y-105906730D01*
X139660916Y-105906724D01*
X139579301Y-105784580D01*
X139579298Y-105784576D01*
X139475423Y-105680701D01*
X139475419Y-105680698D01*
X139353275Y-105599083D01*
X139353266Y-105599078D01*
X139217544Y-105542861D01*
X139217545Y-105542861D01*
X139217542Y-105542860D01*
X139217538Y-105542859D01*
X139217534Y-105542858D01*
X139073459Y-105514200D01*
X139073455Y-105514200D01*
X138926545Y-105514200D01*
X138926540Y-105514200D01*
X138782465Y-105542858D01*
X138782455Y-105542861D01*
X138646733Y-105599078D01*
X138646724Y-105599083D01*
X138524580Y-105680698D01*
X138524576Y-105680701D01*
X138420701Y-105784576D01*
X138420698Y-105784580D01*
X138339083Y-105906724D01*
X138339078Y-105906733D01*
X138282861Y-106042455D01*
X138282858Y-106042465D01*
X138254200Y-106186540D01*
X133250500Y-106186540D01*
X133250500Y-104843982D01*
X143074500Y-104843982D01*
X143074500Y-104956018D01*
X143103497Y-105064237D01*
X143159515Y-105161263D01*
X143238737Y-105240485D01*
X143335763Y-105296503D01*
X143443982Y-105325500D01*
X143443984Y-105325500D01*
X143556016Y-105325500D01*
X143556018Y-105325500D01*
X143664237Y-105296503D01*
X143665312Y-105295882D01*
X143666332Y-105295634D01*
X143671747Y-105293392D01*
X143672096Y-105294235D01*
X143733208Y-105279405D01*
X143799237Y-105302251D01*
X143834703Y-105341262D01*
X143846251Y-105361263D01*
X143925473Y-105440485D01*
X144022499Y-105496503D01*
X144130718Y-105525500D01*
X144130720Y-105525500D01*
X144242752Y-105525500D01*
X144242754Y-105525500D01*
X144350973Y-105496503D01*
X144447999Y-105440485D01*
X144527221Y-105361263D01*
X144583239Y-105264237D01*
X144612236Y-105156018D01*
X144612236Y-105043982D01*
X144583239Y-104935763D01*
X144527221Y-104838737D01*
X144447999Y-104759515D01*
X144380584Y-104720593D01*
X144350975Y-104703498D01*
X144350974Y-104703497D01*
X144350973Y-104703497D01*
X144242754Y-104674500D01*
X144130718Y-104674500D01*
X144022499Y-104703497D01*
X144022492Y-104703499D01*
X144021410Y-104704125D01*
X144020381Y-104704374D01*
X144014989Y-104706608D01*
X144014640Y-104705766D01*
X143953509Y-104720593D01*
X143887484Y-104697737D01*
X143852030Y-104658735D01*
X143840485Y-104638737D01*
X143761263Y-104559515D01*
X143664237Y-104503497D01*
X143556018Y-104474500D01*
X143443982Y-104474500D01*
X143335763Y-104503497D01*
X143335760Y-104503498D01*
X143238740Y-104559513D01*
X143238734Y-104559517D01*
X143159517Y-104638734D01*
X143159513Y-104638740D01*
X143103498Y-104735760D01*
X143103497Y-104735763D01*
X143074500Y-104843982D01*
X133250500Y-104843982D01*
X133250500Y-102581307D01*
X134174499Y-102581307D01*
X134206222Y-102740783D01*
X134206225Y-102740793D01*
X134268450Y-102891019D01*
X134268452Y-102891023D01*
X134358788Y-103026220D01*
X134358794Y-103026228D01*
X134473771Y-103141205D01*
X134473779Y-103141211D01*
X134608976Y-103231547D01*
X134608980Y-103231549D01*
X134759206Y-103293774D01*
X134759211Y-103293776D01*
X134759215Y-103293776D01*
X134759216Y-103293777D01*
X134918692Y-103325500D01*
X134918695Y-103325500D01*
X135081307Y-103325500D01*
X135188598Y-103304157D01*
X135240789Y-103293776D01*
X135369445Y-103240485D01*
X135391019Y-103231549D01*
X135391023Y-103231547D01*
X135504853Y-103155488D01*
X135526225Y-103141208D01*
X135641208Y-103026225D01*
X135731548Y-102891021D01*
X135738632Y-102873920D01*
X136449499Y-102873920D01*
X136478340Y-103018907D01*
X136478343Y-103018917D01*
X136534912Y-103155488D01*
X136534919Y-103155501D01*
X136617048Y-103278415D01*
X136617051Y-103278419D01*
X136721580Y-103382948D01*
X136721584Y-103382951D01*
X136844498Y-103465080D01*
X136844511Y-103465087D01*
X136981082Y-103521656D01*
X136981087Y-103521658D01*
X136981091Y-103521658D01*
X136981092Y-103521659D01*
X137126079Y-103550500D01*
X137126082Y-103550500D01*
X137273920Y-103550500D01*
X137306685Y-103543982D01*
X152774500Y-103543982D01*
X152774500Y-103656018D01*
X152803497Y-103764237D01*
X152859515Y-103861263D01*
X152938737Y-103940485D01*
X153035763Y-103996503D01*
X153143982Y-104025500D01*
X153143984Y-104025500D01*
X153256016Y-104025500D01*
X153256018Y-104025500D01*
X153364237Y-103996503D01*
X153461263Y-103940485D01*
X153540485Y-103861263D01*
X153596503Y-103764237D01*
X153625500Y-103656018D01*
X153625500Y-103543982D01*
X153596503Y-103435763D01*
X153540485Y-103338737D01*
X153461263Y-103259515D01*
X153364237Y-103203497D01*
X153256018Y-103174500D01*
X153143982Y-103174500D01*
X153035763Y-103203497D01*
X153035760Y-103203498D01*
X152938740Y-103259513D01*
X152938734Y-103259517D01*
X152859517Y-103338734D01*
X152859513Y-103338740D01*
X152803498Y-103435760D01*
X152803497Y-103435763D01*
X152774500Y-103543982D01*
X137306685Y-103543982D01*
X137371462Y-103531096D01*
X137418913Y-103521658D01*
X137547946Y-103468211D01*
X137555488Y-103465087D01*
X137555488Y-103465086D01*
X137555495Y-103465084D01*
X137555501Y-103465080D01*
X137603883Y-103432753D01*
X137643411Y-103406339D01*
X137678416Y-103382951D01*
X137782951Y-103278416D01*
X137865084Y-103155495D01*
X137921658Y-103018913D01*
X137947098Y-102891021D01*
X137950500Y-102873920D01*
X137950500Y-102843982D01*
X164374500Y-102843982D01*
X164374500Y-102956018D01*
X164403497Y-103064237D01*
X164459515Y-103161263D01*
X164538737Y-103240485D01*
X164635763Y-103296503D01*
X164743982Y-103325500D01*
X164743984Y-103325500D01*
X164856016Y-103325500D01*
X164856018Y-103325500D01*
X164964237Y-103296503D01*
X165061263Y-103240485D01*
X165140485Y-103161263D01*
X165196503Y-103064237D01*
X165225500Y-102956018D01*
X165225500Y-102843982D01*
X165196503Y-102735763D01*
X165140485Y-102638737D01*
X165061263Y-102559515D01*
X164964237Y-102503497D01*
X164856018Y-102474500D01*
X164743982Y-102474500D01*
X164635763Y-102503497D01*
X164635760Y-102503498D01*
X164538740Y-102559513D01*
X164538734Y-102559517D01*
X164459517Y-102638734D01*
X164459513Y-102638740D01*
X164403498Y-102735760D01*
X164403497Y-102735763D01*
X164374500Y-102843982D01*
X137950500Y-102843982D01*
X137950500Y-102343982D01*
X157074500Y-102343982D01*
X157074500Y-102456018D01*
X157103497Y-102564237D01*
X157159515Y-102661263D01*
X157238737Y-102740485D01*
X157335763Y-102796503D01*
X157443982Y-102825500D01*
X157443984Y-102825500D01*
X157556016Y-102825500D01*
X157556018Y-102825500D01*
X157664237Y-102796503D01*
X157761263Y-102740485D01*
X157840485Y-102661263D01*
X157896503Y-102564237D01*
X157925500Y-102456018D01*
X157925500Y-102343982D01*
X157896503Y-102235763D01*
X157840485Y-102138737D01*
X157761263Y-102059515D01*
X157664237Y-102003497D01*
X157556018Y-101974500D01*
X157443982Y-101974500D01*
X157335763Y-102003497D01*
X157335760Y-102003498D01*
X157238740Y-102059513D01*
X157238734Y-102059517D01*
X157159517Y-102138734D01*
X157159513Y-102138740D01*
X157103498Y-102235760D01*
X157103497Y-102235763D01*
X157074500Y-102343982D01*
X137950500Y-102343982D01*
X137950500Y-102226079D01*
X137921659Y-102081092D01*
X137921658Y-102081091D01*
X137921658Y-102081087D01*
X137921656Y-102081082D01*
X137865087Y-101944511D01*
X137865080Y-101944498D01*
X137782951Y-101821584D01*
X137782948Y-101821580D01*
X137678419Y-101717051D01*
X137678415Y-101717048D01*
X137555501Y-101634919D01*
X137555488Y-101634912D01*
X137418917Y-101578343D01*
X137418907Y-101578340D01*
X137273920Y-101549500D01*
X137273918Y-101549500D01*
X137126082Y-101549500D01*
X137126080Y-101549500D01*
X136981092Y-101578340D01*
X136981082Y-101578343D01*
X136844511Y-101634912D01*
X136844498Y-101634919D01*
X136721584Y-101717048D01*
X136721580Y-101717051D01*
X136617051Y-101821580D01*
X136617048Y-101821584D01*
X136534919Y-101944498D01*
X136534912Y-101944511D01*
X136478343Y-102081082D01*
X136478340Y-102081092D01*
X136449500Y-102226079D01*
X136449500Y-102226082D01*
X136449500Y-102873918D01*
X136449500Y-102873920D01*
X136449499Y-102873920D01*
X135738632Y-102873920D01*
X135762187Y-102817051D01*
X135793776Y-102740789D01*
X135814076Y-102638737D01*
X135825500Y-102581307D01*
X135825500Y-102418692D01*
X135793777Y-102259216D01*
X135793776Y-102259215D01*
X135793776Y-102259211D01*
X135766817Y-102194125D01*
X135731549Y-102108980D01*
X135731547Y-102108976D01*
X135641211Y-101973779D01*
X135641205Y-101973771D01*
X135526228Y-101858794D01*
X135526220Y-101858788D01*
X135391023Y-101768452D01*
X135391019Y-101768450D01*
X135240793Y-101706225D01*
X135240783Y-101706222D01*
X135081307Y-101674500D01*
X135081305Y-101674500D01*
X134918695Y-101674500D01*
X134918693Y-101674500D01*
X134759216Y-101706222D01*
X134759206Y-101706225D01*
X134608980Y-101768450D01*
X134608976Y-101768452D01*
X134473779Y-101858788D01*
X134473771Y-101858794D01*
X134358794Y-101973771D01*
X134358788Y-101973779D01*
X134268452Y-102108976D01*
X134268450Y-102108980D01*
X134206225Y-102259206D01*
X134206222Y-102259216D01*
X134174500Y-102418692D01*
X134174500Y-102418695D01*
X134174500Y-102581305D01*
X134174500Y-102581307D01*
X134174499Y-102581307D01*
X133250500Y-102581307D01*
X133250500Y-101243982D01*
X138574500Y-101243982D01*
X138574500Y-101356018D01*
X138603497Y-101464237D01*
X138659515Y-101561263D01*
X138738737Y-101640485D01*
X138835763Y-101696503D01*
X138943982Y-101725500D01*
X138943984Y-101725500D01*
X139056016Y-101725500D01*
X139056018Y-101725500D01*
X139164237Y-101696503D01*
X139261263Y-101640485D01*
X139340485Y-101561263D01*
X139350462Y-101543982D01*
X145774500Y-101543982D01*
X145774500Y-101656018D01*
X145797242Y-101740891D01*
X145803497Y-101764236D01*
X145803498Y-101764239D01*
X145822169Y-101796579D01*
X145859515Y-101861263D01*
X145938737Y-101940485D01*
X146035763Y-101996503D01*
X146143982Y-102025500D01*
X146143984Y-102025500D01*
X146256016Y-102025500D01*
X146256018Y-102025500D01*
X146364237Y-101996503D01*
X146461263Y-101940485D01*
X146540485Y-101861263D01*
X146596503Y-101764237D01*
X146625500Y-101656018D01*
X146625500Y-101543982D01*
X146596503Y-101435763D01*
X146540485Y-101338737D01*
X146461263Y-101259515D01*
X146364237Y-101203497D01*
X146256018Y-101174500D01*
X146143982Y-101174500D01*
X146035763Y-101203497D01*
X146035760Y-101203498D01*
X145938740Y-101259513D01*
X145938734Y-101259517D01*
X145859517Y-101338734D01*
X145859513Y-101338740D01*
X145803498Y-101435760D01*
X145803497Y-101435763D01*
X145774500Y-101543982D01*
X139350462Y-101543982D01*
X139396503Y-101464237D01*
X139425500Y-101356018D01*
X139425500Y-101243982D01*
X139396503Y-101135763D01*
X139343513Y-101043982D01*
X154774500Y-101043982D01*
X154774500Y-101156018D01*
X154803497Y-101264237D01*
X154859515Y-101361263D01*
X154938737Y-101440485D01*
X155035763Y-101496503D01*
X155143982Y-101525500D01*
X155143984Y-101525500D01*
X155256016Y-101525500D01*
X155256018Y-101525500D01*
X155364237Y-101496503D01*
X155461263Y-101440485D01*
X155540485Y-101361263D01*
X155596503Y-101264237D01*
X155625500Y-101156018D01*
X155625500Y-101043982D01*
X155596503Y-100935763D01*
X155540485Y-100838737D01*
X155461263Y-100759515D01*
X155364237Y-100703497D01*
X155256018Y-100674500D01*
X155143982Y-100674500D01*
X155035763Y-100703497D01*
X155035760Y-100703498D01*
X154938740Y-100759513D01*
X154938734Y-100759517D01*
X154859517Y-100838734D01*
X154859513Y-100838740D01*
X154803498Y-100935760D01*
X154803497Y-100935763D01*
X154774500Y-101043982D01*
X139343513Y-101043982D01*
X139340485Y-101038737D01*
X139261263Y-100959515D01*
X139164237Y-100903497D01*
X139056018Y-100874500D01*
X138943982Y-100874500D01*
X138835763Y-100903497D01*
X138835760Y-100903498D01*
X138738740Y-100959513D01*
X138738734Y-100959517D01*
X138659517Y-101038734D01*
X138659513Y-101038740D01*
X138603498Y-101135760D01*
X138603497Y-101135763D01*
X138574500Y-101243982D01*
X133250500Y-101243982D01*
X133250500Y-99292382D01*
X138974500Y-99292382D01*
X138974500Y-99404417D01*
X139003497Y-99512636D01*
X139003498Y-99512639D01*
X139061441Y-99613000D01*
X139077914Y-99680901D01*
X139061441Y-99737000D01*
X139003498Y-99837360D01*
X139003497Y-99837363D01*
X138974500Y-99945582D01*
X138974500Y-100057618D01*
X139003497Y-100165837D01*
X139059515Y-100262863D01*
X139138737Y-100342085D01*
X139235763Y-100398103D01*
X139343982Y-100427100D01*
X139343984Y-100427100D01*
X139456016Y-100427100D01*
X139456018Y-100427100D01*
X139564237Y-100398103D01*
X139661263Y-100342085D01*
X139740485Y-100262863D01*
X139796503Y-100165837D01*
X139825500Y-100057618D01*
X139825500Y-99945582D01*
X139796503Y-99837363D01*
X139740485Y-99740337D01*
X139740484Y-99740336D01*
X139738558Y-99737000D01*
X139722085Y-99669100D01*
X139738558Y-99613000D01*
X139768986Y-99560297D01*
X139796503Y-99512637D01*
X139825500Y-99404418D01*
X139825500Y-99292382D01*
X139796503Y-99184163D01*
X139740485Y-99087137D01*
X139661263Y-99007915D01*
X139564237Y-98951897D01*
X139456018Y-98922900D01*
X139343982Y-98922900D01*
X139235763Y-98951897D01*
X139235760Y-98951898D01*
X139138740Y-99007913D01*
X139138734Y-99007917D01*
X139059517Y-99087134D01*
X139059513Y-99087140D01*
X139003498Y-99184160D01*
X139003497Y-99184163D01*
X138974500Y-99292382D01*
X133250500Y-99292382D01*
X133250500Y-98543982D01*
X146574500Y-98543982D01*
X146574500Y-98656018D01*
X146603497Y-98764237D01*
X146659515Y-98861263D01*
X146738737Y-98940485D01*
X146835763Y-98996503D01*
X146943982Y-99025500D01*
X146943984Y-99025500D01*
X147056016Y-99025500D01*
X147056018Y-99025500D01*
X147164237Y-98996503D01*
X147261263Y-98940485D01*
X147340485Y-98861263D01*
X147396503Y-98764237D01*
X147401930Y-98743982D01*
X152574500Y-98743982D01*
X152574500Y-98856018D01*
X152603497Y-98964237D01*
X152659515Y-99061263D01*
X152738737Y-99140485D01*
X152835763Y-99196503D01*
X152943982Y-99225500D01*
X152943984Y-99225500D01*
X153056016Y-99225500D01*
X153056018Y-99225500D01*
X153164237Y-99196503D01*
X153261263Y-99140485D01*
X153340485Y-99061263D01*
X153396503Y-98964237D01*
X153401930Y-98943982D01*
X157774500Y-98943982D01*
X157774500Y-99056018D01*
X157794719Y-99131474D01*
X157803497Y-99164236D01*
X157803498Y-99164239D01*
X157815001Y-99184163D01*
X157859515Y-99261263D01*
X157938737Y-99340485D01*
X158035763Y-99396503D01*
X158143982Y-99425500D01*
X158143984Y-99425500D01*
X158256016Y-99425500D01*
X158256018Y-99425500D01*
X158364237Y-99396503D01*
X158461263Y-99340485D01*
X158540485Y-99261263D01*
X158596503Y-99164237D01*
X158625500Y-99056018D01*
X158625500Y-98943982D01*
X158596503Y-98835763D01*
X158540485Y-98738737D01*
X158461263Y-98659515D01*
X158396579Y-98622169D01*
X158364239Y-98603498D01*
X158364238Y-98603497D01*
X158364237Y-98603497D01*
X158256018Y-98574500D01*
X158143982Y-98574500D01*
X158035763Y-98603497D01*
X158035760Y-98603498D01*
X157938740Y-98659513D01*
X157938734Y-98659517D01*
X157859517Y-98738734D01*
X157859513Y-98738740D01*
X157803498Y-98835760D01*
X157803497Y-98835763D01*
X157774500Y-98943982D01*
X153401930Y-98943982D01*
X153425500Y-98856018D01*
X153425500Y-98743982D01*
X153425491Y-98743948D01*
X153426014Y-98738223D01*
X153436870Y-98710778D01*
X153445185Y-98682461D01*
X153449576Y-98678655D01*
X153451714Y-98673252D01*
X153475687Y-98656030D01*
X153497989Y-98636706D01*
X153504586Y-98635270D01*
X153508460Y-98632488D01*
X153520162Y-98631882D01*
X153549500Y-98625500D01*
X153556016Y-98625500D01*
X153556018Y-98625500D01*
X153664237Y-98596503D01*
X153761263Y-98540485D01*
X153840485Y-98461263D01*
X153850462Y-98443982D01*
X165974500Y-98443982D01*
X165974500Y-98556018D01*
X166003497Y-98664237D01*
X166059515Y-98761263D01*
X166138737Y-98840485D01*
X166235763Y-98896503D01*
X166343982Y-98925500D01*
X166343984Y-98925500D01*
X166456016Y-98925500D01*
X166456018Y-98925500D01*
X166564237Y-98896503D01*
X166661263Y-98840485D01*
X166740485Y-98761263D01*
X166796503Y-98664237D01*
X166825500Y-98556018D01*
X166825500Y-98443982D01*
X166796503Y-98335763D01*
X166740485Y-98238737D01*
X166661263Y-98159515D01*
X166564237Y-98103497D01*
X166456018Y-98074500D01*
X166343982Y-98074500D01*
X166235763Y-98103497D01*
X166235760Y-98103498D01*
X166138740Y-98159513D01*
X166138734Y-98159517D01*
X166059517Y-98238734D01*
X166059513Y-98238740D01*
X166003498Y-98335760D01*
X166003497Y-98335763D01*
X165974500Y-98443982D01*
X153850462Y-98443982D01*
X153896503Y-98364237D01*
X153925500Y-98256018D01*
X153925500Y-98143982D01*
X153896503Y-98035763D01*
X153840485Y-97938737D01*
X153761263Y-97859515D01*
X153664237Y-97803497D01*
X153556018Y-97774500D01*
X153443982Y-97774500D01*
X153335763Y-97803497D01*
X153335760Y-97803498D01*
X153238740Y-97859513D01*
X153238734Y-97859517D01*
X153159517Y-97938734D01*
X153159513Y-97938740D01*
X153103498Y-98035760D01*
X153103497Y-98035763D01*
X153074500Y-98143982D01*
X153074500Y-98250500D01*
X153054815Y-98317539D01*
X153002011Y-98363294D01*
X152950500Y-98374500D01*
X152943982Y-98374500D01*
X152835763Y-98403497D01*
X152835760Y-98403498D01*
X152738740Y-98459513D01*
X152738734Y-98459517D01*
X152659517Y-98538734D01*
X152659513Y-98538740D01*
X152603498Y-98635760D01*
X152603497Y-98635763D01*
X152574500Y-98743982D01*
X147401930Y-98743982D01*
X147425500Y-98656018D01*
X147425500Y-98543982D01*
X147396503Y-98435763D01*
X147340485Y-98338737D01*
X147261263Y-98259515D01*
X147164237Y-98203497D01*
X147056018Y-98174500D01*
X146943982Y-98174500D01*
X146835763Y-98203497D01*
X146835760Y-98203498D01*
X146738740Y-98259513D01*
X146738734Y-98259517D01*
X146659517Y-98338734D01*
X146659513Y-98338740D01*
X146603498Y-98435760D01*
X146603497Y-98435763D01*
X146574500Y-98543982D01*
X133250500Y-98543982D01*
X133250500Y-97581307D01*
X134174499Y-97581307D01*
X134206222Y-97740783D01*
X134206225Y-97740793D01*
X134268450Y-97891019D01*
X134268452Y-97891023D01*
X134358788Y-98026220D01*
X134358794Y-98026228D01*
X134473771Y-98141205D01*
X134473779Y-98141211D01*
X134608976Y-98231547D01*
X134608980Y-98231549D01*
X134733077Y-98282951D01*
X134759211Y-98293776D01*
X134759215Y-98293776D01*
X134759216Y-98293777D01*
X134918692Y-98325500D01*
X134918695Y-98325500D01*
X135081307Y-98325500D01*
X135188598Y-98304157D01*
X135240789Y-98293776D01*
X135373665Y-98238737D01*
X135391019Y-98231549D01*
X135391023Y-98231547D01*
X135458169Y-98186680D01*
X135526225Y-98141208D01*
X135641208Y-98026225D01*
X135729193Y-97894546D01*
X135731547Y-97891023D01*
X135731549Y-97891019D01*
X135752290Y-97840943D01*
X135780052Y-97773920D01*
X136449499Y-97773920D01*
X136478340Y-97918907D01*
X136478343Y-97918917D01*
X136534912Y-98055488D01*
X136534919Y-98055501D01*
X136617048Y-98178415D01*
X136617051Y-98178419D01*
X136721580Y-98282948D01*
X136721584Y-98282951D01*
X136844498Y-98365080D01*
X136844511Y-98365087D01*
X136981082Y-98421656D01*
X136981087Y-98421658D01*
X136981091Y-98421658D01*
X136981092Y-98421659D01*
X137126079Y-98450500D01*
X137126082Y-98450500D01*
X137273920Y-98450500D01*
X137371462Y-98431096D01*
X137418913Y-98421658D01*
X137555495Y-98365084D01*
X137678416Y-98282951D01*
X137782951Y-98178416D01*
X137865084Y-98055495D01*
X137873259Y-98035760D01*
X137913445Y-97938740D01*
X137921658Y-97918913D01*
X137944616Y-97803498D01*
X137950500Y-97773920D01*
X137950500Y-97126079D01*
X137921659Y-96981092D01*
X137921658Y-96981091D01*
X137921658Y-96981087D01*
X137918628Y-96973771D01*
X137865087Y-96844511D01*
X137865080Y-96844498D01*
X137782951Y-96721584D01*
X137782948Y-96721580D01*
X137705350Y-96643982D01*
X141774500Y-96643982D01*
X141774500Y-96756018D01*
X141803497Y-96864237D01*
X141859515Y-96961263D01*
X141938737Y-97040485D01*
X142035763Y-97096503D01*
X142143982Y-97125500D01*
X142143984Y-97125500D01*
X142256016Y-97125500D01*
X142256018Y-97125500D01*
X142364237Y-97096503D01*
X142461263Y-97040485D01*
X142540485Y-96961263D01*
X142596503Y-96864237D01*
X142625500Y-96756018D01*
X142625500Y-96643982D01*
X142596503Y-96535763D01*
X142540485Y-96438737D01*
X142461263Y-96359515D01*
X142364237Y-96303497D01*
X142256018Y-96274500D01*
X142143982Y-96274500D01*
X142035763Y-96303497D01*
X142035760Y-96303498D01*
X141938740Y-96359513D01*
X141938734Y-96359517D01*
X141859517Y-96438734D01*
X141859513Y-96438740D01*
X141803498Y-96535760D01*
X141803497Y-96535763D01*
X141774500Y-96643982D01*
X137705350Y-96643982D01*
X137678419Y-96617051D01*
X137678415Y-96617048D01*
X137555501Y-96534919D01*
X137555488Y-96534912D01*
X137418917Y-96478343D01*
X137418907Y-96478340D01*
X137273920Y-96449500D01*
X137273918Y-96449500D01*
X137126082Y-96449500D01*
X137126080Y-96449500D01*
X136981092Y-96478340D01*
X136981082Y-96478343D01*
X136844511Y-96534912D01*
X136844498Y-96534919D01*
X136721584Y-96617048D01*
X136721580Y-96617051D01*
X136617051Y-96721580D01*
X136617048Y-96721584D01*
X136534919Y-96844498D01*
X136534912Y-96844511D01*
X136478343Y-96981082D01*
X136478340Y-96981092D01*
X136449500Y-97126079D01*
X136449500Y-97126082D01*
X136449500Y-97773918D01*
X136449500Y-97773920D01*
X136449499Y-97773920D01*
X135780052Y-97773920D01*
X135793776Y-97740789D01*
X135825500Y-97581305D01*
X135825500Y-97418695D01*
X135825500Y-97418692D01*
X135793777Y-97259216D01*
X135793776Y-97259215D01*
X135793776Y-97259211D01*
X135793774Y-97259206D01*
X135755765Y-97167442D01*
X135731547Y-97108977D01*
X135731547Y-97108976D01*
X135641211Y-96973779D01*
X135641205Y-96973771D01*
X135526228Y-96858794D01*
X135526220Y-96858788D01*
X135391023Y-96768452D01*
X135391019Y-96768450D01*
X135240793Y-96706225D01*
X135240783Y-96706222D01*
X135081307Y-96674500D01*
X135081305Y-96674500D01*
X134918695Y-96674500D01*
X134918693Y-96674500D01*
X134759216Y-96706222D01*
X134759206Y-96706225D01*
X134608980Y-96768450D01*
X134608976Y-96768452D01*
X134473779Y-96858788D01*
X134473771Y-96858794D01*
X134358794Y-96973771D01*
X134358788Y-96973779D01*
X134268452Y-97108976D01*
X134268450Y-97108980D01*
X134206225Y-97259206D01*
X134206222Y-97259216D01*
X134174500Y-97418692D01*
X134174500Y-97418695D01*
X134174500Y-97581305D01*
X134174500Y-97581307D01*
X134174499Y-97581307D01*
X133250500Y-97581307D01*
X133250500Y-95543982D01*
X163577000Y-95543982D01*
X163577000Y-95656018D01*
X163605997Y-95764237D01*
X163662015Y-95861263D01*
X163741237Y-95940485D01*
X163838263Y-95996503D01*
X163946482Y-96025500D01*
X163946484Y-96025500D01*
X164058516Y-96025500D01*
X164058518Y-96025500D01*
X164166737Y-95996503D01*
X164263763Y-95940485D01*
X164342985Y-95861263D01*
X164399003Y-95764237D01*
X164428000Y-95656018D01*
X164428000Y-95543982D01*
X164399003Y-95435763D01*
X164342985Y-95338737D01*
X164263763Y-95259515D01*
X164166737Y-95203497D01*
X164058518Y-95174500D01*
X163946482Y-95174500D01*
X163838263Y-95203497D01*
X163838260Y-95203498D01*
X163741240Y-95259513D01*
X163741234Y-95259517D01*
X163662017Y-95338734D01*
X163662013Y-95338740D01*
X163605998Y-95435760D01*
X163605997Y-95435763D01*
X163577000Y-95543982D01*
X133250500Y-95543982D01*
X133250500Y-94643982D01*
X136574500Y-94643982D01*
X136574500Y-94756018D01*
X136603497Y-94864237D01*
X136659515Y-94961263D01*
X136738737Y-95040485D01*
X136835763Y-95096503D01*
X136943982Y-95125500D01*
X136943984Y-95125500D01*
X137056016Y-95125500D01*
X137056018Y-95125500D01*
X137164237Y-95096503D01*
X137261263Y-95040485D01*
X137340485Y-94961263D01*
X137396503Y-94864237D01*
X137425500Y-94756018D01*
X137425500Y-94643982D01*
X137396503Y-94535763D01*
X137340485Y-94438737D01*
X137261263Y-94359515D01*
X137164237Y-94303497D01*
X137128726Y-94293982D01*
X153324500Y-94293982D01*
X153324500Y-94406018D01*
X153353497Y-94514237D01*
X153409515Y-94611263D01*
X153488737Y-94690485D01*
X153585763Y-94746503D01*
X153693982Y-94775500D01*
X153693984Y-94775500D01*
X153806016Y-94775500D01*
X153806018Y-94775500D01*
X153914237Y-94746503D01*
X154011263Y-94690485D01*
X154090485Y-94611263D01*
X154146503Y-94514237D01*
X154175500Y-94406018D01*
X154175500Y-94293982D01*
X154146503Y-94185763D01*
X154090485Y-94088737D01*
X154011263Y-94009515D01*
X153946579Y-93972169D01*
X153914239Y-93953498D01*
X153914238Y-93953497D01*
X153914237Y-93953497D01*
X153806018Y-93924500D01*
X153693982Y-93924500D01*
X153585763Y-93953497D01*
X153585760Y-93953498D01*
X153488740Y-94009513D01*
X153488734Y-94009517D01*
X153409517Y-94088734D01*
X153409513Y-94088740D01*
X153353498Y-94185760D01*
X153353497Y-94185763D01*
X153324500Y-94293982D01*
X137128726Y-94293982D01*
X137056018Y-94274500D01*
X136943982Y-94274500D01*
X136835763Y-94303497D01*
X136835760Y-94303498D01*
X136738740Y-94359513D01*
X136738734Y-94359517D01*
X136659517Y-94438734D01*
X136659513Y-94438740D01*
X136603498Y-94535760D01*
X136603497Y-94535763D01*
X136574500Y-94643982D01*
X133250500Y-94643982D01*
X133250500Y-93343982D01*
X140074500Y-93343982D01*
X140074500Y-93456018D01*
X140103497Y-93564237D01*
X140159515Y-93661263D01*
X140238737Y-93740485D01*
X140335763Y-93796503D01*
X140443982Y-93825500D01*
X140443984Y-93825500D01*
X140556016Y-93825500D01*
X140556018Y-93825500D01*
X140664237Y-93796503D01*
X140761263Y-93740485D01*
X140840485Y-93661263D01*
X140896503Y-93564237D01*
X140925500Y-93456018D01*
X140925500Y-93343982D01*
X140898705Y-93243982D01*
X143974500Y-93243982D01*
X143974500Y-93356018D01*
X144003497Y-93464237D01*
X144059515Y-93561263D01*
X144138737Y-93640485D01*
X144235763Y-93696503D01*
X144343982Y-93725500D01*
X144343984Y-93725500D01*
X144456016Y-93725500D01*
X144456018Y-93725500D01*
X144564237Y-93696503D01*
X144661263Y-93640485D01*
X144740485Y-93561263D01*
X144796503Y-93464237D01*
X144825500Y-93356018D01*
X144825500Y-93243982D01*
X144796503Y-93135763D01*
X144740485Y-93038737D01*
X144661263Y-92959515D01*
X144564237Y-92903497D01*
X144456018Y-92874500D01*
X144343982Y-92874500D01*
X144235763Y-92903497D01*
X144235760Y-92903498D01*
X144138740Y-92959513D01*
X144138734Y-92959517D01*
X144059517Y-93038734D01*
X144059513Y-93038740D01*
X144003498Y-93135760D01*
X144003497Y-93135763D01*
X143974500Y-93243982D01*
X140898705Y-93243982D01*
X140896503Y-93235763D01*
X140840485Y-93138737D01*
X140761263Y-93059515D01*
X140664237Y-93003497D01*
X140556018Y-92974500D01*
X140443982Y-92974500D01*
X140335763Y-93003497D01*
X140335760Y-93003498D01*
X140238740Y-93059513D01*
X140238734Y-93059517D01*
X140159517Y-93138734D01*
X140159513Y-93138740D01*
X140103498Y-93235760D01*
X140103497Y-93235763D01*
X140074500Y-93343982D01*
X133250500Y-93343982D01*
X133250500Y-92643982D01*
X149774500Y-92643982D01*
X149774500Y-92756018D01*
X149803497Y-92864237D01*
X149859515Y-92961263D01*
X149938737Y-93040485D01*
X150035763Y-93096503D01*
X150143982Y-93125500D01*
X150143984Y-93125500D01*
X150256016Y-93125500D01*
X150256018Y-93125500D01*
X150364237Y-93096503D01*
X150461263Y-93040485D01*
X150540485Y-92961263D01*
X150596503Y-92864237D01*
X150625500Y-92756018D01*
X150625500Y-92643982D01*
X150596503Y-92535763D01*
X150540485Y-92438737D01*
X150461263Y-92359515D01*
X150364237Y-92303497D01*
X150256018Y-92274500D01*
X150143982Y-92274500D01*
X150035763Y-92303497D01*
X150035760Y-92303498D01*
X149938740Y-92359513D01*
X149938734Y-92359517D01*
X149859517Y-92438734D01*
X149859513Y-92438740D01*
X149803498Y-92535760D01*
X149803497Y-92535763D01*
X149774500Y-92643982D01*
X133250500Y-92643982D01*
X133250500Y-90701066D01*
X133267376Y-90638612D01*
X133269039Y-90635760D01*
X133497446Y-90243982D01*
X137974500Y-90243982D01*
X137974500Y-90356018D01*
X138003497Y-90464237D01*
X138059515Y-90561263D01*
X138138737Y-90640485D01*
X138235763Y-90696503D01*
X138282594Y-90709051D01*
X138342253Y-90745414D01*
X138372783Y-90808261D01*
X138374500Y-90828825D01*
X138374500Y-90856018D01*
X138403497Y-90964237D01*
X138459515Y-91061263D01*
X138538737Y-91140485D01*
X138635763Y-91196503D01*
X138743982Y-91225500D01*
X138743984Y-91225500D01*
X138856016Y-91225500D01*
X138856018Y-91225500D01*
X138964237Y-91196503D01*
X139061263Y-91140485D01*
X139140485Y-91061263D01*
X139196503Y-90964237D01*
X139225500Y-90856018D01*
X139225500Y-90743982D01*
X139196503Y-90635763D01*
X139140485Y-90538737D01*
X139061263Y-90459515D01*
X138964239Y-90403498D01*
X138964238Y-90403497D01*
X138938135Y-90396503D01*
X138917405Y-90390948D01*
X138857746Y-90354583D01*
X138827217Y-90291736D01*
X138825500Y-90271174D01*
X138825500Y-90243984D01*
X138825500Y-90243982D01*
X138796503Y-90135763D01*
X138740485Y-90038737D01*
X138661263Y-89959515D01*
X138634359Y-89943982D01*
X140824500Y-89943982D01*
X140824500Y-90056018D01*
X140848071Y-90143984D01*
X140853497Y-90164236D01*
X140853498Y-90164239D01*
X140858788Y-90173401D01*
X140909515Y-90261263D01*
X140988737Y-90340485D01*
X141047653Y-90374500D01*
X141079025Y-90392613D01*
X141127241Y-90443180D01*
X141140463Y-90511787D01*
X141114495Y-90576652D01*
X141079025Y-90607387D01*
X140988740Y-90659513D01*
X140988734Y-90659517D01*
X140909517Y-90738734D01*
X140909513Y-90738740D01*
X140853498Y-90835760D01*
X140853497Y-90835763D01*
X140824500Y-90943982D01*
X140824500Y-91056018D01*
X140852233Y-91159517D01*
X140853497Y-91164236D01*
X140853498Y-91164239D01*
X140864371Y-91183072D01*
X140909515Y-91261263D01*
X140988737Y-91340485D01*
X141085763Y-91396503D01*
X141193982Y-91425500D01*
X141193984Y-91425500D01*
X141306016Y-91425500D01*
X141306018Y-91425500D01*
X141414237Y-91396503D01*
X141511263Y-91340485D01*
X141590485Y-91261263D01*
X141642613Y-91170973D01*
X141693180Y-91122759D01*
X141761787Y-91109535D01*
X141826651Y-91135503D01*
X141857385Y-91170972D01*
X141909515Y-91261263D01*
X141988737Y-91340485D01*
X142085763Y-91396503D01*
X142193982Y-91425500D01*
X142193984Y-91425500D01*
X142306016Y-91425500D01*
X142306018Y-91425500D01*
X142414237Y-91396503D01*
X142511263Y-91340485D01*
X142590485Y-91261263D01*
X142646503Y-91164237D01*
X142675500Y-91056018D01*
X142675500Y-90943982D01*
X142646503Y-90835763D01*
X142590485Y-90738737D01*
X142511263Y-90659515D01*
X142420973Y-90607386D01*
X142372759Y-90556820D01*
X142359535Y-90488213D01*
X142385503Y-90423349D01*
X142420972Y-90392614D01*
X142511263Y-90340485D01*
X142590485Y-90261263D01*
X142646503Y-90164237D01*
X142675500Y-90056018D01*
X142675500Y-89943982D01*
X142646503Y-89835763D01*
X142593513Y-89743982D01*
X144274500Y-89743982D01*
X144274500Y-89856018D01*
X144303497Y-89964237D01*
X144359515Y-90061263D01*
X144438737Y-90140485D01*
X144495749Y-90173401D01*
X144529025Y-90192613D01*
X144577241Y-90243180D01*
X144590463Y-90311787D01*
X144564495Y-90376652D01*
X144529025Y-90407387D01*
X144438740Y-90459513D01*
X144438734Y-90459517D01*
X144359517Y-90538734D01*
X144359513Y-90538740D01*
X144303498Y-90635760D01*
X144303497Y-90635763D01*
X144274500Y-90743982D01*
X144274500Y-90856018D01*
X144303497Y-90964237D01*
X144359515Y-91061263D01*
X144438737Y-91140485D01*
X144512500Y-91183072D01*
X144560716Y-91233639D01*
X144574500Y-91290459D01*
X144574500Y-91356018D01*
X144603497Y-91464237D01*
X144659515Y-91561263D01*
X144738737Y-91640485D01*
X144835763Y-91696503D01*
X144943982Y-91725500D01*
X144943984Y-91725500D01*
X145056016Y-91725500D01*
X145056018Y-91725500D01*
X145164237Y-91696503D01*
X145168603Y-91693982D01*
X151824500Y-91693982D01*
X151824500Y-91806018D01*
X151853497Y-91914237D01*
X151909515Y-92011263D01*
X151988737Y-92090485D01*
X152085763Y-92146503D01*
X152193982Y-92175500D01*
X152193984Y-92175500D01*
X152306016Y-92175500D01*
X152306018Y-92175500D01*
X152414237Y-92146503D01*
X152511263Y-92090485D01*
X152590485Y-92011263D01*
X152646503Y-91914237D01*
X152675500Y-91806018D01*
X152675500Y-91693982D01*
X152646503Y-91585763D01*
X152590485Y-91488737D01*
X152545730Y-91443982D01*
X159574500Y-91443982D01*
X159574500Y-91556018D01*
X159603497Y-91664237D01*
X159659515Y-91761263D01*
X159738737Y-91840485D01*
X159835763Y-91896503D01*
X159943982Y-91925500D01*
X159943984Y-91925500D01*
X160056016Y-91925500D01*
X160056018Y-91925500D01*
X160164237Y-91896503D01*
X160261263Y-91840485D01*
X160340485Y-91761263D01*
X160396503Y-91664237D01*
X160425500Y-91556018D01*
X160425500Y-91443982D01*
X160396503Y-91335763D01*
X160340485Y-91238737D01*
X160261263Y-91159515D01*
X160164237Y-91103497D01*
X160056018Y-91074500D01*
X159943982Y-91074500D01*
X159835763Y-91103497D01*
X159835760Y-91103498D01*
X159738740Y-91159513D01*
X159738734Y-91159517D01*
X159659517Y-91238734D01*
X159659513Y-91238740D01*
X159603498Y-91335760D01*
X159603497Y-91335763D01*
X159574500Y-91443982D01*
X152545730Y-91443982D01*
X152511263Y-91409515D01*
X152446579Y-91372169D01*
X152414239Y-91353498D01*
X152414238Y-91353497D01*
X152414237Y-91353497D01*
X152306018Y-91324500D01*
X152193982Y-91324500D01*
X152085763Y-91353497D01*
X152085760Y-91353498D01*
X151988740Y-91409513D01*
X151988734Y-91409517D01*
X151909517Y-91488734D01*
X151909513Y-91488740D01*
X151853498Y-91585760D01*
X151853497Y-91585763D01*
X151824500Y-91693982D01*
X145168603Y-91693982D01*
X145261263Y-91640485D01*
X145340485Y-91561263D01*
X145396503Y-91464237D01*
X145425500Y-91356018D01*
X145425500Y-91243982D01*
X145396503Y-91135763D01*
X145340485Y-91038737D01*
X145261263Y-90959515D01*
X145214067Y-90932266D01*
X145187499Y-90916927D01*
X145139284Y-90866359D01*
X145125500Y-90809540D01*
X145125500Y-90743984D01*
X145125500Y-90743982D01*
X145096503Y-90635763D01*
X145043513Y-90543982D01*
X152074500Y-90543982D01*
X152074500Y-90656018D01*
X152103497Y-90764237D01*
X152159515Y-90861263D01*
X152238737Y-90940485D01*
X152335763Y-90996503D01*
X152443982Y-91025500D01*
X152443984Y-91025500D01*
X152556016Y-91025500D01*
X152556018Y-91025500D01*
X152664237Y-90996503D01*
X152761263Y-90940485D01*
X152840485Y-90861263D01*
X152896503Y-90764237D01*
X152925500Y-90656018D01*
X152925500Y-90543982D01*
X152896503Y-90435763D01*
X152840485Y-90338737D01*
X152761263Y-90259515D01*
X152664237Y-90203497D01*
X152556018Y-90174500D01*
X152443982Y-90174500D01*
X152335763Y-90203497D01*
X152335760Y-90203498D01*
X152238740Y-90259513D01*
X152238734Y-90259517D01*
X152159517Y-90338734D01*
X152159513Y-90338740D01*
X152103498Y-90435760D01*
X152103497Y-90435763D01*
X152074500Y-90543982D01*
X145043513Y-90543982D01*
X145040485Y-90538737D01*
X144961263Y-90459515D01*
X144870973Y-90407386D01*
X144822759Y-90356820D01*
X144809535Y-90288213D01*
X144835503Y-90223349D01*
X144870972Y-90192614D01*
X144955206Y-90143982D01*
X153974500Y-90143982D01*
X153974500Y-90256018D01*
X154003497Y-90364237D01*
X154059515Y-90461263D01*
X154138737Y-90540485D01*
X154235763Y-90596503D01*
X154343982Y-90625500D01*
X154343984Y-90625500D01*
X154456016Y-90625500D01*
X154456018Y-90625500D01*
X154564237Y-90596503D01*
X154661263Y-90540485D01*
X154740485Y-90461263D01*
X154796503Y-90364237D01*
X154825500Y-90256018D01*
X154825500Y-90143982D01*
X154796503Y-90035763D01*
X154740485Y-89938737D01*
X154661263Y-89859515D01*
X154564237Y-89803497D01*
X154456018Y-89774500D01*
X154343982Y-89774500D01*
X154235763Y-89803497D01*
X154235760Y-89803498D01*
X154138740Y-89859513D01*
X154138734Y-89859517D01*
X154059517Y-89938734D01*
X154059513Y-89938740D01*
X154003498Y-90035760D01*
X154003497Y-90035763D01*
X153974500Y-90143982D01*
X144955206Y-90143982D01*
X144961263Y-90140485D01*
X145040485Y-90061263D01*
X145096503Y-89964237D01*
X145125500Y-89856018D01*
X145125500Y-89743982D01*
X145096503Y-89635763D01*
X145066747Y-89584224D01*
X145050274Y-89516324D01*
X145073127Y-89450297D01*
X145080397Y-89443982D01*
X156174500Y-89443982D01*
X156174500Y-89556018D01*
X156203497Y-89664237D01*
X156259515Y-89761263D01*
X156338737Y-89840485D01*
X156435763Y-89896503D01*
X156543982Y-89925500D01*
X156543984Y-89925500D01*
X156656016Y-89925500D01*
X156656018Y-89925500D01*
X156764237Y-89896503D01*
X156861263Y-89840485D01*
X156940485Y-89761263D01*
X156996503Y-89664237D01*
X157025500Y-89556018D01*
X157025500Y-89443982D01*
X156996503Y-89335763D01*
X156940485Y-89238737D01*
X156861263Y-89159515D01*
X156764237Y-89103497D01*
X156656018Y-89074500D01*
X156543982Y-89074500D01*
X156435763Y-89103497D01*
X156435760Y-89103498D01*
X156338740Y-89159513D01*
X156338734Y-89159517D01*
X156259517Y-89238734D01*
X156259513Y-89238740D01*
X156203498Y-89335760D01*
X156203497Y-89335763D01*
X156174500Y-89443982D01*
X145080397Y-89443982D01*
X145117045Y-89412148D01*
X145129011Y-89405941D01*
X145164237Y-89396503D01*
X145261263Y-89340485D01*
X145340485Y-89261263D01*
X145396503Y-89164237D01*
X145425500Y-89056018D01*
X145425500Y-88943982D01*
X145396503Y-88835763D01*
X145340485Y-88738737D01*
X145261263Y-88659515D01*
X145164237Y-88603497D01*
X145056018Y-88574500D01*
X144943982Y-88574500D01*
X144835763Y-88603497D01*
X144835760Y-88603498D01*
X144738740Y-88659513D01*
X144738734Y-88659517D01*
X144659517Y-88738734D01*
X144659513Y-88738740D01*
X144603498Y-88835760D01*
X144603497Y-88835763D01*
X144574500Y-88943982D01*
X144574500Y-89056018D01*
X144602233Y-89159517D01*
X144603497Y-89164236D01*
X144603497Y-89164237D01*
X144633253Y-89215776D01*
X144649725Y-89283676D01*
X144626872Y-89349703D01*
X144571950Y-89392893D01*
X144557964Y-89397548D01*
X144549030Y-89399941D01*
X144535761Y-89403497D01*
X144535760Y-89403498D01*
X144438740Y-89459513D01*
X144438734Y-89459517D01*
X144359517Y-89538734D01*
X144359513Y-89538740D01*
X144303498Y-89635760D01*
X144303497Y-89635763D01*
X144274500Y-89743982D01*
X142593513Y-89743982D01*
X142590485Y-89738737D01*
X142511263Y-89659515D01*
X142414237Y-89603497D01*
X142306018Y-89574500D01*
X142193982Y-89574500D01*
X142085763Y-89603497D01*
X142085760Y-89603498D01*
X141988740Y-89659513D01*
X141988734Y-89659517D01*
X141909517Y-89738734D01*
X141909513Y-89738740D01*
X141857387Y-89829025D01*
X141806820Y-89877241D01*
X141738213Y-89890463D01*
X141673348Y-89864495D01*
X141642613Y-89829025D01*
X141624617Y-89797855D01*
X141590485Y-89738737D01*
X141511263Y-89659515D01*
X141414237Y-89603497D01*
X141306018Y-89574500D01*
X141193982Y-89574500D01*
X141085763Y-89603497D01*
X141085760Y-89603498D01*
X140988740Y-89659513D01*
X140988734Y-89659517D01*
X140909517Y-89738734D01*
X140909513Y-89738740D01*
X140853498Y-89835760D01*
X140853497Y-89835763D01*
X140824500Y-89943982D01*
X138634359Y-89943982D01*
X138564237Y-89903497D01*
X138456018Y-89874500D01*
X138343982Y-89874500D01*
X138235763Y-89903497D01*
X138235760Y-89903498D01*
X138138740Y-89959513D01*
X138138734Y-89959517D01*
X138059517Y-90038734D01*
X138059513Y-90038740D01*
X138003498Y-90135760D01*
X138003497Y-90135763D01*
X137974500Y-90243982D01*
X133497446Y-90243982D01*
X133656789Y-89970667D01*
X133659701Y-89965923D01*
X134129413Y-89238379D01*
X134132533Y-89233778D01*
X134634830Y-88528313D01*
X134638169Y-88523843D01*
X135171984Y-87841958D01*
X135175517Y-87837650D01*
X135739783Y-87180707D01*
X135743511Y-87176562D01*
X135962412Y-86943982D01*
X141074500Y-86943982D01*
X141074500Y-87056018D01*
X141100973Y-87154815D01*
X141103497Y-87164236D01*
X141103498Y-87164239D01*
X141111788Y-87178597D01*
X141159515Y-87261263D01*
X141238737Y-87340485D01*
X141335763Y-87396503D01*
X141443982Y-87425500D01*
X141443984Y-87425500D01*
X141450500Y-87425500D01*
X141517539Y-87445185D01*
X141563294Y-87497989D01*
X141574500Y-87549500D01*
X141574500Y-87656018D01*
X141596665Y-87738737D01*
X141603497Y-87764236D01*
X141603498Y-87764239D01*
X141622169Y-87796579D01*
X141659515Y-87861263D01*
X141738737Y-87940485D01*
X141835763Y-87996503D01*
X141943982Y-88025500D01*
X141943984Y-88025500D01*
X142056016Y-88025500D01*
X142056018Y-88025500D01*
X142164237Y-87996503D01*
X142261263Y-87940485D01*
X142340485Y-87861263D01*
X142392613Y-87770973D01*
X142443180Y-87722759D01*
X142511787Y-87709535D01*
X142576651Y-87735503D01*
X142607385Y-87770972D01*
X142659515Y-87861263D01*
X142738737Y-87940485D01*
X142835763Y-87996503D01*
X142943982Y-88025500D01*
X142943984Y-88025500D01*
X143056016Y-88025500D01*
X143056018Y-88025500D01*
X143164237Y-87996503D01*
X143255206Y-87943982D01*
X153324500Y-87943982D01*
X153324500Y-88056018D01*
X153353497Y-88164237D01*
X153409515Y-88261263D01*
X153488737Y-88340485D01*
X153585763Y-88396503D01*
X153693982Y-88425500D01*
X153693984Y-88425500D01*
X153806016Y-88425500D01*
X153806018Y-88425500D01*
X153914237Y-88396503D01*
X154011263Y-88340485D01*
X154090485Y-88261263D01*
X154146503Y-88164237D01*
X154175500Y-88056018D01*
X154175500Y-87943982D01*
X154146503Y-87835763D01*
X154090485Y-87738737D01*
X154011263Y-87659515D01*
X153914237Y-87603497D01*
X153806018Y-87574500D01*
X153693982Y-87574500D01*
X153585763Y-87603497D01*
X153585760Y-87603498D01*
X153488740Y-87659513D01*
X153488734Y-87659517D01*
X153409517Y-87738734D01*
X153409513Y-87738740D01*
X153353498Y-87835760D01*
X153353497Y-87835763D01*
X153324500Y-87943982D01*
X143255206Y-87943982D01*
X143261263Y-87940485D01*
X143340485Y-87861263D01*
X143396503Y-87764237D01*
X143425500Y-87656018D01*
X143425500Y-87543982D01*
X143396503Y-87435763D01*
X143340485Y-87338737D01*
X143261263Y-87259515D01*
X143164237Y-87203497D01*
X143056018Y-87174500D01*
X143049500Y-87174500D01*
X142982461Y-87154815D01*
X142936706Y-87102011D01*
X142925500Y-87050500D01*
X142925500Y-86943984D01*
X142925500Y-86943982D01*
X142896503Y-86835763D01*
X142840485Y-86738737D01*
X142761263Y-86659515D01*
X142696579Y-86622169D01*
X142664239Y-86603498D01*
X142664238Y-86603497D01*
X142664237Y-86603497D01*
X142556018Y-86574500D01*
X142443982Y-86574500D01*
X142335763Y-86603497D01*
X142335760Y-86603498D01*
X142238740Y-86659513D01*
X142238734Y-86659517D01*
X142159517Y-86738734D01*
X142159513Y-86738740D01*
X142107387Y-86829025D01*
X142056820Y-86877241D01*
X141988213Y-86890463D01*
X141923348Y-86864495D01*
X141892613Y-86829025D01*
X141857481Y-86768175D01*
X141840485Y-86738737D01*
X141761263Y-86659515D01*
X141696579Y-86622169D01*
X141664239Y-86603498D01*
X141664238Y-86603497D01*
X141664237Y-86603497D01*
X141556018Y-86574500D01*
X141443982Y-86574500D01*
X141335763Y-86603497D01*
X141335760Y-86603498D01*
X141238740Y-86659513D01*
X141238734Y-86659517D01*
X141159517Y-86738734D01*
X141159513Y-86738740D01*
X141103498Y-86835760D01*
X141103497Y-86835763D01*
X141074500Y-86943982D01*
X135962412Y-86943982D01*
X136337047Y-86545937D01*
X136340935Y-86541991D01*
X136957367Y-85943982D01*
X150974500Y-85943982D01*
X150974500Y-86056018D01*
X151003497Y-86164237D01*
X151059515Y-86261263D01*
X151138737Y-86340485D01*
X151235763Y-86396503D01*
X151343982Y-86425500D01*
X151343984Y-86425500D01*
X151456016Y-86425500D01*
X151456018Y-86425500D01*
X151564237Y-86396503D01*
X151661263Y-86340485D01*
X151740485Y-86261263D01*
X151796503Y-86164237D01*
X151825500Y-86056018D01*
X151825500Y-85943982D01*
X151796503Y-85835763D01*
X151740485Y-85738737D01*
X151661263Y-85659515D01*
X151634359Y-85643982D01*
X152674500Y-85643982D01*
X152674500Y-85756018D01*
X152703497Y-85864237D01*
X152759515Y-85961263D01*
X152838737Y-86040485D01*
X152935763Y-86096503D01*
X153043982Y-86125500D01*
X153043984Y-86125500D01*
X153156016Y-86125500D01*
X153156018Y-86125500D01*
X153264237Y-86096503D01*
X153361263Y-86040485D01*
X153440485Y-85961263D01*
X153496503Y-85864237D01*
X153525500Y-85756018D01*
X153525500Y-85643982D01*
X153496503Y-85535763D01*
X153440485Y-85438737D01*
X153436671Y-85434923D01*
X153403186Y-85373600D01*
X153408170Y-85303908D01*
X153450042Y-85247975D01*
X153460427Y-85241125D01*
X153461255Y-85240489D01*
X153461263Y-85240485D01*
X153540485Y-85161263D01*
X153596503Y-85064237D01*
X153625500Y-84956018D01*
X153625500Y-84843982D01*
X153596503Y-84735763D01*
X153540485Y-84638737D01*
X153461263Y-84559515D01*
X153364237Y-84503497D01*
X153256018Y-84474500D01*
X153143982Y-84474500D01*
X153035763Y-84503497D01*
X153035760Y-84503498D01*
X152938740Y-84559513D01*
X152938734Y-84559517D01*
X152859517Y-84638734D01*
X152859513Y-84638740D01*
X152803498Y-84735760D01*
X152803497Y-84735763D01*
X152774500Y-84843982D01*
X152774500Y-84956018D01*
X152803497Y-85064237D01*
X152859515Y-85161263D01*
X152859517Y-85161265D01*
X152863328Y-85165076D01*
X152896813Y-85226399D01*
X152891829Y-85296091D01*
X152849957Y-85352024D01*
X152839576Y-85358871D01*
X152838734Y-85359517D01*
X152759517Y-85438734D01*
X152759513Y-85438740D01*
X152703498Y-85535760D01*
X152703497Y-85535763D01*
X152674500Y-85643982D01*
X151634359Y-85643982D01*
X151564237Y-85603497D01*
X151456018Y-85574500D01*
X151343982Y-85574500D01*
X151235763Y-85603497D01*
X151235760Y-85603498D01*
X151138740Y-85659513D01*
X151138734Y-85659517D01*
X151059517Y-85738734D01*
X151059513Y-85738740D01*
X151003498Y-85835760D01*
X151003497Y-85835763D01*
X150974500Y-85943982D01*
X136957367Y-85943982D01*
X136962507Y-85938996D01*
X136966585Y-85935215D01*
X137614952Y-85361057D01*
X137619195Y-85357470D01*
X137688511Y-85301495D01*
X142429499Y-85301495D01*
X142456418Y-85436822D01*
X142456421Y-85436832D01*
X142509221Y-85564304D01*
X142509228Y-85564317D01*
X142585885Y-85679041D01*
X142585888Y-85679045D01*
X142683454Y-85776611D01*
X142683458Y-85776614D01*
X142798182Y-85853271D01*
X142798195Y-85853278D01*
X142925667Y-85906078D01*
X142925672Y-85906080D01*
X142925676Y-85906080D01*
X142925677Y-85906081D01*
X143061004Y-85933000D01*
X143061007Y-85933000D01*
X143198995Y-85933000D01*
X143290041Y-85914889D01*
X143334328Y-85906080D01*
X143461811Y-85853275D01*
X143550730Y-85793861D01*
X143617405Y-85772984D01*
X143684785Y-85791468D01*
X143722721Y-85828073D01*
X143755447Y-85877052D01*
X143821769Y-85921367D01*
X143821770Y-85921368D01*
X143880247Y-85932999D01*
X143880250Y-85933000D01*
X143880252Y-85933000D01*
X144919750Y-85933000D01*
X144919751Y-85932999D01*
X144934568Y-85930052D01*
X144978229Y-85921368D01*
X144978229Y-85921367D01*
X144978231Y-85921367D01*
X145044552Y-85877052D01*
X145088867Y-85810731D01*
X145088867Y-85810729D01*
X145088868Y-85810729D01*
X145100499Y-85752252D01*
X145100500Y-85752250D01*
X145100500Y-84712749D01*
X145100499Y-84712747D01*
X145088868Y-84654270D01*
X145088867Y-84654269D01*
X145044552Y-84587947D01*
X144978230Y-84543632D01*
X144978229Y-84543631D01*
X144919752Y-84532000D01*
X144919748Y-84532000D01*
X143880252Y-84532000D01*
X143880247Y-84532000D01*
X143821770Y-84543631D01*
X143821769Y-84543632D01*
X143755447Y-84587947D01*
X143722721Y-84636926D01*
X143669108Y-84681731D01*
X143599783Y-84690438D01*
X143550728Y-84671137D01*
X143461817Y-84611728D01*
X143461804Y-84611721D01*
X143334332Y-84558921D01*
X143334322Y-84558918D01*
X143198995Y-84532000D01*
X143198993Y-84532000D01*
X143061007Y-84532000D01*
X143061005Y-84532000D01*
X142925677Y-84558918D01*
X142925667Y-84558921D01*
X142798195Y-84611721D01*
X142798182Y-84611728D01*
X142683458Y-84688385D01*
X142683454Y-84688388D01*
X142585888Y-84785954D01*
X142585885Y-84785958D01*
X142509228Y-84900682D01*
X142509221Y-84900695D01*
X142456421Y-85028167D01*
X142456418Y-85028177D01*
X142429500Y-85163504D01*
X142429500Y-85163507D01*
X142429500Y-85301493D01*
X142429500Y-85301495D01*
X142429499Y-85301495D01*
X137688511Y-85301495D01*
X138292940Y-84813401D01*
X138297317Y-84810027D01*
X138995126Y-84297109D01*
X138999683Y-84293916D01*
X139720059Y-83813250D01*
X139724734Y-83810282D01*
X140466223Y-83362837D01*
X140471059Y-83360068D01*
X140500681Y-83343982D01*
X148474500Y-83343982D01*
X148474500Y-83456018D01*
X148503497Y-83564237D01*
X148559515Y-83661263D01*
X148638737Y-83740485D01*
X148735763Y-83796503D01*
X148843982Y-83825500D01*
X148843984Y-83825500D01*
X148956016Y-83825500D01*
X148956018Y-83825500D01*
X149064237Y-83796503D01*
X149161263Y-83740485D01*
X149240485Y-83661263D01*
X149296503Y-83564237D01*
X149325500Y-83456018D01*
X149325500Y-83343982D01*
X149296503Y-83235763D01*
X149240485Y-83138737D01*
X149161263Y-83059515D01*
X149064237Y-83003497D01*
X148956018Y-82974500D01*
X148843982Y-82974500D01*
X148735763Y-83003497D01*
X148735760Y-83003498D01*
X148638740Y-83059513D01*
X148638734Y-83059517D01*
X148559517Y-83138734D01*
X148559513Y-83138740D01*
X148503498Y-83235760D01*
X148503497Y-83235763D01*
X148474500Y-83343982D01*
X140500681Y-83343982D01*
X141232068Y-82946807D01*
X141237012Y-82944265D01*
X142016020Y-82566008D01*
X142021123Y-82563671D01*
X142816517Y-82221203D01*
X142821701Y-82219110D01*
X143631826Y-81913142D01*
X143637080Y-81911293D01*
X144460267Y-81642457D01*
X144465622Y-81640842D01*
X145300198Y-81409682D01*
X145305621Y-81408313D01*
X146149804Y-81215325D01*
X146155289Y-81214201D01*
X147007384Y-81059771D01*
X147012896Y-81058901D01*
X147871130Y-80943349D01*
X147876706Y-80942727D01*
X148739281Y-80866297D01*
X148744876Y-80865928D01*
X149610034Y-80828773D01*
X149615656Y-80828660D01*
X150481649Y-80830856D01*
G37*
%TD.AperFunction*%
%TD*%
M02*
