%TF.GenerationSoftware,KiCad,Pcbnew,9.0.7-1.fc43*%
%TF.CreationDate,2026-01-31T17:59:12-08:00*%
%TF.ProjectId,watch,77617463-682e-46b6-9963-61645f706362,rev?*%
%TF.SameCoordinates,Original*%
%TF.FileFunction,Legend,Bot*%
%TF.FilePolarity,Positive*%
%FSLAX46Y46*%
G04 Gerber Fmt 4.6, Leading zero omitted, Abs format (unit mm)*
G04 Created by KiCad (PCBNEW 9.0.7-1.fc43) date 2026-01-31 17:59:12*
%MOMM*%
%LPD*%
G01*
G04 APERTURE LIST*
G04 Aperture macros list*
%AMRoundRect*
0 Rectangle with rounded corners*
0 $1 Rounding radius*
0 $2 $3 $4 $5 $6 $7 $8 $9 X,Y pos of 4 corners*
0 Add a 4 corners polygon primitive as box body*
4,1,4,$2,$3,$4,$5,$6,$7,$8,$9,$2,$3,0*
0 Add four circle primitives for the rounded corners*
1,1,$1+$1,$2,$3*
1,1,$1+$1,$4,$5*
1,1,$1+$1,$6,$7*
1,1,$1+$1,$8,$9*
0 Add four rect primitives between the rounded corners*
20,1,$1+$1,$2,$3,$4,$5,0*
20,1,$1+$1,$4,$5,$6,$7,0*
20,1,$1+$1,$6,$7,$8,$9,0*
20,1,$1+$1,$8,$9,$2,$3,0*%
%AMFreePoly0*
4,1,17,0.675000,0.300000,0.260846,0.300000,0.317341,0.243505,0.369552,0.153073,0.396578,0.052210,0.396578,-0.052210,0.369552,-0.153073,0.317341,-0.243505,0.243505,-0.317341,0.153073,-0.369552,0.052210,-0.396578,0.000000,-0.396578,0.000000,-0.400000,-0.475000,-0.400000,-0.475000,0.950000,0.675000,0.950000,0.675000,0.300000,0.675000,0.300000,$1*%
%AMFreePoly1*
4,1,17,0.475000,-0.400000,0.000000,-0.400000,0.000000,-0.396578,-0.052210,-0.396578,-0.153073,-0.369552,-0.243505,-0.317341,-0.317341,-0.243505,-0.369552,-0.153073,-0.396578,-0.052210,-0.396578,0.052210,-0.369552,0.153073,-0.317341,0.243505,-0.260846,0.300000,-0.675000,0.300000,-0.675000,0.950000,0.475000,0.950000,0.475000,-0.400000,0.475000,-0.400000,$1*%
G04 Aperture macros list end*
%ADD10C,0.130000*%
%ADD11C,0.150000*%
%ADD12C,0.000000*%
%ADD13C,0.120000*%
%ADD14C,0.160000*%
%ADD15C,0.990600*%
%ADD16R,1.000000X1.000000*%
%ADD17C,1.000000*%
%ADD18FreePoly0,255.000000*%
%ADD19FreePoly1,255.000000*%
%ADD20C,1.150000*%
%ADD21O,1.100000X1.600000*%
%ADD22FreePoly0,285.000000*%
%ADD23FreePoly1,285.000000*%
%ADD24R,1.680000X0.400000*%
%ADD25RoundRect,0.250000X1.450000X0.650000X-1.450000X0.650000X-1.450000X-0.650000X1.450000X-0.650000X0*%
%ADD26RoundRect,0.250000X0.337500X0.475000X-0.337500X0.475000X-0.337500X-0.475000X0.337500X-0.475000X0*%
%ADD27RoundRect,0.155000X-0.155000X0.212500X-0.155000X-0.212500X0.155000X-0.212500X0.155000X0.212500X0*%
G04 APERTURE END LIST*
D10*
X134039217Y-91166478D02*
X134889217Y-91449811D01*
X134889217Y-91449811D02*
X134039217Y-91733145D01*
X134039217Y-92178382D02*
X134039217Y-92259335D01*
X134039217Y-92259335D02*
X134079693Y-92340287D01*
X134079693Y-92340287D02*
X134120169Y-92380763D01*
X134120169Y-92380763D02*
X134201121Y-92421239D01*
X134201121Y-92421239D02*
X134363026Y-92461716D01*
X134363026Y-92461716D02*
X134565407Y-92461716D01*
X134565407Y-92461716D02*
X134727312Y-92421239D01*
X134727312Y-92421239D02*
X134808264Y-92380763D01*
X134808264Y-92380763D02*
X134848741Y-92340287D01*
X134848741Y-92340287D02*
X134889217Y-92259335D01*
X134889217Y-92259335D02*
X134889217Y-92178382D01*
X134889217Y-92178382D02*
X134848741Y-92097430D01*
X134848741Y-92097430D02*
X134808264Y-92056954D01*
X134808264Y-92056954D02*
X134727312Y-92016477D01*
X134727312Y-92016477D02*
X134565407Y-91976001D01*
X134565407Y-91976001D02*
X134363026Y-91976001D01*
X134363026Y-91976001D02*
X134201121Y-92016477D01*
X134201121Y-92016477D02*
X134120169Y-92056954D01*
X134120169Y-92056954D02*
X134079693Y-92097430D01*
X134079693Y-92097430D02*
X134039217Y-92178382D01*
X134889217Y-93271240D02*
X134889217Y-92785525D01*
X134889217Y-93028382D02*
X134039217Y-93028382D01*
X134039217Y-93028382D02*
X134160645Y-92947430D01*
X134160645Y-92947430D02*
X134241598Y-92866478D01*
X134241598Y-92866478D02*
X134282074Y-92785525D01*
D11*
X160847701Y-86988095D02*
X160888177Y-87109524D01*
X160888177Y-87109524D02*
X160888177Y-87311905D01*
X160888177Y-87311905D02*
X160847701Y-87392857D01*
X160847701Y-87392857D02*
X160807224Y-87433333D01*
X160807224Y-87433333D02*
X160726272Y-87473810D01*
X160726272Y-87473810D02*
X160645320Y-87473810D01*
X160645320Y-87473810D02*
X160564367Y-87433333D01*
X160564367Y-87433333D02*
X160523891Y-87392857D01*
X160523891Y-87392857D02*
X160483415Y-87311905D01*
X160483415Y-87311905D02*
X160442939Y-87150000D01*
X160442939Y-87150000D02*
X160402462Y-87069048D01*
X160402462Y-87069048D02*
X160361986Y-87028571D01*
X160361986Y-87028571D02*
X160281034Y-86988095D01*
X160281034Y-86988095D02*
X160200081Y-86988095D01*
X160200081Y-86988095D02*
X160119129Y-87028571D01*
X160119129Y-87028571D02*
X160078653Y-87069048D01*
X160078653Y-87069048D02*
X160038177Y-87150000D01*
X160038177Y-87150000D02*
X160038177Y-87352381D01*
X160038177Y-87352381D02*
X160078653Y-87473810D01*
X160807224Y-88323810D02*
X160847701Y-88283334D01*
X160847701Y-88283334D02*
X160888177Y-88161905D01*
X160888177Y-88161905D02*
X160888177Y-88080953D01*
X160888177Y-88080953D02*
X160847701Y-87959524D01*
X160847701Y-87959524D02*
X160766748Y-87878572D01*
X160766748Y-87878572D02*
X160685796Y-87838095D01*
X160685796Y-87838095D02*
X160523891Y-87797619D01*
X160523891Y-87797619D02*
X160402462Y-87797619D01*
X160402462Y-87797619D02*
X160240558Y-87838095D01*
X160240558Y-87838095D02*
X160159605Y-87878572D01*
X160159605Y-87878572D02*
X160078653Y-87959524D01*
X160078653Y-87959524D02*
X160038177Y-88080953D01*
X160038177Y-88080953D02*
X160038177Y-88161905D01*
X160038177Y-88161905D02*
X160078653Y-88283334D01*
X160078653Y-88283334D02*
X160119129Y-88323810D01*
X160888177Y-89092857D02*
X160888177Y-88688095D01*
X160888177Y-88688095D02*
X160038177Y-88688095D01*
X151538177Y-89542857D02*
X152388177Y-89826190D01*
X152388177Y-89826190D02*
X151538177Y-90109524D01*
X152347701Y-90352380D02*
X152388177Y-90473809D01*
X152388177Y-90473809D02*
X152388177Y-90676190D01*
X152388177Y-90676190D02*
X152347701Y-90757142D01*
X152347701Y-90757142D02*
X152307224Y-90797618D01*
X152307224Y-90797618D02*
X152226272Y-90838095D01*
X152226272Y-90838095D02*
X152145320Y-90838095D01*
X152145320Y-90838095D02*
X152064367Y-90797618D01*
X152064367Y-90797618D02*
X152023891Y-90757142D01*
X152023891Y-90757142D02*
X151983415Y-90676190D01*
X151983415Y-90676190D02*
X151942939Y-90514285D01*
X151942939Y-90514285D02*
X151902462Y-90433333D01*
X151902462Y-90433333D02*
X151861986Y-90392856D01*
X151861986Y-90392856D02*
X151781034Y-90352380D01*
X151781034Y-90352380D02*
X151700081Y-90352380D01*
X151700081Y-90352380D02*
X151619129Y-90392856D01*
X151619129Y-90392856D02*
X151578653Y-90433333D01*
X151578653Y-90433333D02*
X151538177Y-90514285D01*
X151538177Y-90514285D02*
X151538177Y-90716666D01*
X151538177Y-90716666D02*
X151578653Y-90838095D01*
X151983415Y-91364285D02*
X152388177Y-91364285D01*
X151538177Y-91080952D02*
X151983415Y-91364285D01*
X151983415Y-91364285D02*
X151538177Y-91647619D01*
X152347701Y-91890475D02*
X152388177Y-92011904D01*
X152388177Y-92011904D02*
X152388177Y-92214285D01*
X152388177Y-92214285D02*
X152347701Y-92295237D01*
X152347701Y-92295237D02*
X152307224Y-92335713D01*
X152307224Y-92335713D02*
X152226272Y-92376190D01*
X152226272Y-92376190D02*
X152145320Y-92376190D01*
X152145320Y-92376190D02*
X152064367Y-92335713D01*
X152064367Y-92335713D02*
X152023891Y-92295237D01*
X152023891Y-92295237D02*
X151983415Y-92214285D01*
X151983415Y-92214285D02*
X151942939Y-92052380D01*
X151942939Y-92052380D02*
X151902462Y-91971428D01*
X151902462Y-91971428D02*
X151861986Y-91930951D01*
X151861986Y-91930951D02*
X151781034Y-91890475D01*
X151781034Y-91890475D02*
X151700081Y-91890475D01*
X151700081Y-91890475D02*
X151619129Y-91930951D01*
X151619129Y-91930951D02*
X151578653Y-91971428D01*
X151578653Y-91971428D02*
X151538177Y-92052380D01*
X151538177Y-92052380D02*
X151538177Y-92254761D01*
X151538177Y-92254761D02*
X151578653Y-92376190D01*
X151538177Y-86866667D02*
X152388177Y-87150000D01*
X152388177Y-87150000D02*
X151538177Y-87433334D01*
X152388177Y-87716666D02*
X151538177Y-87716666D01*
X151538177Y-87716666D02*
X151538177Y-87919047D01*
X151538177Y-87919047D02*
X151578653Y-88040476D01*
X151578653Y-88040476D02*
X151659605Y-88121428D01*
X151659605Y-88121428D02*
X151740558Y-88161905D01*
X151740558Y-88161905D02*
X151902462Y-88202381D01*
X151902462Y-88202381D02*
X152023891Y-88202381D01*
X152023891Y-88202381D02*
X152185796Y-88161905D01*
X152185796Y-88161905D02*
X152266748Y-88121428D01*
X152266748Y-88121428D02*
X152347701Y-88040476D01*
X152347701Y-88040476D02*
X152388177Y-87919047D01*
X152388177Y-87919047D02*
X152388177Y-87716666D01*
X152388177Y-88566666D02*
X151538177Y-88566666D01*
X151538177Y-88566666D02*
X151538177Y-88769047D01*
X151538177Y-88769047D02*
X151578653Y-88890476D01*
X151578653Y-88890476D02*
X151659605Y-88971428D01*
X151659605Y-88971428D02*
X151740558Y-89011905D01*
X151740558Y-89011905D02*
X151902462Y-89052381D01*
X151902462Y-89052381D02*
X152023891Y-89052381D01*
X152023891Y-89052381D02*
X152185796Y-89011905D01*
X152185796Y-89011905D02*
X152266748Y-88971428D01*
X152266748Y-88971428D02*
X152347701Y-88890476D01*
X152347701Y-88890476D02*
X152388177Y-88769047D01*
X152388177Y-88769047D02*
X152388177Y-88566666D01*
X151538177Y-83603572D02*
X152388177Y-83886905D01*
X152388177Y-83886905D02*
X151538177Y-84170239D01*
X151942939Y-84736905D02*
X151983415Y-84858333D01*
X151983415Y-84858333D02*
X152023891Y-84898810D01*
X152023891Y-84898810D02*
X152104843Y-84939286D01*
X152104843Y-84939286D02*
X152226272Y-84939286D01*
X152226272Y-84939286D02*
X152307224Y-84898810D01*
X152307224Y-84898810D02*
X152347701Y-84858333D01*
X152347701Y-84858333D02*
X152388177Y-84777381D01*
X152388177Y-84777381D02*
X152388177Y-84453571D01*
X152388177Y-84453571D02*
X151538177Y-84453571D01*
X151538177Y-84453571D02*
X151538177Y-84736905D01*
X151538177Y-84736905D02*
X151578653Y-84817857D01*
X151578653Y-84817857D02*
X151619129Y-84858333D01*
X151619129Y-84858333D02*
X151700081Y-84898810D01*
X151700081Y-84898810D02*
X151781034Y-84898810D01*
X151781034Y-84898810D02*
X151861986Y-84858333D01*
X151861986Y-84858333D02*
X151902462Y-84817857D01*
X151902462Y-84817857D02*
X151942939Y-84736905D01*
X151942939Y-84736905D02*
X151942939Y-84453571D01*
X152145320Y-85263095D02*
X152145320Y-85667857D01*
X152388177Y-85182143D02*
X151538177Y-85465476D01*
X151538177Y-85465476D02*
X152388177Y-85748810D01*
X151538177Y-85910714D02*
X151538177Y-86396428D01*
X152388177Y-86153571D02*
X151538177Y-86153571D01*
X160847701Y-89967857D02*
X160888177Y-90089286D01*
X160888177Y-90089286D02*
X160888177Y-90291667D01*
X160888177Y-90291667D02*
X160847701Y-90372619D01*
X160847701Y-90372619D02*
X160807224Y-90413095D01*
X160807224Y-90413095D02*
X160726272Y-90453572D01*
X160726272Y-90453572D02*
X160645320Y-90453572D01*
X160645320Y-90453572D02*
X160564367Y-90413095D01*
X160564367Y-90413095D02*
X160523891Y-90372619D01*
X160523891Y-90372619D02*
X160483415Y-90291667D01*
X160483415Y-90291667D02*
X160442939Y-90129762D01*
X160442939Y-90129762D02*
X160402462Y-90048810D01*
X160402462Y-90048810D02*
X160361986Y-90008333D01*
X160361986Y-90008333D02*
X160281034Y-89967857D01*
X160281034Y-89967857D02*
X160200081Y-89967857D01*
X160200081Y-89967857D02*
X160119129Y-90008333D01*
X160119129Y-90008333D02*
X160078653Y-90048810D01*
X160078653Y-90048810D02*
X160038177Y-90129762D01*
X160038177Y-90129762D02*
X160038177Y-90332143D01*
X160038177Y-90332143D02*
X160078653Y-90453572D01*
X160888177Y-90817857D02*
X160038177Y-90817857D01*
X160038177Y-90817857D02*
X160038177Y-91020238D01*
X160038177Y-91020238D02*
X160078653Y-91141667D01*
X160078653Y-91141667D02*
X160159605Y-91222619D01*
X160159605Y-91222619D02*
X160240558Y-91263096D01*
X160240558Y-91263096D02*
X160402462Y-91303572D01*
X160402462Y-91303572D02*
X160523891Y-91303572D01*
X160523891Y-91303572D02*
X160685796Y-91263096D01*
X160685796Y-91263096D02*
X160766748Y-91222619D01*
X160766748Y-91222619D02*
X160847701Y-91141667D01*
X160847701Y-91141667D02*
X160888177Y-91020238D01*
X160888177Y-91020238D02*
X160888177Y-90817857D01*
X160645320Y-91627381D02*
X160645320Y-92032143D01*
X160888177Y-91546429D02*
X160038177Y-91829762D01*
X160038177Y-91829762D02*
X160888177Y-92113096D01*
X158578653Y-84352381D02*
X158538177Y-84271428D01*
X158538177Y-84271428D02*
X158538177Y-84150000D01*
X158538177Y-84150000D02*
X158578653Y-84028571D01*
X158578653Y-84028571D02*
X158659605Y-83947619D01*
X158659605Y-83947619D02*
X158740558Y-83907142D01*
X158740558Y-83907142D02*
X158902462Y-83866666D01*
X158902462Y-83866666D02*
X159023891Y-83866666D01*
X159023891Y-83866666D02*
X159185796Y-83907142D01*
X159185796Y-83907142D02*
X159266748Y-83947619D01*
X159266748Y-83947619D02*
X159347701Y-84028571D01*
X159347701Y-84028571D02*
X159388177Y-84150000D01*
X159388177Y-84150000D02*
X159388177Y-84230952D01*
X159388177Y-84230952D02*
X159347701Y-84352381D01*
X159347701Y-84352381D02*
X159307224Y-84392857D01*
X159307224Y-84392857D02*
X159023891Y-84392857D01*
X159023891Y-84392857D02*
X159023891Y-84230952D01*
X159388177Y-84757142D02*
X158538177Y-84757142D01*
X158538177Y-84757142D02*
X159388177Y-85242857D01*
X159388177Y-85242857D02*
X158538177Y-85242857D01*
X159388177Y-85647618D02*
X158538177Y-85647618D01*
X158538177Y-85647618D02*
X158538177Y-85849999D01*
X158538177Y-85849999D02*
X158578653Y-85971428D01*
X158578653Y-85971428D02*
X158659605Y-86052380D01*
X158659605Y-86052380D02*
X158740558Y-86092857D01*
X158740558Y-86092857D02*
X158902462Y-86133333D01*
X158902462Y-86133333D02*
X159023891Y-86133333D01*
X159023891Y-86133333D02*
X159185796Y-86092857D01*
X159185796Y-86092857D02*
X159266748Y-86052380D01*
X159266748Y-86052380D02*
X159347701Y-85971428D01*
X159347701Y-85971428D02*
X159388177Y-85849999D01*
X159388177Y-85849999D02*
X159388177Y-85647618D01*
X153428571Y-117346009D02*
X153285714Y-117393628D01*
X153285714Y-117393628D02*
X153238095Y-117441247D01*
X153238095Y-117441247D02*
X153190476Y-117536485D01*
X153190476Y-117536485D02*
X153190476Y-117679342D01*
X153190476Y-117679342D02*
X153238095Y-117774580D01*
X153238095Y-117774580D02*
X153285714Y-117822200D01*
X153285714Y-117822200D02*
X153380952Y-117869819D01*
X153380952Y-117869819D02*
X153761904Y-117869819D01*
X153761904Y-117869819D02*
X153761904Y-116869819D01*
X153761904Y-116869819D02*
X153428571Y-116869819D01*
X153428571Y-116869819D02*
X153333333Y-116917438D01*
X153333333Y-116917438D02*
X153285714Y-116965057D01*
X153285714Y-116965057D02*
X153238095Y-117060295D01*
X153238095Y-117060295D02*
X153238095Y-117155533D01*
X153238095Y-117155533D02*
X153285714Y-117250771D01*
X153285714Y-117250771D02*
X153333333Y-117298390D01*
X153333333Y-117298390D02*
X153428571Y-117346009D01*
X153428571Y-117346009D02*
X153761904Y-117346009D01*
X152761904Y-117869819D02*
X152761904Y-117203152D01*
X152761904Y-117393628D02*
X152714285Y-117298390D01*
X152714285Y-117298390D02*
X152666666Y-117250771D01*
X152666666Y-117250771D02*
X152571428Y-117203152D01*
X152571428Y-117203152D02*
X152476190Y-117203152D01*
X152142856Y-117869819D02*
X152142856Y-117203152D01*
X152142856Y-116869819D02*
X152190475Y-116917438D01*
X152190475Y-116917438D02*
X152142856Y-116965057D01*
X152142856Y-116965057D02*
X152095237Y-116917438D01*
X152095237Y-116917438D02*
X152142856Y-116869819D01*
X152142856Y-116869819D02*
X152142856Y-116965057D01*
X151238095Y-117869819D02*
X151238095Y-117346009D01*
X151238095Y-117346009D02*
X151285714Y-117250771D01*
X151285714Y-117250771D02*
X151380952Y-117203152D01*
X151380952Y-117203152D02*
X151571428Y-117203152D01*
X151571428Y-117203152D02*
X151666666Y-117250771D01*
X151238095Y-117822200D02*
X151333333Y-117869819D01*
X151333333Y-117869819D02*
X151571428Y-117869819D01*
X151571428Y-117869819D02*
X151666666Y-117822200D01*
X151666666Y-117822200D02*
X151714285Y-117726961D01*
X151714285Y-117726961D02*
X151714285Y-117631723D01*
X151714285Y-117631723D02*
X151666666Y-117536485D01*
X151666666Y-117536485D02*
X151571428Y-117488866D01*
X151571428Y-117488866D02*
X151333333Y-117488866D01*
X151333333Y-117488866D02*
X151238095Y-117441247D01*
X150761904Y-117203152D02*
X150761904Y-117869819D01*
X150761904Y-117298390D02*
X150714285Y-117250771D01*
X150714285Y-117250771D02*
X150619047Y-117203152D01*
X150619047Y-117203152D02*
X150476190Y-117203152D01*
X150476190Y-117203152D02*
X150380952Y-117250771D01*
X150380952Y-117250771D02*
X150333333Y-117346009D01*
X150333333Y-117346009D02*
X150333333Y-117869819D01*
X148523809Y-117774580D02*
X148571428Y-117822200D01*
X148571428Y-117822200D02*
X148714285Y-117869819D01*
X148714285Y-117869819D02*
X148809523Y-117869819D01*
X148809523Y-117869819D02*
X148952380Y-117822200D01*
X148952380Y-117822200D02*
X149047618Y-117726961D01*
X149047618Y-117726961D02*
X149095237Y-117631723D01*
X149095237Y-117631723D02*
X149142856Y-117441247D01*
X149142856Y-117441247D02*
X149142856Y-117298390D01*
X149142856Y-117298390D02*
X149095237Y-117107914D01*
X149095237Y-117107914D02*
X149047618Y-117012676D01*
X149047618Y-117012676D02*
X148952380Y-116917438D01*
X148952380Y-116917438D02*
X148809523Y-116869819D01*
X148809523Y-116869819D02*
X148714285Y-116869819D01*
X148714285Y-116869819D02*
X148571428Y-116917438D01*
X148571428Y-116917438D02*
X148523809Y-116965057D01*
X148095237Y-117869819D02*
X148095237Y-117203152D01*
X148095237Y-117393628D02*
X148047618Y-117298390D01*
X148047618Y-117298390D02*
X147999999Y-117250771D01*
X147999999Y-117250771D02*
X147904761Y-117203152D01*
X147904761Y-117203152D02*
X147809523Y-117203152D01*
X147047618Y-117203152D02*
X147047618Y-117869819D01*
X147476189Y-117203152D02*
X147476189Y-117726961D01*
X147476189Y-117726961D02*
X147428570Y-117822200D01*
X147428570Y-117822200D02*
X147333332Y-117869819D01*
X147333332Y-117869819D02*
X147190475Y-117869819D01*
X147190475Y-117869819D02*
X147095237Y-117822200D01*
X147095237Y-117822200D02*
X147047618Y-117774580D01*
X146666665Y-117203152D02*
X146142856Y-117203152D01*
X146142856Y-117203152D02*
X146666665Y-117869819D01*
X146666665Y-117869819D02*
X146142856Y-117869819D01*
D10*
X150647619Y-96336466D02*
X150647619Y-97024561D01*
X150647619Y-97024561D02*
X150607142Y-97105513D01*
X150607142Y-97105513D02*
X150566666Y-97145990D01*
X150566666Y-97145990D02*
X150485714Y-97186466D01*
X150485714Y-97186466D02*
X150323809Y-97186466D01*
X150323809Y-97186466D02*
X150242857Y-97145990D01*
X150242857Y-97145990D02*
X150202380Y-97105513D01*
X150202380Y-97105513D02*
X150161904Y-97024561D01*
X150161904Y-97024561D02*
X150161904Y-96336466D01*
X149352381Y-96336466D02*
X149757143Y-96336466D01*
X149757143Y-96336466D02*
X149797619Y-96741228D01*
X149797619Y-96741228D02*
X149757143Y-96700751D01*
X149757143Y-96700751D02*
X149676190Y-96660275D01*
X149676190Y-96660275D02*
X149473809Y-96660275D01*
X149473809Y-96660275D02*
X149392857Y-96700751D01*
X149392857Y-96700751D02*
X149352381Y-96741228D01*
X149352381Y-96741228D02*
X149311904Y-96822180D01*
X149311904Y-96822180D02*
X149311904Y-97024561D01*
X149311904Y-97024561D02*
X149352381Y-97105513D01*
X149352381Y-97105513D02*
X149392857Y-97145990D01*
X149392857Y-97145990D02*
X149473809Y-97186466D01*
X149473809Y-97186466D02*
X149676190Y-97186466D01*
X149676190Y-97186466D02*
X149757143Y-97145990D01*
X149757143Y-97145990D02*
X149797619Y-97105513D01*
X152046428Y-106605514D02*
X152086904Y-106645991D01*
X152086904Y-106645991D02*
X152208333Y-106686467D01*
X152208333Y-106686467D02*
X152289285Y-106686467D01*
X152289285Y-106686467D02*
X152410714Y-106645991D01*
X152410714Y-106645991D02*
X152491666Y-106565038D01*
X152491666Y-106565038D02*
X152532143Y-106484086D01*
X152532143Y-106484086D02*
X152572619Y-106322181D01*
X152572619Y-106322181D02*
X152572619Y-106200752D01*
X152572619Y-106200752D02*
X152532143Y-106038848D01*
X152532143Y-106038848D02*
X152491666Y-105957895D01*
X152491666Y-105957895D02*
X152410714Y-105876943D01*
X152410714Y-105876943D02*
X152289285Y-105836467D01*
X152289285Y-105836467D02*
X152208333Y-105836467D01*
X152208333Y-105836467D02*
X152086904Y-105876943D01*
X152086904Y-105876943D02*
X152046428Y-105917419D01*
X151236904Y-106686467D02*
X151722619Y-106686467D01*
X151479762Y-106686467D02*
X151479762Y-105836467D01*
X151479762Y-105836467D02*
X151560714Y-105957895D01*
X151560714Y-105957895D02*
X151641666Y-106038848D01*
X151641666Y-106038848D02*
X151722619Y-106079324D01*
X150508333Y-105836467D02*
X150670238Y-105836467D01*
X150670238Y-105836467D02*
X150751190Y-105876943D01*
X150751190Y-105876943D02*
X150791666Y-105917419D01*
X150791666Y-105917419D02*
X150872619Y-106038848D01*
X150872619Y-106038848D02*
X150913095Y-106200752D01*
X150913095Y-106200752D02*
X150913095Y-106524562D01*
X150913095Y-106524562D02*
X150872619Y-106605514D01*
X150872619Y-106605514D02*
X150832142Y-106645991D01*
X150832142Y-106645991D02*
X150751190Y-106686467D01*
X150751190Y-106686467D02*
X150589285Y-106686467D01*
X150589285Y-106686467D02*
X150508333Y-106645991D01*
X150508333Y-106645991D02*
X150467857Y-106605514D01*
X150467857Y-106605514D02*
X150427380Y-106524562D01*
X150427380Y-106524562D02*
X150427380Y-106322181D01*
X150427380Y-106322181D02*
X150467857Y-106241229D01*
X150467857Y-106241229D02*
X150508333Y-106200752D01*
X150508333Y-106200752D02*
X150589285Y-106160276D01*
X150589285Y-106160276D02*
X150751190Y-106160276D01*
X150751190Y-106160276D02*
X150832142Y-106200752D01*
X150832142Y-106200752D02*
X150872619Y-106241229D01*
X150872619Y-106241229D02*
X150913095Y-106322181D01*
X156244968Y-100041462D02*
X156285445Y-100000986D01*
X156285445Y-100000986D02*
X156325921Y-99879557D01*
X156325921Y-99879557D02*
X156325921Y-99798605D01*
X156325921Y-99798605D02*
X156285445Y-99677176D01*
X156285445Y-99677176D02*
X156204492Y-99596224D01*
X156204492Y-99596224D02*
X156123540Y-99555747D01*
X156123540Y-99555747D02*
X155961635Y-99515271D01*
X155961635Y-99515271D02*
X155840206Y-99515271D01*
X155840206Y-99515271D02*
X155678302Y-99555747D01*
X155678302Y-99555747D02*
X155597349Y-99596224D01*
X155597349Y-99596224D02*
X155516397Y-99677176D01*
X155516397Y-99677176D02*
X155475921Y-99798605D01*
X155475921Y-99798605D02*
X155475921Y-99879557D01*
X155475921Y-99879557D02*
X155516397Y-100000986D01*
X155516397Y-100000986D02*
X155556873Y-100041462D01*
X156325921Y-100850986D02*
X156325921Y-100365271D01*
X156325921Y-100608128D02*
X155475921Y-100608128D01*
X155475921Y-100608128D02*
X155597349Y-100527176D01*
X155597349Y-100527176D02*
X155678302Y-100446224D01*
X155678302Y-100446224D02*
X155718778Y-100365271D01*
X155475921Y-101134319D02*
X155475921Y-101700986D01*
X155475921Y-101700986D02*
X156325921Y-101336700D01*
X145245514Y-99453571D02*
X145285991Y-99413095D01*
X145285991Y-99413095D02*
X145326467Y-99291666D01*
X145326467Y-99291666D02*
X145326467Y-99210714D01*
X145326467Y-99210714D02*
X145285991Y-99089285D01*
X145285991Y-99089285D02*
X145205038Y-99008333D01*
X145205038Y-99008333D02*
X145124086Y-98967856D01*
X145124086Y-98967856D02*
X144962181Y-98927380D01*
X144962181Y-98927380D02*
X144840752Y-98927380D01*
X144840752Y-98927380D02*
X144678848Y-98967856D01*
X144678848Y-98967856D02*
X144597895Y-99008333D01*
X144597895Y-99008333D02*
X144516943Y-99089285D01*
X144516943Y-99089285D02*
X144476467Y-99210714D01*
X144476467Y-99210714D02*
X144476467Y-99291666D01*
X144476467Y-99291666D02*
X144516943Y-99413095D01*
X144516943Y-99413095D02*
X144557419Y-99453571D01*
X145326467Y-100263095D02*
X145326467Y-99777380D01*
X145326467Y-100020237D02*
X144476467Y-100020237D01*
X144476467Y-100020237D02*
X144597895Y-99939285D01*
X144597895Y-99939285D02*
X144678848Y-99858333D01*
X144678848Y-99858333D02*
X144719324Y-99777380D01*
X144476467Y-101032142D02*
X144476467Y-100627380D01*
X144476467Y-100627380D02*
X144881229Y-100586904D01*
X144881229Y-100586904D02*
X144840752Y-100627380D01*
X144840752Y-100627380D02*
X144800276Y-100708333D01*
X144800276Y-100708333D02*
X144800276Y-100910714D01*
X144800276Y-100910714D02*
X144840752Y-100991666D01*
X144840752Y-100991666D02*
X144881229Y-101032142D01*
X144881229Y-101032142D02*
X144962181Y-101072619D01*
X144962181Y-101072619D02*
X145164562Y-101072619D01*
X145164562Y-101072619D02*
X145245514Y-101032142D01*
X145245514Y-101032142D02*
X145285991Y-100991666D01*
X145285991Y-100991666D02*
X145326467Y-100910714D01*
X145326467Y-100910714D02*
X145326467Y-100708333D01*
X145326467Y-100708333D02*
X145285991Y-100627380D01*
X145285991Y-100627380D02*
X145245514Y-100586904D01*
D12*
%TO.C,G\u002A\u002A\u002A*%
G36*
X155178083Y-112301759D02*
G01*
X155313794Y-112335779D01*
X155365196Y-112350581D01*
X155435990Y-112375538D01*
X155497614Y-112407348D01*
X155561661Y-112453704D01*
X155639727Y-112522299D01*
X155743407Y-112620827D01*
X155794790Y-112669596D01*
X156083471Y-112917303D01*
X156381800Y-113131723D01*
X156677727Y-113304047D01*
X156739374Y-113335110D01*
X156830692Y-113379511D01*
X156897733Y-113410026D01*
X156929171Y-113421372D01*
X156947550Y-113401712D01*
X156947082Y-113337612D01*
X156925660Y-113232753D01*
X156883816Y-113090990D01*
X156882218Y-113086064D01*
X156846922Y-112962652D01*
X156817677Y-112835158D01*
X156800672Y-112730425D01*
X156799987Y-112723856D01*
X156792652Y-112639957D01*
X156795458Y-112595419D01*
X156812022Y-112577812D01*
X156845957Y-112574706D01*
X156864851Y-112576403D01*
X156936656Y-112595180D01*
X157017694Y-112628040D01*
X157037778Y-112637864D01*
X157076810Y-112660030D01*
X157107096Y-112687563D01*
X157133605Y-112729469D01*
X157161302Y-112794760D01*
X157195155Y-112892444D01*
X157240129Y-113031530D01*
X157250568Y-113063835D01*
X157294576Y-113194849D01*
X157335586Y-113309404D01*
X157369411Y-113396127D01*
X157391864Y-113443646D01*
X157417838Y-113472271D01*
X157485707Y-113521981D01*
X157570212Y-113567023D01*
X157593915Y-113577084D01*
X157730027Y-113625358D01*
X157900861Y-113674860D01*
X158091716Y-113722154D01*
X158287891Y-113763805D01*
X158474687Y-113796377D01*
X158637403Y-113816435D01*
X158790986Y-113825307D01*
X158973461Y-113826174D01*
X159156290Y-113818211D01*
X159331864Y-113802502D01*
X159492577Y-113780133D01*
X159630818Y-113752187D01*
X159738982Y-113719749D01*
X159809459Y-113683905D01*
X159834642Y-113645739D01*
X159827858Y-113628812D01*
X159787407Y-113577915D01*
X159716999Y-113505486D01*
X159624127Y-113418443D01*
X159516281Y-113323703D01*
X159400952Y-113228181D01*
X159285632Y-113138797D01*
X159243568Y-113107007D01*
X159166857Y-113046206D01*
X159113898Y-113000227D01*
X159094261Y-112977154D01*
X159102951Y-112967182D01*
X159147589Y-112940336D01*
X159215922Y-112906848D01*
X159291792Y-112873978D01*
X159359038Y-112848985D01*
X159401502Y-112839129D01*
X159401729Y-112839136D01*
X159434392Y-112854414D01*
X159500030Y-112894928D01*
X159589221Y-112954585D01*
X159692543Y-113027295D01*
X159746826Y-113066204D01*
X159870598Y-113152058D01*
X159968123Y-113212196D01*
X160050882Y-113251410D01*
X160130357Y-113274492D01*
X160218029Y-113286235D01*
X160325377Y-113291431D01*
X160334903Y-113291707D01*
X160464338Y-113296132D01*
X160549738Y-113303873D01*
X160599431Y-113320006D01*
X160621749Y-113349609D01*
X160625021Y-113397760D01*
X160617579Y-113469536D01*
X160610839Y-113520471D01*
X160592096Y-113633467D01*
X160571847Y-113729094D01*
X160568102Y-113743907D01*
X160555980Y-113784288D01*
X160538479Y-113816353D01*
X160508974Y-113842868D01*
X160460842Y-113866602D01*
X160387459Y-113890323D01*
X160282199Y-113916796D01*
X160138439Y-113948791D01*
X159949554Y-113989074D01*
X159851027Y-114009850D01*
X159740460Y-114032071D01*
X159644135Y-114048901D01*
X159552457Y-114061121D01*
X159455832Y-114069514D01*
X159344666Y-114074861D01*
X159209367Y-114077943D01*
X159040338Y-114079542D01*
X158827987Y-114080440D01*
X158720225Y-114080719D01*
X158520549Y-114080435D01*
X158361485Y-114078556D01*
X158234609Y-114074629D01*
X158131499Y-114068198D01*
X158043732Y-114058809D01*
X157962884Y-114046009D01*
X157880532Y-114029343D01*
X157856013Y-114023948D01*
X157521762Y-113941896D01*
X157198600Y-113847297D01*
X156896975Y-113743719D01*
X156627339Y-113634729D01*
X156400141Y-113523896D01*
X156288858Y-113461337D01*
X156123723Y-113362456D01*
X155969556Y-113263462D01*
X155838497Y-113172241D01*
X155742685Y-113096684D01*
X155737800Y-113092303D01*
X155689632Y-113045065D01*
X155618746Y-112971408D01*
X155531686Y-112878556D01*
X155434999Y-112773735D01*
X155335229Y-112664169D01*
X155238922Y-112557085D01*
X155152623Y-112459707D01*
X155082877Y-112379260D01*
X155036229Y-112322971D01*
X155019226Y-112298063D01*
X155028751Y-112287378D01*
X155081805Y-112285463D01*
X155178083Y-112301759D01*
G37*
G36*
X163483509Y-108404030D02*
G01*
X163498571Y-108458243D01*
X163516738Y-108570932D01*
X163532669Y-108724511D01*
X163545905Y-108912163D01*
X163555986Y-109127075D01*
X163562454Y-109362430D01*
X163564849Y-109611415D01*
X163564857Y-109646874D01*
X163563807Y-109832662D01*
X163560136Y-109980648D01*
X163552832Y-110103776D01*
X163540881Y-110214989D01*
X163523273Y-110327231D01*
X163498994Y-110453445D01*
X163497786Y-110459373D01*
X163470220Y-110588118D01*
X163443737Y-110700716D01*
X163421294Y-110785227D01*
X163405848Y-110829707D01*
X163398221Y-110846129D01*
X163372660Y-110911478D01*
X163338816Y-111006136D01*
X163301927Y-111115695D01*
X163217668Y-111345304D01*
X163043602Y-111710404D01*
X162822021Y-112067861D01*
X162551128Y-112420451D01*
X162229122Y-112770951D01*
X162080506Y-112916512D01*
X161895999Y-113082473D01*
X161714363Y-113225545D01*
X161522224Y-113355306D01*
X161306209Y-113481330D01*
X161052947Y-113613195D01*
X160989607Y-113644636D01*
X160870278Y-113702801D01*
X160771615Y-113749476D01*
X160702464Y-113780520D01*
X160671671Y-113791789D01*
X160667573Y-113790946D01*
X160656893Y-113760783D01*
X160663072Y-113696450D01*
X160683310Y-113610372D01*
X160714812Y-113514972D01*
X160754779Y-113422675D01*
X160768608Y-113395360D01*
X160807808Y-113328174D01*
X160850512Y-113283061D01*
X160912191Y-113246812D01*
X161008319Y-113206217D01*
X161025553Y-113199278D01*
X161161396Y-113137588D01*
X161288601Y-113064647D01*
X161417729Y-112973051D01*
X161559340Y-112855391D01*
X161723994Y-112704260D01*
X161986158Y-112455754D01*
X161895973Y-112438368D01*
X161824093Y-112423203D01*
X161711302Y-112396582D01*
X161583786Y-112364342D01*
X161452571Y-112329495D01*
X161328684Y-112295048D01*
X161223152Y-112264012D01*
X161147001Y-112239396D01*
X161111257Y-112224208D01*
X161088333Y-112187281D01*
X161079329Y-112114998D01*
X161091763Y-112034904D01*
X161124486Y-111969156D01*
X161170788Y-111913370D01*
X161414397Y-111992320D01*
X161452588Y-112004553D01*
X161629554Y-112055779D01*
X161770496Y-112084573D01*
X161885066Y-112091692D01*
X161982918Y-112077891D01*
X162073704Y-112043926D01*
X162117569Y-112020973D01*
X162288796Y-111897731D01*
X162451581Y-111727043D01*
X162602836Y-111513126D01*
X162739473Y-111260198D01*
X162858404Y-110972473D01*
X162882508Y-110899435D01*
X162916443Y-110782395D01*
X162952071Y-110647232D01*
X162987156Y-110503825D01*
X163019465Y-110362057D01*
X163046764Y-110231810D01*
X163066817Y-110122963D01*
X163077392Y-110045399D01*
X163076253Y-110008999D01*
X163068519Y-110002247D01*
X163019541Y-109987620D01*
X162945917Y-109981789D01*
X162915297Y-109982837D01*
X162818009Y-110005111D01*
X162715968Y-110062896D01*
X162664475Y-110098427D01*
X162561399Y-110168428D01*
X162462384Y-110234568D01*
X162398502Y-110278476D01*
X162338296Y-110323973D01*
X162308687Y-110351898D01*
X162299196Y-110362339D01*
X162254019Y-110378664D01*
X162238979Y-110373076D01*
X162225079Y-110342272D01*
X162217921Y-110276561D01*
X162215892Y-110166997D01*
X162218892Y-110052076D01*
X162234493Y-109963743D01*
X162271660Y-109899808D01*
X162339346Y-109845484D01*
X162446499Y-109785980D01*
X162543983Y-109724970D01*
X162652635Y-109638272D01*
X162754819Y-109540739D01*
X162837470Y-109444893D01*
X162887520Y-109363260D01*
X162911252Y-109315953D01*
X162959819Y-109231167D01*
X163023835Y-109126200D01*
X163095731Y-109013757D01*
X163111323Y-108989882D01*
X163224056Y-108811666D01*
X163309581Y-108664028D01*
X163373148Y-108537396D01*
X163420003Y-108422194D01*
X163453599Y-108328143D01*
X163483509Y-108404030D01*
G37*
G36*
X161467133Y-110859315D02*
G01*
X161474313Y-110865957D01*
X161515634Y-110918214D01*
X161564386Y-110994432D01*
X161611049Y-111077836D01*
X161646101Y-111151653D01*
X161660019Y-111199110D01*
X161654464Y-111213078D01*
X161619487Y-111263590D01*
X161557695Y-111340494D01*
X161475309Y-111436188D01*
X161378552Y-111543069D01*
X161366187Y-111556432D01*
X161249516Y-111685633D01*
X161161598Y-111791212D01*
X161093765Y-111885070D01*
X161037348Y-111979108D01*
X160983681Y-112085226D01*
X160959768Y-112136119D01*
X160872446Y-112337100D01*
X160809442Y-112514881D01*
X160765602Y-112685688D01*
X160735772Y-112865747D01*
X160721938Y-112974425D01*
X160706954Y-113080701D01*
X160691233Y-113149149D01*
X160669479Y-113188021D01*
X160636399Y-113205570D01*
X160586697Y-113210047D01*
X160515077Y-113209706D01*
X160349853Y-113209706D01*
X160359773Y-112826060D01*
X160361165Y-112766371D01*
X160363015Y-112638582D01*
X160362926Y-112535796D01*
X160360961Y-112467309D01*
X160357182Y-112442414D01*
X160355506Y-112442700D01*
X160320516Y-112455928D01*
X160252378Y-112484964D01*
X160163931Y-112524365D01*
X160163155Y-112524716D01*
X160043017Y-112571426D01*
X159879662Y-112622148D01*
X159670764Y-112677500D01*
X159413998Y-112738098D01*
X159107038Y-112804559D01*
X159064609Y-112814044D01*
X158948023Y-112848027D01*
X158834214Y-112895487D01*
X158715131Y-112961201D01*
X158582724Y-113049945D01*
X158428943Y-113166496D01*
X158245737Y-113315631D01*
X158182322Y-113367869D01*
X158077094Y-113451944D01*
X157988749Y-113519249D01*
X157925081Y-113563928D01*
X157893880Y-113580122D01*
X157846849Y-113572401D01*
X157773105Y-113550583D01*
X157694221Y-113521549D01*
X157628953Y-113492257D01*
X157596054Y-113469662D01*
X157593407Y-113458122D01*
X157617260Y-113409837D01*
X157684494Y-113336750D01*
X157793552Y-113240423D01*
X157942872Y-113122418D01*
X158185520Y-112933905D01*
X158396645Y-112760235D01*
X158580929Y-112597242D01*
X158613607Y-112568190D01*
X158722307Y-112490463D01*
X158819054Y-112454843D01*
X159261182Y-112359473D01*
X159718602Y-112215595D01*
X160142789Y-112031623D01*
X160532605Y-111807987D01*
X160707624Y-111682440D01*
X160871542Y-111535957D01*
X161024177Y-111364066D01*
X161178173Y-111153955D01*
X161198228Y-111124526D01*
X161281743Y-111003771D01*
X161342714Y-110920842D01*
X161386440Y-110870335D01*
X161418218Y-110846847D01*
X161443350Y-110844975D01*
X161467133Y-110859315D01*
G37*
G36*
X154890965Y-109948315D02*
G01*
X155001454Y-109989331D01*
X155020692Y-109997302D01*
X155132254Y-110043398D01*
X155263060Y-110097294D01*
X155388674Y-110148919D01*
X155431662Y-110166627D01*
X155526690Y-110208940D01*
X155587717Y-110248007D01*
X155625910Y-110296166D01*
X155652435Y-110365756D01*
X155678459Y-110469116D01*
X155695504Y-110533941D01*
X155777584Y-110761111D01*
X155890559Y-110988624D01*
X156024024Y-111194626D01*
X156140455Y-111338727D01*
X156281927Y-111493621D01*
X156434651Y-111644979D01*
X156588140Y-111782908D01*
X156731907Y-111897517D01*
X156855467Y-111978914D01*
X157033356Y-112069407D01*
X157319139Y-112187520D01*
X157628096Y-112288395D01*
X157943130Y-112366650D01*
X158247142Y-112416905D01*
X158295278Y-112422571D01*
X158418812Y-112437879D01*
X158497996Y-112451189D01*
X158539073Y-112465902D01*
X158548285Y-112485415D01*
X158531874Y-112513127D01*
X158496083Y-112552436D01*
X158477694Y-112571276D01*
X158398573Y-112643825D01*
X158315933Y-112710404D01*
X158259123Y-112746786D01*
X158190405Y-112773556D01*
X158109259Y-112784121D01*
X158006150Y-112778627D01*
X157871547Y-112757224D01*
X157695915Y-112720061D01*
X157613565Y-112701092D01*
X157346829Y-112632932D01*
X157122195Y-112563269D01*
X156931223Y-112489274D01*
X156765476Y-112408119D01*
X156567038Y-112299097D01*
X156086467Y-112280309D01*
X155945019Y-112273739D01*
X155801869Y-112264786D01*
X155683223Y-112254893D01*
X155598545Y-112244862D01*
X155557300Y-112235493D01*
X155548738Y-112229723D01*
X155512029Y-112184845D01*
X155476625Y-112117814D01*
X155449177Y-112045407D01*
X155436337Y-111984402D01*
X155444754Y-111951578D01*
X155445650Y-111951120D01*
X155484008Y-111946760D01*
X155563296Y-111945936D01*
X155672459Y-111948556D01*
X155800440Y-111954528D01*
X155890576Y-111959278D01*
X156005986Y-111963137D01*
X156079793Y-111961423D01*
X156118967Y-111953831D01*
X156130476Y-111940056D01*
X156117120Y-111914509D01*
X156073211Y-111857852D01*
X156005952Y-111780597D01*
X155922860Y-111691733D01*
X155812411Y-111573816D01*
X155614716Y-111338244D01*
X155456693Y-111110308D01*
X155332113Y-110881465D01*
X155310951Y-110836801D01*
X155258938Y-110727212D01*
X155213693Y-110632120D01*
X155183143Y-110568196D01*
X155125806Y-110491689D01*
X155020440Y-110417896D01*
X154998598Y-110406461D01*
X154880610Y-110334456D01*
X154805624Y-110263251D01*
X154766137Y-110183466D01*
X154754642Y-110085721D01*
X154758192Y-110014192D01*
X154776932Y-109957778D01*
X154818657Y-109936809D01*
X154890965Y-109948315D01*
G37*
G36*
X154557023Y-108008616D02*
G01*
X154580739Y-108059102D01*
X154616999Y-108140661D01*
X154660688Y-108241911D01*
X154759181Y-108473178D01*
X154713684Y-108652015D01*
X154690964Y-108767062D01*
X154673091Y-108908963D01*
X154665112Y-109041774D01*
X154664997Y-109050500D01*
X154667767Y-109168273D01*
X154682831Y-109238254D01*
X154715214Y-109264841D01*
X154769939Y-109252433D01*
X154852030Y-109205428D01*
X154876968Y-109189910D01*
X154953287Y-109147964D01*
X155012611Y-109122683D01*
X155022384Y-109119917D01*
X155055534Y-109117851D01*
X155069367Y-109144126D01*
X155072142Y-109210992D01*
X155069369Y-109270164D01*
X155052029Y-109363352D01*
X155022566Y-109428260D01*
X154985383Y-109452622D01*
X154968163Y-109457174D01*
X154915702Y-109494109D01*
X154852124Y-109557977D01*
X154788965Y-109636451D01*
X154737761Y-109717206D01*
X154721085Y-109753399D01*
X154707138Y-109801540D01*
X154697880Y-109865684D01*
X154692477Y-109955055D01*
X154690092Y-110078876D01*
X154689894Y-110246372D01*
X154690607Y-110323250D01*
X154704658Y-110627403D01*
X154737089Y-110885882D01*
X154788681Y-111102177D01*
X154860213Y-111279777D01*
X154952464Y-111422172D01*
X155015988Y-111499951D01*
X155107125Y-111299964D01*
X155120744Y-111270609D01*
X155166006Y-111180070D01*
X155204743Y-111112414D01*
X155229765Y-111080506D01*
X155268533Y-111082496D01*
X155321465Y-111119050D01*
X155374828Y-111179239D01*
X155415954Y-111251433D01*
X155423077Y-111270744D01*
X155431416Y-111324342D01*
X155422484Y-111392969D01*
X155394805Y-111493559D01*
X155393332Y-111498358D01*
X155351279Y-111645319D01*
X155327979Y-111758562D01*
X155322532Y-111853068D01*
X155334037Y-111943815D01*
X155361594Y-112045782D01*
X155388650Y-112134727D01*
X155408181Y-112203968D01*
X155415759Y-112237866D01*
X155405306Y-112247432D01*
X155356878Y-112245907D01*
X155279317Y-112229323D01*
X155184060Y-112201455D01*
X155082547Y-112166080D01*
X154986214Y-112126973D01*
X154906500Y-112087913D01*
X154854843Y-112052673D01*
X154844682Y-112041607D01*
X154800303Y-111975169D01*
X154743296Y-111870610D01*
X154677687Y-111736943D01*
X154607500Y-111583183D01*
X154536759Y-111418346D01*
X154469489Y-111251447D01*
X154409715Y-111091499D01*
X154361460Y-110947518D01*
X154339816Y-110876182D01*
X154302592Y-110741907D01*
X154274294Y-110616145D01*
X154253757Y-110488663D01*
X154239817Y-110349229D01*
X154231309Y-110187611D01*
X154227067Y-109993576D01*
X154225927Y-109756893D01*
X154226207Y-109621282D01*
X154228101Y-109443500D01*
X154232513Y-109299142D01*
X154240282Y-109176291D01*
X154252247Y-109063032D01*
X154269250Y-108947448D01*
X154292130Y-108817622D01*
X154307378Y-108738621D01*
X154344417Y-108567742D01*
X154384390Y-108406945D01*
X154425093Y-108263202D01*
X154464324Y-108143483D01*
X154499879Y-108054759D01*
X154529554Y-108004001D01*
X154551146Y-107998180D01*
X154557023Y-108008616D01*
G37*
G36*
X161198797Y-107401825D02*
G01*
X161302521Y-107408183D01*
X161402545Y-107419194D01*
X161484450Y-107433935D01*
X161533818Y-107451480D01*
X161545436Y-107460254D01*
X161599946Y-107513382D01*
X161675703Y-107598002D01*
X161765637Y-107705191D01*
X161862678Y-107826030D01*
X161959756Y-107951599D01*
X162049802Y-108072976D01*
X162125746Y-108181241D01*
X162180517Y-108267473D01*
X162185356Y-108275772D01*
X162336633Y-108488433D01*
X162524856Y-108670855D01*
X162756505Y-108829359D01*
X162775727Y-108840674D01*
X162859055Y-108893032D01*
X162920285Y-108936824D01*
X162947308Y-108963535D01*
X162947360Y-108976219D01*
X162933454Y-109028294D01*
X162906055Y-109103814D01*
X162871360Y-109188100D01*
X162835568Y-109266476D01*
X162804875Y-109324264D01*
X162785479Y-109346789D01*
X162784006Y-109346462D01*
X162753038Y-109326866D01*
X162694274Y-109282974D01*
X162619008Y-109223171D01*
X162530677Y-109153466D01*
X162412636Y-109067190D01*
X162306858Y-108997401D01*
X162220470Y-108948411D01*
X162160599Y-108924531D01*
X162134374Y-108930070D01*
X162134135Y-108933044D01*
X162132475Y-108974991D01*
X162129622Y-109061227D01*
X162125777Y-109185158D01*
X162121142Y-109340192D01*
X162115920Y-109519739D01*
X162110310Y-109717206D01*
X162109231Y-109754614D01*
X162102327Y-109959405D01*
X162094232Y-110152470D01*
X162085401Y-110325574D01*
X162076292Y-110470480D01*
X162067360Y-110578953D01*
X162059060Y-110642757D01*
X162050042Y-110691784D01*
X162045218Y-110741806D01*
X162047690Y-110795255D01*
X162059138Y-110861553D01*
X162081244Y-110950120D01*
X162115689Y-111070379D01*
X162164154Y-111231750D01*
X162192382Y-111325784D01*
X162240088Y-111492806D01*
X162270913Y-111620056D01*
X162284981Y-111714558D01*
X162282419Y-111783334D01*
X162263352Y-111833408D01*
X162227905Y-111871804D01*
X162176205Y-111905543D01*
X162144207Y-111923258D01*
X162085623Y-111953551D01*
X162055820Y-111965729D01*
X162019964Y-111946959D01*
X161989798Y-111891229D01*
X161977767Y-111815353D01*
X161972555Y-111756108D01*
X161944821Y-111632444D01*
X161897086Y-111483001D01*
X161833775Y-111319809D01*
X161759309Y-111154897D01*
X161678111Y-111000296D01*
X161621141Y-110897883D01*
X161566406Y-110784310D01*
X161537384Y-110689937D01*
X161531872Y-110600429D01*
X161547665Y-110501450D01*
X161582562Y-110378664D01*
X161582975Y-110377339D01*
X161607280Y-110282411D01*
X161633635Y-110152138D01*
X161658890Y-110003512D01*
X161679897Y-109853525D01*
X161695796Y-109714985D01*
X161707187Y-109575542D01*
X161710031Y-109448962D01*
X161704684Y-109313644D01*
X161691501Y-109147988D01*
X161675989Y-108996134D01*
X161632111Y-108701909D01*
X161570109Y-108442300D01*
X161485396Y-108205666D01*
X161373387Y-107980365D01*
X161229495Y-107754754D01*
X161049136Y-107517191D01*
X161044033Y-107510667D01*
X161013241Y-107456120D01*
X161010426Y-107417939D01*
X161037925Y-107406764D01*
X161105792Y-107401044D01*
X161198797Y-107401825D01*
G37*
G36*
X159692646Y-104096531D02*
G01*
X159858907Y-104133290D01*
X159915852Y-104154011D01*
X160049685Y-104216408D01*
X160176439Y-104298753D01*
X160304254Y-104407653D01*
X160441265Y-104549718D01*
X160595613Y-104731556D01*
X160612499Y-104751780D01*
X160675994Y-104817096D01*
X160752846Y-104877263D01*
X160854900Y-104940742D01*
X160994004Y-105015990D01*
X161178148Y-105120575D01*
X161457849Y-105309313D01*
X161740306Y-105532057D01*
X162015645Y-105779748D01*
X162273996Y-106043324D01*
X162505486Y-106313726D01*
X162700242Y-106581893D01*
X162833726Y-106793585D01*
X162966981Y-107021955D01*
X163088290Y-107247251D01*
X163194536Y-107462796D01*
X163282600Y-107661912D01*
X163349364Y-107837926D01*
X163391709Y-107984159D01*
X163406517Y-108093936D01*
X163404551Y-108132421D01*
X163385713Y-108239262D01*
X163350791Y-108359121D01*
X163304563Y-108481264D01*
X163251806Y-108594953D01*
X163197299Y-108689452D01*
X163145818Y-108754025D01*
X163102142Y-108777935D01*
X163097155Y-108777824D01*
X163065835Y-108766038D01*
X163046631Y-108726105D01*
X163033078Y-108645643D01*
X163015798Y-108538080D01*
X162985603Y-108399587D01*
X162946834Y-108250979D01*
X162902425Y-108101065D01*
X162855306Y-107958654D01*
X162808412Y-107832556D01*
X162764673Y-107731579D01*
X162727023Y-107664533D01*
X162698393Y-107640226D01*
X162681005Y-107651112D01*
X162637759Y-107698204D01*
X162579292Y-107773980D01*
X162513185Y-107869072D01*
X162468839Y-107935936D01*
X162406178Y-108030407D01*
X162356887Y-108104712D01*
X162328902Y-108146885D01*
X162326453Y-108150618D01*
X162311985Y-108171981D01*
X162298194Y-108179900D01*
X162278556Y-108168626D01*
X162246549Y-108132409D01*
X162195651Y-108065500D01*
X162119338Y-107962147D01*
X162024910Y-107834276D01*
X162123369Y-107691319D01*
X162155821Y-107642419D01*
X162240296Y-107483405D01*
X162286259Y-107326021D01*
X162299778Y-107151705D01*
X162299776Y-107151188D01*
X162296943Y-107070088D01*
X162286233Y-106999338D01*
X162263281Y-106924736D01*
X162223725Y-106832079D01*
X162163200Y-106707165D01*
X162155158Y-106691043D01*
X162092856Y-106572106D01*
X162033978Y-106475637D01*
X161967834Y-106387168D01*
X161883735Y-106292233D01*
X161770993Y-106176366D01*
X161417294Y-105856306D01*
X161030483Y-105572318D01*
X160621519Y-105332962D01*
X160451000Y-105240929D01*
X160304453Y-105149543D01*
X160184007Y-105056616D01*
X160077239Y-104952482D01*
X159971725Y-104827477D01*
X159919457Y-104766124D01*
X159824855Y-104684427D01*
X159716962Y-104632838D01*
X159583279Y-104606277D01*
X159411309Y-104599665D01*
X159333897Y-104601358D01*
X159236484Y-104607966D01*
X159137308Y-104621522D01*
X159024173Y-104644210D01*
X158884887Y-104678212D01*
X158707255Y-104725712D01*
X158609097Y-104752122D01*
X158414947Y-104800408D01*
X158248468Y-104834804D01*
X158094355Y-104858252D01*
X157937300Y-104873695D01*
X157817129Y-104884900D01*
X157692687Y-104900918D01*
X157592197Y-104918538D01*
X157530105Y-104935564D01*
X157492538Y-104956612D01*
X157424595Y-105007997D01*
X157350943Y-105073855D01*
X157283536Y-105142554D01*
X157234327Y-105202461D01*
X157215267Y-105241946D01*
X157223369Y-105260186D01*
X157262381Y-105283499D01*
X157337474Y-105306017D01*
X157452836Y-105328682D01*
X157612656Y-105352434D01*
X157821121Y-105378217D01*
X157863485Y-105383208D01*
X158074867Y-105411881D01*
X158245377Y-105443658D01*
X158385248Y-105481818D01*
X158504712Y-105529641D01*
X158614001Y-105590406D01*
X158723347Y-105667392D01*
X158728553Y-105671348D01*
X158853401Y-105751944D01*
X158991573Y-105811616D01*
X159156088Y-105854835D01*
X159359966Y-105886073D01*
X159623181Y-105916955D01*
X159647699Y-106005755D01*
X159648070Y-106007108D01*
X159661845Y-106131018D01*
X159638336Y-106245138D01*
X159580963Y-106332724D01*
X159558819Y-106352254D01*
X159517660Y-106375078D01*
X159464314Y-106379054D01*
X159379112Y-106367577D01*
X159364441Y-106365404D01*
X159275381Y-106357313D01*
X159151301Y-106351087D01*
X159006602Y-106347304D01*
X158855684Y-106346542D01*
X158847184Y-106346598D01*
X158684306Y-106349092D01*
X158561106Y-106354911D01*
X158464949Y-106365414D01*
X158383200Y-106381957D01*
X158303227Y-106405898D01*
X158205516Y-106435627D01*
X158074615Y-106458766D01*
X157953830Y-106453417D01*
X157822468Y-106420196D01*
X157765367Y-106403454D01*
X157677750Y-106391778D01*
X157627921Y-106411615D01*
X157612142Y-106463740D01*
X157612192Y-106469081D01*
X157626695Y-106545950D01*
X157668828Y-106608434D01*
X157741243Y-106656778D01*
X157846589Y-106691221D01*
X157987519Y-106712007D01*
X158166683Y-106719377D01*
X158386733Y-106713574D01*
X158650319Y-106694839D01*
X158960092Y-106663415D01*
X159318705Y-106619544D01*
X159336890Y-106617171D01*
X159605582Y-106581023D01*
X159825931Y-106549011D01*
X160002035Y-106520422D01*
X160137990Y-106494545D01*
X160237892Y-106470668D01*
X160305838Y-106448080D01*
X160308857Y-106446819D01*
X160451799Y-106372173D01*
X160566830Y-106282903D01*
X160641544Y-106188597D01*
X160651559Y-106169738D01*
X160673261Y-106116623D01*
X160670128Y-106070682D01*
X160642267Y-106004907D01*
X160597243Y-105930120D01*
X160492083Y-105810190D01*
X160349594Y-105687971D01*
X160178078Y-105570304D01*
X159985837Y-105464028D01*
X159897904Y-105421555D01*
X159777918Y-105369022D01*
X159684591Y-105339339D01*
X159605818Y-105330304D01*
X159529492Y-105339714D01*
X159443504Y-105365367D01*
X159357900Y-105384886D01*
X159237513Y-105385643D01*
X159120647Y-105361560D01*
X159019501Y-105316845D01*
X158946270Y-105255707D01*
X158913150Y-105182355D01*
X158910135Y-105135831D01*
X158928836Y-105031409D01*
X158988127Y-104958496D01*
X159089558Y-104915740D01*
X159234678Y-104901789D01*
X159286602Y-104902588D01*
X159346399Y-104910170D01*
X159398477Y-104931930D01*
X159458283Y-104975199D01*
X159541263Y-105047310D01*
X159564461Y-105067614D01*
X159643915Y-105131422D01*
X159709770Y-105176048D01*
X159749653Y-105192851D01*
X159769056Y-105194880D01*
X159847821Y-105219487D01*
X159956735Y-105267764D01*
X160086475Y-105334332D01*
X160227714Y-105413813D01*
X160371129Y-105500826D01*
X160507394Y-105589993D01*
X160627185Y-105675935D01*
X160721176Y-105753274D01*
X160747694Y-105778642D01*
X160848030Y-105896842D01*
X160932658Y-106030807D01*
X160997261Y-106169873D01*
X161037527Y-106303377D01*
X161049140Y-106420655D01*
X161027785Y-106511043D01*
X161011222Y-106533427D01*
X160954093Y-106585377D01*
X160879260Y-106636494D01*
X160815056Y-106677923D01*
X160770287Y-106724524D01*
X160770108Y-106768444D01*
X160811398Y-106818024D01*
X160827136Y-106831128D01*
X160849597Y-106844314D01*
X160881578Y-106855221D01*
X160929267Y-106864582D01*
X160998854Y-106873131D01*
X161096525Y-106881601D01*
X161228471Y-106890727D01*
X161400879Y-106901241D01*
X161619939Y-106913879D01*
X161775915Y-106924027D01*
X161921128Y-106936063D01*
X162038646Y-106948603D01*
X162120077Y-106960743D01*
X162157030Y-106971583D01*
X162158581Y-106972950D01*
X162180769Y-107023748D01*
X162184129Y-107108574D01*
X162183970Y-107110711D01*
X162176133Y-107166058D01*
X162158031Y-107209066D01*
X162123571Y-107241463D01*
X162066658Y-107264978D01*
X161981201Y-107281341D01*
X161861107Y-107292279D01*
X161700282Y-107299522D01*
X161492634Y-107304799D01*
X161407810Y-107306389D01*
X161197170Y-107307767D01*
X161027265Y-107303343D01*
X160889174Y-107291715D01*
X160773976Y-107271483D01*
X160672750Y-107241243D01*
X160576574Y-107199594D01*
X160476529Y-107145135D01*
X160393100Y-107100645D01*
X160275206Y-107051248D01*
X160178725Y-107026767D01*
X160140303Y-107023652D01*
X160015326Y-107023471D01*
X159855058Y-107032793D01*
X159671135Y-107050397D01*
X159475195Y-107075060D01*
X159278874Y-107105561D01*
X159093809Y-107140678D01*
X158820776Y-107187096D01*
X158536596Y-107212410D01*
X158264044Y-107214001D01*
X158010552Y-107192517D01*
X157783555Y-107148607D01*
X157590484Y-107082922D01*
X157438774Y-106996109D01*
X157389129Y-106955832D01*
X157310513Y-106868137D01*
X157255845Y-106759911D01*
X157238702Y-106718894D01*
X157196967Y-106646820D01*
X157159474Y-106621580D01*
X157108564Y-106633621D01*
X157022749Y-106669813D01*
X156916888Y-106723661D01*
X156803110Y-106788576D01*
X156693546Y-106857969D01*
X156600328Y-106925253D01*
X156537437Y-106977558D01*
X156382201Y-107133064D01*
X156241531Y-107316911D01*
X156112723Y-107534014D01*
X155993076Y-107789283D01*
X155879886Y-108087633D01*
X155770451Y-108433976D01*
X155697913Y-108713696D01*
X155640454Y-109022075D01*
X155604389Y-109346452D01*
X155587242Y-109703976D01*
X155585643Y-109774215D01*
X155582538Y-109904170D01*
X155579832Y-110009261D01*
X155577770Y-110080142D01*
X155576600Y-110107466D01*
X155576413Y-110108053D01*
X155548791Y-110114734D01*
X155488973Y-110103298D01*
X155412717Y-110076703D01*
X155393235Y-110068227D01*
X155317693Y-110026054D01*
X155259008Y-109971742D01*
X155214821Y-109898508D01*
X155182772Y-109799566D01*
X155160501Y-109668131D01*
X155145648Y-109497419D01*
X155135854Y-109280643D01*
X155132756Y-109193312D01*
X155126925Y-109052732D01*
X155120942Y-108933663D01*
X155115357Y-108846565D01*
X155110718Y-108801901D01*
X155093788Y-108761634D01*
X155050928Y-108691539D01*
X154993298Y-108612905D01*
X154957339Y-108567156D01*
X154910407Y-108499604D01*
X154892213Y-108449393D01*
X154899073Y-108401289D01*
X154927301Y-108340058D01*
X154927452Y-108339767D01*
X154968441Y-108282514D01*
X155015464Y-108267427D01*
X155075906Y-108295377D01*
X155157152Y-108367239D01*
X155262394Y-108472481D01*
X155292570Y-108387083D01*
X155301607Y-108363956D01*
X155336253Y-108286555D01*
X155385055Y-108185566D01*
X155440481Y-108076789D01*
X155477206Y-108006059D01*
X155549252Y-107865282D01*
X155626104Y-107713194D01*
X155696345Y-107572310D01*
X155751379Y-107465661D01*
X155905923Y-107213758D01*
X156083518Y-106992291D01*
X156296396Y-106785214D01*
X156429343Y-106673906D01*
X156684386Y-106491148D01*
X156941420Y-106350593D01*
X157211658Y-106246572D01*
X157506309Y-106173415D01*
X157513933Y-106171949D01*
X157700718Y-106134608D01*
X157878355Y-106096539D01*
X158039704Y-106059513D01*
X158177627Y-106025296D01*
X158284982Y-105995657D01*
X158354631Y-105972363D01*
X158379434Y-105957184D01*
X158376808Y-105947976D01*
X158336988Y-105922091D01*
X158256121Y-105901052D01*
X158143072Y-105885186D01*
X158006703Y-105874820D01*
X157855879Y-105870279D01*
X157699462Y-105871890D01*
X157546316Y-105879979D01*
X157405305Y-105894873D01*
X157285291Y-105916898D01*
X157125167Y-105961280D01*
X156788542Y-106091619D01*
X156461518Y-106267834D01*
X156153393Y-106485257D01*
X156056671Y-106571137D01*
X155931209Y-106698297D01*
X155794292Y-106849528D01*
X155654931Y-107014155D01*
X155522138Y-107181502D01*
X155404926Y-107340893D01*
X155312305Y-107481653D01*
X155274107Y-107548835D01*
X155248078Y-107617913D01*
X155261604Y-107655827D01*
X155318172Y-107668321D01*
X155421269Y-107661141D01*
X155460557Y-107656819D01*
X155518279Y-107655150D01*
X155543095Y-107668107D01*
X155548392Y-107699756D01*
X155547293Y-107718843D01*
X155512834Y-107798890D01*
X155433172Y-107858288D01*
X155312508Y-107893583D01*
X155262760Y-107902405D01*
X155165445Y-107930866D01*
X155090768Y-107977651D01*
X155025107Y-108053213D01*
X154954841Y-108168001D01*
X154946907Y-108181998D01*
X154896460Y-108262817D01*
X154853006Y-108319803D01*
X154825205Y-108341372D01*
X154810410Y-108329992D01*
X154778732Y-108279449D01*
X154739806Y-108199809D01*
X154699160Y-108103558D01*
X154662321Y-108003185D01*
X154634814Y-107911178D01*
X154633422Y-107880624D01*
X154656542Y-107796953D01*
X154709441Y-107685075D01*
X154787366Y-107551279D01*
X154885565Y-107401855D01*
X154999286Y-107243092D01*
X155123777Y-107081279D01*
X155254285Y-106922706D01*
X155386059Y-106773661D01*
X155514346Y-106640434D01*
X155634394Y-106529315D01*
X155741452Y-106446591D01*
X155767867Y-106428697D01*
X155853325Y-106369789D01*
X155957774Y-106296852D01*
X156064330Y-106221648D01*
X156089988Y-106203767D01*
X156224168Y-106117308D01*
X156371825Y-106030797D01*
X156505378Y-105960562D01*
X156627441Y-105897149D01*
X156758728Y-105816796D01*
X156860868Y-105739715D01*
X156927104Y-105671129D01*
X156950684Y-105616261D01*
X156941665Y-105587170D01*
X156903584Y-105526650D01*
X156845837Y-105458441D01*
X156758036Y-105340890D01*
X156717895Y-105214276D01*
X156724543Y-105071103D01*
X156733107Y-105029262D01*
X156760557Y-104938171D01*
X156802511Y-104861993D01*
X156867121Y-104790973D01*
X156962537Y-104715356D01*
X157096908Y-104625386D01*
X157200396Y-104560502D01*
X157311074Y-104494208D01*
X157403818Y-104441856D01*
X157465523Y-104411063D01*
X157525974Y-104393896D01*
X157632497Y-104375061D01*
X157769582Y-104357937D01*
X157925527Y-104344223D01*
X158063961Y-104333485D01*
X158219508Y-104317490D01*
X158360182Y-104296628D01*
X158502254Y-104267942D01*
X158661997Y-104228477D01*
X158855684Y-104175278D01*
X159035152Y-104132024D01*
X159268701Y-104096403D01*
X159491889Y-104084404D01*
X159692646Y-104096531D01*
G37*
D13*
%TO.C,U5*%
X151500000Y-102300000D02*
X148500000Y-102300000D01*
X151500000Y-97700000D02*
X148500000Y-97700000D01*
D14*
X152080000Y-97600000D02*
G75*
G02*
X151920000Y-97600000I-80000J0D01*
G01*
X151920000Y-97600000D02*
G75*
G02*
X152080000Y-97600000I80000J0D01*
G01*
%TO.C,TP6*%
D13*
X159400000Y-86900000D02*
X155600000Y-86900000D01*
X155600000Y-89100000D01*
X159400000Y-89100000D01*
X159400000Y-86900000D01*
%TO.C,TP4*%
X150900000Y-89900000D02*
X147100000Y-89900000D01*
X147100000Y-92100000D01*
X150900000Y-92100000D01*
X150900000Y-89900000D01*
%TO.C,TP3*%
X150900000Y-83900000D02*
X147100000Y-83900000D01*
X147100000Y-86100000D01*
X150900000Y-86100000D01*
X150900000Y-83900000D01*
%TO.C,C16*%
X151761252Y-104065000D02*
X151238748Y-104065000D01*
X151761252Y-105535000D02*
X151238748Y-105535000D01*
%TO.C,C17*%
X154079454Y-100472056D02*
X154079454Y-100703726D01*
X154799454Y-100472056D02*
X154799454Y-100703726D01*
%TO.C,TP2*%
X150900000Y-86900000D02*
X147100000Y-86900000D01*
X147100000Y-89100000D01*
X150900000Y-89100000D01*
X150900000Y-86900000D01*
%TO.C,C15*%
X145740000Y-99884165D02*
X145740000Y-100115835D01*
X146460000Y-99884165D02*
X146460000Y-100115835D01*
%TO.C,TP5*%
X159400000Y-89900000D02*
X155600000Y-89900000D01*
X155600000Y-92100000D01*
X159400000Y-92100000D01*
X159400000Y-89900000D01*
%TO.C,TP1*%
X157900000Y-83900000D02*
X154100000Y-83900000D01*
X154100000Y-86100000D01*
X157900000Y-86100000D01*
X157900000Y-83900000D01*
%TD*%
%LPC*%
D15*
%TO.C,J3*%
X139000000Y-106260000D03*
X140016000Y-111340000D03*
X137984000Y-111340000D03*
%TD*%
D16*
%TO.C,BT1*%
X144400000Y-85232500D03*
D17*
X143130000Y-85232500D03*
%TD*%
D18*
%TO.C,SW2*%
X167762715Y-102869713D03*
D19*
X166818026Y-106395342D03*
%TD*%
D20*
%TO.C,J1*%
X135000000Y-97500000D03*
X135000000Y-102500000D03*
D21*
X137200000Y-97450000D03*
X137200000Y-102550000D03*
%TD*%
D22*
%TO.C,SW1*%
X166818026Y-93604658D03*
D23*
X167762715Y-97130287D03*
%TD*%
D24*
%TO.C,U5*%
X151460000Y-98200000D03*
X151460000Y-98800000D03*
X151460000Y-99400000D03*
X151460000Y-100000000D03*
X151460000Y-100600000D03*
X151460000Y-101200000D03*
X151460000Y-101800000D03*
X148540000Y-101800000D03*
X148540000Y-101200000D03*
X148540000Y-100600000D03*
X148540000Y-100000000D03*
X148540000Y-99400000D03*
X148540000Y-98800000D03*
X148540000Y-98200000D03*
%TD*%
D25*
%TO.C,TP6*%
X157500000Y-88000000D03*
%TD*%
%TO.C,TP4*%
X149000000Y-91000000D03*
%TD*%
%TO.C,TP3*%
X149000000Y-85000000D03*
%TD*%
D26*
%TO.C,C16*%
X152537500Y-104800000D03*
X150462500Y-104800000D03*
%TD*%
D27*
%TO.C,C17*%
X154439454Y-100020391D03*
X154439454Y-101155391D03*
%TD*%
D25*
%TO.C,TP2*%
X149000000Y-88000000D03*
%TD*%
D27*
%TO.C,C15*%
X146100000Y-99432500D03*
X146100000Y-100567500D03*
%TD*%
D25*
%TO.C,TP5*%
X157500000Y-91000000D03*
%TD*%
%TO.C,TP1*%
X156000000Y-85000000D03*
%TD*%
%LPD*%
M02*
